<svg width="474" height="474" viewBox="0 0 474 474" fill="none" xmlns="http://www.w3.org/2000/svg">
<g clip-path="url(#clip0_172_203)">
<rect width="474" height="474" rx="64" fill="#1B1B1B"/>
<rect width="474" height="237" rx="60.8513" fill="#FF6B00"/>
<path d="M69.2875 173V163.692L107.42 123.909C112.324 118.804 116.052 114.601 118.604 111.298C121.206 107.945 122.983 104.943 123.934 102.29C124.934 99.6381 125.435 96.8107 125.435 93.8082V93.658C125.435 89.9549 124.559 86.6772 122.808 83.8247C121.106 80.9723 118.729 78.7455 115.677 77.1441C112.674 75.4927 109.196 74.667 105.243 74.667C100.739 74.667 96.7106 75.6178 93.1576 77.5194C89.6046 79.371 86.8022 81.8731 84.7505 85.0258C82.6988 88.1784 81.6729 91.7064 81.6729 95.6097V95.985H68.6119V95.5346C68.6119 89.2793 70.2383 83.6996 73.491 78.7955C76.7438 73.8413 81.1225 69.963 86.6271 67.1607C92.1818 64.3083 98.312 62.8821 105.018 62.8821C111.573 62.8821 117.403 64.2082 122.507 66.8604C127.612 69.5127 131.615 73.1157 134.518 77.6695C137.47 82.2234 138.946 87.3277 138.946 92.9825V93.1326C138.946 97.0859 138.196 100.914 136.694 104.617C135.243 108.32 132.691 112.499 129.038 117.153C125.385 121.757 120.23 127.462 113.575 134.267L83.8498 164.743L87.8281 156.411V164.743L83.8498 160.99H140.748V173H69.2875ZM202.846 174.802C195.39 174.802 188.884 173.525 183.33 170.973C177.775 168.421 173.371 164.918 170.119 160.464C166.916 156.011 165.064 150.931 164.564 145.227L164.489 144.326H177.475L177.55 145.076C177.95 148.629 179.226 151.757 181.378 154.459C183.58 157.162 186.507 159.288 190.16 160.84C193.814 162.341 198.042 163.092 202.846 163.092C207.6 163.092 211.754 162.266 215.307 160.615C218.91 158.963 221.712 156.686 223.714 153.784C225.715 150.831 226.716 147.453 226.716 143.65V143.5C226.716 136.844 224.489 131.74 220.036 128.187C215.632 124.584 209.627 122.783 202.02 122.783L188.434 122.783V111.373L201.42 111.373C205.724 111.373 209.527 110.572 212.83 108.971C216.132 107.32 218.71 105.093 220.561 102.29C222.413 99.4379 223.338 96.2102 223.338 92.6072V92.457C223.338 88.6538 222.538 85.4261 220.936 82.7739C219.335 80.1216 216.983 78.0949 213.88 76.6937C210.828 75.2925 207.1 74.592 202.696 74.592C198.442 74.592 194.639 75.3176 191.286 76.7688C187.984 78.17 185.331 80.1967 183.33 82.8489C181.328 85.5012 180.127 88.6538 179.727 92.3069L179.652 93.0575H166.666L166.741 92.3069C167.341 86.4019 169.193 81.2476 172.295 76.8439C175.448 72.4401 179.602 69.0122 184.756 66.5602C189.96 64.1081 195.94 62.8821 202.696 62.8821C209.602 62.8821 215.607 64.0831 220.711 66.4851C225.866 68.8371 229.844 72.1149 232.646 76.3184C235.499 80.4719 236.925 85.301 236.925 90.8056V90.9558C236.925 95.4095 235.949 99.3629 233.997 102.816C232.046 106.269 229.344 109.146 225.891 111.448C222.438 113.75 218.459 115.376 213.956 116.327V116.627C221.862 117.278 228.243 119.955 233.097 124.659C238.001 129.313 240.453 135.493 240.453 143.2V143.35C240.453 149.355 238.827 154.735 235.574 159.489C232.321 164.243 227.867 167.996 222.213 170.748C216.558 173.45 210.102 174.802 202.846 174.802ZM284.338 174.802C276.031 174.802 268.9 172.525 262.945 167.971C257.04 163.417 252.511 156.961 249.358 148.604C246.206 140.247 244.629 130.339 244.629 118.879V118.729C244.629 107.27 246.206 97.3612 249.358 89.0041C252.511 80.6471 257.04 74.2166 262.945 69.7128C268.9 65.159 276.031 62.8821 284.338 62.8821C292.645 62.8821 299.776 65.159 305.731 69.7128C311.686 74.2166 316.24 80.6471 319.393 89.0041C322.595 97.3612 324.197 107.27 324.197 118.729V118.879C324.197 130.339 322.595 140.247 319.393 148.604C316.24 156.961 311.686 163.417 305.731 167.971C299.776 172.525 292.645 174.802 284.338 174.802ZM284.338 163.017C289.843 163.017 294.547 161.24 298.45 157.687C302.403 154.084 305.406 148.98 307.457 142.374C309.559 135.769 310.61 127.937 310.61 118.879V118.729C310.61 109.672 309.559 101.865 307.457 95.3094C305.406 88.7039 302.403 83.6246 298.45 80.0716C294.547 76.5186 289.843 74.7421 284.338 74.7421C278.833 74.7421 274.129 76.5186 270.226 80.0716C266.323 83.6246 263.345 88.7039 261.294 95.3094C259.242 101.865 258.216 109.672 258.216 118.729V118.879C258.216 127.937 259.242 135.769 261.294 142.374C263.345 148.98 266.323 154.084 270.226 157.687C274.129 161.24 278.833 163.017 284.338 163.017ZM366.806 174.802C358.499 174.802 351.368 172.525 345.413 167.971C339.508 163.417 334.979 156.961 331.826 148.604C328.673 140.247 327.097 130.339 327.097 118.879V118.729C327.097 107.27 328.673 97.3612 331.826 89.0041C334.979 80.6471 339.508 74.2166 345.413 69.7128C351.368 65.159 358.499 62.8821 366.806 62.8821C375.113 62.8821 382.244 65.159 388.199 69.7128C394.154 74.2166 398.707 80.6471 401.86 89.0041C405.063 97.3612 406.664 107.27 406.664 118.729V118.879C406.664 130.339 405.063 140.247 401.86 148.604C398.707 156.961 394.154 163.417 388.199 167.971C382.244 172.525 375.113 174.802 366.806 174.802ZM366.806 163.017C372.31 163.017 377.014 161.24 380.917 157.687C384.871 154.084 387.873 148.98 389.925 142.374C392.027 135.769 393.078 127.937 393.078 118.879V118.729C393.078 109.672 392.027 101.865 389.925 95.3094C387.873 88.7039 384.871 83.6246 380.917 80.0716C377.014 76.5186 372.31 74.7421 366.806 74.7421C361.301 74.7421 356.597 76.5186 352.694 80.0716C348.79 83.6246 345.813 88.7039 343.761 95.3094C341.709 101.865 340.684 109.672 340.684 118.729V118.879C340.684 127.937 341.709 135.769 343.761 142.374C345.813 148.98 348.79 154.084 352.694 157.687C356.597 161.24 361.301 163.017 366.806 163.017Z" fill="#D8D8D8"/>
<rect y="237" width="474" height="237" rx="60.8513" fill="#383838"/>
<path opacity="0.3" d="M53.5992 382.814L38.3238 450.109H32.0936L47.369 382.814H53.5992ZM76.7668 436.973V389.983H76.6166L62.2795 399.966V393.173L76.6917 382.814H83.2973V436.973H76.7668ZM110.532 437.873C106.378 437.873 102.813 436.735 99.8352 434.458C96.8827 432.181 94.6183 428.953 93.042 424.775C91.4657 420.596 90.6775 415.642 90.6775 409.912V409.837C90.6775 404.107 91.4657 399.153 93.042 394.975C94.6183 390.796 96.8827 387.581 99.8352 385.329C102.813 383.052 106.378 381.914 110.532 381.914C114.685 381.914 118.251 383.052 121.228 385.329C124.206 387.581 126.483 390.796 128.059 394.975C129.66 399.153 130.461 404.107 130.461 409.837V409.912C130.461 415.642 129.66 420.596 128.059 424.775C126.483 428.953 124.206 432.181 121.228 434.458C118.251 436.735 114.685 437.873 110.532 437.873ZM110.532 431.981C113.284 431.981 115.636 431.093 117.588 429.316C119.564 427.515 121.066 424.963 122.092 421.66C123.142 418.357 123.668 414.441 123.668 409.912V409.837C123.668 405.308 123.142 401.405 122.092 398.127C121.066 394.825 119.564 392.285 117.588 390.508C115.636 388.732 113.284 387.844 110.532 387.844C107.779 387.844 105.427 388.732 103.476 390.508C101.524 392.285 100.035 394.825 99.0095 398.127C97.9837 401.405 97.4707 405.308 97.4707 409.837V409.912C97.4707 414.441 97.9837 418.357 99.0095 421.66C100.035 424.963 101.524 427.515 103.476 429.316C105.427 431.093 107.779 431.981 110.532 431.981ZM162.148 437.873C157.995 437.873 154.429 436.735 151.452 434.458C148.499 432.181 146.235 428.953 144.659 424.775C143.082 420.596 142.294 415.642 142.294 409.912V409.837C142.294 404.107 143.082 399.153 144.659 394.975C146.235 390.796 148.499 387.581 151.452 385.329C154.429 383.052 157.995 381.914 162.148 381.914C166.302 381.914 169.867 383.052 172.845 385.329C175.822 387.581 178.099 390.796 179.676 394.975C181.277 399.153 182.078 404.107 182.078 409.837V409.912C182.078 415.642 181.277 420.596 179.676 424.775C178.099 428.953 175.822 432.181 172.845 434.458C169.867 436.735 166.302 437.873 162.148 437.873ZM162.148 431.981C164.901 431.981 167.253 431.093 169.204 429.316C171.181 427.515 172.682 424.963 173.708 421.66C174.759 418.357 175.284 414.441 175.284 409.912V409.837C175.284 405.308 174.759 401.405 173.708 398.127C172.682 394.825 171.181 392.285 169.204 390.508C167.253 388.732 164.901 387.844 162.148 387.844C159.396 387.844 157.044 388.732 155.092 390.508C153.141 392.285 151.652 394.825 150.626 398.127C149.6 401.405 149.087 405.308 149.087 409.837V409.912C149.087 414.441 149.6 418.357 150.626 421.66C151.652 424.963 153.141 427.515 155.092 429.316C157.044 431.093 159.396 431.981 162.148 431.981ZM203.382 437.873C199.229 437.873 195.663 436.735 192.686 434.458C189.733 432.181 187.469 428.953 185.892 424.775C184.316 420.596 183.528 415.642 183.528 409.912V409.837C183.528 404.107 184.316 399.153 185.892 394.975C187.469 390.796 189.733 387.581 192.686 385.329C195.663 383.052 199.229 381.914 203.382 381.914C207.536 381.914 211.101 383.052 214.079 385.329C217.056 387.581 219.333 390.796 220.909 394.975C222.511 399.153 223.311 404.107 223.311 409.837V409.912C223.311 415.642 222.511 420.596 220.909 424.775C219.333 428.953 217.056 432.181 214.079 434.458C211.101 436.735 207.536 437.873 203.382 437.873ZM203.382 431.981C206.134 431.981 208.486 431.093 210.438 429.316C212.415 427.515 213.916 424.963 214.942 421.66C215.993 418.357 216.518 414.441 216.518 409.912V409.837C216.518 405.308 215.993 401.405 214.942 398.127C213.916 394.825 212.415 392.285 210.438 390.508C208.486 388.732 206.134 387.844 203.382 387.844C200.63 387.844 198.278 388.732 196.326 390.508C194.375 392.285 192.886 394.825 191.86 398.127C190.834 401.405 190.321 405.308 190.321 409.837V409.912C190.321 414.441 190.834 418.357 191.86 421.66C192.886 424.963 194.375 427.515 196.326 429.316C198.278 431.093 200.63 431.981 203.382 431.981ZM244.616 437.873C240.462 437.873 236.897 436.735 233.919 434.458C230.967 432.181 228.702 428.953 227.126 424.775C225.55 420.596 224.762 415.642 224.762 409.912V409.837C224.762 404.107 225.55 399.153 227.126 394.975C228.702 390.796 230.967 387.581 233.919 385.329C236.897 383.052 240.462 381.914 244.616 381.914C248.769 381.914 252.335 383.052 255.312 385.329C258.29 387.581 260.567 390.796 262.143 394.975C263.745 399.153 264.545 404.107 264.545 409.837V409.912C264.545 415.642 263.745 420.596 262.143 424.775C260.567 428.953 258.29 432.181 255.312 434.458C252.335 436.735 248.769 437.873 244.616 437.873ZM244.616 431.981C247.368 431.981 249.72 431.093 251.672 429.316C253.649 427.515 255.15 424.963 256.176 421.66C257.227 418.357 257.752 414.441 257.752 409.912V409.837C257.752 405.308 257.227 401.405 256.176 398.127C255.15 394.825 253.649 392.285 251.672 390.508C249.72 388.732 247.368 387.844 244.616 387.844C241.864 387.844 239.512 388.732 237.56 390.508C235.608 392.285 234.12 394.825 233.094 398.127C232.068 401.405 231.555 405.308 231.555 409.837V409.912C231.555 414.441 232.068 418.357 233.094 421.66C234.12 424.963 235.608 427.515 237.56 429.316C239.512 431.093 241.864 431.981 244.616 431.981Z" fill="#D8D8D8"/>
</g>
<defs>
<clipPath id="clip0_172_203">
<rect width="474" height="474" rx="64" fill="white"/>
</clipPath>
</defs>
</svg>
