<svg width="474" height="474" viewBox="0 0 474 474" fill="none" xmlns="http://www.w3.org/2000/svg">
<g clip-path="url(#clip0_172_88)">
<rect width="474" height="474" rx="64" fill="#BEFF04"/>
<rect x="138.026" y="164.451" width="197.946" height="145.521" fill="#FF9E2C"/>
<path d="M215.043 286.305V301.152H146.814C146.642 295.145 148.444 288.422 152.22 280.984C156.054 273.546 163.034 264.763 173.161 254.636C185.005 242.85 192.757 233.753 196.419 227.345C200.081 220.879 201.912 214.872 201.912 209.322C201.912 202.914 200.024 197.707 196.248 193.702C192.529 189.64 187.923 187.609 182.43 187.609C176.537 187.609 171.702 189.783 167.926 194.131C164.15 198.48 162.262 204.716 162.262 212.841L149.217 211.21C150.132 199.138 153.536 190.069 159.43 184.004C165.38 177.882 173.19 174.821 182.859 174.821C193.387 174.821 201.34 178.369 206.718 185.463C212.153 192.558 214.871 200.625 214.871 209.665C214.871 217.675 212.754 225.371 208.52 232.752C204.286 240.075 196.248 249.859 184.404 262.103C176.852 269.827 171.96 275.091 169.728 277.894C167.554 280.698 165.78 283.501 164.407 286.305H215.043ZM215.65 303.298L245.517 173.191H255.73L225.777 303.298H215.65ZM255.393 191.814V176.967H322.163V188.982C312.208 201.913 303.454 218.762 295.902 239.532C288.349 260.243 284.001 280.784 282.856 301.152H269.811C269.983 290.625 271.642 278.352 274.789 264.334C277.993 250.317 282.37 236.957 287.92 224.255C293.47 211.553 299.449 200.74 305.857 191.814H255.393Z" fill="#5FAD22"/>
<rect x="67.165" y="19.166" width="339.669" height="145.521" fill="#2DD4F9"/>
<path d="M75.7736 93.8427C75.7736 72.7303 78.6057 56.7386 84.27 45.8677C89.9915 34.9969 98.4022 29.5614 109.502 29.5614C119.343 29.5614 127.096 33.967 132.76 42.7781C139.626 53.4201 143.059 70.4417 143.059 93.8427C143.059 114.841 140.226 130.804 134.562 141.732C128.898 152.603 120.487 158.038 109.33 158.038C99.4893 158.038 91.4219 153.232 85.1283 143.62C78.8918 134.008 75.7736 117.415 75.7736 93.8427ZM88.7328 93.8427C88.7328 114.269 90.6781 127.972 94.5688 134.952C98.5166 141.875 103.552 145.336 109.674 145.336C115.452 145.336 120.287 141.818 124.178 134.78C128.068 127.743 130.014 114.097 130.014 93.8427C130.014 73.3596 128.04 59.6566 124.092 52.7336C120.201 45.8105 115.138 42.349 108.901 42.349C103.18 42.349 98.3736 45.8677 94.4829 52.9052C90.6495 59.9427 88.7328 73.5885 88.7328 93.8427ZM149.76 46.5543V31.707H216.53V43.7222C206.574 56.6528 197.82 73.5027 190.268 94.2718C182.716 114.984 178.367 135.524 177.223 155.893H164.178C164.35 145.365 166.009 133.092 169.156 119.075C172.36 105.057 176.737 91.6971 182.287 78.9953C187.836 66.2936 193.815 55.4799 200.224 46.5543H149.76ZM229.582 82.3424V64.7488H244V82.3424H229.582ZM229.582 155.893V138.299H244V155.893H229.582ZM321.934 141.045V155.893H253.705C253.533 149.885 255.335 143.162 259.112 135.724C262.945 128.286 269.925 119.504 280.052 109.377C291.896 97.5903 299.649 88.4931 303.31 82.085C306.972 75.6196 308.803 69.6121 308.803 64.0622C308.803 57.6541 306.915 52.4475 303.139 48.4424C299.42 44.3801 294.814 42.349 289.321 42.349C283.428 42.349 278.593 44.5232 274.817 48.8715C271.041 53.2199 269.153 59.4564 269.153 67.5809L256.108 65.9503C257.023 53.8779 260.428 44.8093 266.321 38.7444C272.271 32.6224 280.081 29.5614 289.75 29.5614C300.278 29.5614 308.231 33.1088 313.609 40.2034C319.045 47.2981 321.762 55.3655 321.762 64.4055C321.762 72.4156 319.645 80.111 315.411 87.4918C311.178 94.8153 303.139 104.599 291.295 116.843C283.743 124.567 278.851 129.831 276.62 132.635C274.445 135.438 272.672 138.242 271.299 141.045H321.934ZM347.774 87.6634C342.681 85.3748 338.819 82.1136 336.187 77.8796C333.613 73.5885 332.325 68.2675 332.325 61.9166C332.325 52.3617 335.129 44.5804 340.736 38.5728C346.4 32.5652 353.495 29.5614 362.02 29.5614C370.602 29.5614 377.726 32.6224 383.39 38.7444C389.111 44.8665 391.972 52.7622 391.972 62.4315C391.972 68.4964 390.714 73.6457 388.196 77.8796C385.679 82.0564 381.874 85.3176 376.782 87.6634C383.018 90.1237 387.796 94.1002 391.114 99.5928C394.49 105.085 396.178 111.894 396.178 120.019C396.178 131.233 392.916 140.387 386.394 147.482C379.928 154.519 371.89 158.038 362.278 158.038C352.551 158.038 344.426 154.519 337.904 147.482C331.439 140.387 328.206 131.09 328.206 119.59C328.206 111.179 329.922 104.256 333.355 98.8204C336.845 93.3278 341.651 89.6088 347.774 87.6634ZM345.37 61.4875C345.37 67.6667 347.001 72.5872 350.262 76.249C353.524 79.9108 357.529 81.7417 362.278 81.7417C366.912 81.7417 370.86 79.9394 374.121 76.3348C377.382 72.7303 379.013 68.0672 379.013 62.3457C379.013 56.4526 377.325 51.6465 373.949 47.9275C370.631 44.1513 366.683 42.2632 362.106 42.2632C357.529 42.2632 353.581 44.0941 350.262 47.7558C347.001 51.4176 345.37 55.9948 345.37 61.4875ZM341.165 119.59C341.165 127.314 343.225 133.55 347.344 138.299C351.521 142.991 356.499 145.336 362.278 145.336C368.114 145.336 373.063 143.048 377.125 138.471C381.187 133.893 383.218 127.771 383.218 120.104C383.218 112.38 381.13 106.173 376.953 101.481C372.777 96.7321 367.77 94.3576 361.934 94.3576C356.156 94.3576 351.235 96.7034 347.173 101.395C343.168 106.087 341.165 112.152 341.165 119.59Z" fill="#FFE55C"/>
<rect x="84.9678" y="309.648" width="304.062" height="145.521" fill="#FF589E"/>
<path d="M156.89 351.332L144.274 352.534C143.072 346.068 141.299 341.462 138.953 338.716C135.577 334.711 131.515 332.708 126.766 332.708C119.385 332.708 113.463 337.286 109.001 346.44C105.167 354.336 103.222 366.008 103.165 381.456C106.083 375.963 109.744 371.815 114.15 369.012C118.556 366.151 123.219 364.72 128.139 364.72C136.321 364.72 143.444 368.439 149.509 375.877C155.631 383.258 158.692 393.156 158.692 405.572C158.692 413.983 157.147 421.621 154.058 428.487C151.025 435.295 147.106 440.33 142.3 443.592C137.494 446.853 132.201 448.483 126.423 448.483C116.01 448.483 107.427 443.792 100.676 434.409C93.9245 425.025 90.5488 409.377 90.5488 387.463C90.5488 363.147 94.0103 345.839 100.933 335.541C107.856 325.185 116.725 320.007 127.538 320.007C135.377 320.007 141.928 322.696 147.192 328.074C152.513 333.395 155.746 341.148 156.89 351.332ZM105.139 405.572C105.139 414.669 107.284 421.993 111.575 427.543C115.867 433.035 120.844 435.782 126.509 435.782C131.486 435.782 135.92 433.178 139.811 427.972C143.759 422.765 145.733 415.613 145.733 406.516C145.733 397.591 143.788 390.667 139.897 385.747C136.006 380.826 131.257 378.366 125.65 378.366C120.158 378.366 115.352 380.826 111.232 385.747C107.17 390.61 105.139 397.219 105.139 405.572ZM166.166 417.244L178.352 415.871C180.298 429.145 186.019 435.782 195.517 435.782C199.751 435.782 203.584 434.351 207.017 431.491C210.507 428.573 213.454 423.423 215.857 416.042C218.26 408.662 219.462 400.051 219.462 390.21V387.12C216.83 392.212 213.282 396.246 208.819 399.221C204.357 402.196 199.808 403.684 195.174 403.684C186.763 403.684 179.497 400.022 173.375 392.699C167.31 385.318 164.277 375.248 164.277 362.489C164.277 349.33 167.424 338.974 173.718 331.421C180.069 323.812 187.764 320.007 196.804 320.007C203.212 320.007 209.191 322.124 214.741 326.358C220.291 330.592 224.582 336.828 227.615 345.067C230.647 353.306 232.163 365.178 232.163 380.683C232.163 397.962 230.533 411.379 227.271 420.934C224.01 430.489 219.576 437.47 213.969 441.875C208.419 446.281 202.183 448.483 195.259 448.483C187.421 448.483 180.87 445.823 175.606 440.502C170.342 435.124 167.195 427.371 166.166 417.244ZM218.088 361.717C218.088 352.734 216.086 345.668 212.081 340.518C208.076 335.369 203.47 332.794 198.263 332.794C192.828 332.794 187.965 335.541 183.673 341.033C179.439 346.526 177.323 353.85 177.323 363.004C177.323 371.243 179.354 377.823 183.416 382.743C187.478 387.606 192.341 390.038 198.006 390.038C203.613 390.038 208.362 387.578 212.252 382.657C216.143 377.737 218.088 370.757 218.088 361.717ZM237.405 413.382L250.708 412.009C251.738 420.019 254.055 425.998 257.66 429.946C261.321 433.836 265.555 435.782 270.361 435.782C276.369 435.782 281.547 433.035 285.895 427.543C290.244 421.993 292.418 414.44 292.418 404.885C292.418 395.903 290.301 388.951 286.067 384.031C281.89 379.053 276.626 376.564 270.275 376.564C266.442 376.564 262.837 377.651 259.462 379.825C256.143 381.942 253.511 384.917 251.566 388.751L239.637 386.863L249.678 322.238H300.914V337H259.805L254.227 370.814C260.349 365.55 266.843 362.918 273.708 362.918C282.348 362.918 289.843 366.609 296.194 373.989C302.602 381.313 305.806 391.211 305.806 403.684C305.806 415.985 302.602 426.541 296.194 435.353C289.843 444.106 281.289 448.483 270.533 448.483C261.607 448.483 254.055 445.394 247.876 439.215C241.754 432.978 238.264 424.367 237.405 413.382ZM351.127 446.338V416.214H306.414V402.053L353.53 320.522H363.829V402.053H377.818V416.214H363.829V446.338H351.127ZM351.127 402.053V345.324L318.858 402.053H351.127Z" fill="#C6C6C6"/>
</g>
<defs>
<clipPath id="clip0_172_88">
<rect width="474" height="474" rx="64" fill="white"/>
</clipPath>
</defs>
</svg>
