<svg width="474" height="474" viewBox="0 0 474 474" fill="none" xmlns="http://www.w3.org/2000/svg">
<g clip-path="url(#clip0_172_196)">
<rect width="474" height="474" rx="64" fill="#DBDBDB"/>
<g filter="url(#filter0_ii_172_196)">
<rect x="14.3809" y="301.055" width="307.865" height="149.608" rx="74.8041" transform="rotate(4.28547 14.3809 301.055)" fill="#FF8888"/>
<mask id="path-3-outside-1_172_196" maskUnits="userSpaceOnUse" x="50.794" y="327.385" width="228.553" height="112.321" fill="black">
<rect fill="white" x="50.794" y="327.385" width="228.553" height="112.321"/>
<path d="M81.1055 420.374L72.3352 419.716L77.4286 351.746C75.2361 353.966 72.3479 356.192 68.7639 358.427C65.1828 360.622 61.9227 362.244 58.9836 363.295L59.7562 352.984C64.7832 350.58 69.2832 347.521 73.2562 343.806C77.2688 340.094 80.1678 336.398 81.9532 332.718L87.6421 333.144L81.1055 420.374ZM145.523 414.891L144.754 425.143L97.6435 421.613C97.8359 417.456 99.4281 412.907 102.42 407.967C105.452 403.029 110.726 397.326 118.243 390.858C127.03 383.332 132.854 377.452 135.714 373.217C138.577 368.942 140.152 364.889 140.439 361.057C140.771 356.632 139.737 352.939 137.336 349.978C134.979 346.981 131.904 345.34 128.111 345.056C124.042 344.751 120.591 346.002 117.759 348.809C114.926 351.616 113.3 355.825 112.88 361.435L103.957 359.634C105.213 351.345 108.033 345.26 112.416 341.377C116.841 337.458 122.392 335.748 129.069 336.249C136.338 336.793 141.646 339.654 144.992 344.831C148.378 350.011 149.837 355.722 149.37 361.964C148.955 367.495 147.095 372.699 143.79 377.576C140.488 382.414 134.431 388.753 125.619 396.595C120.005 401.538 116.355 404.919 114.669 406.739C113.023 408.563 111.653 410.407 110.56 412.271L145.523 414.891ZM158.165 375.078L159.075 362.93L169.031 363.676L168.12 375.824L158.165 375.078ZM154.359 425.863L155.269 413.715L165.225 414.461L164.315 426.609L154.359 425.863ZM173.801 404.258L182.678 403.493C183.642 415.007 187.819 421.04 195.206 421.594C199.196 421.893 202.779 420.473 205.954 417.334C209.132 414.156 210.922 409.88 211.325 404.507C211.704 399.45 210.666 395.281 208.21 391.998C205.755 388.715 202.571 386.927 198.66 386.634C197.001 386.51 194.917 386.751 192.408 387.357L194.117 378.07L195.472 378.291C199.778 378.613 203.373 377.552 206.258 375.106C209.143 372.661 210.751 369.226 211.082 364.801C211.387 360.732 210.506 357.388 208.437 354.77C206.372 352.112 203.72 350.662 200.48 350.419C197.122 350.168 194.18 351.258 191.654 353.691C189.17 356.087 187.415 359.889 186.389 365.096L177.82 362.547C179.483 355.202 182.392 349.779 186.548 346.277C190.704 342.774 195.527 341.229 201.019 341.64C206.787 342.072 211.526 344.573 215.235 349.141C218.945 353.71 220.558 359.234 220.072 365.713C219.776 369.663 218.645 373.095 216.679 376.006C214.752 378.921 212.183 381.132 208.971 382.639C211.756 383.643 214.009 385.122 215.73 387.079C217.45 389.035 218.769 391.577 219.687 394.705C220.605 397.833 220.923 401.273 220.642 405.027C220.044 413.007 217.203 419.369 212.12 424.113C207.04 428.817 201.221 430.924 194.663 430.432C188.579 429.977 183.589 427.378 179.694 422.636C175.798 417.895 173.834 411.769 173.801 404.258ZM269.388 424.173L268.62 434.425L221.509 430.895C221.701 426.738 223.294 422.189 226.286 417.249C229.318 412.311 234.592 406.608 242.108 400.14C250.896 392.614 256.72 386.734 259.58 382.499C262.443 378.224 264.018 374.171 264.305 370.338C264.636 365.914 263.602 362.221 261.202 359.26C258.844 356.263 255.769 354.622 251.976 354.338C247.907 354.033 244.457 355.284 241.624 358.091C238.792 360.898 237.165 365.107 236.745 370.717L227.822 368.916C229.079 360.627 231.899 354.542 236.282 350.659C240.707 346.74 246.258 345.03 252.934 345.531C260.204 346.075 265.511 348.936 268.858 354.113C272.244 359.293 273.703 365.004 273.235 371.246C272.821 376.777 270.961 381.981 267.655 386.858C264.353 391.696 258.296 398.035 249.485 405.877C243.871 410.819 240.22 414.201 238.535 416.021C236.888 417.844 235.519 419.689 234.425 421.553L269.388 424.173Z"/>
</mask>
<path d="M81.1055 420.374L72.3352 419.716L77.4286 351.746C75.2361 353.966 72.3479 356.192 68.7639 358.427C65.1828 360.622 61.9227 362.244 58.9836 363.295L59.7562 352.984C64.7832 350.58 69.2832 347.521 73.2562 343.806C77.2688 340.094 80.1678 336.398 81.9532 332.718L87.6421 333.144L81.1055 420.374ZM145.523 414.891L144.754 425.143L97.6435 421.613C97.8359 417.456 99.4281 412.907 102.42 407.967C105.452 403.029 110.726 397.326 118.243 390.858C127.03 383.332 132.854 377.452 135.714 373.217C138.577 368.942 140.152 364.889 140.439 361.057C140.771 356.632 139.737 352.939 137.336 349.978C134.979 346.981 131.904 345.34 128.111 345.056C124.042 344.751 120.591 346.002 117.759 348.809C114.926 351.616 113.3 355.825 112.88 361.435L103.957 359.634C105.213 351.345 108.033 345.26 112.416 341.377C116.841 337.458 122.392 335.748 129.069 336.249C136.338 336.793 141.646 339.654 144.992 344.831C148.378 350.011 149.837 355.722 149.37 361.964C148.955 367.495 147.095 372.699 143.79 377.576C140.488 382.414 134.431 388.753 125.619 396.595C120.005 401.538 116.355 404.919 114.669 406.739C113.023 408.563 111.653 410.407 110.56 412.271L145.523 414.891ZM158.165 375.078L159.075 362.93L169.031 363.676L168.12 375.824L158.165 375.078ZM154.359 425.863L155.269 413.715L165.225 414.461L164.315 426.609L154.359 425.863ZM173.801 404.258L182.678 403.493C183.642 415.007 187.819 421.04 195.206 421.594C199.196 421.893 202.779 420.473 205.954 417.334C209.132 414.156 210.922 409.88 211.325 404.507C211.704 399.45 210.666 395.281 208.21 391.998C205.755 388.715 202.571 386.927 198.66 386.634C197.001 386.51 194.917 386.751 192.408 387.357L194.117 378.07L195.472 378.291C199.778 378.613 203.373 377.552 206.258 375.106C209.143 372.661 210.751 369.226 211.082 364.801C211.387 360.732 210.506 357.388 208.437 354.77C206.372 352.112 203.72 350.662 200.48 350.419C197.122 350.168 194.18 351.258 191.654 353.691C189.17 356.087 187.415 359.889 186.389 365.096L177.82 362.547C179.483 355.202 182.392 349.779 186.548 346.277C190.704 342.774 195.527 341.229 201.019 341.64C206.787 342.072 211.526 344.573 215.235 349.141C218.945 353.71 220.558 359.234 220.072 365.713C219.776 369.663 218.645 373.095 216.679 376.006C214.752 378.921 212.183 381.132 208.971 382.639C211.756 383.643 214.009 385.122 215.73 387.079C217.45 389.035 218.769 391.577 219.687 394.705C220.605 397.833 220.923 401.273 220.642 405.027C220.044 413.007 217.203 419.369 212.12 424.113C207.04 428.817 201.221 430.924 194.663 430.432C188.579 429.977 183.589 427.378 179.694 422.636C175.798 417.895 173.834 411.769 173.801 404.258ZM269.388 424.173L268.62 434.425L221.509 430.895C221.701 426.738 223.294 422.189 226.286 417.249C229.318 412.311 234.592 406.608 242.108 400.14C250.896 392.614 256.72 386.734 259.58 382.499C262.443 378.224 264.018 374.171 264.305 370.338C264.636 365.914 263.602 362.221 261.202 359.26C258.844 356.263 255.769 354.622 251.976 354.338C247.907 354.033 244.457 355.284 241.624 358.091C238.792 360.898 237.165 365.107 236.745 370.717L227.822 368.916C229.079 360.627 231.899 354.542 236.282 350.659C240.707 346.74 246.258 345.03 252.934 345.531C260.204 346.075 265.511 348.936 268.858 354.113C272.244 359.293 273.703 365.004 273.235 371.246C272.821 376.777 270.961 381.981 267.655 386.858C264.353 391.696 258.296 398.035 249.485 405.877C243.871 410.819 240.22 414.201 238.535 416.021C236.888 417.844 235.519 419.689 234.425 421.553L269.388 424.173Z" fill="#FAFF00"/>
<path d="M81.1055 420.374L80.8662 423.567L84.06 423.807L84.2993 420.613L81.1055 420.374ZM72.3352 419.716L69.1415 419.477L68.9021 422.671L72.0959 422.91L72.3352 419.716ZM77.4286 351.746L80.6223 351.986L81.2734 343.297L75.1501 349.495L77.4286 351.746ZM68.7639 358.427L70.4375 361.157L70.4479 361.151L70.4582 361.145L68.7639 358.427ZM58.9836 363.295L55.7898 363.056L55.4215 367.971L60.062 366.311L58.9836 363.295ZM59.7562 352.984L58.3744 350.095L56.7011 350.895L56.5625 352.745L59.7562 352.984ZM73.2562 343.806L71.0814 341.455L71.0751 341.461L71.0689 341.466L73.2562 343.806ZM81.9532 332.718L82.1926 329.524L80.0219 329.362L79.0717 331.32L81.9532 332.718ZM87.6421 333.144L90.8358 333.384L91.0752 330.19L87.8814 329.951L87.6421 333.144ZM81.1055 420.374L81.3449 417.18L72.5745 416.523L72.3352 419.716L72.0959 422.91L80.8662 423.567L81.1055 420.374ZM72.3352 419.716L75.529 419.956L80.6223 351.986L77.4286 351.746L74.2348 351.507L69.1415 419.477L72.3352 419.716ZM77.4286 351.746L75.1501 349.495C73.1829 351.487 70.5106 353.564 67.0696 355.709L68.7639 358.427L70.4582 361.145C74.1852 358.821 77.2894 356.444 79.707 353.997L77.4286 351.746ZM68.7639 358.427L67.0903 355.696C63.6373 357.812 60.5795 359.323 57.9051 360.28L58.9836 363.295L60.062 366.311C63.2659 365.165 66.7283 363.431 70.4375 361.157L68.7639 358.427ZM58.9836 363.295L62.1773 363.535L62.95 353.224L59.7562 352.984L56.5625 352.745L55.7898 363.056L58.9836 363.295ZM59.7562 352.984L61.1381 355.874C66.4527 353.332 71.2258 350.089 75.4436 346.145L73.2562 343.806L71.0689 341.466C67.3405 344.952 63.1136 347.829 58.3744 350.095L59.7562 352.984ZM73.2562 343.806L75.4311 346.157C79.6437 342.26 82.8274 338.253 84.8347 334.116L81.9532 332.718L79.0717 331.32C77.5082 334.543 74.8939 337.928 71.0814 341.455L73.2562 343.806ZM81.9532 332.718L81.7139 335.912L87.4028 336.338L87.6421 333.144L87.8814 329.951L82.1926 329.524L81.9532 332.718ZM87.6421 333.144L84.4483 332.905L77.9118 420.134L81.1055 420.374L84.2993 420.613L90.8358 333.384L87.6421 333.144ZM145.523 414.891L148.716 415.131L148.956 411.937L145.762 411.698L145.523 414.891ZM144.754 425.143L144.515 428.337L147.709 428.576L147.948 425.382L144.754 425.143ZM97.6435 421.613L94.4443 421.465L94.3004 424.574L97.4042 424.807L97.6435 421.613ZM102.42 407.967L99.6911 406.291L99.686 406.299L99.681 406.308L102.42 407.967ZM118.243 390.858L116.16 388.425L116.154 388.43L118.243 390.858ZM135.714 373.217L138.368 375.009L138.375 374.999L135.714 373.217ZM137.336 349.978L134.819 351.958L134.834 351.977L134.848 351.995L137.336 349.978ZM112.88 361.435L112.246 364.574L115.802 365.292L116.073 361.674L112.88 361.435ZM103.957 359.634L100.79 359.154L100.333 362.17L103.323 362.773L103.957 359.634ZM112.416 341.377L110.293 338.979L110.292 338.98L112.416 341.377ZM144.992 344.831L142.303 346.57L142.307 346.577L142.311 346.584L144.992 344.831ZM143.79 377.576L146.435 379.382L146.441 379.373L143.79 377.576ZM125.619 396.595L127.736 398.999L127.742 398.993L127.749 398.987L125.619 396.595ZM114.669 406.739L112.319 404.563L112.306 404.578L112.292 404.593L114.669 406.739ZM110.56 412.271L107.797 410.652L105.2 415.081L110.321 415.465L110.56 412.271ZM145.523 414.891L142.329 414.652L141.561 424.904L144.754 425.143L147.948 425.382L148.716 415.131L145.523 414.891ZM144.754 425.143L144.994 421.949L97.8829 418.419L97.6435 421.613L97.4042 424.807L144.515 428.337L144.754 425.143ZM97.6435 421.613L100.843 421.761C101.003 418.305 102.343 414.277 105.16 409.626L102.42 407.967L99.681 406.308C96.5136 411.537 94.669 416.607 94.4443 421.465L97.6435 421.613ZM102.42 407.967L105.15 409.643C107.928 405.118 112.915 399.668 120.332 393.285L118.243 390.858L116.154 388.43C108.538 394.984 102.977 400.94 99.6911 406.291L102.42 407.967ZM118.243 390.858L120.326 393.29C129.128 385.753 135.246 379.633 138.368 375.009L135.714 373.217L133.06 371.424C130.462 375.271 124.933 380.912 116.16 388.425L118.243 390.858ZM135.714 373.217L138.375 374.999C141.445 370.415 143.293 365.835 143.633 361.296L140.439 361.057L137.246 360.817C137.011 363.942 135.709 367.469 133.053 371.435L135.714 373.217ZM140.439 361.057L143.633 361.296C144.015 356.2 142.823 351.66 139.824 347.962L137.336 349.978L134.848 351.995C136.65 354.218 137.527 357.064 137.246 360.817L140.439 361.057ZM137.336 349.978L139.854 347.998C136.942 344.297 133.042 342.214 128.35 341.862L128.111 345.056L127.872 348.25C130.765 348.467 133.015 349.665 134.819 351.958L137.336 349.978ZM128.111 345.056L128.35 341.862C123.381 341.49 119.013 343.057 115.504 346.534L117.759 348.809L120.013 351.084C122.169 348.947 124.703 348.012 127.872 348.25L128.111 345.056ZM117.759 348.809L115.504 346.534C111.936 350.071 110.14 355.129 109.686 361.195L112.88 361.435L116.073 361.674C116.459 356.52 117.917 353.161 120.013 351.084L117.759 348.809ZM112.88 361.435L113.513 358.295L104.59 356.494L103.957 359.634L103.323 362.773L112.246 364.574L112.88 361.435ZM103.957 359.634L107.123 360.114C108.315 352.253 110.917 346.984 114.54 343.774L112.416 341.377L110.292 338.98C105.149 343.536 102.112 350.438 100.79 359.154L103.957 359.634ZM112.416 341.377L114.539 343.775C118.229 340.507 122.891 338.997 128.83 339.442L129.069 336.249L129.308 333.055C121.894 332.499 115.454 334.408 110.293 338.979L112.416 341.377ZM129.069 336.249L128.83 339.442C135.305 339.928 139.603 342.394 142.303 346.57L144.992 344.831L147.682 343.093C143.688 336.915 137.371 333.659 129.308 333.055L129.069 336.249ZM144.992 344.831L142.311 346.584C145.307 351.167 146.592 356.176 146.176 361.725L149.37 361.964L152.563 362.203C153.083 355.268 151.449 348.856 147.673 343.079L144.992 344.831ZM149.37 361.964L146.176 361.725C145.806 366.663 144.151 371.335 141.139 375.779L143.79 377.576L146.441 379.373C150.04 374.063 152.104 368.327 152.563 362.203L149.37 361.964ZM143.79 377.576L141.145 375.771C138.073 380.27 132.261 386.397 123.49 394.202L125.619 396.595L127.749 398.987C136.6 391.11 142.902 384.558 146.435 379.382L143.79 377.576ZM125.619 396.595L123.503 394.191C117.91 399.115 114.135 402.603 112.319 404.563L114.669 406.739L117.019 408.915C118.575 407.235 122.1 403.96 127.736 398.999L125.619 396.595ZM114.669 406.739L112.292 404.593C110.519 406.557 109.014 408.575 107.797 410.652L110.56 412.271L113.323 413.891C114.292 412.238 115.527 410.568 117.046 408.886L114.669 406.739ZM110.56 412.271L110.321 415.465L145.283 418.085L145.523 414.891L145.762 411.698L110.799 409.078L110.56 412.271ZM158.165 375.078L154.971 374.839L154.732 378.032L157.925 378.272L158.165 375.078ZM159.075 362.93L159.314 359.736L156.121 359.497L155.881 362.69L159.075 362.93ZM169.031 363.676L172.224 363.915L172.464 360.721L169.27 360.482L169.031 363.676ZM168.12 375.824L167.881 379.018L171.075 379.257L171.314 376.063L168.12 375.824ZM154.359 425.863L151.165 425.624L150.926 428.817L154.12 429.057L154.359 425.863ZM155.269 413.715L155.509 410.521L152.315 410.282L152.076 413.475L155.269 413.715ZM165.225 414.461L168.419 414.7L168.658 411.506L165.464 411.267L165.225 414.461ZM164.315 426.609L164.075 429.803L167.269 430.042L167.508 426.848L164.315 426.609ZM158.165 375.078L161.358 375.317L162.269 363.169L159.075 362.93L155.881 362.69L154.971 374.839L158.165 375.078ZM159.075 362.93L158.836 366.124L168.791 366.87L169.031 363.676L169.27 360.482L159.314 359.736L159.075 362.93ZM169.031 363.676L165.837 363.436L164.926 375.585L168.12 375.824L171.314 376.063L172.224 363.915L169.031 363.676ZM168.12 375.824L168.36 372.63L158.404 371.884L158.165 375.078L157.925 378.272L167.881 379.018L168.12 375.824ZM154.359 425.863L157.553 426.102L158.463 413.954L155.269 413.715L152.076 413.475L151.165 425.624L154.359 425.863ZM155.269 413.715L155.03 416.908L164.986 417.655L165.225 414.461L165.464 411.267L155.509 410.521L155.269 413.715ZM165.225 414.461L162.031 414.221L161.121 426.37L164.315 426.609L167.508 426.848L168.419 414.7L165.225 414.461ZM164.315 426.609L164.554 423.415L154.598 422.669L154.359 425.863L154.12 429.057L164.075 429.803L164.315 426.609ZM173.801 404.258L173.526 401.067L170.585 401.32L170.598 404.272L173.801 404.258ZM182.678 403.493L185.869 403.225L185.601 400.026L182.403 400.302L182.678 403.493ZM205.954 417.334L208.206 419.612L208.212 419.605L208.219 419.599L205.954 417.334ZM192.408 387.357L189.259 386.778L188.366 391.63L193.161 390.47L192.408 387.357ZM194.117 378.07L194.633 374.909L191.536 374.404L190.968 377.49L194.117 378.07ZM195.472 378.291L194.956 381.452L195.094 381.474L195.232 381.484L195.472 378.291ZM208.437 354.77L205.908 356.735L205.916 356.745L205.924 356.755L208.437 354.77ZM191.654 353.691L189.432 351.384L189.43 351.386L191.654 353.691ZM186.389 365.096L185.476 368.166L188.851 369.169L189.532 365.715L186.389 365.096ZM177.82 362.547L174.697 361.84L174.035 364.762L176.907 365.616L177.82 362.547ZM186.548 346.277L184.484 343.828L186.548 346.277ZM216.679 376.006L214.024 374.214L214.016 374.227L214.007 374.24L216.679 376.006ZM208.971 382.639L207.61 379.74L200.602 383.029L207.886 385.653L208.971 382.639ZM212.12 424.113L214.296 426.463L214.305 426.454L212.12 424.113ZM173.801 404.258L174.076 407.449L182.953 406.684L182.678 403.493L182.403 400.302L173.526 401.067L173.801 404.258ZM182.678 403.493L179.486 403.76C179.991 409.784 181.36 414.806 183.9 418.476C186.544 422.297 190.32 424.439 194.967 424.788L195.206 421.594L195.446 418.4C192.705 418.195 190.699 417.044 189.167 414.831C187.531 412.467 186.329 408.715 185.869 403.225L182.678 403.493ZM195.206 421.594L194.967 424.788C199.994 425.164 204.457 423.317 208.206 419.612L205.954 417.334L203.702 415.056C201.101 417.629 198.398 418.621 195.446 418.4L195.206 421.594ZM205.954 417.334L208.219 419.599C212.042 415.775 214.071 410.725 214.519 404.746L211.325 404.507L208.131 404.268C207.774 409.035 206.222 412.536 203.689 415.07L205.954 417.334ZM211.325 404.507L214.519 404.746C214.941 399.108 213.796 394.119 210.775 390.079L208.21 391.998L205.645 393.916C207.535 396.442 208.467 399.793 208.131 404.268L211.325 404.507ZM208.21 391.998L210.775 390.079C207.793 386.094 203.78 383.806 198.9 383.44L198.66 386.634L198.421 389.828C201.362 390.048 203.716 391.336 205.645 393.916L208.21 391.998ZM198.66 386.634L198.9 383.44C196.777 383.281 194.331 383.598 191.656 384.244L192.408 387.357L193.161 390.47C195.503 389.904 197.225 389.738 198.421 389.828L198.66 386.634ZM192.408 387.357L195.558 387.937L197.267 378.65L194.117 378.07L190.968 377.49L189.259 386.778L192.408 387.357ZM194.117 378.07L193.602 381.231L194.956 381.452L195.472 378.291L195.987 375.13L194.633 374.909L194.117 378.07ZM195.472 378.291L195.232 381.484C200.248 381.86 204.71 380.617 208.329 377.549L206.258 375.106L204.187 372.663C202.036 374.487 199.307 375.366 195.711 375.097L195.472 378.291ZM206.258 375.106L208.329 377.549C211.981 374.453 213.892 370.16 214.276 365.04L211.082 364.801L207.889 364.562C207.609 368.291 206.304 370.868 204.187 372.663L206.258 375.106ZM211.082 364.801L214.276 365.04C214.627 360.358 213.622 356.166 210.95 352.785L208.437 354.77L205.924 356.755C207.389 358.61 208.148 361.106 207.889 364.562L211.082 364.801ZM208.437 354.77L210.966 352.805C208.368 349.462 204.898 347.539 200.719 347.226L200.48 350.419L200.241 353.613C202.541 353.786 204.376 354.763 205.908 356.735L208.437 354.77ZM200.48 350.419L200.719 347.226C196.41 346.903 192.584 348.349 189.432 351.384L191.654 353.691L193.875 355.998C195.776 354.168 197.834 353.433 200.241 353.613L200.48 350.419ZM191.654 353.691L189.43 351.386C186.284 354.422 184.336 358.95 183.247 364.477L186.389 365.096L189.532 365.715C190.494 360.828 192.056 357.753 193.877 355.996L191.654 353.691ZM186.389 365.096L187.302 362.026L178.734 359.477L177.82 362.547L176.907 365.616L185.476 368.166L186.389 365.096ZM177.82 362.547L180.944 363.254C182.511 356.333 185.161 351.634 188.612 348.726L186.548 346.277L184.484 343.828C179.623 347.924 176.455 354.072 174.697 361.84L177.82 362.547ZM186.548 346.277L188.612 348.726C192.118 345.771 196.111 344.484 200.779 344.834L201.019 341.64L201.258 338.446C194.944 337.973 189.29 339.777 184.484 343.828L186.548 346.277ZM201.019 341.64L200.779 344.834C205.651 345.199 209.584 347.262 212.749 351.16L215.235 349.141L217.722 347.123C213.467 341.883 207.922 338.946 201.258 338.446L201.019 341.64ZM215.235 349.141L212.749 351.16C215.888 355.026 217.31 359.718 216.878 365.474L220.072 365.713L223.266 365.952C223.805 358.75 222.003 352.394 217.722 347.123L215.235 349.141ZM220.072 365.713L216.878 365.474C216.618 368.941 215.641 371.821 214.024 374.214L216.679 376.006L219.333 377.799C221.649 374.368 222.933 370.386 223.266 365.952L220.072 365.713ZM216.679 376.006L214.007 374.24C212.41 376.656 210.298 378.479 207.61 379.74L208.971 382.639L210.332 385.539C214.068 383.785 217.094 381.186 219.35 377.772L216.679 376.006ZM208.971 382.639L207.886 385.653C210.232 386.498 212.007 387.696 213.325 389.194L215.73 387.079L218.135 384.964C216.011 382.549 213.28 380.787 210.056 379.626L208.971 382.639ZM215.73 387.079L213.325 389.194C214.669 390.723 215.796 392.818 216.614 395.607L219.687 394.705L222.76 393.804C221.743 390.337 220.231 387.348 218.135 384.964L215.73 387.079ZM219.687 394.705L216.614 395.607C217.408 398.312 217.705 401.36 217.448 404.787L220.642 405.027L223.836 405.266C224.141 401.187 223.802 397.354 222.76 393.804L219.687 394.705ZM220.642 405.027L217.448 404.787C216.901 412.095 214.341 417.659 209.935 421.771L212.12 424.113L214.305 426.454C220.066 421.078 223.187 413.919 223.836 405.266L220.642 405.027ZM212.12 424.113L209.944 421.763C205.478 425.899 200.522 427.66 194.902 427.239L194.663 430.432L194.424 433.626C201.921 434.188 208.602 431.736 214.296 426.463L212.12 424.113ZM194.663 430.432L194.902 427.239C189.697 426.849 185.512 424.673 182.168 420.603L179.694 422.636L177.219 424.67C181.666 430.082 187.462 433.104 194.424 433.626L194.663 430.432ZM179.694 422.636L182.168 420.603C178.838 416.55 177.034 411.188 177.004 404.244L173.801 404.258L170.598 404.272C170.634 412.349 172.758 419.24 177.219 424.67L179.694 422.636ZM269.388 424.173L272.582 424.413L272.821 421.219L269.628 420.979L269.388 424.173ZM268.62 434.425L268.381 437.619L271.574 437.858L271.814 434.664L268.62 434.425ZM221.509 430.895L218.31 430.747L218.166 433.856L221.27 434.088L221.509 430.895ZM226.286 417.249L223.557 415.573L223.552 415.581L223.547 415.589L226.286 417.249ZM242.108 400.14L240.025 397.707L240.019 397.712L242.108 400.14ZM259.58 382.499L262.234 384.291L262.241 384.281L259.58 382.499ZM261.202 359.26L258.685 361.24L258.699 361.259L258.714 361.277L261.202 359.26ZM236.745 370.717L236.111 373.856L239.668 374.574L239.939 370.956L236.745 370.717ZM227.822 368.916L224.656 368.436L224.198 371.452L227.188 372.055L227.822 368.916ZM236.282 350.659L234.158 348.261L234.158 348.262L236.282 350.659ZM268.858 354.113L266.168 355.852L266.173 355.859L266.177 355.865L268.858 354.113ZM267.655 386.858L270.301 388.664L270.307 388.655L267.655 386.858ZM249.485 405.877L251.601 408.281L251.608 408.275L251.614 408.269L249.485 405.877ZM238.535 416.021L236.185 413.845L236.171 413.86L236.158 413.875L238.535 416.021ZM234.425 421.553L231.662 419.934L229.066 424.363L234.186 424.747L234.425 421.553ZM269.388 424.173L266.194 423.934L265.426 434.186L268.62 434.425L271.814 434.664L272.582 424.413L269.388 424.173ZM268.62 434.425L268.859 431.231L221.748 427.701L221.509 430.895L221.27 434.088L268.381 437.619L268.62 434.425ZM221.509 430.895L224.708 431.043C224.868 427.587 226.208 423.559 229.025 418.908L226.286 417.249L223.547 415.589C220.379 420.819 218.535 425.888 218.31 430.747L221.509 430.895ZM226.286 417.249L229.015 418.924C231.793 414.4 236.78 408.95 244.197 402.567L242.108 400.14L240.019 397.712C232.403 404.266 226.842 410.222 223.557 415.573L226.286 417.249ZM242.108 400.14L244.192 402.572C252.993 395.035 259.112 388.915 262.234 384.291L259.58 382.499L256.925 380.706C254.328 384.553 248.799 390.194 240.025 397.707L242.108 400.14ZM259.58 382.499L262.241 384.281C265.311 379.697 267.158 375.117 267.499 370.578L264.305 370.338L261.111 370.099C260.877 373.224 259.574 376.751 256.919 380.716L259.58 382.499ZM264.305 370.338L267.499 370.578C267.88 365.482 266.688 360.942 263.69 357.243L261.202 359.26L258.714 361.277C260.516 363.5 261.392 366.346 261.111 370.099L264.305 370.338ZM261.202 359.26L263.719 357.28C260.808 353.579 256.907 351.496 252.216 351.144L251.976 354.338L251.737 357.532C254.631 357.749 256.881 358.947 258.685 361.24L261.202 359.26ZM251.976 354.338L252.216 351.144C247.246 350.772 242.878 352.339 239.37 355.816L241.624 358.091L243.879 360.366C246.035 358.229 248.568 357.294 251.737 357.532L251.976 354.338ZM241.624 358.091L239.37 355.816C235.801 359.353 234.006 364.411 233.551 370.477L236.745 370.717L239.939 370.956C240.325 365.802 241.783 362.443 243.879 360.366L241.624 358.091ZM236.745 370.717L237.379 367.577L228.456 365.776L227.822 368.916L227.188 372.055L236.111 373.856L236.745 370.717ZM227.822 368.916L230.989 369.396C232.18 361.535 234.783 356.266 238.405 353.056L236.282 350.659L234.158 348.262C229.015 352.818 225.977 359.72 224.656 368.436L227.822 368.916ZM236.282 350.659L238.405 353.057C242.094 349.789 246.756 348.279 252.695 348.724L252.934 345.531L253.174 342.337C245.76 341.781 239.32 343.69 234.158 348.261L236.282 350.659ZM252.934 345.531L252.695 348.724C259.17 349.21 263.469 351.676 266.168 355.852L268.858 354.113L271.547 352.375C267.554 346.196 261.237 342.941 253.174 342.337L252.934 345.531ZM268.858 354.113L266.177 355.865C269.173 360.449 270.457 365.458 270.041 371.007L273.235 371.246L276.429 371.485C276.949 364.55 275.315 358.138 271.539 352.361L268.858 354.113ZM273.235 371.246L270.041 371.007C269.671 375.945 268.016 380.617 265.004 385.061L267.655 386.858L270.307 388.655C273.905 383.345 275.97 377.609 276.429 371.485L273.235 371.246ZM267.655 386.858L265.01 385.052C261.939 389.552 256.127 395.679 247.356 403.484L249.485 405.877L251.614 408.269C260.466 400.392 266.767 393.84 270.301 388.664L267.655 386.858ZM249.485 405.877L247.369 403.473C241.775 408.397 238 411.885 236.185 413.845L238.535 416.021L240.884 418.197C242.441 416.517 245.966 413.242 251.601 408.281L249.485 405.877ZM238.535 416.021L236.158 413.875C234.384 415.839 232.88 417.857 231.662 419.934L234.425 421.553L237.188 423.173C238.157 421.52 239.392 419.85 240.912 418.168L238.535 416.021ZM234.425 421.553L234.186 424.747L269.149 427.367L269.388 424.173L269.628 420.979L234.665 418.36L234.425 421.553Z" fill="#FAFF00" mask="url(#path-3-outside-1_172_196)"/>
</g>
<g filter="url(#filter1_ii_172_196)">
<rect x="221.713" y="192.328" width="236.865" height="149.608" rx="74.8041" transform="rotate(-8.91955 221.713 192.328)" fill="#FF8888"/>
<mask id="path-6-outside-2_172_196" maskUnits="userSpaceOnUse" x="265.222" y="184.438" width="169.986" height="119.182" fill="black">
<rect fill="white" x="265.222" y="184.438" width="169.986" height="119.182"/>
<path d="M299.77 281.217L296.066 257.617L276.869 260.629L275.321 250.767L294.518 247.754L290.842 224.33L299.061 223.04L302.737 246.464L321.934 243.451L323.482 253.314L304.285 256.327L307.989 279.927L299.77 281.217ZM378.209 272.756L379.803 282.912L333.132 290.237C332.369 286.146 332.88 281.354 334.665 275.86C336.489 270.361 340.321 263.604 346.161 255.589C352.997 246.255 357.323 239.2 359.14 234.424C360.951 229.608 361.558 225.302 360.963 221.506C360.275 217.122 358.424 213.763 355.411 211.429C352.431 209.05 349.062 208.155 345.305 208.744C341.274 209.377 338.2 211.383 336.084 214.763C333.968 218.143 333.346 222.612 334.218 228.169L325.12 228.454C324.45 220.098 325.805 213.529 329.185 208.748C332.598 203.921 337.612 200.989 344.226 199.951C351.427 198.821 357.248 200.394 361.689 204.669C366.169 208.939 368.894 214.165 369.864 220.349C370.724 225.828 370.102 231.32 367.998 236.823C365.888 242.287 361.44 249.843 354.653 259.49C350.316 265.584 347.535 269.71 346.309 271.867C345.123 274.018 344.211 276.127 343.573 278.192L378.209 272.756ZM380.645 259.501L389.113 256.728C392.682 267.717 398.126 272.637 405.445 271.489C409.398 270.868 412.561 268.668 414.935 264.886C417.303 261.066 418.07 256.494 417.234 251.172C416.448 246.162 414.485 242.34 411.344 239.705C408.204 237.07 404.696 236.056 400.822 236.664C399.178 236.922 397.204 237.633 394.9 238.797L394.443 229.364L395.811 229.27C400.077 228.6 403.335 226.746 405.585 223.706C407.835 220.666 408.616 216.954 407.928 212.571C407.295 208.539 405.673 205.486 403.061 203.409C400.443 201.294 397.53 200.488 394.321 200.991C390.994 201.514 388.379 203.247 386.475 206.193C384.604 209.093 383.764 213.195 383.955 218.499L375.03 217.974C374.971 210.444 376.565 204.5 379.811 200.141C383.056 195.782 387.399 193.175 392.84 192.321C398.554 191.425 403.738 192.776 408.394 196.377C413.049 199.977 415.881 204.986 416.888 211.405C417.502 215.319 417.185 218.918 415.936 222.201C414.726 225.479 412.73 228.219 409.947 230.42C412.888 230.76 415.419 231.686 417.541 233.198C419.663 234.71 421.528 236.883 423.136 239.719C424.744 242.554 425.84 245.831 426.424 249.549C427.664 257.455 426.352 264.298 422.487 270.077C418.616 275.818 413.432 279.198 406.935 280.218C400.908 281.164 395.457 279.773 390.581 276.047C385.705 272.321 382.393 266.806 380.645 259.501Z"/>
</mask>
<path d="M299.77 281.217L296.066 257.617L276.869 260.629L275.321 250.767L294.518 247.754L290.842 224.33L299.061 223.04L302.737 246.464L321.934 243.451L323.482 253.314L304.285 256.327L307.989 279.927L299.77 281.217ZM378.209 272.756L379.803 282.912L333.132 290.237C332.369 286.146 332.88 281.354 334.665 275.86C336.489 270.361 340.321 263.604 346.161 255.589C352.997 246.255 357.323 239.2 359.14 234.424C360.951 229.608 361.558 225.302 360.963 221.506C360.275 217.122 358.424 213.763 355.411 211.429C352.431 209.05 349.062 208.155 345.305 208.744C341.274 209.377 338.2 211.383 336.084 214.763C333.968 218.143 333.346 222.612 334.218 228.169L325.12 228.454C324.45 220.098 325.805 213.529 329.185 208.748C332.598 203.921 337.612 200.989 344.226 199.951C351.427 198.821 357.248 200.394 361.689 204.669C366.169 208.939 368.894 214.165 369.864 220.349C370.724 225.828 370.102 231.32 367.998 236.823C365.888 242.287 361.44 249.843 354.653 259.49C350.316 265.584 347.535 269.71 346.309 271.867C345.123 274.018 344.211 276.127 343.573 278.192L378.209 272.756ZM380.645 259.501L389.113 256.728C392.682 267.717 398.126 272.637 405.445 271.489C409.398 270.868 412.561 268.668 414.935 264.886C417.303 261.066 418.07 256.494 417.234 251.172C416.448 246.162 414.485 242.34 411.344 239.705C408.204 237.07 404.696 236.056 400.822 236.664C399.178 236.922 397.204 237.633 394.9 238.797L394.443 229.364L395.811 229.27C400.077 228.6 403.335 226.746 405.585 223.706C407.835 220.666 408.616 216.954 407.928 212.571C407.295 208.539 405.673 205.486 403.061 203.409C400.443 201.294 397.53 200.488 394.321 200.991C390.994 201.514 388.379 203.247 386.475 206.193C384.604 209.093 383.764 213.195 383.955 218.499L375.03 217.974C374.971 210.444 376.565 204.5 379.811 200.141C383.056 195.782 387.399 193.175 392.84 192.321C398.554 191.425 403.738 192.776 408.394 196.377C413.049 199.977 415.881 204.986 416.888 211.405C417.502 215.319 417.185 218.918 415.936 222.201C414.726 225.479 412.73 228.219 409.947 230.42C412.888 230.76 415.419 231.686 417.541 233.198C419.663 234.71 421.528 236.883 423.136 239.719C424.744 242.554 425.84 245.831 426.424 249.549C427.664 257.455 426.352 264.298 422.487 270.077C418.616 275.818 413.432 279.198 406.935 280.218C400.908 281.164 395.457 279.773 390.581 276.047C385.705 272.321 382.393 266.806 380.645 259.501Z" fill="#FAFF00"/>
<path d="M299.77 281.217L296.606 281.713L297.103 284.877L300.267 284.381L299.77 281.217ZM296.066 257.617L299.23 257.12L298.734 253.956L295.57 254.453L296.066 257.617ZM276.869 260.629L273.705 261.126L274.202 264.29L277.366 263.793L276.869 260.629ZM275.321 250.767L274.825 247.603L271.661 248.099L272.157 251.263L275.321 250.767ZM294.518 247.754L295.015 250.918L298.179 250.421L297.682 247.257L294.518 247.754ZM290.842 224.33L290.346 221.166L287.182 221.663L287.678 224.827L290.842 224.33ZM299.061 223.04L302.225 222.543L301.728 219.379L298.564 219.876L299.061 223.04ZM302.737 246.464L299.573 246.96L300.07 250.124L303.234 249.628L302.737 246.464ZM321.934 243.451L325.098 242.954L324.602 239.79L321.438 240.287L321.934 243.451ZM323.482 253.314L323.979 256.478L327.143 255.981L326.646 252.817L323.482 253.314ZM304.285 256.327L303.789 253.163L300.625 253.659L301.121 256.823L304.285 256.327ZM307.989 279.927L308.486 283.091L311.65 282.594L311.153 279.43L307.989 279.927ZM299.77 281.217L302.934 280.72L299.23 257.12L296.066 257.617L292.902 258.113L296.606 281.713L299.77 281.217ZM296.066 257.617L295.57 254.453L276.373 257.465L276.869 260.629L277.366 263.793L296.563 260.78L296.066 257.617ZM276.869 260.629L280.033 260.133L278.485 250.27L275.321 250.767L272.157 251.263L273.705 261.126L276.869 260.629ZM275.321 250.767L275.818 253.931L295.015 250.918L294.518 247.754L294.022 244.59L274.825 247.603L275.321 250.767ZM294.518 247.754L297.682 247.257L294.006 223.833L290.842 224.33L287.678 224.827L291.354 248.25L294.518 247.754ZM290.842 224.33L291.339 227.494L299.558 226.204L299.061 223.04L298.564 219.876L290.346 221.166L290.842 224.33ZM299.061 223.04L295.897 223.537L299.573 246.96L302.737 246.464L305.901 245.967L302.225 222.543L299.061 223.04ZM302.737 246.464L303.234 249.628L322.431 246.615L321.934 243.451L321.438 240.287L302.241 243.3L302.737 246.464ZM321.934 243.451L318.77 243.948L320.318 253.81L323.482 253.314L326.646 252.817L325.098 242.954L321.934 243.451ZM323.482 253.314L322.986 250.15L303.789 253.163L304.285 256.327L304.782 259.491L323.979 256.478L323.482 253.314ZM304.285 256.327L301.121 256.823L304.825 280.423L307.989 279.927L311.153 279.43L307.449 255.83L304.285 256.327ZM307.989 279.927L307.493 276.763L299.274 278.053L299.77 281.217L300.267 284.381L308.486 283.091L307.989 279.927ZM378.209 272.756L381.373 272.259L380.877 269.095L377.713 269.592L378.209 272.756ZM379.803 282.912L380.3 286.076L383.464 285.579L382.967 282.415L379.803 282.912ZM333.132 290.237L329.983 290.823L330.553 293.883L333.628 293.401L333.132 290.237ZM334.665 275.86L331.625 274.852L331.622 274.861L331.619 274.871L334.665 275.86ZM346.161 255.589L343.577 253.697L343.572 253.703L346.161 255.589ZM359.14 234.424L362.134 235.562L362.138 235.551L359.14 234.424ZM355.411 211.429L353.413 213.932L353.431 213.947L353.45 213.961L355.411 211.429ZM334.218 228.169L334.318 231.37L337.944 231.257L337.382 227.673L334.218 228.169ZM325.12 228.454L321.927 228.71L322.171 231.751L325.22 231.655L325.12 228.454ZM329.185 208.748L326.57 206.899L326.57 206.899L329.185 208.748ZM361.689 204.669L359.467 206.976L359.473 206.982L359.479 206.988L361.689 204.669ZM367.998 236.823L370.986 237.977L370.99 237.967L367.998 236.823ZM354.653 259.49L357.262 261.347L357.267 261.34L357.272 261.333L354.653 259.49ZM346.309 271.867L343.525 270.285L343.515 270.303L343.505 270.321L346.309 271.867ZM343.573 278.192L340.513 277.246L338.996 282.152L344.069 281.356L343.573 278.192ZM378.209 272.756L375.045 273.252L376.639 283.408L379.803 282.912L382.967 282.415L381.373 272.259L378.209 272.756ZM379.803 282.912L379.307 279.748L332.635 287.073L333.132 290.237L333.628 293.401L380.3 286.076L379.803 282.912ZM333.132 290.237L336.28 289.65C335.646 286.249 336.031 282.022 337.711 276.85L334.665 275.86L331.619 274.871C329.73 280.686 329.092 286.042 329.983 290.823L333.132 290.237ZM334.665 275.86L337.705 276.868C339.376 271.829 342.986 265.384 348.749 257.475L346.161 255.589L343.572 253.703C337.655 261.824 333.601 268.893 331.625 274.852L334.665 275.86ZM346.161 255.589L348.745 257.482C355.592 248.133 360.15 240.777 362.134 235.562L359.14 234.424L356.147 233.285C354.497 237.623 350.402 244.378 343.577 253.697L346.161 255.589ZM359.14 234.424L362.138 235.551C364.08 230.386 364.832 225.506 364.127 221.009L360.963 221.506L357.799 222.002C358.284 225.098 357.822 228.829 356.142 233.296L359.14 234.424ZM360.963 221.506L364.127 221.009C363.334 215.96 361.136 211.813 357.373 208.897L355.411 211.429L353.45 213.961C355.712 215.713 357.215 218.284 357.799 222.002L360.963 221.506ZM355.411 211.429L357.409 208.926C353.73 205.988 349.456 204.851 344.809 205.58L345.305 208.744L345.802 211.908C348.669 211.458 351.133 212.111 353.413 213.932L355.411 211.429ZM345.305 208.744L344.809 205.58C339.885 206.353 335.991 208.877 333.37 213.064L336.084 214.763L338.799 216.463C340.409 213.89 342.663 212.401 345.802 211.908L345.305 208.744ZM336.084 214.763L333.37 213.064C330.703 217.322 330.111 222.656 331.054 228.666L334.218 228.169L337.382 227.673C336.581 222.567 337.232 218.964 338.799 216.463L336.084 214.763ZM334.218 228.169L334.118 224.968L325.019 225.253L325.12 228.454L325.22 231.655L334.318 231.37L334.218 228.169ZM325.12 228.454L328.312 228.198C327.677 220.273 329.006 214.549 331.8 210.597L329.185 208.748L326.57 206.899C322.603 212.51 321.223 219.923 321.927 228.71L325.12 228.454ZM329.185 208.748L331.8 210.597C334.645 206.573 338.839 204.038 344.722 203.115L344.226 199.951L343.729 196.787C336.384 197.94 330.551 201.27 326.57 206.899L329.185 208.748ZM344.226 199.951L344.722 203.115C351.137 202.108 355.885 203.527 359.467 206.976L361.689 204.669L363.91 202.362C358.611 197.26 351.717 195.533 343.729 196.787L344.226 199.951ZM361.689 204.669L359.479 206.988C363.443 210.765 365.838 215.349 366.7 220.846L369.864 220.349L373.028 219.853C371.95 212.982 368.894 207.112 363.898 202.351L361.689 204.669ZM369.864 220.349L366.7 220.846C367.468 225.738 366.924 230.665 365.007 235.679L367.998 236.823L370.99 237.967C373.281 231.975 373.98 225.919 373.028 219.853L369.864 220.349ZM367.998 236.823L365.011 235.669C363.048 240.752 358.79 248.044 352.034 257.647L354.653 259.49L357.272 261.333C364.09 251.642 368.729 243.823 370.986 237.977L367.998 236.823ZM354.653 259.49L352.044 257.633C347.723 263.704 344.844 267.962 343.525 270.285L346.309 271.867L349.094 273.449C350.225 271.458 352.909 267.464 357.262 261.347L354.653 259.49ZM346.309 271.867L343.505 270.321C342.227 272.637 341.223 274.946 340.513 277.246L343.573 278.192L346.632 279.138C347.198 277.307 348.019 275.399 349.114 273.414L346.309 271.867ZM343.573 278.192L344.069 281.356L378.706 275.92L378.209 272.756L377.713 269.592L343.076 275.028L343.573 278.192ZM380.645 259.501L379.649 256.457L376.844 257.375L377.531 260.246L380.645 259.501ZM389.113 256.728L392.159 255.739L391.167 252.685L388.116 253.684L389.113 256.728ZM414.935 264.886L417.648 266.589L417.653 266.581L417.658 266.574L414.935 264.886ZM394.9 238.797L391.701 238.952L391.941 243.88L396.344 241.655L394.9 238.797ZM394.443 229.364L394.222 226.169L391.092 226.385L391.244 229.52L394.443 229.364ZM395.811 229.27L396.032 232.465L396.171 232.455L396.308 232.434L395.811 229.27ZM403.061 203.409L401.048 205.9L401.058 205.908L401.068 205.916L403.061 203.409ZM386.475 206.193L383.785 204.454L383.784 204.457L386.475 206.193ZM383.955 218.499L383.767 221.696L387.282 221.902L387.156 218.383L383.955 218.499ZM375.03 217.974L371.828 217.999L371.851 220.996L374.843 221.172L375.03 217.974ZM379.811 200.141L377.242 198.228L379.811 200.141ZM415.936 222.201L412.942 221.063L412.937 221.078L412.931 221.092L415.936 222.201ZM409.947 230.42L407.96 227.908L401.889 232.711L409.579 233.601L409.947 230.42ZM422.487 270.077L425.143 271.868L425.15 271.858L422.487 270.077ZM380.645 259.501L381.642 262.544L390.109 259.772L389.113 256.728L388.116 253.684L379.649 256.457L380.645 259.501ZM389.113 256.728L386.067 257.717C387.934 263.467 390.414 268.044 393.725 271.036C397.173 274.152 401.338 275.375 405.942 274.653L405.445 271.489L404.948 268.325C402.233 268.751 400.017 268.089 398.02 266.284C395.887 264.356 393.861 260.978 392.159 255.739L389.113 256.728ZM405.445 271.489L405.942 274.653C410.922 273.871 414.845 271.053 417.648 266.589L414.935 264.886L412.223 263.183C410.278 266.282 407.874 267.866 404.948 268.325L405.445 271.489ZM414.935 264.886L417.658 266.574C420.506 261.978 421.328 256.598 420.398 250.675L417.234 251.172L414.07 251.668C414.812 256.391 414.101 260.154 412.213 263.199L414.935 264.886ZM417.234 251.172L420.398 250.675C419.522 245.089 417.267 240.494 413.403 237.251L411.344 239.705L409.286 242.158C411.702 244.186 413.375 247.235 414.07 251.668L417.234 251.172ZM411.344 239.705L413.403 237.251C409.59 234.052 405.16 232.741 400.325 233.5L400.822 236.664L401.318 239.828C404.232 239.371 406.818 240.087 409.286 242.158L411.344 239.705ZM400.822 236.664L400.325 233.5C398.222 233.83 395.913 234.697 393.456 235.938L394.9 238.797L396.344 241.655C398.495 240.569 400.133 240.014 401.318 239.828L400.822 236.664ZM394.9 238.797L398.099 238.641L397.642 229.209L394.443 229.364L391.244 229.52L391.701 238.952L394.9 238.797ZM394.443 229.364L394.663 232.559L396.032 232.465L395.811 229.27L395.591 226.075L394.222 226.169L394.443 229.364ZM395.811 229.27L396.308 232.434C401.277 231.654 405.337 229.424 408.159 225.611L405.585 223.706L403.011 221.8C401.333 224.067 398.877 225.547 395.315 226.106L395.811 229.27ZM405.585 223.706L408.159 225.611C411.008 221.762 411.888 217.146 411.092 212.074L407.928 212.571L404.764 213.067C405.344 216.762 404.662 219.569 403.011 221.8L405.585 223.706ZM407.928 212.571L411.092 212.074C410.364 207.435 408.428 203.584 405.054 200.902L403.061 203.409L401.068 205.916C402.918 207.387 404.226 209.643 404.764 213.067L407.928 212.571ZM403.061 203.409L405.074 200.918C401.781 198.257 397.963 197.178 393.824 197.827L394.321 200.991L394.817 204.155C397.096 203.798 399.105 204.33 401.048 205.9L403.061 203.409ZM394.321 200.991L393.824 197.827C389.555 198.497 386.16 200.779 383.785 204.454L386.475 206.193L389.165 207.931C390.597 205.715 392.433 204.53 394.817 204.155L394.321 200.991ZM386.475 206.193L383.784 204.457C381.414 208.131 380.552 212.984 380.754 218.614L383.955 218.499L387.156 218.383C386.977 213.406 387.795 210.055 389.166 207.929L386.475 206.193ZM383.955 218.499L384.143 215.301L375.218 214.777L375.03 217.974L374.843 221.172L383.767 221.696L383.955 218.499ZM375.03 217.974L378.233 217.949C378.177 210.853 379.684 205.673 382.379 202.054L379.811 200.141L377.242 198.228C373.445 203.327 371.765 210.036 371.828 217.999L375.03 217.974ZM379.811 200.141L382.379 202.054C385.117 198.376 388.712 196.211 393.336 195.485L392.84 192.321L392.343 189.157C386.087 190.139 380.995 193.187 377.242 198.228L379.811 200.141ZM392.84 192.321L393.336 195.485C398.163 194.728 402.462 195.838 406.435 198.91L408.394 196.377L410.353 193.843C405.014 189.714 398.945 188.121 392.343 189.157L392.84 192.321ZM408.394 196.377L406.435 198.91C410.373 201.956 412.829 206.199 413.724 211.902L416.888 211.405L420.052 210.908C418.932 203.773 415.725 197.998 410.353 193.843L408.394 196.377ZM416.888 211.405L413.724 211.902C414.263 215.336 413.969 218.364 412.942 221.063L415.936 222.201L418.929 223.34C420.401 219.471 420.741 215.301 420.052 210.908L416.888 211.405ZM415.936 222.201L412.931 221.092C411.928 223.809 410.289 226.066 407.96 227.908L409.947 230.42L411.934 232.932C415.171 230.371 417.523 227.149 418.94 223.311L415.936 222.201ZM409.947 230.42L409.579 233.601C412.057 233.888 414.058 234.649 415.683 235.807L417.541 233.198L419.4 230.589C416.78 228.724 413.719 227.632 410.316 227.238L409.947 230.42ZM417.541 233.198L415.683 235.807C417.342 236.988 418.917 238.77 420.35 241.299L423.136 239.719L425.922 238.139C424.14 234.996 421.985 232.431 419.4 230.589L417.541 233.198ZM423.136 239.719L420.35 241.299C421.741 243.751 422.727 246.65 423.26 250.046L426.424 249.549L429.588 249.052C428.953 245.011 427.747 241.357 425.922 238.139L423.136 239.719ZM426.424 249.549L423.26 250.046C424.396 257.285 423.175 263.287 419.825 268.297L422.487 270.077L425.15 271.858C429.529 265.308 430.933 257.625 429.588 249.052L426.424 249.549ZM422.487 270.077L419.832 268.287C416.429 273.333 412.005 276.18 406.439 277.054L406.935 280.218L407.432 283.382C414.859 282.216 420.803 278.302 425.143 271.868L422.487 270.077ZM406.935 280.218L406.439 277.054C401.281 277.863 396.711 276.701 392.526 273.503L390.581 276.047L388.636 278.592C394.202 282.846 400.535 284.464 407.432 283.382L406.935 280.218ZM390.581 276.047L392.526 273.503C388.358 270.317 385.376 265.509 383.76 258.755L380.645 259.501L377.531 260.246C379.41 268.102 383.053 274.325 388.636 278.592L390.581 276.047Z" fill="#FAFF00" mask="url(#path-6-outside-2_172_196)"/>
</g>
<g filter="url(#filter2_ii_172_196)">
<rect x="12.3828" y="3.37695" width="448.865" height="149.608" rx="74.8041" transform="rotate(1.81841 12.3828 3.37695)" fill="#FF8888"/>
<mask id="path-9-outside-3_172_196" maskUnits="userSpaceOnUse" x="44.259" y="26.5212" width="380.65" height="132.902" fill="black">
<rect fill="white" x="44.259" y="26.5212" width="380.65" height="132.902"/>
<path d="M73.4375 109.8L74.3256 119.281C71.8901 119.838 69.7022 120.086 67.762 120.024C64.713 119.927 62.2769 119.255 60.4535 118.008C58.6314 116.722 57.3973 115.018 56.7512 112.897C56.1447 110.777 55.9408 106.589 56.1394 100.332L57.2915 64.0418L50.8768 63.8381L51.1408 55.5228L57.5555 55.7265L58.0515 40.1055L66.9862 33.968L66.2866 56.0036L75.1365 56.2846L74.8725 64.5999L66.0226 64.319L64.8516 101.203C64.7435 104.609 64.9311 106.815 65.4145 107.821C66.1215 109.27 67.5046 110.028 69.5636 110.093C70.5535 110.124 71.8448 110.027 73.4375 109.8ZM76.5242 119.47L79.2886 32.3966L88.0197 32.6738L87.0278 63.9157C89.1786 61.0905 91.5636 59.006 94.1826 57.6622C96.8425 56.2801 99.7365 55.6387 102.865 55.738C108.369 55.9127 112.649 57.8125 115.704 61.4371C118.801 65.0235 120.201 71.4891 119.904 80.8339L118.635 120.807L109.904 120.53L111.173 80.5567C111.347 75.0924 110.501 71.1415 108.636 68.7041C106.772 66.2667 104.136 64.9939 100.731 64.8858C96.9299 64.7651 93.6345 66.1865 90.8451 69.15C88.0954 72.1147 86.5973 77.4776 86.3509 85.2385L85.2553 119.747L76.5242 119.47ZM161.048 122.153L161.343 112.888C159.21 116.387 156.749 118.985 153.961 120.68C151.172 122.375 148.055 123.168 144.61 123.058C140.532 122.929 137.082 121.729 134.26 119.46C131.44 117.151 129.588 114.297 128.705 110.9C127.862 107.504 127.533 102.896 127.717 97.0754L128.958 57.9933L137.689 58.2705L136.579 93.2543C136.372 99.7482 136.551 104.114 137.114 106.351C137.718 108.551 138.87 110.351 140.569 111.753C142.31 113.116 144.308 113.833 146.565 113.905C150.763 114.038 154.262 112.425 157.064 109.066C159.455 106.169 160.776 100.761 161.028 92.8414L162.101 59.0455L170.891 59.3246L168.889 122.402L161.048 122.153ZM213.788 103.494L222.772 105.147C221.054 111.831 218.16 116.832 214.091 120.151C210.063 123.432 205.138 124.98 199.318 124.795C191.992 124.563 186.141 121.602 181.763 115.914C177.426 110.188 175.425 102.078 175.758 91.5849C176.103 80.6957 178.644 72.4725 183.378 66.9151C188.154 61.3194 194.046 58.6328 201.054 58.8553C207.746 59.0678 213.24 62.0564 217.536 67.8212C221.832 73.586 223.811 81.7942 223.473 92.4457L223.323 95.2948L184.716 94.0691C184.847 101.168 186.321 106.566 189.137 110.262C191.952 113.959 195.459 115.873 199.656 116.007C206.229 116.215 210.94 112.045 213.788 103.494ZM185.53 85.2956L214.396 86.212C214.173 80.7351 213.135 76.6195 211.28 73.8654C208.593 69.856 205.072 67.7822 200.716 67.6439C196.796 67.5195 193.398 69.0565 190.522 72.2551C187.647 75.414 185.983 79.7608 185.53 85.2956ZM225.624 105.356L234.349 103.969C234.723 108.42 236.023 111.771 238.251 114.021C240.48 116.233 243.495 117.399 247.296 117.519C251.097 117.64 254.057 116.802 256.175 115.007C258.334 113.173 259.459 110.81 259.551 107.92C259.63 105.425 258.801 103.457 257.063 102.014C255.866 101.025 252.934 99.7427 248.267 98.1677C241.523 95.8528 237.026 93.9264 234.776 92.3884C232.526 90.8504 230.806 88.8338 229.617 86.3385C228.428 83.8433 227.883 81.0316 227.982 77.9035C228.153 72.5183 230.015 68.1975 233.566 64.9412C237.118 61.6848 241.943 60.1534 248.041 60.347C251.882 60.469 255.225 61.2688 258.072 62.7464C260.958 64.2254 263.136 66.1574 264.606 68.5427C266.077 70.9279 267.039 74.3078 267.495 78.6823L258.897 79.8362C258.324 72.9213 254.691 69.3575 247.999 69.1451C244.198 69.0244 241.342 69.7066 239.432 71.1918C237.523 72.6374 236.531 74.5481 236.456 76.9239C236.382 79.2602 237.214 81.1297 238.953 82.5326C239.997 83.3584 243.125 84.7261 248.336 86.6356C255.508 89.2018 260.141 91.2118 262.235 92.6656C264.331 94.0798 265.935 95.9936 267.047 98.4072C268.161 100.781 268.666 103.592 268.563 106.838C268.372 112.857 266.297 117.667 262.338 121.267C258.419 124.868 253.152 126.564 246.54 126.354C234.146 125.961 227.174 118.961 225.624 105.356ZM306.937 126.785L307.19 118.826C305.509 121.825 303.396 124.096 300.85 125.641C298.305 127.145 295.587 127.852 292.697 127.76C286.599 127.566 281.404 124.528 277.111 118.644C272.86 112.722 270.9 104.534 271.232 94.0809C271.46 86.9139 272.643 80.8672 274.781 75.9408C276.919 71.0145 279.67 67.3958 283.033 65.0847C286.436 62.7749 290.157 61.6841 294.196 61.8124C297.086 61.9041 299.735 62.7611 302.141 64.3833C304.587 65.9672 306.579 68.151 308.116 70.9347L309.108 39.6929L317.898 39.9719L315.134 127.045L306.937 126.785ZM280.199 94.425C279.94 102.582 281.153 108.685 283.839 112.734C286.564 116.784 289.808 118.869 293.57 118.988C297.292 119.106 300.579 117.308 303.432 113.594C306.285 109.879 307.833 104.181 308.077 96.4992C308.357 87.6691 307.196 81.1913 304.592 77.0656C301.989 72.9004 298.609 70.7518 294.451 70.6198C290.769 70.5029 287.539 72.3624 284.761 76.1982C281.985 79.9945 280.464 86.0701 280.199 94.425ZM357.972 120.617C354.945 123.573 351.823 125.772 348.606 127.216C345.39 128.66 342.079 129.328 338.673 129.22C333.288 129.049 329.043 127.289 325.939 123.94C322.835 120.591 321.37 116.165 321.545 110.661C321.66 107.018 322.515 103.815 324.109 101.051C325.703 98.2875 327.832 96.1553 330.496 94.6544C333.159 93.1535 337.156 92.1111 342.486 91.5272C349.646 90.724 354.912 89.6624 358.283 88.3425L358.429 85.6122C358.566 81.2962 357.89 78.2425 356.401 76.4512C354.304 73.8479 350.998 72.4745 346.484 72.3312C342.406 72.2017 339.33 72.9563 337.256 74.5948C335.184 76.1938 333.599 79.2946 332.502 83.8972L323.935 82.1983C325.377 75.4662 328.009 70.615 331.829 67.6446C335.688 64.6755 341.103 63.3016 348.072 63.5228C353.497 63.695 357.721 64.8597 360.744 67.0168C363.768 69.1343 365.629 71.7103 366.325 74.7448C367.061 77.7805 367.337 82.189 367.154 87.9701L366.701 102.225C366.384 112.203 366.363 118.505 366.636 121.13C366.95 123.716 367.623 126.254 368.654 128.744L359.507 128.454C358.665 126.247 358.154 123.635 357.972 120.617ZM358.017 96.7172C354.76 98.1993 349.945 99.3941 343.575 100.302C339.872 100.818 337.275 101.469 335.784 102.254C334.293 103 333.109 104.111 332.229 105.59C331.391 107.03 330.941 108.72 330.879 110.66C330.784 113.669 331.638 116.114 333.441 117.995C335.245 119.836 337.791 120.808 341.077 120.913C344.205 121.012 347.062 120.29 349.648 118.747C352.273 117.205 354.262 115.108 355.615 112.456C356.969 109.764 357.728 105.824 357.893 100.637L358.017 96.7172ZM373.589 153.218L372.957 143.15C374.878 143.845 376.531 144.215 377.916 144.259C379.778 144.318 381.314 143.99 382.526 143.276C383.777 142.562 384.824 141.426 385.666 139.868C385.961 139.322 387.22 135.874 389.443 129.523L371.79 65.7027L381.233 66.0026L390.884 102.874C392.085 107.47 393.178 112.38 394.162 117.604C395.307 112.725 396.647 107.972 398.182 103.343L410.396 66.9284L419.187 67.2075L397.491 130.73C394.653 138.964 392.438 144.443 390.845 147.167C389.291 149.931 387.544 151.897 385.604 153.065C383.704 154.233 381.566 154.78 379.19 154.704C377.527 154.651 375.66 154.156 373.589 153.218Z"/>
</mask>
<path d="M73.4375 109.8L74.3256 119.281C71.8901 119.838 69.7022 120.086 67.762 120.024C64.713 119.927 62.2769 119.255 60.4535 118.008C58.6314 116.722 57.3973 115.018 56.7512 112.897C56.1447 110.777 55.9408 106.589 56.1394 100.332L57.2915 64.0418L50.8768 63.8381L51.1408 55.5228L57.5555 55.7265L58.0515 40.1055L66.9862 33.968L66.2866 56.0036L75.1365 56.2846L74.8725 64.5999L66.0226 64.319L64.8516 101.203C64.7435 104.609 64.9311 106.815 65.4145 107.821C66.1215 109.27 67.5046 110.028 69.5636 110.093C70.5535 110.124 71.8448 110.027 73.4375 109.8ZM76.5242 119.47L79.2886 32.3966L88.0197 32.6738L87.0278 63.9157C89.1786 61.0905 91.5636 59.006 94.1826 57.6622C96.8425 56.2801 99.7365 55.6387 102.865 55.738C108.369 55.9127 112.649 57.8125 115.704 61.4371C118.801 65.0235 120.201 71.4891 119.904 80.8339L118.635 120.807L109.904 120.53L111.173 80.5567C111.347 75.0924 110.501 71.1415 108.636 68.7041C106.772 66.2667 104.136 64.9939 100.731 64.8858C96.9299 64.7651 93.6345 66.1865 90.8451 69.15C88.0954 72.1147 86.5973 77.4776 86.3509 85.2385L85.2553 119.747L76.5242 119.47ZM161.048 122.153L161.343 112.888C159.21 116.387 156.749 118.985 153.961 120.68C151.172 122.375 148.055 123.168 144.61 123.058C140.532 122.929 137.082 121.729 134.26 119.46C131.44 117.151 129.588 114.297 128.705 110.9C127.862 107.504 127.533 102.896 127.717 97.0754L128.958 57.9933L137.689 58.2705L136.579 93.2543C136.372 99.7482 136.551 104.114 137.114 106.351C137.718 108.551 138.87 110.351 140.569 111.753C142.31 113.116 144.308 113.833 146.565 113.905C150.763 114.038 154.262 112.425 157.064 109.066C159.455 106.169 160.776 100.761 161.028 92.8414L162.101 59.0455L170.891 59.3246L168.889 122.402L161.048 122.153ZM213.788 103.494L222.772 105.147C221.054 111.831 218.16 116.832 214.091 120.151C210.063 123.432 205.138 124.98 199.318 124.795C191.992 124.563 186.141 121.602 181.763 115.914C177.426 110.188 175.425 102.078 175.758 91.5849C176.103 80.6957 178.644 72.4725 183.378 66.9151C188.154 61.3194 194.046 58.6328 201.054 58.8553C207.746 59.0678 213.24 62.0564 217.536 67.8212C221.832 73.586 223.811 81.7942 223.473 92.4457L223.323 95.2948L184.716 94.0691C184.847 101.168 186.321 106.566 189.137 110.262C191.952 113.959 195.459 115.873 199.656 116.007C206.229 116.215 210.94 112.045 213.788 103.494ZM185.53 85.2956L214.396 86.212C214.173 80.7351 213.135 76.6195 211.28 73.8654C208.593 69.856 205.072 67.7822 200.716 67.6439C196.796 67.5195 193.398 69.0565 190.522 72.2551C187.647 75.414 185.983 79.7608 185.53 85.2956ZM225.624 105.356L234.349 103.969C234.723 108.42 236.023 111.771 238.251 114.021C240.48 116.233 243.495 117.399 247.296 117.519C251.097 117.64 254.057 116.802 256.175 115.007C258.334 113.173 259.459 110.81 259.551 107.92C259.63 105.425 258.801 103.457 257.063 102.014C255.866 101.025 252.934 99.7427 248.267 98.1677C241.523 95.8528 237.026 93.9264 234.776 92.3884C232.526 90.8504 230.806 88.8338 229.617 86.3385C228.428 83.8433 227.883 81.0316 227.982 77.9035C228.153 72.5183 230.015 68.1975 233.566 64.9412C237.118 61.6848 241.943 60.1534 248.041 60.347C251.882 60.469 255.225 61.2688 258.072 62.7464C260.958 64.2254 263.136 66.1574 264.606 68.5427C266.077 70.9279 267.039 74.3078 267.495 78.6823L258.897 79.8362C258.324 72.9213 254.691 69.3575 247.999 69.1451C244.198 69.0244 241.342 69.7066 239.432 71.1918C237.523 72.6374 236.531 74.5481 236.456 76.9239C236.382 79.2602 237.214 81.1297 238.953 82.5326C239.997 83.3584 243.125 84.7261 248.336 86.6356C255.508 89.2018 260.141 91.2118 262.235 92.6656C264.331 94.0798 265.935 95.9936 267.047 98.4072C268.161 100.781 268.666 103.592 268.563 106.838C268.372 112.857 266.297 117.667 262.338 121.267C258.419 124.868 253.152 126.564 246.54 126.354C234.146 125.961 227.174 118.961 225.624 105.356ZM306.937 126.785L307.19 118.826C305.509 121.825 303.396 124.096 300.85 125.641C298.305 127.145 295.587 127.852 292.697 127.76C286.599 127.566 281.404 124.528 277.111 118.644C272.86 112.722 270.9 104.534 271.232 94.0809C271.46 86.9139 272.643 80.8672 274.781 75.9408C276.919 71.0145 279.67 67.3958 283.033 65.0847C286.436 62.7749 290.157 61.6841 294.196 61.8124C297.086 61.9041 299.735 62.7611 302.141 64.3833C304.587 65.9672 306.579 68.151 308.116 70.9347L309.108 39.6929L317.898 39.9719L315.134 127.045L306.937 126.785ZM280.199 94.425C279.94 102.582 281.153 108.685 283.839 112.734C286.564 116.784 289.808 118.869 293.57 118.988C297.292 119.106 300.579 117.308 303.432 113.594C306.285 109.879 307.833 104.181 308.077 96.4992C308.357 87.6691 307.196 81.1913 304.592 77.0656C301.989 72.9004 298.609 70.7518 294.451 70.6198C290.769 70.5029 287.539 72.3624 284.761 76.1982C281.985 79.9945 280.464 86.0701 280.199 94.425ZM357.972 120.617C354.945 123.573 351.823 125.772 348.606 127.216C345.39 128.66 342.079 129.328 338.673 129.22C333.288 129.049 329.043 127.289 325.939 123.94C322.835 120.591 321.37 116.165 321.545 110.661C321.66 107.018 322.515 103.815 324.109 101.051C325.703 98.2875 327.832 96.1553 330.496 94.6544C333.159 93.1535 337.156 92.1111 342.486 91.5272C349.646 90.724 354.912 89.6624 358.283 88.3425L358.429 85.6122C358.566 81.2962 357.89 78.2425 356.401 76.4512C354.304 73.8479 350.998 72.4745 346.484 72.3312C342.406 72.2017 339.33 72.9563 337.256 74.5948C335.184 76.1938 333.599 79.2946 332.502 83.8972L323.935 82.1983C325.377 75.4662 328.009 70.615 331.829 67.6446C335.688 64.6755 341.103 63.3016 348.072 63.5228C353.497 63.695 357.721 64.8597 360.744 67.0168C363.768 69.1343 365.629 71.7103 366.325 74.7448C367.061 77.7805 367.337 82.189 367.154 87.9701L366.701 102.225C366.384 112.203 366.363 118.505 366.636 121.13C366.95 123.716 367.623 126.254 368.654 128.744L359.507 128.454C358.665 126.247 358.154 123.635 357.972 120.617ZM358.017 96.7172C354.76 98.1993 349.945 99.3941 343.575 100.302C339.872 100.818 337.275 101.469 335.784 102.254C334.293 103 333.109 104.111 332.229 105.59C331.391 107.03 330.941 108.72 330.879 110.66C330.784 113.669 331.638 116.114 333.441 117.995C335.245 119.836 337.791 120.808 341.077 120.913C344.205 121.012 347.062 120.29 349.648 118.747C352.273 117.205 354.262 115.108 355.615 112.456C356.969 109.764 357.728 105.824 357.893 100.637L358.017 96.7172ZM373.589 153.218L372.957 143.15C374.878 143.845 376.531 144.215 377.916 144.259C379.778 144.318 381.314 143.99 382.526 143.276C383.777 142.562 384.824 141.426 385.666 139.868C385.961 139.322 387.22 135.874 389.443 129.523L371.79 65.7027L381.233 66.0026L390.884 102.874C392.085 107.47 393.178 112.38 394.162 117.604C395.307 112.725 396.647 107.972 398.182 103.343L410.396 66.9284L419.187 67.2075L397.491 130.73C394.653 138.964 392.438 144.443 390.845 147.167C389.291 149.931 387.544 151.897 385.604 153.065C383.704 154.233 381.566 154.78 379.19 154.704C377.527 154.651 375.66 154.156 373.589 153.218Z" fill="#FAFF00"/>
<path d="M73.4375 109.8L76.6263 109.501L76.3129 106.155L72.9858 106.629L73.4375 109.8ZM74.3256 119.281L75.0395 122.403L77.7761 121.778L77.5143 118.983L74.3256 119.281ZM60.4535 118.008L58.6062 120.625L58.6258 120.639L58.6456 120.652L60.4535 118.008ZM56.7512 112.897L53.6721 113.778L53.6796 113.804L53.6875 113.83L56.7512 112.897ZM57.2915 64.0418L60.4926 64.1434L60.5942 60.9423L57.3932 60.8407L57.2915 64.0418ZM50.8768 63.8381L47.6758 63.7365L47.5741 66.9376L50.7752 67.0392L50.8768 63.8381ZM51.1408 55.5228L51.2425 52.3217L48.0414 52.2201L47.9398 55.4212L51.1408 55.5228ZM57.5555 55.7265L57.4539 58.9275L60.655 59.0292L60.7566 55.8281L57.5555 55.7265ZM58.0515 40.1055L56.2381 37.4656L54.9018 38.3835L54.8504 40.0039L58.0515 40.1055ZM66.9862 33.968L70.1873 34.0696L70.3881 27.7457L65.1728 31.3281L66.9862 33.968ZM66.2866 56.0036L63.0855 55.902L62.9839 59.1031L66.185 59.2047L66.2866 56.0036ZM75.1365 56.2846L78.3376 56.3862L78.4392 53.1851L75.2381 53.0835L75.1365 56.2846ZM74.8725 64.5999L74.7709 67.801L77.972 67.9027L78.0736 64.7016L74.8725 64.5999ZM66.0226 64.319L66.1243 61.1179L62.9232 61.0163L62.8215 64.2173L66.0226 64.319ZM65.4145 107.821L62.5275 109.207L62.5317 109.216L62.536 109.225L65.4145 107.821ZM73.4375 109.8L70.2488 110.098L71.1369 119.58L74.3256 119.281L77.5143 118.983L76.6263 109.501L73.4375 109.8ZM74.3256 119.281L73.6117 116.159C71.3714 116.671 69.4645 116.874 67.8636 116.823L67.762 120.024L67.6603 123.225C69.9399 123.298 72.4088 123.005 75.0395 122.403L74.3256 119.281ZM67.762 120.024L67.8636 116.823C65.2009 116.739 63.4232 116.159 62.2615 115.365L60.4535 118.008L58.6456 120.652C61.1305 122.352 64.2251 123.116 67.6603 123.225L67.762 120.024ZM60.4535 118.008L62.3009 115.392C61.0562 114.513 60.2525 113.4 59.815 111.964L56.7512 112.897L53.6875 113.83C54.5422 116.636 56.2067 118.93 58.6062 120.625L60.4535 118.008ZM56.7512 112.897L59.8304 112.016C59.3828 110.451 59.1397 106.758 59.3405 100.434L56.1394 100.332L52.9383 100.231C52.7418 106.419 52.9066 111.102 53.6721 113.778L56.7512 112.897ZM56.1394 100.332L59.3405 100.434L60.4926 64.1434L57.2915 64.0418L54.0904 63.9402L52.9383 100.231L56.1394 100.332ZM57.2915 64.0418L57.3932 60.8407L50.9785 60.637L50.8768 63.8381L50.7752 67.0392L57.1899 67.2429L57.2915 64.0418ZM50.8768 63.8381L54.0779 63.9398L54.3419 55.6244L51.1408 55.5228L47.9398 55.4212L47.6758 63.7365L50.8768 63.8381ZM51.1408 55.5228L51.0392 58.7239L57.4539 58.9275L57.5555 55.7265L57.6572 52.5254L51.2425 52.3217L51.1408 55.5228ZM57.5555 55.7265L60.7566 55.8281L61.2525 40.2071L58.0515 40.1055L54.8504 40.0039L54.3544 55.6248L57.5555 55.7265ZM58.0515 40.1055L59.8648 42.7454L68.7996 36.6079L66.9862 33.968L65.1728 31.3281L56.2381 37.4656L58.0515 40.1055ZM66.9862 33.968L63.7851 33.8664L63.0855 55.902L66.2866 56.0036L69.4877 56.1053L70.1873 34.0696L66.9862 33.968ZM66.2866 56.0036L66.185 59.2047L75.0349 59.4857L75.1365 56.2846L75.2381 53.0835L66.3883 52.8026L66.2866 56.0036ZM75.1365 56.2846L71.9354 56.183L71.6714 64.4983L74.8725 64.5999L78.0736 64.7016L78.3376 56.3862L75.1365 56.2846ZM74.8725 64.5999L74.9741 61.3989L66.1243 61.1179L66.0226 64.319L65.921 67.5201L74.7709 67.801L74.8725 64.5999ZM66.0226 64.319L62.8215 64.2173L61.6505 101.102L64.8516 101.203L68.0527 101.305L69.2237 64.4206L66.0226 64.319ZM64.8516 101.203L61.6505 101.102C61.5944 102.87 61.6117 104.409 61.7201 105.683C61.8209 106.869 62.0228 108.157 62.5275 109.207L65.4145 107.821L68.3014 106.434C68.3227 106.479 68.1892 106.16 68.1024 105.14C68.0232 104.209 68.0007 102.942 68.0527 101.305L64.8516 101.203ZM65.4145 107.821L62.536 109.225C63.9143 112.05 66.6031 113.203 69.462 113.294L69.5636 110.093L69.6653 106.892C68.9902 106.87 68.6563 106.741 68.5203 106.667C68.4241 106.614 68.3629 106.56 68.2929 106.417L65.4145 107.821ZM69.5636 110.093L69.462 113.294C70.7149 113.334 72.2114 113.209 73.8892 112.97L73.4375 109.8L72.9858 106.629C71.4783 106.844 70.3922 106.915 69.6653 106.892L69.5636 110.093ZM76.5242 119.47L73.3231 119.368L73.2215 122.569L76.4226 122.671L76.5242 119.47ZM79.2886 32.3966L79.3902 29.1955L76.1891 29.0939L76.0875 32.2949L79.2886 32.3966ZM88.0197 32.6738L91.2208 32.7754L91.3224 29.5743L88.1213 29.4727L88.0197 32.6738ZM87.0278 63.9157L83.8267 63.814L83.5089 73.8253L89.5761 65.8556L87.0278 63.9157ZM94.1826 57.6622L95.6446 60.5117L95.652 60.508L95.6593 60.5041L94.1826 57.6622ZM115.704 61.4371L113.256 63.5015L113.268 63.516L113.28 63.5303L115.704 61.4371ZM118.635 120.807L118.534 124.008L121.735 124.11L121.837 120.909L118.635 120.807ZM109.904 120.53L106.703 120.428L106.602 123.629L109.803 123.731L109.904 120.53ZM90.8451 69.15L88.513 66.9549L88.505 66.9634L88.497 66.9721L90.8451 69.15ZM85.2553 119.747L85.1537 122.948L88.3548 123.05L88.4564 119.849L85.2553 119.747ZM76.5242 119.47L79.7253 119.572L82.4897 32.4982L79.2886 32.3966L76.0875 32.2949L73.3231 119.368L76.5242 119.47ZM79.2886 32.3966L79.187 35.5977L87.9181 35.8749L88.0197 32.6738L88.1213 29.4727L79.3902 29.1955L79.2886 32.3966ZM88.0197 32.6738L84.8186 32.5721L83.8267 63.814L87.0278 63.9157L90.2289 64.0173L91.2208 32.7754L88.0197 32.6738ZM87.0278 63.9157L89.5761 65.8556C91.4961 63.3336 93.5297 61.5968 95.6446 60.5117L94.1826 57.6622L92.7206 54.8127C89.5974 56.4151 86.8612 58.8473 84.4796 61.9757L87.0278 63.9157ZM94.1826 57.6622L95.6593 60.5041C97.8107 59.3863 100.158 58.8564 102.763 58.9391L102.865 55.738L102.966 52.5369C99.3151 52.421 95.8743 53.1739 92.7059 54.8203L94.1826 57.6622ZM102.865 55.738L102.763 58.9391C107.52 59.0901 110.882 60.686 113.256 63.5015L115.704 61.4371L118.153 59.3728C114.415 54.9389 109.217 52.7354 102.966 52.5369L102.865 55.738ZM115.704 61.4371L113.28 63.5303C115.534 66.1405 116.996 71.5156 116.703 80.7323L119.904 80.8339L123.106 80.9356C123.406 71.4625 122.068 63.9064 118.128 59.344L115.704 61.4371ZM119.904 80.8339L116.703 80.7323L115.434 120.705L118.635 120.807L121.837 120.909L123.106 80.9356L119.904 80.8339ZM118.635 120.807L118.737 117.606L110.006 117.329L109.904 120.53L109.803 123.731L118.534 124.008L118.635 120.807ZM109.904 120.53L113.105 120.631L114.374 80.6584L111.173 80.5567L107.972 80.4551L106.703 120.428L109.904 120.53ZM111.173 80.5567L114.374 80.6584C114.555 74.9708 113.729 70.0903 111.18 66.758L108.636 68.7041L106.093 70.6502C107.273 72.1927 108.139 75.2139 107.972 80.4551L111.173 80.5567ZM108.636 68.7041L111.18 66.758C108.662 63.4663 105.079 61.8195 100.833 61.6847L100.731 64.8858L100.63 68.0869C103.194 68.1683 104.881 69.067 106.093 70.6502L108.636 68.7041ZM100.731 64.8858L100.833 61.6847C96.0433 61.5327 91.882 63.3756 88.513 66.9549L90.8451 69.15L93.1773 71.3451C95.387 68.9974 97.8165 67.9976 100.63 68.0869L100.731 64.8858ZM90.8451 69.15L88.497 66.9721C84.9157 70.8333 83.4011 77.221 83.1498 85.1369L86.3509 85.2385L89.552 85.3402C89.7934 77.7341 91.2751 73.3961 93.1933 71.3279L90.8451 69.15ZM86.3509 85.2385L83.1498 85.1369L82.0542 119.646L85.2553 119.747L88.4564 119.849L89.552 85.3402L86.3509 85.2385ZM85.2553 119.747L85.3569 116.546L76.6258 116.269L76.5242 119.47L76.4226 122.671L85.1537 122.948L85.2553 119.747ZM161.048 122.153L157.847 122.052L157.746 125.253L160.947 125.355L161.048 122.153ZM161.343 112.888L164.544 112.989L164.929 100.848L158.608 111.221L161.343 112.888ZM134.26 119.46L132.231 121.938L132.242 121.947L132.253 121.955L134.26 119.46ZM128.705 110.9L125.597 111.672L125.601 111.689L125.606 111.706L128.705 110.9ZM128.958 57.9933L129.06 54.7922L125.859 54.6906L125.757 57.8917L128.958 57.9933ZM137.689 58.2705L140.89 58.3722L140.992 55.1711L137.791 55.0694L137.689 58.2705ZM137.114 106.351L134.008 107.133L134.017 107.166L134.026 107.2L137.114 106.351ZM140.569 111.753L138.532 114.223L138.563 114.249L138.594 114.274L140.569 111.753ZM157.064 109.066L159.524 111.117L159.529 111.111L159.534 111.104L157.064 109.066ZM162.101 59.0455L162.202 55.8445L159.001 55.7428L158.9 58.9439L162.101 59.0455ZM170.891 59.3246L174.092 59.4262L174.194 56.2252L170.993 56.1235L170.891 59.3246ZM168.889 122.402L168.787 125.603L171.988 125.705L172.09 122.504L168.889 122.402ZM161.048 122.153L164.249 122.255L164.544 112.989L161.343 112.888L158.141 112.786L157.847 122.052L161.048 122.153ZM161.343 112.888L158.608 111.221C156.675 114.393 154.551 116.573 152.297 117.943L153.961 120.68L155.624 123.417C158.948 121.396 161.745 118.382 164.077 114.554L161.343 112.888ZM153.961 120.68L152.297 117.943C150.07 119.297 147.572 119.948 144.712 119.857L144.61 123.058L144.508 126.26C148.538 126.387 152.274 125.453 155.624 123.417L153.961 120.68ZM144.61 123.058L144.712 119.857C141.236 119.747 138.479 118.743 136.268 116.964L134.26 119.46L132.253 121.955C135.684 124.715 139.827 126.111 144.508 126.26L144.61 123.058ZM134.26 119.46L136.289 116.982C133.972 115.085 132.51 112.809 131.805 110.095L128.705 110.9L125.606 111.706C126.666 115.786 128.908 119.216 132.231 121.938L134.26 119.46ZM128.705 110.9L131.814 110.128C131.072 107.144 130.738 102.871 130.918 97.177L127.717 97.0754L124.516 96.9738C124.327 102.921 124.651 107.865 125.597 111.672L128.705 110.9ZM127.717 97.0754L130.918 97.177L132.159 58.095L128.958 57.9933L125.757 57.8917L124.516 96.9738L127.717 97.0754ZM128.958 57.9933L128.856 61.1944L137.588 61.4716L137.689 58.2705L137.791 55.0694L129.06 54.7922L128.958 57.9933ZM137.689 58.2705L134.488 58.1689L133.377 93.1527L136.579 93.2543L139.78 93.3559L140.89 58.3722L137.689 58.2705ZM136.579 93.2543L133.377 93.1527C133.173 99.5893 133.319 104.395 134.008 107.133L137.114 106.351L140.22 105.57C139.783 103.833 139.572 99.9071 139.78 93.3559L136.579 93.2543ZM137.114 106.351L134.026 107.2C134.798 110.011 136.304 112.387 138.532 114.223L140.569 111.753L142.607 109.282C141.435 108.315 140.638 107.09 140.202 105.503L137.114 106.351ZM140.569 111.753L138.594 114.274C140.883 116.067 143.542 117.013 146.464 117.106L146.565 113.905L146.667 110.704C145.075 110.653 143.736 110.165 142.544 109.231L140.569 111.753ZM146.565 113.905L146.464 117.106C151.693 117.272 156.121 115.197 159.524 111.117L157.064 109.066L154.605 107.014C152.403 109.654 149.832 110.804 146.667 110.704L146.565 113.905ZM157.064 109.066L159.534 111.104C162.662 107.314 163.975 100.929 164.229 92.943L161.028 92.8414L157.827 92.7398C157.577 100.593 156.248 105.023 154.594 107.027L157.064 109.066ZM161.028 92.8414L164.229 92.943L165.302 59.1472L162.101 59.0455L158.9 58.9439L157.827 92.7398L161.028 92.8414ZM162.101 59.0455L161.999 62.2466L170.789 62.5257L170.891 59.3246L170.993 56.1235L162.202 55.8445L162.101 59.0455ZM170.891 59.3246L167.69 59.223L165.687 122.301L168.889 122.402L172.09 122.504L174.092 59.4262L170.891 59.3246ZM168.889 122.402L168.99 119.201L161.15 118.952L161.048 122.153L160.947 125.355L168.787 125.603L168.889 122.402ZM213.788 103.494L214.367 100.344L211.629 99.8406L210.749 102.482L213.788 103.494ZM222.772 105.147L225.874 105.944L226.729 102.618L223.352 101.997L222.772 105.147ZM214.091 120.151L216.114 122.634L216.116 122.633L214.091 120.151ZM181.763 115.914L179.21 117.848L179.218 117.858L179.225 117.868L181.763 115.914ZM183.378 66.9151L180.942 64.8361L180.94 64.8381L183.378 66.9151ZM217.536 67.8212L214.968 69.7349L217.536 67.8212ZM223.473 92.4457L226.671 92.614L226.673 92.5807L226.674 92.5473L223.473 92.4457ZM223.323 95.2948L223.221 98.4959L226.356 98.5954L226.521 95.4631L223.323 95.2948ZM184.716 94.0691L184.818 90.868L181.452 90.7612L181.514 94.1284L184.716 94.0691ZM185.53 85.2956L182.338 85.0342L182.063 88.3898L185.428 88.4967L185.53 85.2956ZM214.396 86.212L214.294 89.4131L217.736 89.5224L217.596 86.082L214.396 86.212ZM211.28 73.8654L208.619 75.6483L208.623 75.6543L211.28 73.8654ZM190.522 72.2551L192.89 74.4107L192.897 74.4036L192.903 74.3965L190.522 72.2551ZM213.788 103.494L213.208 106.644L222.193 108.297L222.772 105.147L223.352 101.997L214.367 100.344L213.788 103.494ZM222.772 105.147L219.67 104.349C218.069 110.578 215.461 114.9 212.067 117.669L214.091 120.151L216.116 122.633C220.859 118.764 224.039 113.083 225.874 105.944L222.772 105.147ZM214.091 120.151L212.069 117.668C208.712 120.402 204.569 121.758 199.419 121.594L199.318 124.795L199.216 127.996C205.708 128.203 211.414 126.462 216.114 122.634L214.091 120.151ZM199.318 124.795L199.419 121.594C193.028 121.391 188.08 118.871 184.301 113.961L181.763 115.914L179.225 117.868C184.201 124.334 190.956 127.734 199.216 127.996L199.318 124.795ZM181.763 115.914L184.316 113.981C180.586 109.055 178.639 101.775 178.959 91.6865L175.758 91.5849L172.557 91.4832C172.211 102.381 174.267 111.321 179.21 117.848L181.763 115.914ZM175.758 91.5849L178.959 91.6865C179.292 81.1804 181.735 73.7823 185.816 68.9921L183.378 66.9151L180.94 64.8381C175.552 71.1627 172.914 80.2111 172.557 91.4832L175.758 91.5849ZM183.378 66.9151L185.814 68.9942C189.994 64.0965 194.971 61.8665 200.953 62.0564L201.054 58.8553L201.156 55.6542C193.121 55.3991 186.313 58.5423 180.942 64.8361L183.378 66.9151ZM201.054 58.8553L200.953 62.0564C206.59 62.2354 211.206 64.6862 214.968 69.7349L217.536 67.8212L220.104 65.9075C215.275 59.4266 208.903 55.9002 201.156 55.6542L201.054 58.8553ZM217.536 67.8212L214.968 69.7349C218.666 74.6971 220.598 82.0807 220.272 92.3441L223.473 92.4457L226.674 92.5473C227.024 81.5076 224.998 72.4749 220.104 65.9075L217.536 67.8212ZM223.473 92.4457L220.275 92.2774L220.125 95.1265L223.323 95.2948L226.521 95.4631L226.671 92.614L223.473 92.4457ZM223.323 95.2948L223.425 92.0937L184.818 90.868L184.716 94.0691L184.614 97.2702L223.221 98.4959L223.323 95.2948ZM184.716 94.0691L181.514 94.1284C181.652 101.57 183.194 107.747 186.589 112.203L189.137 110.262L191.684 108.322C189.448 105.385 188.043 100.767 187.918 94.0099L184.716 94.0691ZM189.137 110.262L186.589 112.203C189.918 116.574 194.283 119.04 199.555 119.208L199.656 116.007L199.758 112.806C196.635 112.706 193.987 111.344 191.684 108.322L189.137 110.262ZM199.656 116.007L199.555 119.208C203.617 119.337 207.245 118.087 210.242 115.433C213.163 112.847 215.297 109.098 216.826 104.506L213.788 103.494L210.749 102.482C209.431 106.441 207.785 109.053 205.996 110.637C204.282 112.154 202.268 112.885 199.758 112.806L199.656 116.007ZM185.53 85.2956L185.428 88.4967L214.294 89.4131L214.396 86.212L214.497 83.0109L185.631 82.0945L185.53 85.2956ZM214.396 86.212L217.596 86.082C217.363 80.3578 216.273 75.5467 213.936 72.0764L211.28 73.8654L208.623 75.6543C209.996 77.6924 210.983 81.1124 211.196 86.342L214.396 86.212ZM211.28 73.8654L213.94 72.0824C210.751 67.3227 206.327 64.6178 200.818 64.4428L200.716 67.6439L200.614 70.845C203.816 70.9467 206.435 72.3893 208.619 75.6483L211.28 73.8654ZM200.716 67.6439L200.818 64.4428C195.856 64.2853 191.578 66.29 188.14 70.1136L190.522 72.2551L192.903 74.3965C195.217 71.823 197.736 70.7536 200.614 70.845L200.716 67.6439ZM190.522 72.2551L188.153 70.0994C184.676 73.92 182.831 79.0071 182.338 85.0342L185.53 85.2956L188.722 85.557C189.135 80.5145 190.618 76.908 192.89 74.4107L190.522 72.2551ZM225.624 105.356L225.121 102.193L222.095 102.675L222.442 105.719L225.624 105.356ZM234.349 103.969L237.54 103.7L237.252 100.264L233.846 100.806L234.349 103.969ZM238.251 114.021L235.975 116.274L235.985 116.285L235.995 116.295L238.251 114.021ZM256.175 115.007L258.246 117.45L258.249 117.448L256.175 115.007ZM257.063 102.014L259.109 99.5498L259.103 99.5453L257.063 102.014ZM248.267 98.1677L247.227 101.197L247.235 101.2L247.243 101.202L248.267 98.1677ZM234.776 92.3884L232.969 95.0324L234.776 92.3884ZM233.566 64.9412L235.731 67.3019L233.566 64.9412ZM258.072 62.7464L256.596 65.589L256.604 65.5929L256.612 65.5967L258.072 62.7464ZM267.495 78.6823L267.921 81.8565L271.003 81.443L270.681 78.3505L267.495 78.6823ZM258.897 79.8362L255.705 80.1008L255.984 83.4587L259.323 83.0105L258.897 79.8362ZM239.432 71.1918L241.366 73.745L241.382 73.7327L241.398 73.7202L239.432 71.1918ZM238.953 82.5326L236.943 85.0253L236.954 85.0349L236.966 85.0443L238.953 82.5326ZM248.336 86.6356L247.234 89.6427L247.245 89.6469L247.257 89.651L248.336 86.6356ZM262.235 92.6656L260.409 95.2965L260.426 95.3086L260.444 95.3203L262.235 92.6656ZM267.047 98.4072L264.139 99.7478L264.143 99.7577L264.148 99.7675L267.047 98.4072ZM262.338 121.267L260.183 118.897L260.177 118.903L260.171 118.908L262.338 121.267ZM225.624 105.356L226.127 108.519L234.852 107.132L234.349 103.969L233.846 100.806L225.121 102.193L225.624 105.356ZM234.349 103.969L231.157 104.237C231.569 109.133 233.038 113.307 235.975 116.274L238.251 114.021L240.527 111.769C239.009 110.234 237.877 107.706 237.54 103.7L234.349 103.969ZM238.251 114.021L235.995 116.295C238.916 119.192 242.764 120.58 247.194 120.72L247.296 117.519L247.398 114.318C244.225 114.217 242.044 113.273 240.507 111.748L238.251 114.021ZM247.296 117.519L247.194 120.72C251.493 120.857 255.33 119.922 258.246 117.45L256.175 115.007L254.104 112.564C252.784 113.683 250.701 114.423 247.398 114.318L247.296 117.519ZM256.175 115.007L258.249 117.448C261.113 115.014 262.632 111.794 262.752 108.021L259.551 107.92L256.35 107.818C256.286 109.826 255.555 111.331 254.102 112.566L256.175 115.007ZM259.551 107.92L262.752 108.021C262.859 104.658 261.694 101.696 259.109 99.5498L257.063 102.014L255.018 104.479C255.908 105.218 256.402 106.193 256.35 107.818L259.551 107.92ZM257.063 102.014L259.103 99.5453C258.142 98.751 256.763 98.0383 255.249 97.3762C253.666 96.6839 251.671 95.9364 249.291 95.1331L248.267 98.1677L247.243 101.202C249.53 101.974 251.334 102.655 252.683 103.245C254.101 103.865 254.787 104.288 255.023 104.483L257.063 102.014ZM248.267 98.1677L249.307 95.1384C242.534 92.8137 238.429 91.0061 236.583 89.7443L234.776 92.3884L232.969 95.0324C235.623 96.8467 240.512 98.892 247.227 101.197L248.267 98.1677ZM234.776 92.3884L236.583 89.7443C234.807 88.5301 233.458 86.9532 232.508 84.9607L229.617 86.3385L226.726 87.7164C228.155 90.7144 230.245 93.1707 232.969 95.0324L234.776 92.3884ZM229.617 86.3385L232.508 84.9607C231.566 82.9847 231.098 80.6906 231.183 78.0051L227.982 77.9035L224.781 77.8019C224.668 81.3726 225.289 84.7019 226.726 87.7164L229.617 86.3385ZM227.982 77.9035L231.183 78.0051C231.33 73.3701 232.892 69.904 235.731 67.3019L233.566 64.9412L231.402 62.5805C227.137 66.4911 224.976 71.6666 224.781 77.8019L227.982 77.9035ZM233.566 64.9412L235.731 67.3019C238.513 64.751 242.444 63.3737 247.939 63.5481L248.041 60.347L248.142 57.146C241.442 56.9332 235.723 58.6186 231.402 62.5805L233.566 64.9412ZM248.041 60.347L247.939 63.5481C251.395 63.6578 254.251 64.3716 256.596 65.589L258.072 62.7464L259.548 59.9039C256.2 58.166 252.369 57.2801 248.142 57.146L248.041 60.347ZM258.072 62.7464L256.612 65.5967C259.06 66.8514 260.763 68.4103 261.88 70.2231L264.606 68.5427L267.333 66.8623C265.51 63.9046 262.856 61.5993 259.533 59.8962L258.072 62.7464ZM264.606 68.5427L261.88 70.2231C262.995 72.0315 263.878 74.8735 264.31 79.0141L267.495 78.6823L270.681 78.3505C270.201 73.7421 269.159 69.8243 267.333 66.8623L264.606 68.5427ZM267.495 78.6823L267.069 75.508L258.471 76.662L258.897 79.8362L259.323 83.0105L267.921 81.8565L267.495 78.6823ZM258.897 79.8362L262.089 79.5717C261.762 75.6276 260.522 72.1793 257.986 69.691C255.434 67.1874 251.99 66.0675 248.101 65.944L247.999 69.1451L247.898 72.3462C250.7 72.4351 252.419 73.2033 253.5 74.2634C254.596 75.3388 255.459 77.1299 255.705 80.1008L258.897 79.8362ZM247.999 69.1451L248.101 65.944C243.956 65.8124 240.221 66.5217 237.466 68.6635L239.432 71.1918L241.398 73.7202C242.464 72.8916 244.44 72.2364 247.898 72.3462L247.999 69.1451ZM239.432 71.1918L237.499 68.6387C234.826 70.6632 233.361 73.4716 233.255 76.8223L236.456 76.9239L239.657 77.0256C239.701 75.6246 240.221 74.6117 241.366 73.745L239.432 71.1918ZM236.456 76.9239L233.255 76.8223C233.151 80.108 234.381 82.9589 236.943 85.0253L238.953 82.5326L240.964 80.0398C240.048 79.3005 239.613 78.4123 239.657 77.0256L236.456 76.9239ZM238.953 82.5326L236.966 85.0443C237.853 85.7459 239.256 86.4373 240.799 87.1121C242.447 87.833 244.6 88.6776 247.234 89.6427L248.336 86.6356L249.438 83.6284C246.861 82.6841 244.844 81.8901 243.365 81.2433C242.625 80.9198 242.048 80.6455 241.618 80.4189C241.403 80.3062 241.24 80.2129 241.119 80.1388C241.059 80.1022 241.015 80.0731 240.984 80.0516C240.952 80.0297 240.939 80.0194 240.94 80.0208L238.953 82.5326ZM248.336 86.6356L247.257 89.651C254.498 92.2418 258.721 94.1247 260.409 95.2965L262.235 92.6656L264.062 90.0347C261.561 88.299 256.518 86.1618 249.415 83.6201L248.336 86.6356ZM262.235 92.6656L260.444 95.3203C262.028 96.3898 263.258 97.8377 264.139 99.7478L267.047 98.4072L269.956 97.0665C268.611 94.1495 266.633 91.7698 264.027 90.0109L262.235 92.6656ZM267.047 98.4072L264.148 99.7675C265.002 101.588 265.453 103.876 265.362 106.737L268.563 106.838L271.764 106.94C271.88 103.307 271.32 99.9737 269.947 97.0469L267.047 98.4072ZM268.563 106.838L265.362 106.737C265.195 112.008 263.418 115.956 260.183 118.897L262.338 121.267L264.493 123.636C269.176 119.377 271.55 113.706 271.764 106.94L268.563 106.838ZM262.338 121.267L260.171 118.908C257.01 121.813 252.631 123.343 246.641 123.153L246.54 126.354L246.438 129.555C253.674 129.785 259.827 127.924 264.505 123.625L262.338 121.267ZM246.54 126.354L246.641 123.153C241.043 122.975 237.057 121.333 234.285 118.549C231.473 115.727 229.531 111.352 228.806 104.994L225.624 105.356L222.442 105.719C223.268 112.966 225.586 118.893 229.746 123.07C233.946 127.285 239.643 129.339 246.438 129.555L246.54 126.354ZM306.937 126.785L303.736 126.683L303.635 129.885L306.836 129.986L306.937 126.785ZM307.19 118.826L310.391 118.928L304.396 117.26L307.19 118.826ZM300.85 125.641L302.48 128.397L302.495 128.388L302.511 128.379L300.85 125.641ZM277.111 118.644L274.51 120.512L274.517 120.522L274.524 120.532L277.111 118.644ZM283.033 65.0847L281.234 62.4349L281.227 62.44L281.219 62.4452L283.033 65.0847ZM302.141 64.3833L300.35 67.0388L300.375 67.0556L300.4 67.0719L302.141 64.3833ZM308.116 70.9347L305.312 72.4826L310.947 82.6901L311.317 71.0364L308.116 70.9347ZM309.108 39.6929L309.209 36.4918L306.008 36.3901L305.907 39.5912L309.108 39.6929ZM317.898 39.9719L321.099 40.0736L321.201 36.8725L318 36.7708L317.898 39.9719ZM315.134 127.045L315.032 130.246L318.233 130.348L318.335 127.147L315.134 127.045ZM283.839 112.734L281.17 114.504L281.176 114.513L281.182 114.522L283.839 112.734ZM304.592 77.0656L301.876 78.7628L301.879 78.7689L301.883 78.7751L304.592 77.0656ZM284.761 76.1982L287.346 78.0888L287.351 78.0827L287.355 78.0766L284.761 76.1982ZM306.937 126.785L310.138 126.887L310.391 118.928L307.19 118.826L303.989 118.725L303.736 126.683L306.937 126.785ZM307.19 118.826L304.396 117.26C302.943 119.852 301.194 121.686 299.189 122.902L300.85 125.641L302.511 128.379C305.598 126.506 308.075 123.797 309.984 120.392L307.19 118.826ZM300.85 125.641L299.22 122.884C297.186 124.086 295.067 124.631 292.798 124.559L292.697 127.76L292.595 130.961C296.107 131.073 299.424 130.204 302.48 128.397L300.85 125.641ZM292.697 127.76L292.798 124.559C287.883 124.403 283.535 122.015 279.699 116.757L277.111 118.644L274.524 120.532C279.272 127.04 285.315 130.73 292.595 130.961L292.697 127.76ZM277.111 118.644L279.713 116.776C276.018 111.629 274.114 104.228 274.433 94.1825L271.232 94.0809L268.031 93.9793C267.686 104.84 269.702 113.816 274.51 120.512L277.111 118.644ZM271.232 94.0809L274.433 94.1825C274.652 87.292 275.786 81.6698 277.719 77.216L274.781 75.9408L271.843 74.6657C269.5 80.0646 268.268 86.5357 268.031 93.9793L271.232 94.0809ZM274.781 75.9408L277.719 77.216C279.692 72.6705 282.113 69.6033 284.847 67.7243L283.033 65.0847L281.219 62.4452C277.227 65.1883 274.147 69.3585 271.843 74.6657L274.781 75.9408ZM283.033 65.0847L284.832 67.7346C287.686 65.7973 290.744 64.9071 294.094 65.0135L294.196 61.8124L294.297 58.6113C289.57 58.4612 285.186 59.7526 281.234 62.4349L283.033 65.0847ZM294.196 61.8124L294.094 65.0135C296.379 65.086 298.443 65.7527 300.35 67.0388L302.141 64.3833L303.931 61.7279C301.026 59.7695 297.793 58.7223 294.297 58.6113L294.196 61.8124ZM302.141 64.3833L300.4 67.0719C302.364 68.3434 304.007 70.1179 305.312 72.4826L308.116 70.9347L310.92 69.3869C309.152 66.1841 306.81 63.591 303.881 61.6948L302.141 64.3833ZM308.116 70.9347L311.317 71.0364L312.309 39.7945L309.108 39.6929L305.907 39.5912L304.915 70.8331L308.116 70.9347ZM309.108 39.6929L309.006 42.8939L317.797 43.173L317.898 39.9719L318 36.7708L309.209 36.4918L309.108 39.6929ZM317.898 39.9719L314.697 39.8703L311.933 126.944L315.134 127.045L318.335 127.147L321.099 40.0736L317.898 39.9719ZM315.134 127.045L315.235 123.844L307.039 123.584L306.937 126.785L306.836 129.986L315.032 130.246L315.134 127.045ZM280.199 94.425L276.998 94.3234C276.731 102.738 277.943 109.639 281.17 114.504L283.839 112.734L286.508 110.964C284.364 107.731 283.149 102.426 283.4 94.5267L280.199 94.425ZM283.839 112.734L281.182 114.522C284.294 119.146 288.38 122.028 293.468 122.189L293.57 118.988L293.671 115.787C291.236 115.71 288.835 114.422 286.496 110.946L283.839 112.734ZM293.57 118.988L293.468 122.189C298.485 122.349 302.672 119.842 305.972 115.544L303.432 113.594L300.892 111.643C298.487 114.775 296.099 115.864 293.671 115.787L293.57 118.988ZM303.432 113.594L305.972 115.544C309.421 111.054 311.026 104.561 311.278 96.6008L308.077 96.4992L304.876 96.3976C304.641 103.801 303.149 108.704 300.892 111.643L303.432 113.594ZM308.077 96.4992L311.278 96.6008C311.565 87.5811 310.425 80.3075 307.3 75.3562L304.592 77.0656L301.883 78.7751C303.966 82.075 305.15 87.7571 304.876 96.3976L308.077 96.4992ZM304.592 77.0656L307.308 75.3685C304.257 70.4862 299.983 67.5911 294.553 67.4187L294.451 70.6198L294.35 73.8209C297.235 73.9125 299.721 75.3147 301.876 78.7628L304.592 77.0656ZM294.451 70.6198L294.553 67.4187C289.508 67.2586 285.369 69.8982 282.167 74.3199L284.761 76.1982L287.355 78.0766C289.709 74.8266 292.029 73.7472 294.35 73.8209L294.451 70.6198ZM284.761 76.1982L282.176 74.3077C278.823 78.8922 277.27 85.7627 276.998 94.3234L280.199 94.425L283.4 94.5267C283.659 86.3775 285.147 81.0968 287.346 78.0888L284.761 76.1982ZM357.972 120.617L361.169 120.424L360.748 113.429L355.734 118.325L357.972 120.617ZM330.496 94.6544L332.068 97.4446L330.496 94.6544ZM342.486 91.5272L342.835 94.7109L342.843 94.7099L342.486 91.5272ZM358.283 88.3425L359.451 91.3248L361.371 90.573L361.481 88.5137L358.283 88.3425ZM358.429 85.6122L361.627 85.7834L361.629 85.7486L361.63 85.7138L358.429 85.6122ZM356.401 76.4512L353.907 78.4605L353.923 78.4796L353.938 78.4985L356.401 76.4512ZM337.256 74.5948L339.213 77.1304L339.227 77.1191L339.242 77.1076L337.256 74.5948ZM332.502 83.8972L331.879 87.0388L334.902 87.6383L335.617 84.64L332.502 83.8972ZM323.935 82.1983L320.803 81.5273L320.122 84.7073L323.312 85.3399L323.935 82.1983ZM331.829 67.6446L329.876 65.1061L329.869 65.1112L329.863 65.1163L331.829 67.6446ZM360.744 67.0168L358.884 69.6239L358.895 69.6322L358.907 69.6404L360.744 67.0168ZM366.325 74.7448L363.204 75.4612L363.208 75.4803L363.213 75.4994L366.325 74.7448ZM366.636 121.13L363.451 121.461L363.453 121.489L363.457 121.516L366.636 121.13ZM368.654 128.744L368.552 131.946L373.51 132.103L371.613 127.52L368.654 128.744ZM359.507 128.454L356.514 129.595L357.274 131.588L359.405 131.655L359.507 128.454ZM358.017 96.7172L361.218 96.8189L361.382 91.6679L356.691 93.802L358.017 96.7172ZM343.575 100.302L344.017 103.474L344.026 103.472L343.575 100.302ZM335.784 102.254L337.216 105.118L337.246 105.104L337.275 105.088L335.784 102.254ZM332.229 105.59L329.477 103.952L329.469 103.965L329.462 103.978L332.229 105.59ZM333.441 117.995L331.129 120.211L331.141 120.224L331.154 120.237L333.441 117.995ZM349.648 118.747L348.026 115.985L348.017 115.991L348.007 115.997L349.648 118.747ZM355.615 112.456L358.468 113.911L358.472 113.903L358.476 113.895L355.615 112.456ZM357.972 120.617L355.734 118.325C352.924 121.069 350.107 123.032 347.295 124.294L348.606 127.216L349.918 130.138C353.539 128.513 356.966 126.076 360.21 122.908L357.972 120.617ZM348.606 127.216L347.295 124.294C344.506 125.546 341.677 126.111 338.775 126.018L338.673 129.22L338.572 132.421C342.48 132.545 346.273 131.774 349.918 130.138L348.606 127.216ZM338.673 129.22L338.775 126.018C334.079 125.869 330.706 124.371 328.288 121.763L325.939 123.94L323.59 126.117C327.381 130.206 332.497 132.228 338.572 132.421L338.673 129.22ZM325.939 123.94L328.288 121.763C325.871 119.156 324.592 115.609 324.746 110.763L321.545 110.661L318.344 110.559C318.148 116.72 319.799 122.027 323.59 126.117L325.939 123.94ZM321.545 110.661L324.746 110.763C324.847 107.571 325.588 104.897 326.884 102.651L324.109 101.051L321.335 99.451C319.442 102.733 318.474 106.465 318.344 110.559L321.545 110.661ZM324.109 101.051L326.884 102.651C328.204 100.362 329.926 98.6512 332.068 97.4446L330.496 94.6544L328.923 91.8641C325.737 93.6594 323.203 96.2127 321.335 99.451L324.109 101.051ZM330.496 94.6544L332.068 97.4446C334.171 96.2595 337.659 95.2778 342.835 94.7108L342.486 91.5272L342.137 88.3435C336.653 88.9443 332.148 90.0474 328.923 91.8641L330.496 94.6544ZM342.486 91.5272L342.843 94.7099C350.064 93.8999 355.673 92.8036 359.451 91.3248L358.283 88.3425L357.116 85.3602C354.15 86.5212 349.228 87.548 342.129 88.3444L342.486 91.5272ZM358.283 88.3425L361.481 88.5137L361.627 85.7834L358.429 85.6122L355.231 85.441L355.085 88.1713L358.283 88.3425ZM358.429 85.6122L361.63 85.7138C361.773 81.207 361.134 77.1343 358.864 74.4039L356.401 76.4512L353.938 78.4985C354.647 79.3507 355.359 81.3853 355.228 85.5106L358.429 85.6122ZM356.401 76.4512L358.895 74.4419C356.026 70.8801 351.688 69.2921 346.586 69.1301L346.484 72.3312L346.383 75.5323C350.309 75.657 352.582 76.8156 353.907 78.4605L356.401 76.4512ZM346.484 72.3312L346.586 69.1301C342.144 68.9891 338.185 69.7789 335.271 72.082L337.256 74.5948L339.242 77.1076C340.475 76.1336 342.668 75.4144 346.383 75.5323L346.484 72.3312ZM337.256 74.5948L335.3 72.0592C332.337 74.3454 330.532 78.3489 329.386 83.1544L332.502 83.8972L335.617 84.64C336.666 80.2402 338.031 78.0421 339.213 77.1304L337.256 74.5948ZM332.502 83.8972L333.125 80.7557L324.558 79.0568L323.935 82.1983L323.312 85.3399L331.879 87.0388L332.502 83.8972ZM323.935 82.1983L327.066 82.8693C328.417 76.5677 330.777 72.5191 333.795 70.173L331.829 67.6446L329.863 65.1163C325.24 68.7109 322.338 74.3648 320.803 81.5273L323.935 82.1983ZM331.829 67.6446L333.781 70.1831C336.846 67.8258 341.429 66.5162 347.97 66.7239L348.072 63.5228L348.174 60.3217C340.777 60.0869 334.531 61.5252 329.876 65.1061L331.829 67.6446ZM348.072 63.5228L347.97 66.7239C353.039 66.8848 356.562 67.9671 358.884 69.6239L360.744 67.0168L362.604 64.4097C358.88 61.7523 353.954 60.5052 348.174 60.3217L348.072 63.5228ZM360.744 67.0168L358.907 69.6404C361.41 71.3925 362.717 73.3391 363.204 75.4612L366.325 74.7448L369.447 74.0284C368.541 70.0815 366.127 66.8761 362.581 64.3932L360.744 67.0168ZM366.325 74.7448L363.213 75.4994C363.846 78.1108 364.133 82.1751 363.953 87.8685L367.154 87.9701L370.355 88.0717C370.541 82.2028 370.276 77.4502 369.438 73.9902L366.325 74.7448ZM367.154 87.9701L363.953 87.8685L363.5 102.123L366.701 102.225L369.902 102.327L370.355 88.0717L367.154 87.9701ZM366.701 102.225L363.5 102.123C363.186 112.029 363.15 118.574 363.451 121.461L366.636 121.13L369.822 120.798C369.576 118.436 369.583 112.378 369.902 102.327L366.701 102.225ZM366.636 121.13L363.457 121.516C363.807 124.4 364.556 127.22 365.694 129.969L368.654 128.744L371.613 127.52C370.689 125.288 370.093 123.032 369.815 120.743L366.636 121.13ZM368.654 128.744L368.755 125.543L359.608 125.253L359.507 128.454L359.405 131.655L368.552 131.946L368.654 128.744ZM359.507 128.454L362.499 127.313C361.801 125.482 361.336 123.204 361.169 120.424L357.972 120.617L354.775 120.809C354.971 124.066 355.53 127.013 356.514 129.595L359.507 128.454ZM358.017 96.7172L356.691 93.802C353.849 95.0949 349.391 96.238 343.123 97.131L343.575 100.302L344.026 103.472C350.5 102.55 355.67 101.304 359.344 99.6324L358.017 96.7172ZM343.575 100.302L343.132 97.1297C339.4 97.6505 336.316 98.3546 334.292 99.42L335.784 102.254L337.275 105.088C338.234 104.584 340.345 103.986 344.017 103.474L343.575 100.302ZM335.784 102.254L334.351 99.3898C332.294 100.419 330.659 101.965 329.477 103.952L332.229 105.59L334.982 107.227C335.558 106.258 336.293 105.58 337.216 105.118L335.784 102.254ZM332.229 105.59L329.462 103.978C328.315 105.948 327.754 108.175 327.678 110.558L330.879 110.66L334.08 110.762C334.128 109.265 334.467 108.111 334.997 107.201L332.229 105.59ZM330.879 110.66L327.678 110.558C327.56 114.283 328.636 117.611 331.129 120.211L333.441 117.995L335.752 115.778C334.639 114.617 334.008 113.056 334.08 110.762L330.879 110.66ZM333.441 117.995L331.154 120.237C333.683 122.817 337.101 123.991 340.976 124.114L341.077 120.913L341.179 117.712C338.48 117.626 336.808 116.855 335.728 115.753L333.441 117.995ZM341.077 120.913L340.976 124.114C344.691 124.232 348.156 123.367 351.289 121.497L349.648 118.747L348.007 115.997C345.969 117.213 343.72 117.792 341.179 117.712L341.077 120.913ZM349.648 118.747L351.27 121.509C354.409 119.665 356.832 117.12 358.468 113.911L355.615 112.456L352.762 111.001C351.693 113.096 350.138 114.746 348.026 115.985L349.648 118.747ZM355.615 112.456L358.476 113.895C360.139 110.589 360.924 106.102 361.094 100.739L357.893 100.637L354.692 100.536C354.533 105.547 353.799 108.939 352.754 111.017L355.615 112.456ZM357.893 100.637L361.094 100.739L361.218 96.8189L358.017 96.7172L354.816 96.6156L354.692 100.536L357.893 100.637ZM373.589 153.218L370.393 153.419L370.513 155.341L372.268 156.136L373.589 153.218ZM372.957 143.15L374.048 140.139L369.455 138.476L369.761 143.351L372.957 143.15ZM382.526 143.276L380.94 140.493L380.919 140.505L380.899 140.517L382.526 143.276ZM389.443 129.523L392.466 130.582L392.797 129.636L392.53 128.67L389.443 129.523ZM371.79 65.7027L371.891 62.5016L367.543 62.3636L368.703 66.5566L371.79 65.7027ZM381.233 66.0026L384.332 65.1916L383.726 62.8774L381.335 62.8015L381.233 66.0026ZM390.884 102.874L393.982 102.064L393.982 102.063L390.884 102.874ZM394.162 117.604L391.014 118.196L397.279 118.336L394.162 117.604ZM398.182 103.343L395.145 102.325L395.142 102.336L398.182 103.343ZM410.396 66.9284L410.498 63.7273L408.117 63.6517L407.36 65.9099L410.396 66.9284ZM419.187 67.2075L422.218 68.2427L423.618 64.1438L419.289 64.0064L419.187 67.2075ZM397.491 130.73L400.518 131.774L400.521 131.765L397.491 130.73ZM390.845 147.167L388.08 145.55L388.066 145.573L388.053 145.597L390.845 147.167ZM385.604 153.065L383.953 150.32L383.939 150.328L383.926 150.337L385.604 153.065ZM373.589 153.218L376.786 153.018L376.154 142.95L372.957 143.15L369.761 143.351L370.393 153.419L373.589 153.218ZM372.957 143.15L371.867 146.162C373.969 146.923 375.973 147.402 377.815 147.46L377.916 144.259L378.018 141.058C377.089 141.028 375.786 140.768 374.048 140.139L372.957 143.15ZM377.916 144.259L377.815 147.46C380.091 147.532 382.274 147.142 384.153 146.034L382.526 143.276L380.899 140.517C380.354 140.839 379.465 141.104 378.018 141.058L377.916 144.259ZM382.526 143.276L384.112 146.058C385.991 144.987 387.422 143.354 388.484 141.39L385.666 139.868L382.848 138.345C382.225 139.498 381.563 140.138 380.94 140.493L382.526 143.276ZM385.666 139.868L388.484 141.39C388.671 141.043 388.878 140.524 389.053 140.075C389.259 139.546 389.522 138.841 389.84 137.971C390.477 136.227 391.353 133.761 392.466 130.582L389.443 129.523L386.42 128.465C385.31 131.636 384.445 134.07 383.823 135.774C383.511 136.627 383.266 137.284 383.083 137.753C382.869 138.303 382.809 138.419 382.848 138.345L385.666 139.868ZM389.443 129.523L392.53 128.67L374.876 64.8489L371.79 65.7027L368.703 66.5566L386.356 130.377L389.443 129.523ZM371.79 65.7027L371.688 68.9038L381.132 69.2036L381.233 66.0026L381.335 62.8015L371.891 62.5016L371.79 65.7027ZM381.233 66.0026L378.135 66.8135L387.785 103.685L390.884 102.874L393.982 102.063L384.332 65.1916L381.233 66.0026ZM390.884 102.874L387.785 103.684C388.966 108.201 390.043 113.037 391.014 118.196L394.162 117.604L397.309 117.011C396.313 111.723 395.205 106.74 393.982 102.064L390.884 102.874ZM394.162 117.604L397.279 118.336C398.404 113.548 399.718 108.886 401.222 104.351L398.182 103.343L395.142 102.336C393.577 107.057 392.211 111.903 391.044 116.872L394.162 117.604ZM398.182 103.343L401.218 104.362L413.433 67.9469L410.396 66.9284L407.36 65.9099L395.145 102.325L398.182 103.343ZM410.396 66.9284L410.295 70.1295L419.085 70.4086L419.187 67.2075L419.289 64.0064L410.498 63.7273L410.396 66.9284ZM419.187 67.2075L416.156 66.1723L394.46 129.695L397.491 130.73L400.521 131.765L422.218 68.2427L419.187 67.2075ZM397.491 130.73L394.463 129.687C391.614 137.953 389.49 143.139 388.08 145.55L390.845 147.167L393.61 148.783C395.385 145.746 397.692 139.975 400.518 131.774L397.491 130.73ZM390.845 147.167L388.053 145.597C386.667 148.062 385.264 149.532 383.953 150.32L385.604 153.065L387.255 155.809C389.823 154.263 391.914 151.801 393.637 148.736L390.845 147.167ZM385.604 153.065L383.926 150.337C382.596 151.155 381.084 151.56 379.292 151.503L379.19 154.704L379.089 157.905C382.048 157.999 384.812 157.312 387.282 155.793L385.604 153.065ZM379.19 154.704L379.292 151.503C378.174 151.468 376.729 151.124 374.91 150.301L373.589 153.218L372.268 156.136C374.591 157.188 376.88 157.835 379.089 157.905L379.19 154.704Z" fill="#FAFF00" mask="url(#path-9-outside-3_172_196)"/>
</g>
</g>
<defs>
<filter id="filter0_ii_172_196" x="3.20129" y="301.055" width="330.995" height="185.006" filterUnits="userSpaceOnUse" color-interpolation-filters="sRGB">
<feFlood flood-opacity="0" result="BackgroundImageFix"/>
<feBlend mode="normal" in="SourceGraphic" in2="BackgroundImageFix" result="shape"/>
<feColorMatrix in="SourceAlpha" type="matrix" values="0 0 0 0 0 0 0 0 0 0 0 0 0 0 0 0 0 0 127 0" result="hardAlpha"/>
<feOffset dx="12.8108" dy="12.8108"/>
<feGaussianBlur stdDeviation="6.40541"/>
<feComposite in2="hardAlpha" operator="arithmetic" k2="-1" k3="1"/>
<feColorMatrix type="matrix" values="0 0 0 0 0 0 0 0 0 0 0 0 0 0 0 0 0 0 0.25 0"/>
<feBlend mode="normal" in2="shape" result="effect1_innerShadow_172_196"/>
<feColorMatrix in="SourceAlpha" type="matrix" values="0 0 0 0 0 0 0 0 0 0 0 0 0 0 0 0 0 0 127 0" result="hardAlpha"/>
<feOffset dx="6.40541" dy="6.40541"/>
<feGaussianBlur stdDeviation="3.2027"/>
<feComposite in2="hardAlpha" operator="arithmetic" k2="-1" k3="1"/>
<feColorMatrix type="matrix" values="0 0 0 0 0 0 0 0 0 0 0 0 0 0 0 0 0 0 0.25 0"/>
<feBlend mode="normal" in2="effect1_innerShadow_172_196" result="effect2_innerShadow_172_196"/>
</filter>
<filter id="filter1_ii_172_196" x="221.713" y="155.604" width="270.008" height="197.334" filterUnits="userSpaceOnUse" color-interpolation-filters="sRGB">
<feFlood flood-opacity="0" result="BackgroundImageFix"/>
<feBlend mode="normal" in="SourceGraphic" in2="BackgroundImageFix" result="shape"/>
<feColorMatrix in="SourceAlpha" type="matrix" values="0 0 0 0 0 0 0 0 0 0 0 0 0 0 0 0 0 0 127 0" result="hardAlpha"/>
<feOffset dx="12.8108" dy="12.8108"/>
<feGaussianBlur stdDeviation="6.40541"/>
<feComposite in2="hardAlpha" operator="arithmetic" k2="-1" k3="1"/>
<feColorMatrix type="matrix" values="0 0 0 0 0 0 0 0 0 0 0 0 0 0 0 0 0 0 0.25 0"/>
<feBlend mode="normal" in2="shape" result="effect1_innerShadow_172_196"/>
<feColorMatrix in="SourceAlpha" type="matrix" values="0 0 0 0 0 0 0 0 0 0 0 0 0 0 0 0 0 0 127 0" result="hardAlpha"/>
<feOffset dx="6.40541" dy="6.40541"/>
<feGaussianBlur stdDeviation="3.2027"/>
<feComposite in2="hardAlpha" operator="arithmetic" k2="-1" k3="1"/>
<feColorMatrix type="matrix" values="0 0 0 0 0 0 0 0 0 0 0 0 0 0 0 0 0 0 0.25 0"/>
<feBlend mode="normal" in2="effect1_innerShadow_172_196" result="effect2_innerShadow_172_196"/>
</filter>
<filter id="filter2_ii_172_196" x="7.6355" y="3.37695" width="466.197" height="176.586" filterUnits="userSpaceOnUse" color-interpolation-filters="sRGB">
<feFlood flood-opacity="0" result="BackgroundImageFix"/>
<feBlend mode="normal" in="SourceGraphic" in2="BackgroundImageFix" result="shape"/>
<feColorMatrix in="SourceAlpha" type="matrix" values="0 0 0 0 0 0 0 0 0 0 0 0 0 0 0 0 0 0 127 0" result="hardAlpha"/>
<feOffset dx="12.8108" dy="12.8108"/>
<feGaussianBlur stdDeviation="6.40541"/>
<feComposite in2="hardAlpha" operator="arithmetic" k2="-1" k3="1"/>
<feColorMatrix type="matrix" values="0 0 0 0 0 0 0 0 0 0 0 0 0 0 0 0 0 0 0.25 0"/>
<feBlend mode="normal" in2="shape" result="effect1_innerShadow_172_196"/>
<feColorMatrix in="SourceAlpha" type="matrix" values="0 0 0 0 0 0 0 0 0 0 0 0 0 0 0 0 0 0 127 0" result="hardAlpha"/>
<feOffset dx="6.40541" dy="6.40541"/>
<feGaussianBlur stdDeviation="3.2027"/>
<feComposite in2="hardAlpha" operator="arithmetic" k2="-1" k3="1"/>
<feColorMatrix type="matrix" values="0 0 0 0 0 0 0 0 0 0 0 0 0 0 0 0 0 0 0.25 0"/>
<feBlend mode="normal" in2="effect1_innerShadow_172_196" result="effect2_innerShadow_172_196"/>
</filter>
<clipPath id="clip0_172_196">
<rect width="474" height="474" rx="64" fill="white"/>
</clipPath>
</defs>
</svg>
