<svg width="474" height="474" viewBox="0 0 474 474" fill="none" xmlns="http://www.w3.org/2000/svg">
<rect width="474" height="474" rx="64" fill="#1B1B1B"/>
<rect x="9.60803" y="9.60742" width="227.392" height="227.392" rx="54.4459" fill="#D9D9D9"/>
<path d="M94.4126 167.191C88.0093 167.191 82.5125 165.436 77.9222 161.926C73.3704 158.416 69.8794 153.44 67.4493 146.998C65.0191 140.556 63.804 132.918 63.804 124.085V123.969C63.804 115.135 65.0191 107.498 67.4493 101.056C69.8794 94.614 73.3704 89.6572 77.9222 86.1855C82.5125 82.6753 88.0093 80.9202 94.4126 80.9202C100.816 80.9202 106.313 82.6753 110.903 86.1855C115.493 89.6572 119.004 94.614 121.434 101.056C123.903 107.498 125.137 115.135 125.137 123.969V124.085C125.137 132.918 123.903 140.556 121.434 146.998C119.004 153.44 115.493 158.416 110.903 161.926C106.313 165.436 100.816 167.191 94.4126 167.191ZM94.4126 158.107C98.6558 158.107 102.282 156.738 105.291 153.999C108.338 151.222 110.652 147.287 112.234 142.195C113.854 137.104 114.664 131.067 114.664 124.085V123.969C114.664 116.987 113.854 110.969 112.234 105.916C110.652 100.824 108.338 96.9092 105.291 94.1704C102.282 91.4316 98.6558 90.0623 94.4126 90.0623C90.1695 90.0623 86.5435 91.4316 83.5347 94.1704C80.5259 96.9092 78.2308 100.824 76.6492 105.916C75.0677 110.969 74.2769 116.987 74.2769 123.969V124.085C74.2769 131.067 75.0677 137.104 76.6492 142.195C78.2308 147.287 80.5259 151.222 83.5347 153.999C86.5435 156.738 90.1695 158.107 94.4126 158.107ZM127.72 165.803V158.628L157.113 127.961C160.894 124.027 163.768 120.787 165.735 118.241C167.741 115.656 169.11 113.342 169.843 111.297C170.614 109.253 171 107.073 171 104.759V104.643C171 101.789 170.325 99.2622 168.975 97.0635C167.664 94.8647 165.831 93.1482 163.478 91.9138C161.164 90.6409 158.483 90.0044 155.436 90.0044C151.964 90.0044 148.859 90.7373 146.12 92.2031C143.381 93.6304 141.221 95.5591 139.639 97.9893C138.058 100.419 137.267 103.139 137.267 106.148V106.437H127.199V106.09C127.199 101.268 128.453 96.967 130.96 93.1868C133.467 89.3679 136.843 86.3784 141.086 84.2183C145.368 82.0195 150.093 80.9202 155.262 80.9202C160.315 80.9202 164.809 81.9424 168.744 83.9868C172.678 86.0312 175.764 88.8086 178.001 92.3188C180.277 95.8291 181.415 99.7637 181.415 104.123V104.238C181.415 107.286 180.837 110.237 179.679 113.091C178.561 115.946 176.593 119.167 173.778 122.754C170.962 126.303 166.988 130.7 161.858 135.946L138.945 159.438L142.012 153.015V159.438L138.945 156.545H182.804V165.803H127.72Z" fill="#383838"/>
<rect x="237" y="9.60742" width="227.392" height="227.392" rx="54.4459" fill="#D9D9D9"/>
<path d="M321.11 167.191C315.363 167.191 310.348 166.208 306.066 164.24C301.784 162.273 298.39 159.573 295.883 156.14C293.414 152.707 291.987 148.792 291.601 144.394L291.543 143.7H301.553L301.611 144.278C301.919 147.017 302.903 149.428 304.562 151.511C306.259 153.594 308.516 155.233 311.332 156.429C314.147 157.586 317.407 158.165 321.11 158.165C324.775 158.165 327.976 157.529 330.715 156.256C333.492 154.983 335.653 153.228 337.196 150.99C338.739 148.714 339.51 146.111 339.51 143.179V143.063C339.51 137.933 337.793 133.998 334.36 131.26C330.966 128.482 326.337 127.094 320.474 127.094H310.001V118.299H320.011C323.328 118.299 326.26 117.681 328.806 116.447C331.352 115.174 333.338 113.458 334.765 111.297C336.193 109.099 336.906 106.611 336.906 103.833V103.718C336.906 100.786 336.289 98.2979 335.055 96.2534C333.82 94.209 332.007 92.6467 329.616 91.5667C327.263 90.4866 324.389 89.9465 320.994 89.9465C317.716 89.9465 314.784 90.5059 312.2 91.6245C309.654 92.7046 307.609 94.2668 306.066 96.3113C304.523 98.3557 303.597 100.786 303.289 103.602L303.231 104.18H293.221L293.279 103.602C293.742 99.05 295.169 95.0769 297.561 91.6824C299.991 88.2878 303.192 85.6455 307.166 83.7554C311.177 81.8652 315.787 80.9202 320.994 80.9202C326.318 80.9202 330.947 81.8459 334.881 83.6975C338.854 85.5105 341.921 88.0371 344.081 91.2773C346.28 94.479 347.379 98.2014 347.379 102.445V102.56C347.379 105.993 346.627 109.041 345.123 111.702C343.618 114.364 341.535 116.582 338.874 118.356C336.212 120.131 333.145 121.385 329.674 122.117V122.349C335.768 122.85 340.687 124.914 344.428 128.54C348.209 132.127 350.099 136.891 350.099 142.832V142.948C350.099 147.576 348.845 151.723 346.338 155.388C343.83 159.052 340.397 161.945 336.038 164.067C331.679 166.15 326.703 167.191 321.11 167.191ZM354.822 165.803V158.628L384.216 127.961C387.996 124.027 390.87 120.787 392.837 118.241C394.843 115.656 396.213 113.342 396.946 111.297C397.717 109.253 398.103 107.073 398.103 104.759V104.643C398.103 101.789 397.428 99.2622 396.078 97.0635C394.766 94.8647 392.934 93.1482 390.581 91.9138C388.266 90.6409 385.585 90.0044 382.538 90.0044C379.066 90.0044 375.961 90.7373 373.222 92.2031C370.484 93.6304 368.323 95.5591 366.742 97.9893C365.16 100.419 364.37 103.139 364.37 106.148V106.437H354.302V106.09C354.302 101.268 355.555 96.967 358.063 93.1868C360.57 89.3679 363.945 86.3784 368.188 84.2183C372.47 82.0195 377.196 80.9202 382.364 80.9202C387.418 80.9202 391.912 81.9424 395.846 83.9868C399.781 86.0312 402.867 88.8086 405.104 92.3188C407.38 95.8291 408.518 99.7637 408.518 104.123V104.238C408.518 107.286 407.939 110.237 406.782 113.091C405.663 115.946 403.696 119.167 400.88 122.754C398.064 126.303 394.091 130.7 388.961 135.946L366.048 159.438L369.114 153.015V159.438L366.048 156.545H409.906V165.803H354.822Z" fill="#383838"/>
<rect x="9.60803" y="237" width="64.9691" height="57.6487" rx="28.8243" fill="#FF6B00"/>
<path d="M29.8619 278.824V254.002H33.4399L42.0409 274.919H42.1441L50.7451 254.002H54.3232V278.824H51.4332V259.644H50.0227L53.3771 254.69L43.3999 278.824H40.7852L30.808 254.69L34.1624 259.644H32.7518V278.824H29.8619Z" fill="#D8D8D8"/>
<rect x="74.5773" y="237" width="64.9691" height="57.6487" rx="28.8243" fill="#383838"/>
<path d="M105.514 278.824V256.788H97.6867V254.002H116.437V256.788H108.61V278.824H105.514Z" fill="#565656"/>
<rect x="139.546" y="237" width="64.9691" height="57.6487" rx="28.8243" fill="#383838"/>
<path d="M163.292 278.824L156.532 254.002H159.766L164.772 274.386H164.84L170.465 254.002H173.596L179.221 274.386H179.29L184.296 254.002H187.53L180.769 278.824H177.845L172.065 258.939H171.996L166.216 278.824H163.292Z" fill="#565656"/>
<rect x="204.516" y="237" width="64.9691" height="57.6487" rx="28.8243" fill="#383838"/>
<path d="M235.452 278.824V256.788H227.625V254.002H246.375V256.788H238.548V278.824H235.452Z" fill="#565656"/>
<rect x="269.484" y="237" width="64.9691" height="57.6487" rx="28.8243" fill="#383838"/>
<path d="M295.071 278.824V254.002H310.14V256.788H298.167V265.321H309.159V268.073H298.167V278.824H295.071Z" fill="#565656"/>
<rect x="334.454" y="237" width="64.9691" height="57.6487" rx="28.8243" fill="#383838"/>
<path d="M367.007 279.237C365.218 279.237 363.641 278.962 362.277 278.411C360.923 277.849 359.845 277.052 359.043 276.02C358.251 274.988 357.804 273.767 357.701 272.356L357.684 272.115H360.78L360.814 272.356C360.941 273.182 361.279 273.899 361.829 274.507C362.38 275.103 363.108 275.567 364.014 275.9C364.931 276.221 365.987 276.382 367.179 276.382C368.372 276.382 369.404 276.215 370.276 275.883C371.147 275.539 371.818 275.051 372.288 274.421C372.77 273.79 373.011 273.05 373.011 272.201V272.184C373.011 271.095 372.632 270.223 371.875 269.57C371.118 268.916 369.886 268.4 368.177 268.021L365.425 267.419C363.005 266.88 361.21 266.055 360.04 264.942C358.882 263.818 358.303 262.35 358.303 260.538V260.521C358.314 259.157 358.693 257.958 359.438 256.926C360.184 255.882 361.21 255.068 362.517 254.483C363.836 253.887 365.344 253.589 367.042 253.589C368.659 253.589 370.104 253.881 371.376 254.466C372.649 255.04 373.664 255.842 374.421 256.874C375.19 257.907 375.62 259.099 375.711 260.452L375.729 260.71H372.632L372.598 260.47C372.472 259.621 372.162 258.899 371.669 258.302C371.176 257.706 370.528 257.247 369.725 256.926C368.934 256.605 368.011 256.444 366.956 256.444C365.855 256.444 364.891 256.611 364.066 256.943C363.24 257.276 362.598 257.74 362.139 258.337C361.692 258.933 361.468 259.633 361.468 260.435V260.452C361.468 261.462 361.852 262.293 362.621 262.947C363.389 263.6 364.582 264.105 366.199 264.461L368.951 265.063C370.648 265.43 372.024 265.917 373.079 266.525C374.146 267.133 374.926 267.889 375.419 268.795C375.924 269.69 376.176 270.768 376.176 272.029V272.047C376.176 273.515 375.803 274.787 375.058 275.865C374.324 276.943 373.269 277.775 371.893 278.36C370.528 278.945 368.899 279.237 367.007 279.237Z" fill="#565656"/>
<rect x="399.423" y="237" width="64.9691" height="57.6487" rx="28.8243" fill="#383838"/>
<path d="M431.976 279.237C430.187 279.237 428.61 278.962 427.246 278.411C425.892 277.849 424.814 277.052 424.012 276.02C423.22 274.988 422.773 273.767 422.67 272.356L422.653 272.115H425.749L425.783 272.356C425.91 273.182 426.248 273.899 426.798 274.507C427.349 275.103 428.077 275.567 428.983 275.9C429.9 276.221 430.956 276.382 432.148 276.382C433.341 276.382 434.373 276.215 435.245 275.883C436.116 275.539 436.787 275.051 437.257 274.421C437.739 273.79 437.98 273.05 437.98 272.201V272.184C437.98 271.095 437.601 270.223 436.844 269.57C436.087 268.916 434.855 268.4 433.146 268.021L430.394 267.419C427.974 266.88 426.179 266.055 425.009 264.942C423.851 263.818 423.272 262.35 423.272 260.538V260.521C423.283 259.157 423.662 257.958 424.407 256.926C425.153 255.882 426.179 255.068 427.486 254.483C428.805 253.887 430.313 253.589 432.011 253.589C433.628 253.589 435.073 253.881 436.345 254.466C437.618 255.04 438.633 255.842 439.39 256.874C440.159 257.907 440.589 259.099 440.68 260.452L440.698 260.71H437.601L437.567 260.47C437.441 259.621 437.131 258.899 436.638 258.302C436.145 257.706 435.497 257.247 434.694 256.926C433.903 256.605 432.98 256.444 431.925 256.444C430.824 256.444 429.86 256.611 429.035 256.943C428.209 257.276 427.567 257.74 427.108 258.337C426.661 258.933 426.437 259.633 426.437 260.435V260.452C426.437 261.462 426.821 262.293 427.59 262.947C428.358 263.6 429.551 264.105 431.168 264.461L433.92 265.063C435.617 265.43 436.993 265.917 438.048 266.525C439.115 267.133 439.895 267.889 440.388 268.795C440.893 269.69 441.145 270.768 441.145 272.029V272.047C441.145 273.515 440.772 274.787 440.027 275.865C439.293 276.943 438.238 277.775 436.862 278.36C435.497 278.945 433.868 279.237 431.976 279.237Z" fill="#565656"/>
<rect x="9.60803" y="294.648" width="454.784" height="169.743" rx="54.4459" fill="#486FED"/>
<path d="M160.991 422.02V414.845L190.385 384.178C194.165 380.244 197.039 377.003 199.006 374.458C201.012 371.873 202.381 369.559 203.114 367.514C203.886 365.47 204.271 363.29 204.271 360.976V360.86C204.271 358.006 203.596 355.479 202.246 353.28C200.935 351.082 199.102 349.365 196.749 348.131C194.435 346.858 191.754 346.221 188.707 346.221C185.235 346.221 182.13 346.954 179.391 348.42C176.652 349.847 174.492 351.776 172.91 354.206C171.329 356.636 170.538 359.356 170.538 362.365V362.654H160.47V362.307C160.47 357.485 161.724 353.184 164.231 349.404C166.739 345.585 170.114 342.595 174.357 340.435C178.639 338.236 183.364 337.137 188.533 337.137C193.586 337.137 198.08 338.159 202.015 340.204C205.949 342.248 209.035 345.025 211.273 348.536C213.548 352.046 214.686 355.98 214.686 360.339V360.455C214.686 363.502 214.108 366.453 212.951 369.308C211.832 372.162 209.865 375.383 207.049 378.971C204.233 382.52 200.26 386.917 195.129 392.163L172.216 415.655L175.283 409.232V415.655L172.216 412.762H216.075V422.02H160.991ZM256.615 422.02V404.661H214.666V395.23C217.096 391.449 219.526 387.669 221.956 383.889C224.425 380.109 226.874 376.328 229.304 372.548C231.773 368.768 234.223 364.988 236.653 361.207C239.083 357.427 241.513 353.647 243.943 349.866C246.412 346.086 248.862 342.306 251.292 338.526H266.683V395.519H278.487V404.661H266.683V422.02H256.615ZM224.965 395.519H256.615V347.436H256.268C254.185 350.638 252.102 353.84 250.019 357.041C247.936 360.204 245.853 363.387 243.77 366.588C241.687 369.751 239.584 372.934 237.463 376.135C235.38 379.337 233.297 382.539 231.214 385.74C229.131 388.904 227.048 392.086 224.965 395.288V395.519ZM296.056 375.036C292.738 375.036 289.768 374.284 287.145 372.78C284.522 371.237 282.458 369.154 280.954 366.531C279.449 363.907 278.697 360.957 278.697 357.678V357.62C278.736 354.341 279.507 351.409 281.012 348.825C282.516 346.202 284.58 344.138 287.203 342.634C289.826 341.091 292.777 340.319 296.056 340.319C299.334 340.319 302.266 341.091 304.851 342.634C307.474 344.138 309.557 346.202 311.1 348.825C312.643 351.409 313.414 354.341 313.414 357.62V357.678C313.414 360.957 312.643 363.907 311.1 366.531C309.595 369.154 307.531 371.237 304.908 372.78C302.285 374.284 299.334 375.036 296.056 375.036ZM296.056 366.646C297.753 366.646 299.238 366.26 300.511 365.489C301.822 364.718 302.845 363.657 303.578 362.307C304.349 360.957 304.735 359.433 304.735 357.736V357.678C304.735 355.903 304.349 354.341 303.578 352.991C302.845 351.641 301.822 350.599 300.511 349.866C299.199 349.095 297.714 348.709 296.056 348.709C294.474 348.709 293.028 349.095 291.716 349.866C290.404 350.599 289.344 351.641 288.534 352.991C287.762 354.341 287.376 355.903 287.376 357.678V357.736C287.376 359.433 287.762 360.957 288.534 362.307C289.305 363.657 290.347 364.718 291.658 365.489C293.008 366.26 294.474 366.646 296.056 366.646Z" fill="#D8D8D8"/>
</svg>
