<svg width="474" height="474" viewBox="0 0 474 474" fill="none" xmlns="http://www.w3.org/2000/svg">
<rect width="474" height="474" rx="64" fill="#FCFF3C"/>
<rect width="440" height="103" transform="translate(17.9141 325)" fill="white"/>
<g clip-path="url(#clip0_172_896)">
<path d="M37.0206 305.904H32.6985V423.343H37.0206V305.904Z" fill="black"/>
<path d="M45.6649 305.904H41.3428V423.343H45.6649V305.904Z" fill="black"/>
<path d="M54.3092 305.904H49.9871V410.761H54.3092V305.904Z" fill="black"/>
<path d="M75.9199 305.904H67.2756V410.761H75.9199V305.904Z" fill="black"/>
<path d="M97.5306 305.904H93.2085V410.761H97.5306V305.904Z" fill="black"/>
<path d="M106.175 305.904H101.853V410.761H106.175V305.904Z" fill="black"/>
<path d="M123.464 305.904H119.141V410.761H123.464V305.904Z" fill="black"/>
<path d="M136.43 305.904H132.108V410.761H136.43V305.904Z" fill="black"/>
<path d="M153.719 305.904H140.752V410.761H153.719V305.904Z" fill="black"/>
<path d="M166.685 305.904H158.041V410.761H166.685V305.904Z" fill="black"/>
<path d="M188.296 305.904H171.007V410.761H188.296V305.904Z" fill="black"/>
<path d="M196.94 305.904H192.618V410.761H196.94V305.904Z" fill="black"/>
<path d="M218.551 305.904H205.584V410.761H218.551V305.904Z" fill="black"/>
<path d="M227.195 305.904H222.873V410.761H227.195V305.904Z" fill="black"/>
<path d="M235.84 305.904H231.518V423.343H235.84V305.904Z" fill="black"/>
<path d="M244.484 305.904H240.162V423.343H244.484V305.904Z" fill="black"/>
<path d="M261.772 305.904H248.806V410.761H261.772V305.904Z" fill="black"/>
<path d="M270.417 305.904H266.094V410.761H270.417V305.904Z" fill="black"/>
<path d="M283.383 305.904H279.061V410.761H283.383V305.904Z" fill="black"/>
<path d="M304.994 305.904H292.027V410.761H304.994V305.904Z" fill="black"/>
<path d="M313.638 305.904H309.316V410.761H313.638V305.904Z" fill="black"/>
<path d="M326.605 305.904H322.282V410.761H326.605V305.904Z" fill="black"/>
<path d="M343.893 305.904H339.571V410.761H343.893V305.904Z" fill="black"/>
<path d="M361.182 305.904H356.86V410.761H361.182V305.904Z" fill="black"/>
<path d="M374.148 305.904H369.826V410.761H374.148V305.904Z" fill="black"/>
<path d="M382.793 305.904H378.47V410.761H382.793V305.904Z" fill="black"/>
<path d="M408.725 305.904H400.081V410.761H408.725V305.904Z" fill="black"/>
<path d="M421.692 305.904H413.048V410.761H421.692V305.904Z" fill="black"/>
<path d="M434.658 305.904H430.336V423.343H434.658V305.904Z" fill="black"/>
<path d="M443.303 305.904H438.981V423.343H443.303V305.904Z" fill="black"/>
</g>
<path d="M286.852 266.332C286.852 269.507 286.841 272.683 286.836 275.852C286.83 279.022 286.852 282.192 286.82 285.313C285.587 285.582 271.348 285.609 269.97 285.372C269.717 284.904 269.819 284.355 269.819 283.839C269.809 278.457 269.819 273.075 269.809 267.694C269.809 267.209 269.9 266.709 269.647 266.219C268.748 265.724 267.699 266.241 266.677 265.81C265.584 253.158 264.486 240.495 263.394 227.838C262.656 227.822 262.425 228.328 262.097 228.667C257.797 233.112 253.519 237.573 249.224 242.029C241.076 250.484 232.929 258.938 224.781 267.398C217.785 274.663 210.794 281.928 203.804 289.193C196.904 296.361 190.005 303.53 183.101 310.693C182.762 311.042 182.476 311.462 181.89 311.704C180.195 310.348 178.537 308.868 176.799 307.286C205.413 277.537 233.951 247.863 262.565 218.113C259.53 182.773 256.489 147.421 253.459 112.134C228.505 85.3553 203.637 58.6734 178.731 31.9539V22.0195C179.603 22.4877 189.569 33.0625 197.249 41.4685C203.292 48.0879 209.454 54.5996 215.562 61.1543C221.643 67.6822 227.725 74.1993 233.795 80.7325C239.887 87.2819 245.974 93.842 252.076 100.343C252.437 100.106 252.415 99.8694 252.399 99.6595C251.743 92.5289 251.242 85.3822 250.521 78.3754C249.956 77.9126 249.439 78.0471 248.966 78.0471C245.473 78.0363 241.975 78.0471 238.482 78.0363C237.95 78.0363 237.406 78.1224 236.911 77.8964C236.615 77.6596 236.599 77.3421 236.599 77.0246C236.593 73.8387 236.588 70.6582 236.588 67.4723C236.588 67.2463 236.599 67.0256 236.814 66.7512C237.175 66.4929 237.686 66.6166 238.16 66.6166C241.97 66.6059 245.774 66.6166 249.585 66.6059C250.074 66.6059 250.569 66.6705 251.172 66.4337C253.809 59.852 258.362 54.6319 263.959 50.0091C263.964 46.8501 263.97 43.5943 263.975 40.2093C265.568 40.0155 267.037 40.1285 268.495 40.107C269.927 40.0855 271.364 40.0962 272.795 40.107C274.259 40.1124 275.723 40.1285 277.203 40.1393C277.606 41.673 277.117 43.1368 277.563 44.606C279.576 44.2185 281.535 43.8149 283.505 43.4705C285.447 43.1314 287.39 42.8301 289.344 42.5664C291.34 42.2973 293.353 42.1628 295.344 41.856C297.276 41.56 299.257 41.7107 301.205 41.2479C301.452 39.2836 301.167 37.4001 301.404 35.3927C304.1 35.2313 306.769 35.3389 309.438 35.3174C312.081 35.2959 314.723 35.3174 317.371 35.3174H325.438C328.08 35.3174 330.723 35.3066 333.37 35.3174C336.04 35.3335 338.714 35.2421 341.518 35.3874V41.7107C342.115 42.2381 342.724 42.2327 343.289 42.2865C348.331 42.7978 353.32 43.6588 358.233 44.8697C362.146 45.833 366.015 46.9954 369.513 49.0996C372.268 50.7625 374.523 53.012 376.676 55.3584C377.677 56.4455 378.565 57.6348 379.501 58.7757C379.695 59.0179 379.829 59.3138 380.244 59.4322C383.268 54.3144 387.396 51.2684 393.633 53.2434C397.944 54.605 401.071 58.7703 401.044 63.0164C401.006 69.0168 397.492 72.3857 392.04 74.167C391.69 75.3509 392.067 76.6264 391.766 77.9825C389.339 78.1332 386.933 77.9395 384.603 78.0902C384.21 79.527 383.833 84.0153 383.973 85.1562C384.856 85.4952 387.6 85.5813 390.297 85.323C409.487 65.3735 428.802 45.2948 448.154 25.1785C448.488 26.2118 448.584 32.0131 448.342 35.1613C432.381 51.7473 416.317 68.441 400.204 85.1831V112.5C399.682 113.011 399.16 112.844 398.692 112.844C393.585 112.855 388.478 112.844 383.371 112.855C382.838 112.855 382.294 112.764 381.81 112.963C381.53 113.157 381.509 113.431 381.482 113.7C381.196 117.004 380.922 120.309 380.631 123.613C380.298 127.407 379.937 131.201 379.609 134.995C379.291 138.703 379.006 142.411 378.689 146.119C378.312 150.494 377.908 154.869 377.532 159.244C377.09 164.335 376.681 169.426 376.235 174.517C375.761 179.92 375.244 185.318 374.765 190.721C374.437 194.429 374.163 198.137 373.845 201.845C373.463 206.263 373.059 210.687 372.672 215.105C372.285 219.523 371.908 223.942 371.536 228.285C371.66 228.828 372.01 229.124 372.317 229.452C377.758 235.286 383.198 241.12 388.639 246.953C398.875 257.937 409.111 268.915 419.346 279.899C425.428 286.422 431.503 292.95 437.579 299.477C438.618 300.591 439.64 301.716 440.663 302.819C440.071 303.767 437.084 306.71 435.911 307.523C434.921 306.888 429.77 301.452 424.588 295.726C420.918 291.674 417.14 287.719 413.41 283.72C409.654 279.689 405.892 275.653 402.136 271.622C398.407 267.624 394.677 263.625 390.948 259.627C387.229 255.634 383.516 251.641 379.776 247.626C379.394 248.11 379.727 248.347 379.873 248.578C381.81 251.78 382.935 255.225 383.155 258.976C383.414 263.458 382.353 267.613 380.061 271.434C376.687 277.058 371.87 280.857 365.52 282.612C362.764 283.376 359.934 283.586 357.135 283.069C347.944 281.374 341.814 275.965 338.407 267.339C338.246 266.924 338.176 266.467 337.686 265.982C321.224 265.982 304.611 265.982 287.998 265.982C287.686 265.982 287.369 265.982 286.857 266.305L286.852 266.332ZM342.471 134.742C341.97 134.274 341.362 134.468 340.808 134.468C328.177 134.457 315.541 134.462 302.911 134.451C302.34 134.451 301.748 134.57 301.14 134.247C300.93 132.842 301.07 131.411 301.043 129.99C301.022 128.51 301.038 127.03 301.038 125.55C301.038 124.07 301.022 122.682 301.038 121.245C301.059 119.787 300.952 118.317 301.108 116.929C301.813 116.585 302.399 116.708 302.975 116.708C318.114 116.703 333.257 116.703 348.396 116.703C348.756 116.703 349.111 116.703 349.472 116.708C349.784 116.719 350.107 116.714 350.381 117.133C350.495 120.093 350.333 123.166 350.468 126.201C350.812 126.261 350.973 126.185 351.103 126.051C358.341 118.533 365.574 111.015 372.785 103.523V94.5416C372.785 93.0186 372.774 91.4903 372.785 89.9673C372.796 88.5035 372.731 87.0397 372.839 85.436C375.234 85.4252 377.494 85.4145 379.829 85.4037C380.282 82.9443 380.378 80.6034 380.47 78.2516C379.727 77.9126 379.044 78.031 378.387 78.031C337.756 78.0256 297.125 78.031 256.5 78.031C256.139 78.031 255.784 78.031 255.424 78.031C255.111 78.0363 254.789 78.0094 254.52 78.3646C254.385 79.1934 254.503 80.0867 254.579 80.9693C254.891 84.6288 255.246 88.2882 255.569 91.9477C255.919 95.9677 256.269 99.9824 256.575 104.008C256.645 104.907 256.936 105.612 257.555 106.273C264.142 113.302 270.702 120.357 277.267 127.407C284.506 135.178 291.744 142.949 298.977 150.72C302.367 154.358 305.747 158.007 309.142 161.639C310.359 162.941 311.596 164.228 312.802 165.503C313.023 165.433 313.184 165.428 313.265 165.347C322.962 155.278 332.655 145.209 342.341 135.129C342.422 135.049 342.417 134.887 342.465 134.731L342.471 134.742ZM367.145 234.161C366.903 233.876 366.741 233.661 366.559 233.467C359.073 225.438 351.587 217.408 344.101 209.379C339.764 204.724 335.431 200.064 331.089 195.414C325.314 189.22 319.54 183.025 313.76 176.837C313.491 176.551 313.276 176.169 312.646 176.153C297.443 191.948 282.165 207.824 266.983 223.592C266.908 225.551 270.045 261.053 270.357 262.038C271.477 262.339 335.959 262.334 337.057 262.032C337.342 261.623 337.186 261.171 337.175 260.73C337.121 258.836 337.299 256.963 337.762 255.133C339.043 250.118 341.674 245.915 345.656 242.616C351.501 237.772 358.109 235.926 365.595 237.761C365.929 237.842 366.257 238.074 366.806 237.805C367.048 236.701 367.118 235.474 367.14 234.167L367.145 234.161ZM377.715 112.974C376.138 112.812 374.814 112.817 373.549 112.941C373.253 113.221 373.016 113.426 372.796 113.652C370.283 116.267 367.769 118.893 365.256 121.509C355.688 131.454 346.114 141.399 336.54 151.344C330.604 157.511 324.658 163.668 318.722 169.835C318.42 170.147 318.022 170.406 317.941 171.078C334.468 188.816 351.065 206.634 367.662 224.453C367.791 224.426 367.92 224.394 368.049 224.367C371.278 187.304 374.491 150.241 377.72 112.979L377.715 112.974ZM308.109 170.772C291.518 152.969 275.061 135.307 258.599 117.645C258.416 117.451 258.249 117.23 257.883 117.257C257.652 117.602 257.759 118.011 257.792 118.387C257.894 119.684 258.028 120.976 258.147 122.268C258.529 126.551 258.927 130.835 259.288 135.124C259.616 139.01 259.89 142.9 260.229 146.786C260.703 152.232 261.22 157.678 261.699 163.124C262.086 167.5 262.441 171.875 262.813 176.25C263.356 182.59 263.905 188.929 264.443 195.274C264.82 199.698 265.18 204.116 265.557 208.54C265.692 210.1 265.837 211.661 265.993 213.222C266.02 213.517 266.009 213.873 266.547 213.991C280.313 199.676 294.128 185.307 308.109 170.772ZM277.563 66.4337C278.78 66.7189 371.133 66.8911 378.554 66.6166C378.855 66.6059 379.189 66.6705 379.431 66.3745C379.469 65.9009 379.173 65.5349 378.968 65.1529C376.547 60.5678 373.178 56.763 369.169 53.5179C366.865 51.6505 364.137 50.5957 361.36 49.7293C355.23 47.8134 348.918 46.7694 342.551 46.0267C342.245 45.9891 341.927 45.8976 341.529 46.3173V51.3276C340.264 51.6451 302.561 51.6397 301.361 51.3276C301.205 49.3741 301.436 47.3667 301.21 45.2249C293.988 45.72 286.944 46.5649 279.985 48.0394C279.135 48.217 278.198 48.2278 277.499 48.8305C277.273 50.4235 277.332 65.4596 277.558 66.4337H277.563ZM376.364 260.143C376.337 259.562 376.321 258.981 376.283 258.4C376.267 258.131 376.208 257.867 376.154 257.603C375.078 252.475 372.188 248.643 367.732 246.006C364.002 243.8 360.004 243.218 355.844 244.58C351.286 246.071 347.933 249.052 345.71 253.277C344.16 256.22 343.622 259.363 344.214 262.651C344.984 266.957 347.249 270.358 350.64 273.032C353.121 274.991 355.925 276.213 359.1 276.455C363.195 276.767 366.79 275.432 369.922 272.882C373.937 269.61 376.283 265.439 376.369 260.143H376.364ZM337.606 47.5067C337.735 46.172 337.67 44.7944 337.654 43.4167C337.638 42.0121 337.81 40.586 337.53 39.2244C335.41 38.9769 306.301 39.063 305.338 39.2998C305.031 40.4299 305.031 46.4573 305.343 47.5336C306.446 47.8134 336.379 47.8134 337.606 47.5013V47.5067ZM396.356 89.7359C396.109 89.7197 396.055 89.7036 396.023 89.7144C395.904 89.7682 395.759 89.8058 395.673 89.892C390.42 95.3381 385.173 100.784 379.932 106.236C379.189 107.011 378.479 107.813 377.758 108.604C377.731 108.631 377.714 108.684 377.72 108.727C377.72 108.771 377.752 108.808 377.768 108.857C378.021 109.11 378.35 109.045 378.651 109.045C384.199 109.045 389.748 109.045 395.296 109.045C395.651 109.045 396.017 109.077 396.362 108.722V89.7359H396.356ZM263.77 66.5467C263.862 66.2776 263.937 66.1538 263.937 66.03C263.948 62.715 263.948 59.4053 263.948 56.0903C263.948 55.8643 263.883 55.6436 263.528 55.5521C261.822 56.9944 260.326 58.7057 258.943 60.5086C256.877 63.1993 255.736 65.2874 255.569 66.5467H263.77ZM376.832 89.3807C376.493 90.5001 376.504 98.0127 376.843 99.0245C377.704 98.4971 383.866 92.2868 385.765 90.0426C385.916 89.865 386.045 89.6982 385.954 89.4507C385.017 89.1332 378.161 89.0847 376.832 89.3807ZM374.168 242.045C373.689 240.969 371.703 238.854 370.788 238.391C370.552 238.854 370.552 239.311 370.778 239.817C371.865 240.533 372.968 241.26 374.163 242.045H374.168Z" fill="black"/>
<path d="M369.018 260.209C369.029 264.412 365.853 269.013 360.203 269.013C354.445 269.013 351.286 264.347 351.35 260.112C351.431 254.833 355.898 251.324 360.235 251.362C364.842 251.399 369.034 255.204 369.023 260.204L369.018 260.209Z" fill="black"/>
<path fill-rule="evenodd" clip-rule="evenodd" d="M102.167 223.688C100.27 223.879 98.3634 223.975 96.4561 223.975C81.3084 223.975 66.7812 217.957 56.0702 207.246C45.3592 196.535 39.3418 182.008 39.3418 166.86C39.3418 151.713 45.3592 137.185 56.0702 126.474C66.7812 115.763 81.3084 109.746 96.4561 109.746C98.3634 109.746 100.27 109.842 102.167 110.032V127.167C100.273 126.935 98.3643 126.839 96.4561 126.88C85.8527 126.88 75.6836 131.093 68.1859 138.59C60.6882 146.088 56.4761 156.257 56.4761 166.86C56.4761 177.464 60.6882 187.633 68.1859 195.13C75.6836 202.628 85.8527 206.84 96.4561 206.84C98.3643 206.881 100.273 206.786 102.167 206.554V223.688Z" fill="black"/>
<path fill-rule="evenodd" clip-rule="evenodd" d="M199.262 223.688C197.364 223.879 195.458 223.975 193.55 223.975C178.403 223.975 163.875 217.957 153.164 207.246C142.453 196.535 136.436 182.008 136.436 166.86C136.436 151.713 142.453 137.185 153.164 126.474C163.875 115.763 178.403 109.746 193.55 109.746C195.458 109.746 197.364 109.842 199.262 110.032V127.167C197.367 126.935 195.458 126.839 193.55 126.88C184.435 126.88 175.593 129.994 168.49 135.707C161.386 141.42 156.449 149.389 154.496 158.293H187.839V175.427H154.496C156.449 184.331 161.386 192.3 168.49 198.014C175.593 203.727 184.435 206.841 193.55 206.84C195.458 206.881 197.367 206.786 199.262 206.554V223.688Z" fill="black"/>
<defs>
<clipPath id="clip0_172_896">
<rect width="410" height="66" fill="white" transform="translate(32.9141 332)"/>
</clipPath>
</defs>
</svg>
