<svg width="474" height="474" viewBox="0 0 474 474" fill="none" xmlns="http://www.w3.org/2000/svg">
<g clip-path="url(#clip0_172_178)">
<rect width="474" height="474" rx="64" fill="#282828"/>
<rect x="32.3301" y="70.7617" width="173.175" height="173.175" rx="86.5874" transform="rotate(15.9425 32.3301 70.7617)" fill="#D4D4D4"/>
<path d="M61.4535 205.013L63.0505 199.422L92.7793 182.07C104.185 175.429 107.219 172.492 108.764 167.082L108.79 166.992C110.638 160.352 106.999 154.143 99.9204 152.121C91.8052 149.803 84.1669 153.668 82.1706 160.656L82.1062 160.881L74.2615 158.64L74.3388 158.37C77.5585 147.099 89.6794 141.54 101.807 145.004C113.574 148.366 119.932 158.715 117.021 168.904L116.995 168.995C114.96 176.118 110.137 180.543 94.699 189.348L74.7016 200.8L74.6501 200.981L106.435 210.06L104.374 217.274L61.4535 205.013Z" fill="#5C5C5C"/>
<rect x="103.941" y="128.92" width="173.175" height="173.175" rx="86.5874" transform="rotate(-17.967 103.941 128.92)" fill="#D4D4D4"/>
<path d="M203.007 224.089L201.214 218.558L216.206 187.572C221.967 175.697 222.846 171.567 221.11 166.215L221.081 166.126C218.911 159.584 212.427 156.462 205.424 158.733C197.396 161.336 193.213 168.805 195.455 175.718L195.527 175.941L187.766 178.458L187.68 178.19C184.064 167.04 191.022 155.664 203.02 151.773C214.661 147.998 225.711 153.041 228.979 163.121L229.008 163.21C231.294 170.257 229.759 176.621 221.859 192.541L211.652 213.201L211.71 213.38L243.154 203.183L245.468 210.319L203.007 224.089Z" fill="#5C5C5C"/>
<rect x="201.998" y="279.998" width="173.175" height="173.175" rx="86.5874" transform="rotate(9.63634 201.998 279.998)" fill="#D4D4D4"/>
<path d="M266.767 414.957C252.992 412.618 245.373 403.43 246.284 392.741L246.332 392.178L254.329 393.536L254.297 394.006C253.876 400.688 259.116 406.239 267.992 407.746C276.729 409.229 283.524 405.342 284.725 398.269L284.74 398.176C286.13 389.994 281.036 384.421 271.698 382.836L263.331 381.415L264.524 374.389L272.521 375.746C280.472 377.096 286.851 373.138 287.982 366.482L287.997 366.389C289.182 359.409 285.289 354.61 277.153 353.229C269.294 351.895 262.995 355.105 261.155 361.737L261.031 362.191L253.033 360.833L253.158 360.379C256.066 349.696 265.896 343.898 278.377 346.018C291.09 348.176 298.256 356.669 296.537 366.793L296.521 366.885C295.124 375.114 288.342 379.764 279.723 380.108L279.692 380.293C289.258 382.773 294.84 389.951 293.231 399.428L293.215 399.52C291.324 410.661 280.127 417.225 266.767 414.957Z" fill="#5C5C5C"/>
<rect x="276.086" y="230.383" width="173.175" height="173.175" rx="86.5874" transform="rotate(-7.07627 276.086 230.383)" fill="#D4D4D4"/>
<path d="M385.492 338.819L383.759 324.86L350.024 329.048L349.083 321.463L372.876 272.206L385.253 270.67L390.943 316.503L400.435 315.325L401.348 322.676L391.856 323.855L393.588 337.814L385.492 338.819ZM357.394 320.667L382.847 317.508L378.047 278.841L377.767 278.875L357.371 320.481L357.394 320.667Z" fill="#5C5C5C"/>
<path d="M104.797 84L87.9438 22.1186H96.0059L108.485 72.936H108.657L122.68 22.1186H130.485L144.508 72.936H144.679L157.158 22.1186H165.22L148.367 84H141.077L126.668 34.4262H126.496L112.087 84H104.797ZM169.641 84V22.1186H207.979V29.0658H177.36V48.921H206.392V55.7824H177.36V77.0528H207.979V84H169.641ZM214.672 84V22.1186H235.471C253.783 22.1186 264.675 33.5257 264.675 52.9521V53.0378C264.675 72.55 253.868 84 235.471 84H214.672ZM222.392 77.0528H234.957C248.98 77.0528 256.784 68.476 256.784 53.1236V53.0378C256.784 37.5997 248.98 29.0658 234.957 29.0658H222.392V77.0528ZM270.768 84V22.1186H278.273L312.322 70.9633H312.537V22.1186H320.17V84H312.666L278.616 35.1553H278.401V84H270.768ZM328.665 84V22.1186H367.003V29.0658H336.384V48.921H365.416V55.7824H336.384V77.0528H367.003V84H328.665ZM393.937 85.0292C380.558 85.0292 371.509 78.468 370.737 67.8757L370.694 67.2753H378.413L378.499 67.8757C379.4 74.0938 385.403 77.9105 394.366 77.9105C403.286 77.9105 408.904 73.8794 408.904 67.4897V67.4468C408.904 62.0006 405.344 58.9558 396.853 57.0689L389.992 55.568C377.899 52.9092 372.238 47.4629 372.238 38.4144V38.3716C372.281 28.2081 381.287 21.0894 394.023 21.0894C406.116 21.0894 414.95 28.0794 415.637 38.2L415.679 38.8433H407.96L407.875 38.2429C406.931 31.939 401.656 28.2081 393.809 28.2081C385.532 28.251 380.129 32.1963 380.129 38.1571V38.2C380.129 43.2603 383.86 46.4337 391.922 48.192L398.783 49.6929C411.477 52.4804 416.794 57.6264 416.794 67.0609V67.1038C416.794 78.082 408.089 85.0292 393.937 85.0292ZM421.429 62.3865V55.4393H448.875V62.3865H421.429Z" fill="#5C5C5C"/>
<path d="M315.239 157.809V95.9272H336.038C354.349 95.9272 365.242 107.334 365.242 126.761V126.846C365.242 146.359 354.435 157.809 336.038 157.809H315.239ZM322.958 150.861H335.523C349.546 150.861 357.351 142.285 357.351 126.932V126.846C357.351 111.408 349.546 102.874 335.523 102.874H322.958V150.861ZM364.688 157.809L387.717 95.9272H395.35L418.336 157.809H410.231L403.97 140.098H379.054L372.793 157.809H364.688ZM391.447 105.19L381.413 133.536H401.654L391.619 105.19H391.447ZM431.247 157.809V131.178L409.291 95.9272H418.082L434.978 123.716H435.235L452.132 95.9272H460.923L438.966 131.178V157.809H431.247Z" fill="#5C5C5C"/>
<path d="M290.736 249.618C288.554 247.954 288.148 244.949 289.812 242.766C291.476 240.583 294.481 240.178 296.664 241.842C298.847 243.506 299.252 246.511 297.588 248.694C295.924 250.876 292.919 251.282 290.736 249.618ZM270.614 276.014C268.431 274.351 268.026 271.345 269.69 269.163C271.354 266.98 274.359 266.575 276.541 268.239C278.724 269.903 279.129 272.908 277.465 275.09C275.802 277.273 272.796 277.678 270.614 276.014Z" fill="#D4D4D4"/>
<path d="M37.9035 409.669L36.8249 402.806L54.8719 399.97L52.1155 382.431L58.9784 381.353L61.7348 398.891L79.8242 396.048L80.9028 402.911L62.8134 405.754L65.5699 423.293L58.7069 424.372L55.9505 406.833L37.9035 409.669Z" fill="#5C5C5C"/>
<path d="M87.235 450.911L87.9747 445.645L112.709 426.168C122.201 418.71 124.578 415.666 125.293 410.57L125.305 410.485C126.14 404.236 122.058 399.073 115.391 398.136C107.747 397.063 101.316 401.529 100.392 408.112L100.362 408.324L92.9728 407.286L93.0086 407.031C94.4998 396.414 104.776 389.846 116.2 391.451C127.284 393.008 134.351 401.579 133.003 411.176L132.991 411.261C132.049 417.971 128.239 422.589 115.368 432.517L98.7026 445.42L98.6787 445.589L128.618 449.795L127.664 456.589L87.235 450.911Z" fill="#5C5C5C"/>
<path d="M92.5037 282.052C103.901 281.573 116.315 288.948 117.28 311.871L117.283 311.956C118.159 332.779 109.802 345.321 94.6776 345.957C84.1803 346.399 76.0871 340.73 73.6519 331.819L73.4999 331.268L81.3407 330.938L81.532 331.402C83.5889 336.423 88.1354 339.408 94.4766 339.141C106.002 338.656 110.073 327.282 109.87 314.286C109.895 313.855 109.877 313.427 109.857 312.955L109.685 312.963C107.431 318.552 101.277 323.274 92.8796 323.628C81.0969 324.123 71.9904 315.794 71.4964 304.054L71.4928 303.968C70.9808 291.8 79.8642 282.584 92.5037 282.052ZM93.923 316.802C102.021 316.461 107.906 310.462 107.575 302.579L107.573 302.536C107.239 294.609 100.804 288.57 92.8779 288.904C84.9942 289.236 78.9983 295.669 79.3264 303.467L79.33 303.552C79.669 311.607 85.7822 317.145 93.923 316.802Z" fill="#5C5C5C"/>
<path d="M144.559 299.618C136.83 298.532 132.988 291.973 134.318 282.503L134.324 282.461C135.649 273.033 141.149 267.786 148.878 268.872C156.607 269.958 160.449 276.517 159.125 285.944L159.119 285.987C157.789 295.457 152.288 300.704 144.559 299.618ZM142.959 331.049L135.995 330.071L183.927 274.315L190.806 275.281L142.959 331.049ZM145.275 294.522C149.395 295.101 152.31 291.613 153.216 285.158L153.222 285.115C154.129 278.66 152.282 274.547 148.162 273.968C144.043 273.389 141.134 276.835 140.227 283.29L140.221 283.332C139.315 289.787 141.156 293.943 145.275 294.522ZM177.881 336.474C170.152 335.388 166.309 328.829 167.64 319.359L167.646 319.317C168.97 309.889 174.47 304.642 182.199 305.728C189.928 306.813 193.771 313.372 192.446 322.8L192.44 322.843C191.11 332.313 185.61 337.56 177.881 336.474ZM178.597 331.378C182.716 331.956 185.631 328.468 186.537 322.013L186.543 321.971C187.45 315.516 185.603 311.402 181.484 310.824C177.364 310.245 174.455 313.691 173.549 320.146L173.543 320.188C172.636 326.643 174.477 330.799 178.597 331.378Z" fill="#5C5C5C"/>
<path d="M172.273 441.122L169.63 428.531L139.202 434.919L137.766 428.078L155.698 381.371L166.862 379.028L175.54 420.367L184.102 418.57L185.494 425.201L176.932 426.998L179.575 439.589L172.273 441.122ZM145.281 426.719L168.238 421.9L160.916 387.024L160.665 387.077L145.245 426.552L145.281 426.719Z" fill="#5C5C5C"/>
<path d="M39.2669 328.331C26.173 327.466 17.3309 319.49 18.015 309.135L18.0206 309.049C18.5238 301.432 24.291 295.453 32.3288 294.136L32.3402 293.965C25.7178 291.421 21.7779 286.004 22.2076 279.5L22.2133 279.414C22.8295 270.086 31.8 263.759 43.4818 264.531C55.1637 265.302 63.2239 272.754 62.6076 282.083L62.6019 282.168C62.1722 288.672 57.554 293.524 50.6545 295.175L50.6432 295.346C58.4379 297.709 63.3684 304.395 62.8652 312.012L62.8595 312.097C62.1754 322.453 52.3608 329.196 39.2669 328.331ZM41.6867 291.703C49.1323 292.195 54.5042 288.295 54.9 282.304L54.9057 282.218C55.3014 276.228 50.4892 271.655 43.0437 271.163C35.5981 270.671 30.2262 274.571 29.8304 280.562L29.8247 280.647C29.429 286.638 34.2412 291.211 41.6867 291.703ZM39.7107 321.613C48.2261 322.176 54.6189 317.785 55.0599 311.109L55.0656 311.024C55.5122 304.263 49.7982 299.029 41.2401 298.464C32.682 297.898 26.3291 302.335 25.8824 309.096L25.8768 309.181C25.4358 315.857 31.1954 321.051 39.7107 321.613Z" fill="#5C5C5C"/>
</g>
<defs>
<clipPath id="clip0_172_178">
<rect width="474" height="474" rx="64" fill="white"/>
</clipPath>
</defs>
</svg>
