<svg width="474" height="474" viewBox="0 0 474 474" fill="none" xmlns="http://www.w3.org/2000/svg">
<g clip-path="url(#clip0_172_564)">
<rect width="474" height="474" rx="64" fill="#FFBCD4"/>
<rect x="-2.63721" y="466.176" width="29.3005" height="29.3005" fill="#DADADA"/>
<rect x="55.9747" y="466.176" width="29.3005" height="29.3005" fill="#DADADA"/>
<rect x="114.574" y="466.176" width="29.3005" height="29.3005" fill="#DADADA"/>
<rect x="173.174" y="466.176" width="29.3005" height="29.3005" fill="#DADADA"/>
<rect x="231.773" y="466.176" width="29.3005" height="29.3005" fill="#DADADA"/>
<rect x="290.373" y="466.176" width="29.3005" height="29.3005" fill="#DADADA"/>
<rect x="348.972" y="466.176" width="29.3005" height="29.3005" fill="#DADADA"/>
<rect x="407.571" y="466.176" width="29.3005" height="29.3005" fill="#DADADA"/>
<rect x="466.183" y="466.176" width="29.3005" height="29.3005" fill="#DADADA"/>
<rect x="-2.63721" y="407.592" width="29.3005" height="29.3005" fill="#DADADA"/>
<rect x="55.9747" y="407.592" width="29.3005" height="29.3005" fill="#DADADA"/>
<rect x="114.574" y="407.592" width="29.3005" height="29.3005" fill="#DADADA"/>
<rect x="173.174" y="407.592" width="29.3005" height="29.3005" fill="#DADADA"/>
<rect x="231.773" y="407.592" width="29.3005" height="29.3005" fill="#DADADA"/>
<rect x="290.373" y="407.592" width="29.3005" height="29.3005" fill="#DADADA"/>
<rect x="348.972" y="407.592" width="29.3005" height="29.3005" fill="#DADADA"/>
<rect x="407.571" y="407.592" width="29.3005" height="29.3005" fill="#DADADA"/>
<rect x="466.183" y="407.592" width="29.3005" height="29.3005" fill="#DADADA"/>
<rect x="26.6625" y="436.891" width="29.3005" height="29.3005" fill="#DADADA"/>
<rect x="85.262" y="436.891" width="29.3005" height="29.3005" fill="#DADADA"/>
<rect x="143.874" y="436.891" width="29.3005" height="29.3005" fill="#DADADA"/>
<rect x="202.473" y="436.891" width="29.3005" height="29.3005" fill="#DADADA"/>
<rect x="261.073" y="436.891" width="29.3005" height="29.3005" fill="#DADADA"/>
<rect x="319.672" y="436.891" width="29.3005" height="29.3005" fill="#DADADA"/>
<rect x="378.272" y="436.891" width="29.3005" height="29.3005" fill="#DADADA"/>
<rect x="436.871" y="436.891" width="29.3005" height="29.3005" fill="#DADADA"/>
<rect x="-2.63721" y="348.992" width="29.3005" height="29.3005" fill="#DADADA"/>
<rect x="55.9747" y="348.992" width="29.3005" height="29.3005" fill="#DADADA"/>
<rect x="114.574" y="348.992" width="29.3005" height="29.3005" fill="#DADADA"/>
<rect x="173.174" y="348.992" width="29.3005" height="29.3005" fill="#DADADA"/>
<rect x="231.773" y="348.992" width="29.3005" height="29.3005" fill="#DADADA"/>
<rect x="290.373" y="348.992" width="29.3005" height="29.3005" fill="#DADADA"/>
<rect x="348.972" y="348.992" width="29.3005" height="29.3005" fill="#DADADA"/>
<rect x="407.571" y="348.992" width="29.3005" height="29.3005" fill="#DADADA"/>
<rect x="466.183" y="348.992" width="29.3005" height="29.3005" fill="#DADADA"/>
<rect x="26.6625" y="378.291" width="29.3005" height="29.3005" fill="#DADADA"/>
<rect x="85.262" y="378.291" width="29.3005" height="29.3005" fill="#DADADA"/>
<rect x="143.874" y="378.291" width="29.3005" height="29.3005" fill="#DADADA"/>
<rect x="202.473" y="378.291" width="29.3005" height="29.3005" fill="#DADADA"/>
<rect x="261.073" y="378.293" width="29.3005" height="29.3005" fill="#DADADA"/>
<rect x="319.672" y="378.291" width="29.3005" height="29.3005" fill="#DADADA"/>
<rect x="378.272" y="378.291" width="29.3005" height="29.3005" fill="#DADADA"/>
<rect x="436.871" y="378.293" width="29.3005" height="29.3005" fill="#DADADA"/>
<rect x="-2.63721" y="290.377" width="29.3005" height="29.3005" fill="#DADADA"/>
<rect x="55.9747" y="290.377" width="29.3005" height="29.3005" fill="#DADADA"/>
<rect x="114.574" y="290.377" width="29.3005" height="29.3005" fill="#DADADA"/>
<rect x="173.174" y="290.377" width="29.3005" height="29.3005" fill="#DADADA"/>
<rect x="231.773" y="290.377" width="29.3005" height="29.3005" fill="#DADADA"/>
<rect x="290.373" y="290.377" width="29.3005" height="29.3005" fill="#DADADA"/>
<rect x="348.972" y="290.377" width="29.3005" height="29.3005" fill="#DADADA"/>
<rect x="407.571" y="290.377" width="29.3005" height="29.3005" fill="#DADADA"/>
<rect x="466.183" y="290.377" width="29.3005" height="29.3005" fill="#DADADA"/>
<rect x="26.6625" y="319.676" width="29.3005" height="29.3005" fill="#DADADA"/>
<rect x="85.262" y="319.676" width="29.3005" height="29.3005" fill="#DADADA"/>
<rect x="143.874" y="319.676" width="29.3005" height="29.3005" fill="#DADADA"/>
<rect x="202.473" y="319.676" width="29.3005" height="29.3005" fill="#DADADA"/>
<rect x="261.073" y="319.676" width="29.3005" height="29.3005" fill="#DADADA"/>
<rect x="319.672" y="319.676" width="29.3005" height="29.3005" fill="#DADADA"/>
<rect x="378.272" y="319.676" width="29.3005" height="29.3005" fill="#DADADA"/>
<rect x="436.871" y="319.676" width="29.3005" height="29.3005" fill="#DADADA"/>
<rect x="-2.63721" y="231.779" width="29.3005" height="29.3005" fill="#DADADA"/>
<rect x="55.9747" y="231.779" width="29.3005" height="29.3005" fill="#DADADA"/>
<rect x="114.574" y="231.779" width="29.3005" height="29.3005" fill="#DADADA"/>
<rect x="173.174" y="231.779" width="29.3005" height="29.3005" fill="#DADADA"/>
<rect x="231.773" y="231.779" width="29.3005" height="29.3005" fill="#DADADA"/>
<rect x="290.373" y="231.779" width="29.3005" height="29.3005" fill="#DADADA"/>
<rect x="348.972" y="231.779" width="29.3005" height="29.3005" fill="#DADADA"/>
<rect x="407.571" y="231.779" width="29.3005" height="29.3005" fill="#DADADA"/>
<rect x="466.183" y="231.779" width="29.3005" height="29.3005" fill="#DADADA"/>
<rect x="26.6625" y="261.078" width="29.3005" height="29.3005" fill="#DADADA"/>
<rect x="85.262" y="261.078" width="29.3005" height="29.3005" fill="#DADADA"/>
<rect x="143.874" y="261.078" width="29.3005" height="29.3005" fill="#DADADA"/>
<rect x="202.473" y="261.078" width="29.3005" height="29.3005" fill="#DADADA"/>
<rect x="261.073" y="261.078" width="29.3005" height="29.3005" fill="#DADADA"/>
<rect x="319.672" y="261.078" width="29.3005" height="29.3005" fill="#DADADA"/>
<rect x="378.272" y="261.078" width="29.3005" height="29.3005" fill="#DADADA"/>
<rect x="436.871" y="261.078" width="29.3005" height="29.3005" fill="#DADADA"/>
<rect x="-2.63721" y="173.193" width="29.3005" height="29.3005" fill="#DADADA"/>
<rect x="55.9747" y="173.193" width="29.3005" height="29.3005" fill="#DADADA"/>
<rect x="114.574" y="173.193" width="29.3005" height="29.3005" fill="#DADADA"/>
<rect x="173.174" y="173.193" width="29.3005" height="29.3005" fill="#DADADA"/>
<rect x="231.773" y="173.193" width="29.3005" height="29.3005" fill="#DADADA"/>
<rect x="290.373" y="173.193" width="29.3005" height="29.3005" fill="#DADADA"/>
<rect x="348.972" y="173.193" width="29.3005" height="29.3005" fill="#DADADA"/>
<rect x="407.571" y="173.193" width="29.3005" height="29.3005" fill="#DADADA"/>
<rect x="466.183" y="173.193" width="29.3005" height="29.3005" fill="#DADADA"/>
<rect x="26.6625" y="202.492" width="29.3005" height="29.3005" fill="#DADADA"/>
<rect x="85.262" y="202.492" width="29.3005" height="29.3005" fill="#DADADA"/>
<rect x="143.874" y="202.492" width="29.3005" height="29.3005" fill="#DADADA"/>
<rect x="202.473" y="202.492" width="29.3005" height="29.3005" fill="#DADADA"/>
<rect x="261.073" y="202.492" width="29.3005" height="29.3005" fill="#DADADA"/>
<rect x="319.672" y="202.492" width="29.3005" height="29.3005" fill="#DADADA"/>
<rect x="378.272" y="202.492" width="29.3005" height="29.3005" fill="#DADADA"/>
<rect x="436.871" y="202.492" width="29.3005" height="29.3005" fill="#DADADA"/>
<rect x="-2.63721" y="114.58" width="29.3005" height="29.3005" fill="#DADADA"/>
<rect x="55.9747" y="114.58" width="29.3005" height="29.3005" fill="#DADADA"/>
<rect x="114.574" y="114.58" width="29.3005" height="29.3005" fill="#DADADA"/>
<rect x="173.174" y="114.58" width="29.3005" height="29.3005" fill="#DADADA"/>
<rect x="231.773" y="114.58" width="29.3005" height="29.3005" fill="#DADADA"/>
<rect x="290.373" y="114.58" width="29.3005" height="29.3005" fill="#DADADA"/>
<rect x="348.972" y="114.58" width="29.3005" height="29.3005" fill="#DADADA"/>
<rect x="407.571" y="114.58" width="29.3005" height="29.3005" fill="#DADADA"/>
<rect x="466.183" y="114.58" width="29.3005" height="29.3005" fill="#DADADA"/>
<rect x="26.6625" y="143.879" width="29.3005" height="29.3005" fill="#DADADA"/>
<rect x="85.262" y="143.879" width="29.3005" height="29.3005" fill="#DADADA"/>
<rect x="143.874" y="143.879" width="29.3005" height="29.3005" fill="#DADADA"/>
<rect x="202.473" y="143.879" width="29.3005" height="29.3005" fill="#DADADA"/>
<rect x="261.073" y="143.879" width="29.3005" height="29.3005" fill="#DADADA"/>
<rect x="319.672" y="143.879" width="29.3005" height="29.3005" fill="#DADADA"/>
<rect x="378.272" y="143.879" width="29.3005" height="29.3005" fill="#DADADA"/>
<rect x="436.871" y="143.879" width="29.3005" height="29.3005" fill="#DADADA"/>
<rect x="-2.63721" y="55.9805" width="29.3005" height="29.3005" fill="#DADADA"/>
<rect x="55.9747" y="55.9805" width="29.3005" height="29.3005" fill="#DADADA"/>
<rect x="114.574" y="55.9805" width="29.3005" height="29.3005" fill="#DADADA"/>
<rect x="173.174" y="55.9805" width="29.3005" height="29.3005" fill="#DADADA"/>
<rect x="231.773" y="55.9805" width="29.3005" height="29.3005" fill="#DADADA"/>
<rect x="290.373" y="55.9805" width="29.3005" height="29.3005" fill="#DADADA"/>
<rect x="348.972" y="55.9805" width="29.3005" height="29.3005" fill="#DADADA"/>
<rect x="407.571" y="55.9805" width="29.3005" height="29.3005" fill="#DADADA"/>
<rect x="466.183" y="55.9805" width="29.3005" height="29.3005" fill="#DADADA"/>
<rect x="26.6625" y="85.2793" width="29.3005" height="29.3005" fill="#DADADA"/>
<rect x="85.262" y="85.2793" width="29.3005" height="29.3005" fill="#DADADA"/>
<rect x="143.874" y="85.2793" width="29.3005" height="29.3005" fill="#DADADA"/>
<rect x="202.473" y="85.2793" width="29.3005" height="29.3005" fill="#DADADA"/>
<rect x="261.073" y="85.2793" width="29.3005" height="29.3005" fill="#DADADA"/>
<rect x="319.672" y="85.2793" width="29.3005" height="29.3005" fill="#DADADA"/>
<rect x="378.272" y="85.2793" width="29.3005" height="29.3005" fill="#DADADA"/>
<rect x="436.871" y="85.2793" width="29.3005" height="29.3005" fill="#DADADA"/>
<rect x="-2.63721" y="-2.61914" width="29.3005" height="29.3005" fill="#DADADA"/>
<rect x="55.9747" y="-2.61914" width="29.3005" height="29.3005" fill="#DADADA"/>
<rect x="114.574" y="-2.61914" width="29.3005" height="29.3005" fill="#DADADA"/>
<rect x="173.174" y="-2.61914" width="29.3005" height="29.3005" fill="#DADADA"/>
<rect x="231.773" y="-2.61914" width="29.3005" height="29.3005" fill="#DADADA"/>
<rect x="290.373" y="-2.61914" width="29.3005" height="29.3005" fill="#DADADA"/>
<rect x="348.972" y="-2.61914" width="29.3005" height="29.3005" fill="#DADADA"/>
<rect x="407.571" y="-2.61914" width="29.3005" height="29.3005" fill="#DADADA"/>
<rect x="466.183" y="-2.61914" width="29.3005" height="29.3005" fill="#DADADA"/>
<rect x="26.6625" y="26.6797" width="29.3005" height="29.3005" fill="#DADADA"/>
<rect x="85.262" y="26.6797" width="29.3005" height="29.3005" fill="#DADADA"/>
<rect x="143.874" y="26.6797" width="29.3005" height="29.3005" fill="#DADADA"/>
<rect x="202.473" y="26.6797" width="29.3005" height="29.3005" fill="#DADADA"/>
<rect x="261.073" y="26.6797" width="29.3005" height="29.3005" fill="#DADADA"/>
<rect x="319.672" y="26.6797" width="29.3005" height="29.3005" fill="#DADADA"/>
<rect x="378.272" y="26.6797" width="29.3005" height="29.3005" fill="#DADADA"/>
<rect x="436.871" y="26.6797" width="29.3005" height="29.3005" fill="#DADADA"/>
<rect x="183.467" y="150.139" width="168.137" height="58.7028" rx="29.3514" fill="#F2F2F2"/>
<rect x="217.909" y="325.926" width="99.2678" height="58.7028" rx="29.3514" fill="#F2F2F2"/>
<rect x="182.366" y="267.312" width="170.341" height="58.7028" rx="29.3514" fill="#F2F2F2"/>
<rect x="191.299" y="384.5" width="152.484" height="58.7028" rx="29.3514" fill="#F2F2F2"/>
<rect x="198.13" y="32.9648" width="138.827" height="58.7028" rx="29.3514" fill="#F2F2F2"/>
<rect x="184.418" y="91.4902" width="166.235" height="58.7028" rx="29.3514" fill="#F2F2F2"/>
<rect x="125.719" y="91.4902" width="58.6967" height="58.7028" rx="29.3483" fill="#9F8115"/>
<rect x="124.768" y="150.076" width="58.6967" height="58.7028" rx="29.3483" fill="#9F8115"/>
<rect x="150.227" y="208.752" width="58.6967" height="58.7028" rx="29.3483" fill="#9F8115"/>
<rect x="123.667" y="267.363" width="58.6967" height="58.7028" rx="29.3483" fill="#9F8115"/>
<rect x="159.209" y="326.025" width="58.6967" height="58.7028" rx="29.3483" fill="#9F8115"/>
<rect x="132.599" y="384.662" width="58.6967" height="58.7028" rx="29.3483" fill="#9F8115"/>
<rect x="139.43" y="32.791" width="58.6967" height="58.7028" rx="29.3483" fill="#9F8115"/>
<rect x="208.926" y="208.764" width="117.226" height="58.7028" rx="29.3514" fill="#F2F2F2"/>
<path d="M221.75 204.717H216.626V165.007C215.449 166.392 213.868 167.811 211.883 169.265C209.898 170.696 208.075 171.781 206.413 172.52V166.496C209.229 164.88 211.71 162.907 213.857 160.575C216.026 158.244 217.549 155.971 218.427 153.755H221.75V204.717ZM258.935 198.727V204.717H231.412C231.343 202.293 232.07 199.581 233.593 196.581C235.14 193.58 237.955 190.038 242.041 185.952C246.818 181.198 249.946 177.528 251.423 174.943C252.9 172.335 253.638 169.911 253.638 167.673C253.638 165.088 252.877 162.987 251.354 161.372C249.853 159.733 247.995 158.914 245.78 158.914C243.402 158.914 241.452 159.791 239.929 161.545C238.405 163.299 237.644 165.815 237.644 169.092L232.381 168.434C232.751 163.564 234.124 159.906 236.501 157.46C238.902 154.99 242.052 153.755 245.953 153.755C250.199 153.755 253.408 155.186 255.577 158.048C257.77 160.91 258.866 164.164 258.866 167.811C258.866 171.042 258.012 174.147 256.304 177.124C254.596 180.078 251.354 184.025 246.576 188.964C243.529 192.08 241.556 194.204 240.656 195.335C239.779 196.466 239.063 197.596 238.509 198.727H258.935ZM264.547 204.717V197.62H270.363V204.717H264.547ZM274.866 179.686C274.866 171.169 276.009 164.718 278.294 160.333C280.602 155.948 283.995 153.755 288.472 153.755C292.442 153.755 295.57 155.532 297.855 159.087C300.624 163.38 302.009 170.246 302.009 179.686C302.009 188.157 300.867 194.596 298.582 199.004C296.297 203.39 292.904 205.582 288.403 205.582C284.433 205.582 281.179 203.644 278.64 199.766C276.124 195.889 274.866 189.195 274.866 179.686ZM280.094 179.686C280.094 187.926 280.879 193.454 282.448 196.269C284.041 199.062 286.072 200.458 288.542 200.458C290.873 200.458 292.823 199.039 294.393 196.2C295.962 193.361 296.747 187.857 296.747 179.686C296.747 171.423 295.95 165.896 294.358 163.103C292.788 160.31 290.746 158.914 288.23 158.914C285.922 158.914 283.983 160.333 282.414 163.172C280.867 166.011 280.094 171.516 280.094 179.686ZM304.712 160.61V154.621H331.647V159.468C327.631 164.684 324.1 171.481 321.053 179.859C318.007 188.214 316.252 196.5 315.791 204.717H310.529C310.598 200.47 311.267 195.519 312.537 189.865C313.829 184.21 315.595 178.821 317.833 173.697C320.072 168.573 322.484 164.211 325.069 160.61H304.712Z" fill="#9F8115"/>
<path d="M143.551 196.24C141.716 196.24 140.592 195.093 140.592 193.166V166.211C140.592 164.284 141.716 163.137 143.551 163.137H152.682C162.569 163.137 168.419 169.124 168.419 179.608C168.419 190.092 162.592 196.24 152.682 196.24H143.551ZM146.511 191.239H152.062C158.715 191.239 162.386 187.179 162.386 179.631C162.386 172.221 158.669 168.138 152.062 168.138H146.511V191.239Z" fill="#DADADA"/>
<path d="M258.686 374.513V380.502H231.162C231.093 378.079 231.82 375.367 233.343 372.366C234.89 369.366 237.705 365.823 241.791 361.738C246.568 356.983 249.696 353.313 251.173 350.728C252.65 348.12 253.389 345.697 253.389 343.458C253.389 340.873 252.627 338.773 251.104 337.157C249.603 335.518 247.745 334.699 245.53 334.699C243.152 334.699 241.202 335.576 239.679 337.33C238.156 339.084 237.394 341.6 237.394 344.877L232.132 344.22C232.501 339.35 233.874 335.691 236.251 333.245C238.652 330.775 241.802 329.54 245.703 329.54C249.95 329.54 253.158 330.971 255.327 333.833C257.52 336.695 258.616 339.95 258.616 343.596C258.616 346.828 257.762 349.932 256.054 352.909C254.346 355.864 251.104 359.81 246.326 364.75C243.279 367.865 241.306 369.989 240.406 371.12C239.529 372.251 238.813 373.382 238.259 374.513H258.686ZM258.931 381.367L270.979 328.883H275.099L263.016 381.367H258.931ZM274.963 336.395V330.406H301.898V335.253C297.882 340.469 294.35 347.266 291.304 355.644C288.257 363.999 286.503 372.285 286.041 380.502H280.779C280.848 376.255 281.518 371.304 282.787 365.65C284.08 359.995 285.845 354.606 288.084 349.482C290.323 344.358 292.735 339.996 295.32 336.395H274.963Z" fill="#9F8115"/>
<path d="M178.457 372.579C176.622 372.579 175.613 371.685 175.039 369.62L167.698 343.238C167.492 342.504 167.4 341.885 167.4 341.357C167.4 339.728 168.547 338.696 170.313 338.696C171.85 338.696 172.814 339.545 173.181 341.174L178.71 364.16H178.893L184.972 341.495C185.477 339.522 186.441 338.696 188.184 338.696C189.859 338.696 190.845 339.568 191.35 341.426L197.429 364.16H197.613L203.141 341.174C203.508 339.522 204.472 338.696 206.009 338.696C207.775 338.696 208.922 339.728 208.922 341.357C208.922 341.862 208.831 342.481 208.624 343.238L201.26 369.643C200.71 371.685 199.7 372.579 197.888 372.579C195.984 372.579 194.975 371.731 194.401 369.643L188.276 348.239H188.046L181.921 369.643C181.371 371.708 180.315 372.579 178.457 372.579Z" fill="#DADADA"/>
<path d="M202.501 296.86C202.501 288.343 203.643 281.892 205.928 277.507C208.236 273.122 211.629 270.929 216.107 270.929C220.077 270.929 223.204 272.706 225.489 276.261C228.259 280.554 229.644 287.42 229.644 296.86C229.644 305.33 228.501 311.77 226.216 316.178C223.931 320.563 220.538 322.756 216.038 322.756C212.068 322.756 208.814 320.817 206.275 316.94C203.759 313.062 202.501 306.369 202.501 296.86ZM207.729 296.86C207.729 305.1 208.513 310.627 210.083 313.443C211.675 316.236 213.707 317.632 216.176 317.632C218.507 317.632 220.458 316.213 222.027 313.374C223.597 310.535 224.381 305.03 224.381 296.86C224.381 288.597 223.585 283.069 221.992 280.277C220.423 277.484 218.38 276.087 215.865 276.087C213.557 276.087 211.618 277.507 210.048 280.346C208.502 283.185 207.729 288.689 207.729 296.86ZM232.347 277.784V271.795H259.282V276.641C255.266 281.858 251.734 288.655 248.688 297.033C245.641 305.388 243.887 313.674 243.425 321.891H238.163C238.232 317.644 238.902 312.693 240.171 307.038C241.464 301.384 243.229 295.994 245.468 290.871C247.707 285.747 250.119 281.384 252.704 277.784H232.347ZM264.547 292.221V285.123H270.363V292.221H264.547ZM264.547 321.891V314.793H270.363V321.891H264.547ZM301.801 315.901V321.891H274.278C274.209 319.467 274.936 316.755 276.459 313.755C278.005 310.754 280.821 307.211 284.906 303.126C289.684 298.372 292.812 294.702 294.289 292.117C295.766 289.509 296.504 287.085 296.504 284.847C296.504 282.262 295.743 280.161 294.219 278.546C292.719 276.907 290.861 276.087 288.646 276.087C286.268 276.087 284.318 276.965 282.795 278.719C281.271 280.473 280.51 282.989 280.51 286.266L275.247 285.608C275.617 280.738 276.99 277.08 279.367 274.633C281.768 272.164 284.918 270.929 288.819 270.929C293.065 270.929 296.274 272.36 298.443 275.222C300.636 278.084 301.732 281.338 301.732 284.985C301.732 288.216 300.878 291.321 299.17 294.298C297.462 297.252 294.219 301.199 289.442 306.138C286.395 309.254 284.422 311.377 283.522 312.508C282.645 313.639 281.929 314.77 281.375 315.901H301.801ZM312.225 294.367C310.171 293.444 308.613 292.128 307.551 290.42C306.513 288.689 305.993 286.543 305.993 283.981C305.993 280.127 307.124 276.988 309.386 274.564C311.671 272.141 314.533 270.929 317.972 270.929C321.434 270.929 324.308 272.164 326.593 274.633C328.901 277.103 330.055 280.288 330.055 284.189C330.055 286.635 329.547 288.712 328.531 290.42C327.516 292.105 325.981 293.421 323.927 294.367C326.442 295.36 328.37 296.964 329.708 299.179C331.07 301.395 331.751 304.142 331.751 307.419C331.751 311.943 330.435 315.636 327.804 318.498C325.196 321.337 321.953 322.756 318.076 322.756C314.152 322.756 310.875 321.337 308.244 318.498C305.635 315.636 304.331 311.885 304.331 307.246C304.331 303.853 305.024 301.061 306.409 298.868C307.817 296.652 309.755 295.152 312.225 294.367ZM311.256 283.808C311.256 286.301 311.913 288.286 313.229 289.763C314.545 291.24 316.16 291.978 318.076 291.978C319.945 291.978 321.538 291.251 322.853 289.797C324.169 288.343 324.827 286.462 324.827 284.154C324.827 281.777 324.146 279.838 322.784 278.338C321.446 276.815 319.853 276.053 318.007 276.053C316.16 276.053 314.568 276.791 313.229 278.269C311.913 279.746 311.256 281.592 311.256 283.808ZM309.559 307.246C309.559 310.362 310.39 312.878 312.052 314.793C313.737 316.686 315.745 317.632 318.076 317.632C320.43 317.632 322.426 316.709 324.065 314.863C325.704 313.016 326.523 310.547 326.523 307.454C326.523 304.338 325.681 301.834 323.996 299.941C322.311 298.025 320.292 297.068 317.937 297.068C315.606 297.068 313.621 298.014 311.983 299.907C310.367 301.799 309.559 304.246 309.559 307.246Z" fill="#9F8115"/>
<path d="M152.709 314.078C146.102 314.078 141.697 311.325 140.413 307.563C140.206 307.012 140.092 306.416 140.092 305.865C140.092 304.213 141.147 303.158 142.707 303.158C144.014 303.158 144.84 303.686 145.483 305.016C146.515 307.884 149.36 309.169 152.892 309.169C156.884 309.169 159.683 307.196 159.683 304.443C159.683 302.057 158.031 300.589 153.718 299.694L150.162 298.96C143.533 297.607 140.436 294.487 140.436 289.646C140.436 283.819 145.551 279.873 152.732 279.873C158.582 279.873 163.124 282.489 164.477 286.87C164.615 287.237 164.684 287.673 164.684 288.224C164.684 289.669 163.652 290.656 162.115 290.656C160.738 290.656 159.889 290.059 159.27 288.774C158.146 285.976 155.783 284.783 152.686 284.783C149.015 284.783 146.4 286.526 146.4 289.302C146.4 291.55 148.052 292.995 152.181 293.867L155.737 294.601C162.711 296.047 165.647 298.845 165.647 303.755C165.647 310.086 160.669 314.078 152.709 314.078Z" fill="#DADADA"/>
<path d="M235.226 400.753L230.136 401.238C229.652 398.63 228.936 396.772 227.99 395.664C226.628 394.048 224.989 393.24 223.074 393.24C220.096 393.24 217.708 395.087 215.907 398.78C214.361 401.965 213.576 406.673 213.553 412.905C214.73 410.689 216.207 409.016 217.985 407.885C219.762 406.731 221.643 406.154 223.628 406.154C226.928 406.154 229.802 407.654 232.248 410.655C234.718 413.632 235.953 417.625 235.953 422.633C235.953 426.026 235.33 429.107 234.083 431.877C232.86 434.624 231.279 436.655 229.34 437.97C227.401 439.286 225.266 439.944 222.935 439.944C218.735 439.944 215.273 438.051 212.549 434.266C209.826 430.481 208.464 424.168 208.464 415.328C208.464 405.519 209.86 398.537 212.653 394.383C215.446 390.205 219.023 388.117 223.385 388.117C226.547 388.117 229.19 389.201 231.314 391.371C233.46 393.517 234.764 396.645 235.226 400.753ZM214.349 422.633C214.349 426.303 215.215 429.257 216.946 431.496C218.677 433.712 220.685 434.82 222.97 434.82C224.978 434.82 226.767 433.77 228.336 431.669C229.929 429.569 230.725 426.684 230.725 423.014C230.725 419.414 229.94 416.621 228.371 414.636C226.801 412.651 224.886 411.659 222.624 411.659C220.408 411.659 218.469 412.651 216.807 414.636C215.169 416.598 214.349 419.264 214.349 422.633ZM238.967 427.342L243.884 426.788C244.668 432.142 246.976 434.82 250.808 434.82C252.516 434.82 254.062 434.243 255.447 433.089C256.855 431.912 258.043 429.834 259.013 426.857C259.982 423.88 260.467 420.406 260.467 416.436V415.19C259.405 417.244 257.974 418.871 256.174 420.071C254.374 421.272 252.539 421.872 250.669 421.872C247.276 421.872 244.345 420.395 241.876 417.44C239.429 414.463 238.206 410.401 238.206 405.254C238.206 399.945 239.475 395.768 242.014 392.721C244.576 389.651 247.68 388.117 251.327 388.117C253.912 388.117 256.324 388.97 258.563 390.678C260.802 392.386 262.533 394.902 263.756 398.226C264.979 401.549 265.591 406.339 265.591 412.593C265.591 419.564 264.933 424.976 263.617 428.83C262.302 432.685 260.513 435.501 258.251 437.278C256.012 439.055 253.497 439.944 250.704 439.944C247.542 439.944 244.899 438.87 242.776 436.724C240.652 434.554 239.383 431.427 238.967 427.342ZM259.913 404.942C259.913 401.319 259.105 398.468 257.49 396.391C255.874 394.314 254.016 393.275 251.916 393.275C249.723 393.275 247.761 394.383 246.03 396.599C244.322 398.814 243.468 401.769 243.468 405.461C243.468 408.785 244.288 411.439 245.926 413.424C247.565 415.386 249.527 416.367 251.812 416.367C254.074 416.367 255.989 415.375 257.559 413.39C259.128 411.405 259.913 408.589 259.913 404.942ZM267.705 425.784L273.072 425.23C273.487 428.461 274.422 430.873 275.876 432.466C277.353 434.035 279.061 434.82 281 434.82C283.423 434.82 285.512 433.712 287.266 431.496C289.02 429.257 289.897 426.211 289.897 422.356C289.897 418.733 289.043 415.928 287.335 413.944C285.65 411.936 283.527 410.932 280.965 410.932C279.419 410.932 277.965 411.37 276.603 412.247C275.264 413.101 274.203 414.301 273.418 415.848L268.606 415.086L272.656 389.017H293.325V394.971H276.741L274.491 408.612C276.961 406.489 279.58 405.427 282.35 405.427C285.835 405.427 288.859 406.916 291.421 409.893C294.006 412.847 295.298 416.84 295.298 421.872C295.298 426.834 294.006 431.092 291.421 434.647C288.859 438.178 285.408 439.944 281.069 439.944C277.468 439.944 274.422 438.697 271.929 436.205C269.459 433.689 268.052 430.215 267.705 425.784ZM313.581 439.078V426.926H295.543V421.214L314.55 388.324H318.704V421.214H324.348V426.926H318.704V439.078H313.581ZM313.581 421.214V398.33L300.563 421.214H313.581Z" fill="#9F8115"/>
<path d="M161.641 431.377C155.034 431.377 150.63 428.624 149.345 424.862C149.139 424.311 149.024 423.715 149.024 423.164C149.024 421.512 150.079 420.457 151.639 420.457C152.947 420.457 153.773 420.985 154.415 422.315C155.447 425.183 158.292 426.467 161.825 426.467C165.817 426.467 168.615 424.495 168.615 421.742C168.615 419.356 166.964 417.888 162.651 416.993L159.095 416.259C152.465 414.905 149.368 411.785 149.368 406.945C149.368 401.118 154.484 397.172 161.664 397.172C167.514 397.172 172.056 399.788 173.41 404.169C173.548 404.536 173.616 404.972 173.616 405.523C173.616 406.968 172.584 407.954 171.047 407.954C169.671 407.954 168.822 407.358 168.202 406.073C167.078 403.274 164.715 402.082 161.618 402.082C157.948 402.082 155.333 403.825 155.333 406.601C155.333 408.849 156.984 410.294 161.114 411.166L164.67 411.9C171.643 413.345 174.58 416.144 174.58 421.053C174.58 427.385 169.602 431.377 161.641 431.377Z" fill="#DADADA"/>
<path d="M222.021 60.0195C219.967 59.0963 218.409 57.7807 217.347 56.0728C216.309 54.3418 215.789 52.1953 215.789 49.6334C215.789 45.7789 216.92 42.64 219.182 40.2165C221.467 37.7931 224.329 36.5814 227.768 36.5814C231.23 36.5814 234.104 37.8162 236.389 40.2858C238.697 42.7554 239.851 45.9405 239.851 49.8411C239.851 52.2876 239.343 54.3648 238.327 56.0728C237.312 57.7577 235.777 59.0733 233.723 60.0195C236.239 61.012 238.166 62.6161 239.504 64.8318C240.866 67.0475 241.547 69.7941 241.547 73.0715C241.547 77.5953 240.231 81.2882 237.6 84.1501C234.992 86.989 231.749 88.4085 227.872 88.4085C223.948 88.4085 220.671 86.989 218.04 84.1501C215.431 81.2882 214.127 77.5376 214.127 72.8984C214.127 69.5056 214.82 66.7129 216.205 64.5202C217.613 62.3045 219.551 60.8043 222.021 60.0195ZM221.052 49.4602C221.052 51.9529 221.709 53.9379 223.025 55.415C224.341 56.8921 225.956 57.6307 227.872 57.6307C229.741 57.6307 231.334 56.9037 232.649 55.4496C233.965 53.9956 234.623 52.1145 234.623 49.8065C234.623 47.4292 233.942 45.4904 232.58 43.9902C231.242 42.4669 229.649 41.7052 227.803 41.7052C225.956 41.7052 224.364 42.4438 223.025 43.9209C221.709 45.3981 221.052 47.2445 221.052 49.4602ZM219.355 72.8984C219.355 76.0143 220.186 78.5301 221.848 80.4457C223.533 82.3383 225.541 83.2846 227.872 83.2846C230.226 83.2846 232.223 82.3614 233.861 80.515C235.5 78.6685 236.319 76.1989 236.319 73.1062C236.319 69.9903 235.477 67.4861 233.792 65.5935C232.107 63.6778 230.088 62.72 227.733 62.72C225.402 62.72 223.417 63.6663 221.779 65.5589C220.163 67.4514 219.355 69.898 219.355 72.8984ZM244.423 75.8066L249.339 75.2526C250.124 80.6073 252.432 83.2846 256.264 83.2846C257.971 83.2846 259.518 82.7076 260.903 81.5536C262.311 80.3765 263.499 78.2993 264.469 75.3219C265.438 72.3445 265.923 68.8709 265.923 64.9011V63.6547C264.861 65.7089 263.43 67.336 261.63 68.5362C259.829 69.7364 257.995 70.3365 256.125 70.3365C252.732 70.3365 249.801 68.8594 247.331 65.9051C244.885 62.9277 243.662 58.8655 243.662 53.7186C243.662 48.4101 244.931 44.2325 247.47 41.1859C250.032 38.1162 253.136 36.5814 256.783 36.5814C259.368 36.5814 261.78 37.4353 264.019 39.1433C266.257 40.8512 267.988 43.367 269.212 46.6906C270.435 50.0142 271.047 54.8034 271.047 61.0582C271.047 68.0285 270.389 73.4408 269.073 77.2953C267.758 81.1497 265.969 83.9655 263.707 85.7427C261.468 87.5199 258.952 88.4085 256.16 88.4085C252.998 88.4085 250.355 87.3352 248.232 85.1888C246.108 83.0192 244.839 79.8918 244.423 75.8066ZM265.369 53.407C265.369 49.7834 264.561 46.9329 262.945 44.8557C261.33 42.7785 259.472 41.7398 257.371 41.7398C255.179 41.7398 253.217 42.8477 251.486 45.0634C249.778 47.2791 248.924 50.2334 248.924 53.9263C248.924 57.2499 249.743 59.9041 251.382 61.8891C253.021 63.8509 254.983 64.8318 257.268 64.8318C259.529 64.8318 261.445 63.8394 263.015 61.8544C264.584 59.8695 265.369 57.0537 265.369 53.407ZM274.096 48.9756C274.096 44.7518 274.938 41.5206 276.623 39.2818C278.308 37.043 280.374 35.9236 282.82 35.9236C285.359 35.9236 287.506 37.043 289.26 39.2818C291.014 41.5206 291.891 44.8672 291.891 49.3218C291.891 53.684 291.014 57.0191 289.26 59.3271C287.506 61.6121 285.382 62.7546 282.89 62.7546C280.443 62.7546 278.366 61.6236 276.658 59.3618C274.95 57.0768 274.096 53.6147 274.096 48.9756ZM282.993 40.2165C281.724 40.2165 280.662 40.8974 279.808 42.2592C278.977 43.5978 278.562 45.9636 278.562 49.3564C278.562 52.7492 278.977 55.115 279.808 56.4536C280.662 57.7923 281.759 58.4616 283.097 58.4616C284.321 58.4616 285.348 57.7923 286.179 56.4536C287.033 55.0919 287.46 52.7261 287.46 49.3564C287.46 45.9866 287.033 43.6209 286.179 42.2592C285.325 40.8974 284.263 40.2165 282.993 40.2165ZM282.993 89.4125L305.774 35.9236H309.928L287.252 89.4125H282.993ZM301.031 75.6335C301.031 71.4097 301.873 68.1785 303.558 65.9397C305.243 63.7009 307.297 62.5815 309.721 62.5815C312.283 62.5815 314.441 63.7009 316.195 65.9397C317.949 68.1554 318.826 71.4905 318.826 75.945C318.826 80.3303 317.937 83.677 316.16 85.985C314.406 88.27 312.294 89.4125 309.824 89.4125C307.378 89.4125 305.301 88.27 303.593 85.985C301.885 83.7001 301.031 80.2496 301.031 75.6335ZM309.928 66.8744C308.636 66.8744 307.563 67.5553 306.709 68.9171C305.878 70.2557 305.462 72.6215 305.462 76.0143C305.462 79.4071 305.889 81.7729 306.743 83.1115C307.597 84.4502 308.694 85.1195 310.032 85.1195C311.232 85.1195 312.248 84.4387 313.079 83.0769C313.933 81.7152 314.36 79.3494 314.36 75.9797C314.36 72.6099 313.933 70.2557 313.079 68.9171C312.248 67.5553 311.198 66.8744 309.928 66.8744Z" fill="#9F8115"/>
<path d="M160.037 77.377C158.202 77.377 157.078 76.2299 157.078 74.3029V47.3477C157.078 45.4207 158.202 44.2736 160.037 44.2736H170.819C176.83 44.2736 180.707 47.5083 180.707 52.5323C180.707 56.0881 178.069 59.185 174.673 59.7356V59.9191C179.17 60.355 182.313 63.5896 182.313 67.9713C182.313 73.7982 178.023 77.377 170.957 77.377H160.037ZM162.997 58.2215H168.411C172.54 58.2215 174.857 56.4781 174.857 53.404C174.857 50.5135 172.861 48.8847 169.328 48.8847H162.997V58.2215ZM162.997 72.7659H169.604C173.962 72.7659 176.279 70.9536 176.279 67.5584C176.279 64.1861 173.893 62.4197 169.351 62.4197H162.997V72.7659Z" fill="#DADADA"/>
<path d="M154.959 138.042C153.123 138.042 152.022 136.918 152.022 134.968V109.55H144.452C142.846 109.55 141.745 108.587 141.745 107.05C141.745 105.513 142.823 104.549 144.452 104.549H165.488C167.117 104.549 168.195 105.513 168.195 107.05C168.195 108.587 167.094 109.55 165.488 109.55H157.918V134.968C157.918 136.918 156.817 138.042 154.959 138.042Z" fill="#DADADA"/>
<path d="M222.15 146.068H217.026V106.358C215.849 107.743 214.268 109.163 212.283 110.617C210.298 112.048 208.475 113.133 206.813 113.871V107.847C209.629 106.232 212.11 104.258 214.256 101.927C216.426 99.5959 217.949 97.3225 218.826 95.1068H222.15V146.068ZM248.776 146.068V133.917H230.738V128.204L249.745 95.3145H253.9V128.204H259.543V133.917H253.9V146.068H248.776ZM248.776 128.204V105.32L235.758 128.204H248.776ZM264.946 116.398V109.301H270.763V116.398H264.946ZM264.946 146.068V138.971H270.763V146.068H264.946ZM275.301 132.67L280.425 131.839C281.486 138.486 284.175 141.81 288.491 141.81C290.822 141.81 292.842 140.829 294.55 138.867C296.258 136.882 297.112 134.32 297.112 131.181C297.112 128.227 296.327 125.85 294.758 124.05C293.188 122.249 291.261 121.349 288.976 121.349C288.007 121.349 286.806 121.58 285.375 122.042L285.964 116.572L286.76 116.641C289.276 116.641 291.319 115.868 292.888 114.321C294.457 112.775 295.242 110.709 295.242 108.124C295.242 105.747 294.584 103.843 293.269 102.412C291.953 100.958 290.349 100.231 288.457 100.231C286.495 100.231 284.833 100.992 283.471 102.516C282.133 104.016 281.279 106.301 280.909 109.37L275.82 108.263C276.466 103.923 277.92 100.646 280.182 98.4303C282.444 96.2146 285.179 95.1068 288.387 95.1068C291.757 95.1068 294.619 96.3531 296.973 98.8458C299.327 101.338 300.505 104.477 300.505 108.263C300.505 110.571 299.997 112.613 298.981 114.39C297.989 116.168 296.592 117.564 294.792 118.58C296.454 119.041 297.827 119.803 298.912 120.865C299.997 121.926 300.874 123.346 301.543 125.123C302.213 126.9 302.547 128.885 302.547 131.078C302.547 135.74 301.174 139.56 298.427 142.537C295.681 145.491 292.392 146.968 288.56 146.968C285.006 146.968 281.994 145.676 279.524 143.091C277.055 140.506 275.647 137.032 275.301 132.67ZM331.285 107.743L326.196 108.228C325.711 105.62 324.996 103.762 324.049 102.654C322.688 101.038 321.049 100.231 319.133 100.231C316.156 100.231 313.767 102.077 311.967 105.77C310.42 108.955 309.636 113.663 309.613 119.895C310.79 117.679 312.267 116.006 314.044 114.875C315.821 113.721 317.702 113.144 319.687 113.144C322.988 113.144 325.861 114.644 328.308 117.645C330.777 120.622 332.012 124.615 332.012 129.624C332.012 133.016 331.389 136.098 330.143 138.867C328.919 141.614 327.338 143.645 325.4 144.96C323.461 146.276 321.326 146.934 318.995 146.934C314.794 146.934 311.332 145.041 308.609 141.256C305.885 137.471 304.523 131.158 304.523 122.319C304.523 112.509 305.92 105.528 308.712 101.373C311.505 97.1955 315.083 95.1068 319.445 95.1068C322.607 95.1068 325.25 96.1915 327.373 98.3611C329.519 100.508 330.823 103.635 331.285 107.743ZM310.409 129.624C310.409 133.293 311.274 136.248 313.005 138.486C314.736 140.702 316.744 141.81 319.029 141.81C321.037 141.81 322.826 140.76 324.396 138.66C325.988 136.559 326.784 133.674 326.784 130.004C326.784 126.404 326 123.611 324.43 121.626C322.861 119.641 320.945 118.649 318.683 118.649C316.467 118.649 314.529 119.641 312.867 121.626C311.228 123.588 310.409 126.254 310.409 129.624Z" fill="#9F8115"/>
<path d="M235.067 255.148V241.231H223.746V235.415H235.067V221.601H239.914V235.415H251.235V241.231H239.914V255.148H235.067ZM280.977 257.364V263.354H253.454C253.384 260.93 254.111 258.218 255.635 255.218C257.181 252.217 259.997 248.674 264.082 244.589C268.86 239.835 271.987 236.165 273.464 233.58C274.941 230.972 275.68 228.548 275.68 226.309C275.68 223.724 274.918 221.624 273.395 220.008C271.895 218.37 270.037 217.55 267.821 217.55C265.444 217.55 263.494 218.427 261.97 220.182C260.447 221.936 259.685 224.451 259.685 227.729L254.423 227.071C254.792 222.201 256.165 218.543 258.543 216.096C260.943 213.627 264.094 212.392 267.994 212.392C272.241 212.392 275.449 213.823 277.619 216.685C279.811 219.547 280.908 222.801 280.908 226.448C280.908 229.679 280.054 232.783 278.346 235.761C276.638 238.715 273.395 242.662 268.617 247.601C265.571 250.717 263.597 252.84 262.697 253.971C261.82 255.102 261.105 256.233 260.551 257.364H280.977ZM283.576 249.955L288.7 249.124C289.762 255.772 292.451 259.095 296.767 259.095C299.098 259.095 301.117 258.114 302.825 256.152C304.533 254.168 305.387 251.606 305.387 248.467C305.387 245.512 304.603 243.135 303.033 241.335C301.464 239.535 299.536 238.634 297.251 238.634C296.282 238.634 295.082 238.865 293.651 239.327L294.239 233.857L295.036 233.926C297.551 233.926 299.594 233.153 301.164 231.606C302.733 230.06 303.518 227.994 303.518 225.409C303.518 223.032 302.86 221.128 301.544 219.697C300.229 218.243 298.625 217.516 296.732 217.516C294.77 217.516 293.109 218.277 291.747 219.801C290.408 221.301 289.554 223.586 289.185 226.656L284.096 225.548C284.742 221.209 286.196 217.931 288.458 215.715C290.72 213.5 293.455 212.392 296.663 212.392C300.033 212.392 302.895 213.638 305.249 216.131C307.603 218.624 308.78 221.763 308.78 225.548C308.78 227.856 308.272 229.898 307.257 231.676C306.264 233.453 304.868 234.849 303.068 235.865C304.73 236.326 306.103 237.088 307.188 238.15C308.272 239.211 309.149 240.631 309.819 242.408C310.488 244.185 310.823 246.17 310.823 248.363C310.823 253.025 309.449 256.845 306.703 259.822C303.956 262.777 300.667 264.254 296.836 264.254C293.282 264.254 290.27 262.961 287.8 260.376C285.33 257.791 283.922 254.318 283.576 249.955Z" fill="#9F8115"/>
<path d="M179.601 255.465C170.035 255.465 164.139 248.972 164.139 238.351C164.139 227.798 170.126 221.26 179.486 221.26C185.611 221.26 190.452 224.128 192.631 228.968C192.998 229.725 193.182 230.505 193.182 231.193C193.182 232.776 192.149 233.786 190.566 233.786C189.213 233.786 188.318 233.143 187.676 231.698C186.139 228.142 183.134 226.284 179.532 226.284C173.843 226.284 170.195 230.964 170.195 238.351C170.195 245.784 173.82 250.441 179.555 250.441C183.34 250.441 186.254 248.789 187.768 245.302C188.364 243.948 189.121 243.398 190.406 243.398C192.035 243.398 193.159 244.476 193.159 246.036C193.159 246.793 192.975 247.481 192.608 248.261C190.498 252.758 185.795 255.465 179.601 255.465Z" fill="#DADADA"/>
</g>
<defs>
<clipPath id="clip0_172_564">
<rect width="474" height="474" rx="64" fill="white"/>
</clipPath>
</defs>
</svg>
