<svg width="474" height="474" viewBox="0 0 474 474" fill="none" xmlns="http://www.w3.org/2000/svg">
<rect width="474" height="474" rx="64" fill="#E4E4E4"/>
<rect x="6.40527" y="56.9609" width="98.663" height="51.8641" fill="#16A92D"/>
<rect x="6.10547" y="108.666" width="118.141" height="51.8641" fill="#222BFF"/>
<rect x="4.75391" y="160.498" width="119.493" height="51.8641" fill="#FF3D3D"/>
<rect x="4.75391" y="264.023" width="121.059" height="51.8641" fill="#2DD4F9"/>
<rect x="4.75391" y="315.791" width="70.5485" height="51.8641" fill="#FF9E2C"/>
<rect x="4.75391" y="367.547" width="108.368" height="51.8641" fill="#FF589E"/>
<rect x="4.75391" y="212.291" width="83.3111" height="51.8641" fill="#D8FF3A"/>
<rect x="124.242" y="160.498" width="128.419" height="51.8641" fill="#8591FF"/>
<rect x="105.063" y="56.9609" width="184.455" height="51.8641" fill="#FF85EB"/>
<rect x="75.3008" y="315.791" width="149.053" height="51.8641" fill="#5FAD22"/>
<rect x="125.818" y="264.023" width="216.119" height="51.8641" fill="#FFE55C"/>
<rect x="113.12" y="367.547" width="161.306" height="51.8641" fill="#C6C6C6"/>
<path d="M24.1107 209.414H19.5837V174.33C18.5438 175.554 17.1469 176.808 15.3933 178.092C13.6396 179.357 12.0286 180.315 10.5604 180.968V175.645C13.0482 174.218 15.2403 172.475 17.1367 170.415C19.0536 168.355 20.3994 166.347 21.1743 164.389H24.1107V209.414ZM56.9641 204.122V209.414H32.647C32.5859 207.273 33.2282 204.877 34.5741 202.226C35.9403 199.575 38.4281 196.445 42.0374 192.836C46.2585 188.635 49.0215 185.393 50.3266 183.109C51.6317 180.805 52.2842 178.663 52.2842 176.685C52.2842 174.402 51.6113 172.546 50.2654 171.119C48.94 169.671 47.2985 168.947 45.3409 168.947C43.2405 168.947 41.5174 169.722 40.1716 171.271C38.8257 172.821 38.1528 175.044 38.1528 177.94L33.5035 177.358C33.8298 173.056 35.0431 169.824 37.1434 167.662C39.2641 165.48 42.0476 164.389 45.4938 164.389C49.2459 164.389 52.0803 165.654 53.9971 168.182C55.9343 170.711 56.9029 173.586 56.9029 176.808C56.9029 179.663 56.1484 182.405 54.6394 185.036C53.1305 187.646 50.2654 191.133 46.0444 195.497C43.3527 198.25 41.6092 200.126 40.8139 201.125C40.039 202.124 39.4069 203.123 38.9175 204.122H56.9641ZM61.9217 209.414V203.144H67.0604V209.414H61.9217ZM71.0392 187.299C71.0392 179.775 72.0486 174.075 74.0674 170.201C76.1066 166.326 79.1041 164.389 83.0601 164.389C86.5675 164.389 89.3305 165.959 91.3493 169.1C93.7963 172.893 95.0198 178.959 95.0198 187.299C95.0198 194.783 94.0104 200.472 91.9917 204.367C89.9729 208.242 86.9753 210.179 82.9989 210.179C79.4916 210.179 76.6164 208.466 74.3733 205.04C72.1506 201.614 71.0392 195.701 71.0392 187.299ZM75.6579 187.299C75.6579 194.579 76.3513 199.463 77.7379 201.951C79.1449 204.418 80.9394 205.652 83.1213 205.652C85.1808 205.652 86.9039 204.398 88.2906 201.89C89.6772 199.381 90.3705 194.518 90.3705 187.299C90.3705 179.999 89.667 175.115 88.26 172.648C86.8734 170.181 85.0687 168.947 82.846 168.947C80.8068 168.947 79.0939 170.201 77.7073 172.709C76.3411 175.217 75.6579 180.081 75.6579 187.299ZM97.4081 170.446V165.154H121.205V169.436C117.657 174.045 114.537 180.05 111.845 187.452C109.154 194.834 107.604 202.155 107.196 209.414H102.547C102.608 205.662 103.199 201.288 104.321 196.292C105.463 191.296 107.023 186.535 109.001 182.008C110.979 177.481 113.11 173.627 115.394 170.446H97.4081Z" fill="#8591FF"/>
<rect x="124.242" y="108.666" width="116.827" height="51.8641" fill="#EDEDED"/>
<rect x="88.0615" y="212.291" width="361.764" height="51.8641" fill="#4DBEA9"/>
<path d="M30.9011 359.415V364.707H6.58406C6.52289 362.566 7.16522 360.17 8.51107 357.519C9.87731 354.868 12.3651 351.738 15.9744 348.129C20.1955 343.928 22.9586 340.686 24.2636 338.402C25.5687 336.098 26.2212 333.956 26.2212 331.978C26.2212 329.695 25.5483 327.839 24.2025 326.411C22.877 324.964 21.2355 324.24 19.2779 324.24C17.1775 324.24 15.4544 325.015 14.1086 326.564C12.7627 328.114 12.0898 330.337 12.0898 333.233L7.44051 332.651C7.76678 328.349 8.98008 325.117 11.0804 322.955C13.2012 320.773 15.9846 319.682 19.4308 319.682C23.1829 319.682 26.0173 320.947 27.9341 323.475C29.8713 326.004 30.8399 328.879 30.8399 332.101C30.8399 334.956 30.0854 337.698 28.5765 340.329C27.0675 342.939 24.2025 346.426 19.9814 350.79C17.2897 353.543 15.5462 355.419 14.7509 356.418C13.976 357.417 13.3439 358.416 12.8545 359.415H30.9011ZM31.1177 365.472L41.7621 319.101H45.402L34.727 365.472H31.1177ZM45.2821 325.739V320.447H69.0792V324.729C65.531 329.338 62.4111 335.343 59.7194 342.745C57.0277 350.127 55.478 357.448 55.0701 364.707H50.4208C50.482 360.955 51.0734 356.581 52.1949 351.585C53.3368 346.589 54.8968 341.828 56.8748 337.301C58.8528 332.774 60.9837 328.92 63.2676 325.739H45.2821Z" fill="#5FAD22"/>
<path d="M129.672 209.414V164.573H142.366C145.507 164.573 147.892 164.848 149.524 165.399C151.665 166.112 153.52 167.417 155.091 169.314C156.661 171.21 157.884 173.606 158.761 176.502C159.638 179.377 160.076 182.793 160.076 186.749C160.076 191.826 159.332 196.139 157.843 199.687C156.355 203.215 154.438 205.723 152.093 207.212C149.768 208.68 146.72 209.414 142.947 209.414H129.672ZM134.536 204.122H142.366C145.527 204.122 147.923 203.613 149.554 202.593C151.186 201.553 152.44 199.891 153.317 197.607C154.479 194.569 155.06 190.929 155.06 186.688C155.06 182.14 154.438 178.572 153.194 175.982C151.971 173.372 150.39 171.628 148.453 170.751C147.148 170.16 145.078 169.864 142.244 169.864H134.536V204.122ZM160.323 209.414L174.455 164.573H179.685L194.734 209.414H189.167L184.885 195.833H169.53L165.493 209.414H160.323ZM170.937 191H183.386L179.563 178.582C178.38 174.769 177.514 171.669 176.963 169.283C176.494 172.159 175.831 175.013 174.975 177.848L170.937 191ZM201.741 209.414V169.864H189.629V164.573H218.779V169.864H206.605V209.414H201.741ZM221.289 209.414V164.573H247.87V169.864H226.153V183.598H246.493V188.859H226.153V204.122H248.726V209.414H221.289Z" fill="black"/>
<path d="M7.10405 290.825C7.10405 283.3 8.11344 277.601 10.1322 273.726C12.1714 269.852 15.1689 267.915 19.1249 267.915C22.6323 267.915 25.3954 269.485 27.4141 272.625C29.8611 276.418 31.0846 282.485 31.0846 290.825C31.0846 298.308 30.0753 303.998 28.0565 307.893C26.0377 311.767 23.0401 313.704 19.0638 313.704C15.5564 313.704 12.6812 311.991 10.4381 308.565C8.21539 305.14 7.10405 299.226 7.10405 290.825ZM11.7228 290.825C11.7228 298.105 12.4161 302.988 13.8027 305.476C15.2097 307.943 17.0042 309.177 19.1861 309.177C21.2457 309.177 22.9688 307.923 24.3554 305.415C25.742 302.907 26.4353 298.043 26.4353 290.825C26.4353 283.524 25.7318 278.641 24.3248 276.173C22.9382 273.706 21.1335 272.472 18.9108 272.472C16.8717 272.472 15.1588 273.726 13.7721 276.234C12.4059 278.743 11.7228 283.606 11.7228 290.825ZM33.4729 273.971V268.679H57.27V272.962C53.7218 277.57 50.6019 283.575 47.9102 290.978C45.2185 298.359 43.6687 305.68 43.2609 312.939H38.6116C38.6728 309.187 39.2641 304.813 40.3857 299.817C41.5276 294.821 43.0876 290.06 45.0656 285.533C47.0436 281.006 49.1745 277.152 51.4583 273.971H33.4729ZM61.9217 286.726V280.456H67.0604V286.726H61.9217ZM61.9217 312.939V306.669H67.0604V312.939H61.9217ZM94.8363 307.648V312.939H70.5192C70.4581 310.798 71.1004 308.402 72.4463 305.751C73.8125 303.1 76.3003 299.97 79.9096 296.361C84.1307 292.16 86.8937 288.918 88.1988 286.634C89.5039 284.33 90.1564 282.189 90.1564 280.211C90.1564 277.927 89.4835 276.071 88.1376 274.644C86.8122 273.196 85.1707 272.472 83.2131 272.472C81.1127 272.472 79.3896 273.247 78.0438 274.797C76.6979 276.347 76.025 278.569 76.025 281.465L71.3757 280.884C71.702 276.581 72.9153 273.349 75.0156 271.188C77.1363 269.006 79.9198 267.915 83.366 267.915C87.1181 267.915 89.9525 269.179 91.8693 271.708C93.8065 274.236 94.7751 277.111 94.7751 280.333C94.7751 283.188 94.0206 285.931 92.5116 288.561C91.0027 291.171 88.1376 294.658 83.9166 299.022C81.2249 301.775 79.4814 303.651 78.6861 304.65C77.9112 305.649 77.2791 306.649 76.7897 307.648H94.8363ZM104.046 288.622C102.231 287.807 100.854 286.644 99.9163 285.135C98.9986 283.606 98.5398 281.71 98.5398 279.446C98.5398 276.041 99.539 273.267 101.537 271.126C103.556 268.985 106.085 267.915 109.123 267.915C112.182 267.915 114.721 269.006 116.739 271.188C118.779 273.369 119.798 276.183 119.798 279.63C119.798 281.791 119.35 283.626 118.452 285.135C117.555 286.624 116.199 287.786 114.384 288.622C116.607 289.499 118.31 290.916 119.492 292.874C120.695 294.832 121.297 297.258 121.297 300.154C121.297 304.151 120.135 307.413 117.81 309.942C115.506 312.45 112.641 313.704 109.215 313.704C105.748 313.704 102.853 312.45 100.528 309.942C98.2238 307.413 97.0716 304.1 97.0716 300.001C97.0716 297.003 97.6834 294.536 98.9069 292.599C100.151 290.641 101.864 289.316 104.046 288.622ZM103.189 279.293C103.189 281.496 103.77 283.249 104.933 284.554C106.095 285.859 107.522 286.512 109.215 286.512C110.867 286.512 112.274 285.87 113.436 284.585C114.598 283.3 115.179 281.638 115.179 279.599C115.179 277.499 114.578 275.786 113.375 274.46C112.192 273.115 110.785 272.442 109.154 272.442C107.522 272.442 106.115 273.094 104.933 274.399C103.77 275.704 103.189 277.336 103.189 279.293ZM101.69 300.001C101.69 302.754 102.424 304.977 103.893 306.669C105.381 308.341 107.155 309.177 109.215 309.177C111.295 309.177 113.059 308.362 114.506 306.73C115.954 305.099 116.678 302.917 116.678 300.184C116.678 297.432 115.934 295.219 114.445 293.547C112.957 291.854 111.172 291.008 109.093 291.008C107.033 291.008 105.279 291.844 103.831 293.516C102.404 295.189 101.69 297.35 101.69 300.001Z" fill="#FFE55C"/>
<path d="M30.5341 382.604L26.0377 383.033C25.6095 380.728 24.9773 379.087 24.1413 378.108C22.9382 376.681 21.4904 375.967 19.7979 375.967C17.1673 375.967 15.0568 377.598 13.4662 380.861C12.1 383.675 11.4067 387.835 11.3863 393.341C12.4263 391.383 13.7313 389.905 15.3015 388.906C16.8717 387.886 18.5336 387.376 20.2873 387.376C23.2033 387.376 25.742 388.702 27.9035 391.353C30.0854 393.983 31.1764 397.511 31.1764 401.936C31.1764 404.933 30.6258 407.656 29.5247 410.103C28.4439 412.529 27.0471 414.324 25.3342 415.486C23.6213 416.648 21.7351 417.23 19.6755 417.23C15.9642 417.23 12.9055 415.557 10.4993 412.213C8.09304 408.869 6.88994 403.292 6.88994 395.482C6.88994 386.815 8.12363 380.647 10.591 376.976C13.0584 373.286 16.2191 371.44 20.0731 371.44C22.8668 371.44 25.2016 372.398 27.0777 374.315C28.9741 376.212 30.1262 378.975 30.5341 382.604ZM12.0898 401.936C12.0898 405.178 12.8545 407.788 14.3839 409.766C15.9132 411.724 17.6873 412.703 19.7061 412.703C21.4802 412.703 23.0605 411.775 24.4472 409.919C25.8542 408.063 26.5577 405.515 26.5577 402.272C26.5577 399.091 25.8644 396.624 24.4777 394.87C23.0911 393.116 21.3986 392.24 19.4002 392.24C17.4426 392.24 15.7297 393.116 14.2615 394.87C12.8137 396.603 12.0898 398.959 12.0898 401.936ZM33.84 406.096L38.1834 405.606C38.8767 410.337 40.9159 412.703 44.3009 412.703C45.8099 412.703 47.1761 412.193 48.3996 411.173C49.6435 410.133 50.6937 408.298 51.5501 405.667C52.4066 403.037 52.8348 399.968 52.8348 396.461V395.359C51.8968 397.174 50.6325 398.612 49.0419 399.672C47.4514 400.733 45.8303 401.263 44.1785 401.263C41.181 401.263 38.5912 399.958 36.4093 397.348C34.2478 394.717 33.167 391.128 33.167 386.581C33.167 381.891 34.2886 378.2 36.5317 375.508C38.7951 372.796 41.5378 371.44 44.7597 371.44C47.0436 371.44 49.1745 372.195 51.1525 373.704C53.1305 375.213 54.6598 377.435 55.7406 380.372C56.8214 383.308 57.3617 387.539 57.3617 393.065C57.3617 399.224 56.7806 404.006 55.6182 407.411C54.4559 410.816 52.8756 413.304 50.8772 414.874C48.8992 416.444 46.6765 417.23 44.2091 417.23C41.4155 417.23 39.0806 416.281 37.2046 414.385C35.3285 412.468 34.207 409.705 33.84 406.096ZM52.3454 386.306C52.3454 383.104 51.6317 380.586 50.2043 378.75C48.7768 376.915 47.1353 375.998 45.2797 375.998C43.3425 375.998 41.6092 376.976 40.0798 378.934C38.5708 380.892 37.8163 383.502 37.8163 386.764C37.8163 389.701 38.5402 392.046 39.988 393.8C41.4359 395.533 43.1691 396.399 45.1879 396.399C47.1863 396.399 48.8788 395.523 50.2654 393.769C51.6521 392.015 52.3454 389.527 52.3454 386.306ZM59.23 404.719L63.9711 404.23C64.3381 407.085 65.164 409.216 66.4487 410.623C67.7537 412.009 69.2627 412.703 70.9756 412.703C73.1167 412.703 74.9622 411.724 76.5119 409.766C78.0617 407.788 78.8366 405.096 78.8366 401.691C78.8366 398.49 78.0821 396.012 76.5731 394.258C75.0845 392.484 73.2085 391.597 70.945 391.597C69.5788 391.597 68.2941 391.985 67.091 392.76C65.9083 393.514 64.9703 394.574 64.277 395.941L60.0253 395.268L63.604 372.235H81.8648V377.496H67.2134L65.2252 389.548C67.4071 387.672 69.7215 386.734 72.1685 386.734C75.2477 386.734 77.919 388.049 80.1824 390.68C82.4663 393.29 83.6082 396.817 83.6082 401.263C83.6082 405.647 82.4663 409.409 80.1824 412.55C77.919 415.67 74.8704 417.23 71.0368 417.23C67.8557 417.23 65.164 416.128 62.9617 413.926C60.7798 411.703 59.5359 408.634 59.23 404.719ZM99.7609 416.465V405.729H83.8248V400.682L100.617 371.624H104.288V400.682H109.274V405.729H104.288V416.465H99.7609ZM99.7609 400.682V380.463L88.26 400.682H99.7609Z" fill="#C6C6C6"/>
<path d="M87.3262 364.707L77.5687 319.866H82.5545L88.152 349.26C88.7434 352.278 89.2634 355.337 89.712 358.437L91.3637 350.147L98.3682 319.866H104.241L109.502 342.562C110.787 348.088 111.745 353.379 112.377 358.437C112.846 355.521 113.448 352.268 114.182 348.679L119.963 319.866H124.857L114.763 364.707H110.083L102.314 330.541L101.152 325.28C100.805 327.237 100.448 328.991 100.081 330.541L92.2813 364.707H87.3262ZM126.939 364.707V319.866H153.52V325.157H131.803V338.891H152.143V344.152H131.803V359.415H154.376V364.707H126.939ZM158.692 364.707V319.866H185.272V325.157H163.555V338.891H183.896V344.152H163.555V359.415H186.129V364.707H158.692ZM190.169 364.707V319.866H195.032V342.103L213.293 319.866H219.9L204.453 338.035L220.573 364.707H214.149L201.058 342.011L195.032 349.169V364.707H190.169Z" fill="black"/>
<path d="M15.4862 81.5599C13.6713 80.7442 12.2949 79.5819 11.3568 78.0729C10.4392 76.5436 9.98041 74.6471 9.98041 72.3837C9.98041 68.9783 10.9796 66.205 12.978 64.0639C14.9968 61.9227 17.5253 60.8522 20.5637 60.8522C23.6224 60.8522 26.1612 61.9431 28.18 64.125C30.2191 66.3069 31.2387 69.121 31.2387 72.5672C31.2387 74.7287 30.7901 76.5639 29.8929 78.0729C28.9956 79.5615 27.6396 80.7238 25.8247 81.5599C28.0474 82.4367 29.7501 83.854 30.9328 85.8116C32.1359 87.7692 32.7375 90.1958 32.7375 93.0914C32.7375 97.0881 31.5752 100.351 29.2505 102.879C26.9463 105.388 24.0812 106.642 20.6554 106.642C17.1889 106.642 14.2932 105.388 11.9686 102.879C9.66434 100.351 8.51221 97.0372 8.51221 92.9384C8.51221 89.9409 9.12396 87.4735 10.3475 85.5363C11.5914 83.5787 13.3043 82.2532 15.4862 81.5599ZM14.6297 72.2307C14.6297 74.433 15.2109 76.1867 16.3732 77.4918C17.5355 78.7968 18.9629 79.4494 20.6554 79.4494C22.3072 79.4494 23.7142 78.807 24.8765 77.5224C26.0388 76.2377 26.62 74.5758 26.62 72.5366C26.62 70.4363 26.0185 68.7234 24.8153 67.3979C23.6326 66.052 22.2256 65.3791 20.5943 65.3791C18.9629 65.3791 17.5559 66.0317 16.3732 67.3367C15.2109 68.6418 14.6297 70.2731 14.6297 72.2307ZM13.1309 92.9384C13.1309 95.6913 13.865 97.914 15.3332 99.6065C16.8218 101.279 18.5959 102.115 20.6554 102.115C22.7354 102.115 24.4993 101.299 25.9471 99.6677C27.3949 98.0364 28.1188 95.8545 28.1188 93.122C28.1188 90.3691 27.3745 88.1566 25.8859 86.4845C24.3973 84.792 22.613 83.9457 20.5331 83.9457C18.4735 83.9457 16.7199 84.7818 15.272 86.4539C13.8446 88.126 13.1309 90.2875 13.1309 92.9384ZM35.2787 95.5078L39.6221 95.0184C40.3154 99.7493 42.3546 102.115 45.7396 102.115C47.2486 102.115 48.6149 101.605 49.8384 100.585C51.0822 99.5453 52.1324 97.7101 52.9889 95.0796C53.8453 92.449 54.2735 89.3801 54.2735 85.8727V84.7716C53.3355 86.5864 52.0712 88.0241 50.4807 89.0844C48.8901 90.1448 47.269 90.675 45.6173 90.675C42.6197 90.675 40.03 89.3699 37.8481 86.7598C35.6865 84.1293 34.6058 80.5403 34.6058 75.993C34.6058 71.3029 35.7273 67.612 37.9704 64.9203C40.2339 62.2082 42.9766 60.8522 46.1984 60.8522C48.4823 60.8522 50.6132 61.6067 52.5912 63.1156C54.5692 64.6246 56.0986 66.8473 57.1793 69.7837C58.2601 72.7201 58.8005 76.9514 58.8005 82.4775C58.8005 88.6358 58.2193 93.4177 57.057 96.8231C55.8947 100.228 54.3143 102.716 52.3159 104.286C50.3379 105.857 48.1153 106.642 45.6479 106.642C42.8542 106.642 40.5194 105.693 38.6433 103.797C36.7673 101.88 35.6458 99.1171 35.2787 95.5078ZM53.7841 75.7177C53.7841 72.5162 53.0704 69.9978 51.643 68.1626C50.2156 66.3273 48.5741 65.4097 46.7184 65.4097C44.7812 65.4097 43.0479 66.3885 41.5186 68.3461C40.0096 70.3037 39.2551 72.9138 39.2551 76.1765C39.2551 79.1129 39.979 81.4579 41.4268 83.2116C42.8746 84.9449 44.6079 85.8116 46.6267 85.8116C48.625 85.8116 50.3176 84.9347 51.7042 83.181C53.0908 81.4274 53.7841 78.9396 53.7841 75.7177ZM61.4946 71.8025C61.4946 68.0708 62.2389 65.216 63.7275 63.238C65.2161 61.26 67.0412 60.271 69.2027 60.271C71.4458 60.271 73.3422 61.26 74.8919 63.238C76.4417 65.216 77.2166 68.1728 77.2166 72.1084C77.2166 75.9624 76.4417 78.909 74.8919 80.9482C73.3422 82.9669 71.4662 83.9763 69.2639 83.9763C67.1023 83.9763 65.2671 82.9771 63.7581 80.9787C62.2491 78.96 61.4946 75.9012 61.4946 71.8025ZM69.3556 64.0639C68.2341 64.0639 67.2961 64.6654 66.5416 65.8685C65.8075 67.0512 65.4404 69.1414 65.4404 72.139C65.4404 75.1365 65.8075 77.2267 66.5416 78.4094C67.2961 79.5921 68.2647 80.1835 69.4474 80.1835C70.5281 80.1835 71.4356 79.5921 72.1697 78.4094C72.9242 77.2063 73.3014 75.1161 73.3014 72.139C73.3014 69.1618 72.9242 67.0716 72.1697 65.8685C71.4152 64.6654 70.4772 64.0639 69.3556 64.0639ZM69.3556 107.529L89.4822 60.271H93.1527L73.1179 107.529H69.3556ZM85.2917 95.3549C85.2917 91.6232 86.036 88.7684 87.5246 86.7904C89.0132 84.8124 90.828 83.8234 92.9692 83.8234C95.2326 83.8234 97.1392 84.8124 98.689 86.7904C100.239 88.748 101.014 91.6946 101.014 95.6301C101.014 99.5046 100.229 102.461 98.6584 104.501C97.1087 106.519 95.2428 107.529 93.0609 107.529C90.8994 107.529 89.0642 106.519 87.5552 104.501C86.0462 102.482 85.2917 99.4332 85.2917 95.3549ZM93.1527 87.6162C92.0107 87.6162 91.0625 88.2178 90.308 89.4209C89.5739 90.6036 89.2069 92.6937 89.2069 95.6913C89.2069 98.6889 89.5841 100.779 90.3386 101.962C91.0931 103.144 92.0617 103.736 93.2444 103.736C94.3048 103.736 95.202 103.134 95.9361 101.931C96.6906 100.728 97.0679 98.6379 97.0679 95.6607C97.0679 92.6836 96.6906 90.6036 95.9361 89.4209C95.202 88.2178 94.2742 87.6162 93.1527 87.6162Z" fill="#FF85EB"/>
<path d="M23.464 157.584H18.937V122.5C17.897 123.724 16.5002 124.978 14.7465 126.262C12.9929 127.527 11.3819 128.485 9.91371 129.138V123.815C12.4015 122.388 14.5936 120.644 16.49 118.585C18.4068 116.525 19.7527 114.517 20.5276 112.559H23.464V157.584ZM46.9882 157.584V146.848H31.0521V141.801L47.8446 112.743H51.5151V141.801H56.5009V146.848H51.5151V157.584H46.9882ZM46.9882 141.801V121.583L35.4873 141.801H46.9882ZM61.275 131.371V125.1H66.4137V131.371H61.275ZM61.275 157.584V151.314H66.4137V157.584H61.275ZM70.4231 145.747L74.9501 145.013C75.8881 150.885 78.2637 153.822 82.0769 153.822C84.1365 153.822 85.9208 152.955 87.4297 151.222C88.9387 149.468 89.6932 147.205 89.6932 144.431C89.6932 141.821 88.9999 139.721 87.6133 138.13C86.2266 136.54 84.5239 135.745 82.5052 135.745C81.6487 135.745 80.5883 135.948 79.3241 136.356L79.844 131.523L80.5476 131.585C82.7703 131.585 84.5749 130.902 85.9615 129.535C87.3482 128.169 88.0415 126.344 88.0415 124.06C88.0415 121.96 87.4603 120.277 86.298 119.013C85.1357 117.728 83.7185 117.086 82.0463 117.086C80.3131 117.086 78.8449 117.759 77.6418 119.105C76.459 120.43 75.7045 122.449 75.3783 125.161L70.8819 124.182C71.4529 120.349 72.7376 117.453 74.7359 115.496C76.7343 113.538 79.1507 112.559 81.9852 112.559C84.9624 112.559 87.4909 113.66 89.5709 115.863C91.6508 118.065 92.6908 120.838 92.6908 124.182C92.6908 126.222 92.2422 128.026 91.3449 129.596C90.4681 131.167 89.2344 132.4 87.6439 133.298C89.1121 133.705 90.3254 134.378 91.2838 135.316C92.2422 136.254 93.0171 137.508 93.6084 139.079C94.1998 140.649 94.4955 142.402 94.4955 144.34C94.4955 148.459 93.2822 151.834 90.8555 154.464C88.4289 157.074 85.5231 158.379 82.1381 158.379C78.9978 158.379 76.3367 157.237 74.1548 154.953C71.9729 152.67 70.729 149.601 70.4231 145.747ZM119.886 123.724L115.389 124.152C114.961 121.848 114.329 120.206 113.493 119.227C112.29 117.8 110.842 117.086 109.149 117.086C106.519 117.086 104.408 118.717 102.818 121.98C101.451 124.794 100.758 128.954 100.738 134.46C101.778 132.502 103.083 131.024 104.653 130.025C106.223 129.005 107.885 128.495 109.639 128.495C112.555 128.495 115.093 129.821 117.255 132.472C119.437 135.102 120.528 138.63 120.528 143.055C120.528 146.053 119.977 148.775 118.876 151.222C117.795 153.648 116.399 155.443 114.686 156.605C112.973 157.768 111.087 158.349 109.027 158.349C105.316 158.349 102.257 156.677 99.8507 153.332C97.4445 149.988 96.2414 144.411 96.2414 136.601C96.2414 127.935 97.4751 121.766 99.9425 118.096C102.41 114.405 105.571 112.559 109.425 112.559C112.218 112.559 114.553 113.518 116.429 115.434C118.326 117.331 119.478 120.094 119.886 123.724ZM101.441 143.055C101.441 146.297 102.206 148.907 103.735 150.885C105.265 152.843 107.039 153.822 109.058 153.822C110.832 153.822 112.412 152.894 113.799 151.038C115.206 149.183 115.909 146.634 115.909 143.391C115.909 140.21 115.216 137.743 113.829 135.989C112.443 134.236 110.75 133.359 108.752 133.359C106.794 133.359 105.081 134.236 103.613 135.989C102.165 137.723 101.441 140.078 101.441 143.055Z" fill="#EDEDED"/>
<path d="M129.707 298.533L134.296 298.043C134.54 300.511 135.091 302.438 135.947 303.824C136.824 305.191 138.068 306.292 139.679 307.128C141.29 307.964 143.105 308.382 145.124 308.382C148.019 308.382 150.262 307.678 151.853 306.271C153.464 304.844 154.269 302.999 154.269 300.735C154.269 299.41 153.974 298.257 153.382 297.279C152.811 296.279 151.934 295.464 150.752 294.832C149.589 294.2 147.061 293.312 143.166 292.171C139.699 291.151 137.232 290.121 135.764 289.081C134.296 288.041 133.154 286.726 132.338 285.135C131.522 283.524 131.114 281.71 131.114 279.691C131.114 276.061 132.287 273.094 134.632 270.79C136.977 268.486 140.138 267.334 144.114 267.334C146.847 267.334 149.232 267.874 151.272 268.955C153.331 270.035 154.922 271.585 156.043 273.604C157.185 275.623 157.797 277.998 157.879 280.731L153.199 281.159C152.954 278.243 152.077 276.082 150.568 274.675C149.08 273.267 146.979 272.564 144.267 272.564C141.514 272.564 139.414 273.186 137.966 274.43C136.518 275.653 135.794 277.244 135.794 279.201C135.794 281.016 136.325 282.423 137.385 283.423C138.445 284.422 140.831 285.431 144.542 286.451C148.172 287.45 150.721 288.317 152.189 289.051C154.432 290.193 156.125 291.702 157.267 293.578C158.409 295.433 158.98 297.656 158.98 300.246C158.98 302.815 158.378 305.16 157.175 307.281C155.972 309.381 154.33 310.982 152.25 312.083C150.191 313.184 147.703 313.735 144.787 313.735C140.24 313.735 136.61 312.368 133.898 309.636C131.206 306.904 129.809 303.202 129.707 298.533ZM187.123 268.098H192.017V294.006C192.017 298.349 191.588 301.918 190.732 304.711C189.896 307.485 188.356 309.677 186.113 311.288C183.891 312.899 181.056 313.704 177.61 313.704C172.757 313.704 169.117 312.256 166.69 309.361C164.284 306.465 163.081 301.347 163.081 294.006V268.098H167.944V293.975C167.944 298.033 168.26 300.97 168.892 302.784C169.525 304.599 170.554 305.986 171.982 306.944C173.43 307.882 175.183 308.351 177.243 308.351C180.709 308.351 183.218 307.373 184.767 305.415C186.338 303.457 187.123 299.644 187.123 293.975V268.098ZM197.525 312.939V268.098H202.511L221.842 303.304V268.098H226.491V312.939H221.505L202.205 277.703V312.939H197.525ZM232.213 312.939V268.098H248.517C251.922 268.098 254.43 268.516 256.041 269.352C257.672 270.188 259.008 271.585 260.048 273.543C261.088 275.48 261.608 277.733 261.608 280.303C261.608 283.688 260.721 286.43 258.947 288.531C257.193 290.631 254.634 291.967 251.269 292.538C252.636 293.353 253.676 294.179 254.389 295.015C255.837 296.728 257.112 298.635 258.213 300.735L264.636 312.939H258.519L253.625 303.61C251.728 299.96 250.291 297.503 249.312 296.239C248.353 294.974 247.415 294.128 246.498 293.7C245.601 293.251 244.336 293.027 242.705 293.027H237.077V312.939H232.213ZM237.077 287.888H247.538C249.822 287.888 251.555 287.613 252.738 287.062C253.92 286.512 254.858 285.645 255.552 284.463C256.245 283.28 256.592 281.903 256.592 280.333C256.592 278.07 255.929 276.296 254.604 275.011C253.278 273.706 251.31 273.053 248.7 273.053H237.077V287.888ZM267.728 312.939V268.098H272.591V312.939H267.728ZM276.968 298.533L281.556 298.043C281.801 300.511 282.351 302.438 283.208 303.824C284.085 305.191 285.328 306.292 286.939 307.128C288.55 307.964 290.365 308.382 292.384 308.382C295.28 308.382 297.523 307.678 299.113 306.271C300.724 304.844 301.53 302.999 301.53 300.735C301.53 299.41 301.234 298.257 300.643 297.279C300.072 296.279 299.195 295.464 298.012 294.832C296.85 294.2 294.321 293.312 290.426 292.171C286.96 291.151 284.492 290.121 283.024 289.081C281.556 288.041 280.414 286.726 279.598 285.135C278.783 283.524 278.375 281.71 278.375 279.691C278.375 276.061 279.547 273.094 281.892 270.79C284.237 268.486 287.398 267.334 291.375 267.334C294.107 267.334 296.493 267.874 298.532 268.955C300.592 270.035 302.182 271.585 303.304 273.604C304.446 275.623 305.057 277.998 305.139 280.731L300.459 281.159C300.214 278.243 299.338 276.082 297.829 274.675C296.34 273.267 294.24 272.564 291.527 272.564C288.775 272.564 286.674 273.186 285.226 274.43C283.779 275.653 283.055 277.244 283.055 279.201C283.055 281.016 283.585 282.423 284.645 283.423C285.706 284.422 288.092 285.431 291.803 286.451C295.432 287.45 297.981 288.317 299.45 289.051C301.693 290.193 303.385 291.702 304.527 293.578C305.669 295.433 306.24 297.656 306.24 300.246C306.24 302.815 305.639 305.16 304.435 307.281C303.232 309.381 301.591 310.982 299.511 312.083C297.451 313.184 294.963 313.735 292.047 313.735C287.5 313.735 283.87 312.368 281.158 309.636C278.467 306.904 277.07 303.202 276.968 298.533ZM310.464 312.939V268.098H337.044V273.39H315.327V287.124H335.668V292.385H315.327V307.648H337.901V312.939H310.464Z" fill="black"/>
<path d="M117.009 402.058L121.597 401.569C121.842 404.036 122.393 405.963 123.249 407.35C124.126 408.716 125.37 409.817 126.981 410.653C128.592 411.489 130.407 411.907 132.425 411.907C135.321 411.907 137.564 411.204 139.155 409.797C140.765 408.369 141.571 406.524 141.571 404.26C141.571 402.935 141.275 401.783 140.684 400.804C140.113 399.805 139.236 398.989 138.053 398.357C136.891 397.725 134.363 396.838 130.468 395.696C127.001 394.676 124.534 393.647 123.066 392.607C121.597 391.567 120.455 390.251 119.64 388.661C118.824 387.05 118.416 385.235 118.416 383.216C118.416 379.587 119.589 376.62 121.934 374.315C124.279 372.011 127.44 370.859 131.416 370.859C134.148 370.859 136.534 371.399 138.573 372.48C140.633 373.561 142.224 375.111 143.345 377.129C144.487 379.148 145.099 381.524 145.18 384.256L140.5 384.684C140.256 381.768 139.379 379.607 137.87 378.2C136.381 376.793 134.281 376.089 131.569 376.089C128.816 376.089 126.716 376.711 125.268 377.955C123.82 379.179 123.096 380.769 123.096 382.727C123.096 384.542 123.626 385.949 124.687 386.948C125.747 387.947 128.133 388.956 131.844 389.976C135.474 390.975 138.023 391.842 139.491 392.576C141.734 393.718 143.427 395.227 144.569 397.103C145.71 398.959 146.281 401.181 146.281 403.771C146.281 406.34 145.68 408.685 144.477 410.806C143.274 412.906 141.632 414.507 139.552 415.608C137.493 416.71 135.005 417.26 132.089 417.26C127.542 417.26 123.912 415.894 121.2 413.161C118.508 410.429 117.111 406.728 117.009 402.058ZM159.834 416.465V376.915H147.722V371.624H176.871V376.915H164.698V416.465H159.834ZM179.382 416.465V371.624H205.963V376.915H184.245V390.649H204.586V395.91H184.245V411.173H206.819V416.465H179.382ZM211.042 416.465V371.624H224.899C228.161 371.624 230.568 371.909 232.117 372.48C234.238 373.255 235.931 374.693 237.195 376.793C238.459 378.893 239.091 381.473 239.091 384.532C239.091 388.569 238.061 391.862 236.002 394.411C233.942 396.96 230.384 398.235 225.327 398.235H215.906V416.465H211.042ZM215.906 392.943H225.419C228.416 392.943 230.608 392.27 231.995 390.924C233.382 389.558 234.075 387.509 234.075 384.776C234.075 383.002 233.728 381.483 233.035 380.219C232.362 378.954 231.536 378.088 230.557 377.619C229.599 377.15 227.855 376.915 225.327 376.915H215.906V392.943ZM241.143 402.058L245.731 401.569C245.976 404.036 246.526 405.963 247.383 407.35C248.26 408.716 249.504 409.817 251.115 410.653C252.725 411.489 254.54 411.907 256.559 411.907C259.455 411.907 261.698 411.204 263.288 409.797C264.899 408.369 265.705 406.524 265.705 404.26C265.705 402.935 265.409 401.783 264.818 400.804C264.247 399.805 263.37 398.989 262.187 398.357C261.025 397.725 258.496 396.838 254.602 395.696C251.135 394.676 248.668 393.647 247.199 392.607C245.731 391.567 244.589 390.251 243.774 388.661C242.958 387.05 242.55 385.235 242.55 383.216C242.55 379.587 243.723 376.62 246.068 374.315C248.413 372.011 251.573 370.859 255.55 370.859C258.282 370.859 260.668 371.399 262.707 372.48C264.767 373.561 266.357 375.111 267.479 377.129C268.621 379.148 269.233 381.524 269.314 384.256L264.634 384.684C264.39 381.768 263.513 379.607 262.004 378.2C260.515 376.793 258.415 376.089 255.703 376.089C252.95 376.089 250.849 376.711 249.402 377.955C247.954 379.179 247.23 380.769 247.23 382.727C247.23 384.542 247.76 385.949 248.82 386.948C249.881 387.947 252.267 388.956 255.978 389.976C259.608 390.975 262.157 391.842 263.625 392.576C265.868 393.718 267.56 395.227 268.702 397.103C269.844 398.959 270.415 401.181 270.415 403.771C270.415 406.34 269.814 408.685 268.611 410.806C267.407 412.906 265.766 414.507 263.686 415.608C261.626 416.71 259.139 417.26 256.223 417.26C251.675 417.26 248.046 415.894 245.334 413.161C242.642 410.429 241.245 406.728 241.143 402.058Z" fill="black"/>
<path d="M17.8708 253.946V241.65H7.86874V236.511H17.8708V224.307H22.1531V236.511H32.1552V241.65H22.1531V253.946H17.8708ZM58.4323 255.904V261.195H34.1152C34.0541 259.054 34.6964 256.658 36.0423 254.007C37.4085 251.356 39.8963 248.226 43.5056 244.617C47.7267 240.416 50.4897 237.174 51.7948 234.89C53.0999 232.586 53.7524 230.445 53.7524 228.467C53.7524 226.183 53.0795 224.327 51.7336 222.9C50.4082 221.452 48.7667 220.728 46.8091 220.728C44.7087 220.728 42.9856 221.503 41.6398 223.053C40.2939 224.602 39.621 226.825 39.621 229.721L34.9717 229.14C35.298 224.837 36.5113 221.605 38.6116 219.443C40.7323 217.261 43.5158 216.171 46.962 216.171C50.7141 216.171 53.5485 217.435 55.4653 219.963C57.4025 222.492 58.3711 225.367 58.3711 228.589C58.3711 231.444 57.6166 234.187 56.1076 236.817C54.5987 239.427 51.7336 242.914 47.5126 247.278C44.8209 250.031 43.0774 251.907 42.2821 252.906C41.5072 253.905 40.8751 254.904 40.3857 255.904H58.4323ZM60.7288 249.358L65.2558 248.624C66.1938 254.497 68.5694 257.433 72.3826 257.433C74.4422 257.433 76.2265 256.566 77.7354 254.833C79.2444 253.079 79.9989 250.816 79.9989 248.043C79.9989 245.433 79.3056 243.332 77.919 241.742C76.5323 240.151 74.8296 239.356 72.8109 239.356C71.9544 239.356 70.894 239.56 69.6298 239.968L70.1498 235.135L70.8533 235.196C73.076 235.196 74.8806 234.513 76.2672 233.147C77.6539 231.78 78.3472 229.955 78.3472 227.671C78.3472 225.571 77.766 223.889 76.6037 222.624C75.4414 221.34 74.0242 220.697 72.3521 220.697C70.6188 220.697 69.1506 221.37 67.9475 222.716C66.7647 224.042 66.0102 226.06 65.684 228.773L61.1876 227.794C61.7586 223.96 63.0433 221.065 65.0416 219.107C67.04 217.149 69.4564 216.171 72.2909 216.171C75.2681 216.171 77.7966 217.272 79.8766 219.474C81.9565 221.676 82.9965 224.45 82.9965 227.794C82.9965 229.833 82.5479 231.638 81.6506 233.208C80.7738 234.778 79.5401 236.012 77.9496 236.909C79.4178 237.317 80.6311 237.99 81.5895 238.928C82.5479 239.866 83.3228 241.12 83.9141 242.69C84.5055 244.26 84.8012 246.014 84.8012 247.951C84.8012 252.07 83.5879 255.445 81.1612 258.075C78.7346 260.686 75.8288 261.991 72.4438 261.991C69.3035 261.991 66.6424 260.849 64.4605 258.565C62.2786 256.281 61.0347 253.212 60.7288 249.358Z" fill="#4DBEA9"/>
<path d="M109.957 105.877V61.0357H114.821V105.877H109.957ZM120.849 105.877V61.0357H134.705C137.968 61.0357 140.374 61.3212 141.924 61.8921C144.045 62.667 145.737 64.1046 147.001 66.205C148.266 68.3053 148.898 70.8849 148.898 73.9436C148.898 77.9812 147.868 81.2744 145.808 83.8234C143.749 86.3723 140.191 87.6468 135.133 87.6468H125.712V105.877H120.849ZM125.712 82.3552H135.225C138.223 82.3552 140.415 81.6823 141.801 80.3364C143.188 78.9702 143.881 76.9208 143.881 74.1883C143.881 72.4142 143.535 70.8951 142.841 69.6308C142.169 68.3665 141.343 67.4999 140.364 67.0308C139.405 66.5618 137.662 66.3273 135.133 66.3273H125.712V82.3552ZM152.571 105.877V61.0357H157.434V79.4494H176.551V61.0357H181.415V105.877H176.551V84.741H157.434V105.877H152.571ZM185.791 84.0375C185.791 76.3906 187.474 70.5178 190.838 66.4191C194.203 62.3 198.393 60.2404 203.41 60.2404C206.652 60.2404 209.609 61.158 212.28 62.9933C214.951 64.8285 217.062 67.4999 218.612 71.0072C220.182 74.4942 220.967 78.6541 220.967 83.4869C220.967 90.1346 219.458 95.5486 216.44 99.7289C213.116 104.337 208.762 106.642 203.379 106.642C197.955 106.642 193.591 104.276 190.288 99.5453C187.29 95.2631 185.791 90.0938 185.791 84.0375ZM190.808 84.1293C190.808 89.6554 192.021 93.9478 194.447 97.0066C196.894 100.045 199.861 101.564 203.348 101.564C206.917 101.564 209.904 100.025 212.311 96.9454C214.737 93.8663 215.95 89.3393 215.95 83.3646C215.95 79.5105 215.329 76.0644 214.085 73.026C213.126 70.7013 211.678 68.8457 209.741 67.4591C207.824 66.052 205.724 65.3485 203.44 65.3485C199.77 65.3485 196.742 66.8779 194.356 69.9367C191.99 72.9954 190.808 77.7263 190.808 84.1293ZM224.517 105.877V61.0357H229.503L248.834 96.2419V61.0357H253.484V105.877H248.498L229.197 70.6402V105.877H224.517ZM259.328 105.877V61.0357H285.909V66.3273H264.192V80.0611H284.532V85.3222H264.192V100.585H286.765V105.877H259.328Z" fill="black"/>
<path d="M139.216 157.584V118.034H127.103V112.743H156.253V118.034H144.079V157.584H139.216ZM159.589 157.584V112.743H164.453V157.584H159.589ZM170.328 157.584V112.743H177.638L186.356 144.493L188.099 151.13C188.528 149.478 189.18 147.082 190.057 143.942L198.866 112.743H205.412V157.584H200.732V120.053L190.026 157.584H185.652L175.008 119.411V157.584H170.328ZM210.889 157.584V112.743H237.47V118.034H215.753V131.768H236.094V137.029H215.753V152.292H238.326V157.584H210.889Z" fill="black"/>
<path d="M103.023 261.195V221.646H90.9107V216.354H120.061V221.646H107.887V261.195H103.023ZM122.571 261.195V216.354H149.152V221.646H127.435V235.379H147.775V240.641H127.435V255.904H150.008V261.195H122.571ZM154.079 261.195V216.354H161.389L170.107 248.104L171.85 254.741C172.278 253.09 172.931 250.694 173.808 247.553L182.617 216.354H189.163V261.195H184.483V223.664L173.777 261.195H169.403L158.759 223.022V261.195H154.079ZM194.548 261.195V216.354H208.405C211.667 216.354 214.073 216.64 215.623 217.211C217.744 217.985 219.436 219.423 220.701 221.523C221.965 223.624 222.597 226.203 222.597 229.262C222.597 233.3 221.567 236.593 219.508 239.142C217.448 241.691 213.89 242.965 208.833 242.965H199.412V261.195H194.548ZM199.412 237.674H208.925C211.922 237.674 214.114 237.001 215.501 235.655C216.887 234.289 217.581 232.239 217.581 229.507C217.581 227.733 217.234 226.213 216.541 224.949C215.868 223.685 215.042 222.818 214.063 222.349C213.105 221.88 211.361 221.646 208.833 221.646H199.412V237.674ZM226.392 261.195V216.354H252.973V221.646H231.256V235.379H251.597V240.641H231.256V255.904H253.829V261.195H226.392ZM258.022 261.195V216.354H274.325C277.731 216.354 280.239 216.772 281.85 217.608C283.481 218.444 284.817 219.841 285.857 221.799C286.897 223.736 287.417 225.989 287.417 228.558C287.417 231.943 286.53 234.686 284.756 236.786C283.002 238.887 280.443 240.222 277.078 240.793C278.445 241.609 279.485 242.435 280.198 243.271C281.646 244.984 282.921 246.891 284.022 248.991L290.445 261.195H284.328L279.434 251.866C277.537 248.216 276.1 245.759 275.121 244.495C274.162 243.23 273.224 242.384 272.307 241.956C271.409 241.507 270.145 241.283 268.514 241.283H262.886V261.195H258.022ZM262.886 236.144H273.347C275.631 236.144 277.364 235.869 278.547 235.318C279.729 234.768 280.667 233.901 281.361 232.718C282.054 231.536 282.401 230.159 282.401 228.589C282.401 226.326 281.738 224.552 280.412 223.267C279.087 221.962 277.119 221.309 274.509 221.309H262.886V236.144ZM288.582 261.195L302.713 216.354H307.944L322.993 261.195H317.426L313.143 247.614H297.788L293.751 261.195H288.582ZM299.196 242.782H311.645L307.821 230.363C306.638 226.55 305.772 223.45 305.221 221.065C304.752 223.94 304.09 226.795 303.233 229.629L299.196 242.782ZM330 261.195V221.646H317.887V216.354H347.037V221.646H334.863V261.195H330ZM373.467 216.354H378.361V242.262C378.361 246.605 377.933 250.174 377.076 252.967C376.24 255.741 374.701 257.933 372.457 259.544C370.235 261.155 367.4 261.96 363.954 261.96C359.101 261.96 355.461 260.512 353.034 257.617C350.628 254.721 349.425 249.603 349.425 242.262V216.354H354.288V242.231C354.288 246.289 354.605 249.225 355.237 251.04C355.869 252.855 356.899 254.242 358.326 255.2C359.774 256.138 361.528 256.607 363.587 256.607C367.054 256.607 369.562 255.628 371.112 253.671C372.682 251.713 373.467 247.9 373.467 242.231V216.354ZM383.991 261.195V216.354H400.295C403.7 216.354 406.208 216.772 407.819 217.608C409.45 218.444 410.786 219.841 411.826 221.799C412.866 223.736 413.386 225.989 413.386 228.558C413.386 231.943 412.499 234.686 410.725 236.786C408.971 238.887 406.412 240.222 403.047 240.793C404.414 241.609 405.454 242.435 406.167 243.271C407.615 244.984 408.89 246.891 409.991 248.991L416.414 261.195H410.297L405.403 251.866C403.506 248.216 402.069 245.759 401.09 244.495C400.131 243.23 399.193 242.384 398.276 241.956C397.379 241.507 396.114 241.283 394.483 241.283H388.855V261.195H383.991ZM388.855 236.144H399.316C401.6 236.144 403.333 235.869 404.516 235.318C405.698 234.768 406.636 233.901 407.33 232.718C408.023 231.536 408.37 230.159 408.37 228.589C408.37 226.326 407.707 224.552 406.381 223.267C405.056 221.962 403.088 221.309 400.478 221.309H388.855V236.144ZM418.68 261.195V216.354H445.261V221.646H423.543V235.379H443.884V240.641H423.543V255.904H446.117V261.195H418.68Z" fill="black"/>
</svg>
