<svg width="474" height="474" viewBox="0 0 474 474" fill="none" xmlns="http://www.w3.org/2000/svg">
<g clip-path="url(#clip0_172_894)">
<rect width="474" height="474" rx="64" fill="#E7E7E7"/>
<path d="M46.8342 163.217L13.0647 28.3926H32.4885L50.0081 106.215L56.4827 135.16L62.3225 107.357L79.842 28.3926H99.1389L115.643 106.596L121.229 132.367L127.576 106.342L146.492 28.3926H164.774L130.115 163.217H110.692L93.0452 82.4746L88.8557 59.4961L66.512 163.217H46.8342ZM250.853 119.799L270.15 122.719C266.934 137.107 261.094 147.982 252.63 155.346C244.251 162.624 233.841 166.264 221.4 166.264C205.742 166.264 193.047 160.339 183.314 148.49C173.665 136.557 168.841 119.376 168.841 96.9473C168.841 73.6725 173.708 55.9414 183.441 43.7539C193.259 31.4818 205.658 25.3457 220.638 25.3457C234.942 25.3457 246.875 31.3548 256.439 43.373C266.003 55.3913 270.785 72.7839 270.785 95.5508L270.658 101.645H188.138C188.9 116.794 192.412 128.22 198.675 135.922C204.938 143.624 212.555 147.475 221.527 147.475C235.576 147.475 245.352 138.249 250.853 119.799ZM189.281 82.8555H250.98C250.134 71.1758 247.637 62.4583 243.49 56.7031C237.481 48.3242 229.821 44.1348 220.511 44.1348C212.132 44.1348 204.981 47.6471 199.056 54.6719C193.132 61.612 189.873 71.0065 189.281 82.8555ZM360.292 163.217V146.205C356.906 152.722 352.548 157.715 347.215 161.186C341.883 164.571 336.128 166.264 329.95 166.264C316.916 166.264 305.617 160.128 296.053 147.855C286.574 135.499 281.835 118.148 281.835 95.8047C281.835 80.4857 283.951 67.4941 288.182 56.8301C292.414 46.166 298.042 38.2526 305.067 33.0898C312.176 27.9271 320.048 25.3457 328.68 25.3457C334.859 25.3457 340.572 26.9961 345.819 30.2969C351.151 33.513 355.552 38.041 359.022 43.8809V-22.8965H377.811V163.217H360.292ZM301.005 95.9316C301.005 113.367 304.009 126.316 310.018 134.779C316.112 143.243 323.179 147.475 331.219 147.475C339.175 147.475 346.073 143.412 351.913 135.287C357.753 127.162 360.673 114.89 360.673 98.4707C360.673 79.597 357.753 65.8438 351.913 57.2109C346.073 48.4935 338.71 44.1348 329.823 44.1348C321.952 44.1348 315.181 48.3242 309.51 56.7031C303.84 64.9974 301.005 78.0736 301.005 95.9316ZM26.5217 305.217V170.393H43.4065V189.562C47.469 182.115 52.4202 176.571 58.26 172.932C64.1845 169.208 70.9553 167.346 78.5725 167.346C84.497 167.346 89.956 168.531 94.9495 170.9C100.028 173.186 104.09 176.232 107.137 180.041C110.268 183.765 112.596 188.632 114.119 194.641C115.643 200.65 116.405 209.875 116.405 222.316V305.217H97.6155V223.205C97.6155 213.303 96.7691 206.066 95.0764 201.496C93.3837 196.926 90.7177 193.413 87.0784 190.959C83.5237 188.42 79.3765 187.15 74.637 187.15C65.6656 187.15 58.5139 190.493 53.1819 197.18C47.8499 203.866 45.1838 215.334 45.1838 231.584V305.217H26.5217ZM215.56 261.799L234.857 264.719C231.641 279.107 225.801 289.982 217.337 297.346C208.958 304.624 198.548 308.264 186.107 308.264C170.449 308.264 157.754 302.339 148.021 290.49C138.373 278.557 133.548 261.376 133.548 238.947C133.548 215.673 138.415 197.941 148.148 185.754C157.966 173.482 170.365 167.346 185.345 167.346C199.649 167.346 211.582 173.355 221.146 185.373C230.71 197.391 235.492 214.784 235.492 237.551L235.365 243.645H152.845C153.607 258.794 157.119 270.22 163.382 277.922C169.645 285.624 177.262 289.475 186.234 289.475C200.283 289.475 210.059 280.249 215.56 261.799ZM153.988 224.855H215.687C214.841 213.176 212.344 204.458 208.197 198.703C202.188 190.324 194.528 186.135 185.218 186.135C176.839 186.135 169.688 189.647 163.763 196.672C157.839 203.612 154.58 213.007 153.988 224.855ZM246.161 264.973L264.696 261.418C265.796 270.897 268.801 277.964 273.71 282.619C278.618 287.189 285.135 289.475 293.26 289.475C301.385 289.475 307.648 287.486 312.049 283.508C316.535 279.445 318.778 274.325 318.778 268.146C318.778 262.814 316.874 258.667 313.065 255.705C310.441 253.674 304.094 251.135 294.022 248.088C279.465 243.602 269.732 239.794 264.823 236.662C259.914 233.531 256.105 229.341 253.397 224.094C250.689 218.846 249.335 212.88 249.335 206.193C249.335 194.683 253.016 185.331 260.38 178.137C267.743 170.943 277.941 167.346 290.975 167.346C299.185 167.346 306.379 168.827 312.557 171.789C318.82 174.751 323.602 178.729 326.903 183.723C330.204 188.716 332.489 195.868 333.758 205.178L315.477 208.225C313.784 193.498 305.786 186.135 291.483 186.135C283.358 186.135 277.307 187.785 273.329 191.086C269.351 194.302 267.362 198.449 267.362 203.527C267.362 208.521 269.266 212.456 273.075 215.334C275.36 217.027 282.131 219.735 293.387 223.459C308.876 228.452 318.905 232.43 323.475 235.393C328.046 238.27 331.6 242.248 334.139 247.326C336.678 252.32 337.948 258.286 337.948 265.227C337.948 278.091 333.843 288.501 325.633 296.457C317.508 304.413 306.379 308.391 292.245 308.391C265.754 308.391 250.393 293.918 246.161 264.973ZM98.2502 447.217V430.205C94.8648 436.722 90.5061 441.715 85.1741 445.186C79.842 448.571 74.0868 450.264 67.9084 450.264C54.8746 450.264 43.5758 444.128 34.012 431.855C24.5328 419.499 19.7932 402.148 19.7932 379.805C19.7932 364.486 21.9091 351.494 26.1409 340.83C30.3726 330.166 36.0009 322.253 43.0256 317.09C50.135 311.927 58.0061 309.346 66.6389 309.346C72.8173 309.346 78.5302 310.996 83.7776 314.297C89.1096 317.513 93.5107 322.041 96.9807 327.881V261.104H115.77V447.217H98.2502ZM38.9631 379.932C38.9631 397.367 41.9677 410.316 47.9768 418.779C54.0706 427.243 61.1376 431.475 69.178 431.475C77.1337 431.475 84.0315 427.412 89.8713 419.287C95.7112 411.162 98.6311 398.89 98.6311 382.471C98.6311 363.597 95.7112 349.844 89.8713 341.211C84.0315 332.493 76.6682 328.135 67.7815 328.135C59.9104 328.135 53.1396 332.324 47.469 340.703C41.7984 348.997 38.9631 362.074 38.9631 379.932ZM212.005 430.586C205.742 437.103 199.225 442.012 192.455 445.312C185.684 448.613 178.659 450.264 171.38 450.264C159.87 450.264 150.687 446.794 143.831 439.854C136.976 432.913 133.548 423.561 133.548 411.797C133.548 404.01 135.156 397.113 138.373 391.104C141.589 385.094 145.99 380.397 151.576 377.012C157.162 373.626 165.625 371.13 176.966 369.521C192.201 367.321 203.373 364.697 210.482 361.65L210.609 355.811C210.609 346.585 208.958 340.111 205.658 336.387C201.003 330.97 193.851 328.262 184.203 328.262C175.485 328.262 168.968 330.081 164.652 333.721C160.335 337.275 157.162 344.004 155.13 353.906L136.722 350.859C139.346 336.387 144.636 325.85 152.591 319.248C160.632 312.646 172.1 309.346 186.996 309.346C198.591 309.346 207.689 311.546 214.29 315.947C220.892 320.264 225.039 325.638 226.732 332.07C228.509 338.503 229.398 347.897 229.398 360.254V390.723C229.398 412.051 229.779 425.508 230.54 431.094C231.387 436.595 232.995 441.969 235.365 447.217H215.814C213.867 442.562 212.598 437.018 212.005 430.586ZM210.482 379.551C203.626 382.936 193.428 385.814 179.886 388.184C172.015 389.538 166.514 391.104 163.382 392.881C160.251 394.574 157.796 397.028 156.019 400.244C154.326 403.376 153.48 407.015 153.48 411.162C153.48 417.594 155.469 422.757 159.447 426.65C163.425 430.459 168.926 432.363 175.951 432.363C182.637 432.363 188.688 430.628 194.105 427.158C199.606 423.688 203.711 419.076 206.419 413.32C209.128 407.48 210.482 399.017 210.482 387.93V379.551ZM252.762 499.141L250.731 477.686C254.878 479.04 258.433 479.717 261.395 479.717C265.373 479.717 268.632 478.913 271.171 477.305C273.794 475.697 275.952 473.2 277.645 469.814C278.238 468.63 280.692 461.182 285.008 447.471L242.987 312.393H263.173L286.278 390.469C289.156 400.202 291.822 410.612 294.276 421.699C296.392 411.204 298.931 400.964 301.893 390.977L325.507 312.393H344.296L302.274 449.502C296.773 467.275 292.414 479.124 289.198 485.049C286.066 491.058 282.469 495.374 278.407 497.998C274.429 500.622 269.901 501.934 264.823 501.934C261.268 501.934 257.248 501.003 252.762 499.141Z" fill="#FF0000"/>
</g>
<defs>
<clipPath id="clip0_172_894">
<rect width="474" height="474" rx="64" fill="white"/>
</clipPath>
</defs>
</svg>
