<svg width="474" height="474" viewBox="0 0 474 474" fill="none" xmlns="http://www.w3.org/2000/svg">
<g clip-path="url(#clip0_172_255)">
<rect width="474" height="474" rx="64" fill="#D0D0D0"/>
<rect x="-2.63672" y="466.176" width="29.3005" height="29.3005" fill="#B6B6B6"/>
<rect x="55.9746" y="466.176" width="29.3005" height="29.3005" fill="#B6B6B6"/>
<rect x="114.574" y="466.176" width="29.3005" height="29.3005" fill="#B6B6B6"/>
<rect x="173.174" y="466.176" width="29.3005" height="29.3005" fill="#B6B6B6"/>
<rect x="231.773" y="466.176" width="29.3005" height="29.3005" fill="#B6B6B6"/>
<rect x="290.373" y="466.176" width="29.3005" height="29.3005" fill="#B6B6B6"/>
<rect x="348.973" y="466.176" width="29.3005" height="29.3005" fill="#B6B6B6"/>
<rect x="407.571" y="466.176" width="29.3005" height="29.3005" fill="#B6B6B6"/>
<rect x="466.184" y="466.176" width="29.3005" height="29.3005" fill="#B6B6B6"/>
<rect x="-2.63672" y="407.592" width="29.3005" height="29.3005" fill="#B6B6B6"/>
<rect x="55.9746" y="407.592" width="29.3005" height="29.3005" fill="#B6B6B6"/>
<rect x="114.574" y="407.592" width="29.3005" height="29.3005" fill="#B6B6B6"/>
<rect x="173.174" y="407.592" width="29.3005" height="29.3005" fill="#B6B6B6"/>
<rect x="231.773" y="407.592" width="29.3005" height="29.3005" fill="#B6B6B6"/>
<rect x="290.373" y="407.592" width="29.3005" height="29.3005" fill="#B6B6B6"/>
<rect x="348.973" y="407.592" width="29.3005" height="29.3005" fill="#B6B6B6"/>
<rect x="407.571" y="407.592" width="29.3005" height="29.3005" fill="#B6B6B6"/>
<rect x="466.184" y="407.592" width="29.3005" height="29.3005" fill="#B6B6B6"/>
<rect x="26.6631" y="436.893" width="29.3005" height="29.3005" fill="#B6B6B6"/>
<rect x="85.2627" y="436.893" width="29.3005" height="29.3005" fill="#B6B6B6"/>
<rect x="143.874" y="436.893" width="29.3005" height="29.3005" fill="#B6B6B6"/>
<rect x="202.474" y="436.893" width="29.3005" height="29.3005" fill="#B6B6B6"/>
<rect x="261.073" y="436.893" width="29.3005" height="29.3005" fill="#B6B6B6"/>
<rect x="319.673" y="436.893" width="29.3005" height="29.3005" fill="#B6B6B6"/>
<rect x="378.272" y="436.893" width="29.3005" height="29.3005" fill="#B6B6B6"/>
<rect x="436.871" y="436.893" width="29.3005" height="29.3005" fill="#B6B6B6"/>
<rect x="-2.63672" y="348.992" width="29.3005" height="29.3005" fill="#B6B6B6"/>
<rect x="55.9746" y="348.992" width="29.3005" height="29.3005" fill="#B6B6B6"/>
<rect x="114.574" y="348.992" width="29.3005" height="29.3005" fill="#B6B6B6"/>
<rect x="173.174" y="348.992" width="29.3005" height="29.3005" fill="#B6B6B6"/>
<rect x="231.773" y="348.992" width="29.3005" height="29.3005" fill="#B6B6B6"/>
<rect x="290.373" y="348.992" width="29.3005" height="29.3005" fill="#B6B6B6"/>
<rect x="348.973" y="348.992" width="29.3005" height="29.3005" fill="#B6B6B6"/>
<rect x="407.571" y="348.992" width="29.3005" height="29.3005" fill="#B6B6B6"/>
<rect x="466.184" y="348.992" width="29.3005" height="29.3005" fill="#B6B6B6"/>
<rect x="26.6631" y="378.291" width="29.3005" height="29.3005" fill="#B6B6B6"/>
<rect x="85.2627" y="378.291" width="29.3005" height="29.3005" fill="#B6B6B6"/>
<rect x="143.874" y="378.291" width="29.3005" height="29.3005" fill="#B6B6B6"/>
<rect x="202.474" y="378.291" width="29.3005" height="29.3005" fill="#B6B6B6"/>
<rect x="261.073" y="378.291" width="29.3005" height="29.3005" fill="#B6B6B6"/>
<rect x="319.673" y="378.291" width="29.3005" height="29.3005" fill="#B6B6B6"/>
<rect x="378.272" y="378.291" width="29.3005" height="29.3005" fill="#B6B6B6"/>
<rect x="436.871" y="378.291" width="29.3005" height="29.3005" fill="#B6B6B6"/>
<rect x="-2.63672" y="290.377" width="29.3005" height="29.3005" fill="#B6B6B6"/>
<rect x="55.9746" y="290.377" width="29.3005" height="29.3005" fill="#B6B6B6"/>
<rect x="114.574" y="290.377" width="29.3005" height="29.3005" fill="#B6B6B6"/>
<rect x="173.174" y="290.377" width="29.3005" height="29.3005" fill="#B6B6B6"/>
<rect x="231.773" y="290.377" width="29.3005" height="29.3005" fill="#B6B6B6"/>
<rect x="290.373" y="290.377" width="29.3005" height="29.3005" fill="#B6B6B6"/>
<rect x="348.973" y="290.377" width="29.3005" height="29.3005" fill="#B6B6B6"/>
<rect x="407.571" y="290.377" width="29.3005" height="29.3005" fill="#B6B6B6"/>
<rect x="466.184" y="290.377" width="29.3005" height="29.3005" fill="#B6B6B6"/>
<rect x="26.6631" y="319.678" width="29.3005" height="29.3005" fill="#B6B6B6"/>
<rect x="85.2627" y="319.678" width="29.3005" height="29.3005" fill="#B6B6B6"/>
<rect x="143.874" y="319.678" width="29.3005" height="29.3005" fill="#B6B6B6"/>
<rect x="202.474" y="319.678" width="29.3005" height="29.3005" fill="#B6B6B6"/>
<rect x="261.073" y="319.678" width="29.3005" height="29.3005" fill="#B6B6B6"/>
<rect x="319.673" y="319.678" width="29.3005" height="29.3005" fill="#B6B6B6"/>
<rect x="378.272" y="319.678" width="29.3005" height="29.3005" fill="#B6B6B6"/>
<rect x="436.871" y="319.678" width="29.3005" height="29.3005" fill="#B6B6B6"/>
<rect x="-2.63672" y="231.777" width="29.3005" height="29.3005" fill="#B6B6B6"/>
<rect x="55.9746" y="231.777" width="29.3005" height="29.3005" fill="#B6B6B6"/>
<rect x="114.574" y="231.777" width="29.3005" height="29.3005" fill="#B6B6B6"/>
<rect x="173.174" y="231.777" width="29.3005" height="29.3005" fill="#B6B6B6"/>
<rect x="231.773" y="231.777" width="29.3005" height="29.3005" fill="#B6B6B6"/>
<rect x="290.373" y="231.777" width="29.3005" height="29.3005" fill="#B6B6B6"/>
<rect x="348.973" y="231.777" width="29.3005" height="29.3005" fill="#B6B6B6"/>
<rect x="407.571" y="231.777" width="29.3005" height="29.3005" fill="#B6B6B6"/>
<rect x="466.184" y="231.777" width="29.3005" height="29.3005" fill="#B6B6B6"/>
<rect x="26.6631" y="261.076" width="29.3005" height="29.3005" fill="#B6B6B6"/>
<rect x="85.2627" y="261.076" width="29.3005" height="29.3005" fill="#B6B6B6"/>
<rect x="143.874" y="261.076" width="29.3005" height="29.3005" fill="#B6B6B6"/>
<rect x="202.474" y="261.076" width="29.3005" height="29.3005" fill="#B6B6B6"/>
<rect x="261.073" y="261.076" width="29.3005" height="29.3005" fill="#B6B6B6"/>
<rect x="319.673" y="261.076" width="29.3005" height="29.3005" fill="#B6B6B6"/>
<rect x="378.272" y="261.076" width="29.3005" height="29.3005" fill="#B6B6B6"/>
<rect x="436.871" y="261.076" width="29.3005" height="29.3005" fill="#B6B6B6"/>
<rect x="-2.63672" y="173.193" width="29.3005" height="29.3005" fill="#B6B6B6"/>
<rect x="55.9746" y="173.193" width="29.3005" height="29.3005" fill="#B6B6B6"/>
<rect x="114.574" y="173.193" width="29.3005" height="29.3005" fill="#B6B6B6"/>
<rect x="173.174" y="173.193" width="29.3005" height="29.3005" fill="#B6B6B6"/>
<rect x="231.773" y="173.193" width="29.3005" height="29.3005" fill="#B6B6B6"/>
<rect x="290.373" y="173.193" width="29.3005" height="29.3005" fill="#B6B6B6"/>
<rect x="348.973" y="173.193" width="29.3005" height="29.3005" fill="#B6B6B6"/>
<rect x="407.571" y="173.193" width="29.3005" height="29.3005" fill="#B6B6B6"/>
<rect x="466.184" y="173.193" width="29.3005" height="29.3005" fill="#B6B6B6"/>
<rect x="26.6631" y="202.492" width="29.3005" height="29.3005" fill="#B6B6B6"/>
<rect x="85.2627" y="202.492" width="29.3005" height="29.3005" fill="#B6B6B6"/>
<rect x="143.874" y="202.494" width="29.3005" height="29.3005" fill="#B6B6B6"/>
<rect x="202.474" y="202.494" width="29.3005" height="29.3005" fill="#B6B6B6"/>
<rect x="261.073" y="202.492" width="29.3005" height="29.3005" fill="#B6B6B6"/>
<rect x="319.673" y="202.492" width="29.3005" height="29.3005" fill="#B6B6B6"/>
<rect x="378.272" y="202.492" width="29.3005" height="29.3005" fill="#B6B6B6"/>
<rect x="436.871" y="202.492" width="29.3005" height="29.3005" fill="#B6B6B6"/>
<rect x="-2.63672" y="114.58" width="29.3005" height="29.3005" fill="#B6B6B6"/>
<rect x="55.9746" y="114.58" width="29.3005" height="29.3005" fill="#B6B6B6"/>
<rect x="114.574" y="114.58" width="29.3005" height="29.3005" fill="#B6B6B6"/>
<rect x="173.174" y="114.58" width="29.3005" height="29.3005" fill="#B6B6B6"/>
<rect x="231.773" y="114.58" width="29.3005" height="29.3005" fill="#B6B6B6"/>
<rect x="290.373" y="114.58" width="29.3005" height="29.3005" fill="#B6B6B6"/>
<rect x="348.973" y="114.58" width="29.3005" height="29.3005" fill="#B6B6B6"/>
<rect x="407.571" y="114.58" width="29.3005" height="29.3005" fill="#B6B6B6"/>
<rect x="466.184" y="114.58" width="29.3005" height="29.3005" fill="#B6B6B6"/>
<rect x="26.6631" y="143.879" width="29.3005" height="29.3005" fill="#B6B6B6"/>
<rect x="85.2627" y="143.879" width="29.3005" height="29.3005" fill="#B6B6B6"/>
<rect x="143.874" y="143.879" width="29.3005" height="29.3005" fill="#B6B6B6"/>
<rect x="202.474" y="143.879" width="29.3005" height="29.3005" fill="#B6B6B6"/>
<rect x="261.073" y="143.879" width="29.3005" height="29.3005" fill="#B6B6B6"/>
<rect x="319.673" y="143.879" width="29.3005" height="29.3005" fill="#B6B6B6"/>
<rect x="378.272" y="143.879" width="29.3005" height="29.3005" fill="#B6B6B6"/>
<rect x="436.871" y="143.879" width="29.3005" height="29.3005" fill="#B6B6B6"/>
<rect x="-2.63672" y="55.9805" width="29.3005" height="29.3005" fill="#B6B6B6"/>
<rect x="55.9746" y="55.9805" width="29.3005" height="29.3005" fill="#B6B6B6"/>
<rect x="114.574" y="55.9805" width="29.3005" height="29.3005" fill="#B6B6B6"/>
<rect x="173.174" y="55.9805" width="29.3005" height="29.3005" fill="#B6B6B6"/>
<rect x="231.773" y="55.9805" width="29.3005" height="29.3005" fill="#B6B6B6"/>
<rect x="290.373" y="55.9805" width="29.3005" height="29.3005" fill="#B6B6B6"/>
<rect x="348.973" y="55.9805" width="29.3005" height="29.3005" fill="#B6B6B6"/>
<rect x="407.571" y="55.9805" width="29.3005" height="29.3005" fill="#B6B6B6"/>
<rect x="466.184" y="55.9805" width="29.3005" height="29.3005" fill="#B6B6B6"/>
<rect x="26.6631" y="85.2793" width="29.3005" height="29.3005" fill="#B6B6B6"/>
<rect x="85.2627" y="85.2793" width="29.3005" height="29.3005" fill="#B6B6B6"/>
<rect x="143.874" y="85.2793" width="29.3005" height="29.3005" fill="#B6B6B6"/>
<rect x="202.474" y="85.2793" width="29.3005" height="29.3005" fill="#B6B6B6"/>
<rect x="261.073" y="85.2793" width="29.3005" height="29.3005" fill="#B6B6B6"/>
<rect x="319.673" y="85.2793" width="29.3005" height="29.3005" fill="#B6B6B6"/>
<rect x="378.272" y="85.2793" width="29.3005" height="29.3005" fill="#B6B6B6"/>
<rect x="436.871" y="85.2793" width="29.3005" height="29.3005" fill="#B6B6B6"/>
<rect x="-2.63672" y="-2.61914" width="29.3005" height="29.3005" fill="#B6B6B6"/>
<rect x="55.9746" y="-2.61914" width="29.3005" height="29.3005" fill="#B6B6B6"/>
<rect x="114.574" y="-2.61914" width="29.3005" height="29.3005" fill="#B6B6B6"/>
<rect x="173.174" y="-2.61914" width="29.3005" height="29.3005" fill="#B6B6B6"/>
<rect x="231.773" y="-2.61914" width="29.3005" height="29.3005" fill="#B6B6B6"/>
<rect x="290.373" y="-2.61914" width="29.3005" height="29.3005" fill="#B6B6B6"/>
<rect x="348.973" y="-2.61914" width="29.3005" height="29.3005" fill="#B6B6B6"/>
<rect x="407.571" y="-2.61914" width="29.3005" height="29.3005" fill="#B6B6B6"/>
<rect x="466.184" y="-2.61914" width="29.3005" height="29.3005" fill="#B6B6B6"/>
<rect x="26.6631" y="26.6797" width="29.3005" height="29.3005" fill="#B6B6B6"/>
<rect x="85.2627" y="26.6797" width="29.3005" height="29.3005" fill="#B6B6B6"/>
<rect x="143.874" y="26.6797" width="29.3005" height="29.3005" fill="#B6B6B6"/>
<rect x="202.474" y="26.6797" width="29.3005" height="29.3005" fill="#B6B6B6"/>
<rect x="261.073" y="26.6797" width="29.3005" height="29.3005" fill="#B6B6B6"/>
<rect x="319.673" y="26.6797" width="29.3005" height="29.3005" fill="#B6B6B6"/>
<rect x="378.272" y="26.6797" width="29.3005" height="29.3005" fill="#B6B6B6"/>
<rect x="436.871" y="26.6797" width="29.3005" height="29.3005" fill="#B6B6B6"/>
<path d="M56.7138 237.749C56.7138 230.332 59.2714 224.066 64.3868 218.95C69.7579 213.579 76.1521 210.893 83.5694 210.893C90.7309 210.893 96.7415 213.323 101.601 218.183C101.345 218.183 101.217 218.311 101.217 218.567C101.217 218.822 101.601 218.95 102.368 218.95H102.752V218.567H103.136L102.368 217.799C97.5088 212.94 95.079 206.801 95.079 199.384C95.079 191.967 97.6367 185.7 102.752 180.585C108.123 175.214 114.517 172.528 121.935 172.528C129.352 172.528 135.618 175.214 140.734 180.585C146.105 185.7 148.79 191.967 148.79 199.384C148.79 202.965 148.023 206.418 146.488 209.743C144.954 213.067 143.035 216.009 140.734 218.567L141.501 219.334C146.36 224.193 148.79 230.332 148.79 237.749C148.79 241.33 148.023 244.783 146.488 248.108C144.954 251.433 143.035 254.374 140.734 256.932L141.501 257.699C146.36 262.559 148.79 268.697 148.79 276.114C148.79 279.695 148.023 283.148 146.488 286.473C144.954 289.798 143.035 292.739 140.734 295.297L141.501 296.064C146.36 300.924 148.79 307.062 148.79 314.48C148.79 318.06 148.023 321.513 146.488 324.838C144.954 328.163 143.035 331.104 140.734 333.662L141.501 334.429C146.36 339.289 148.79 345.427 148.79 352.845C148.79 356.426 148.023 359.878 146.488 363.203C144.954 366.528 143.035 369.47 140.734 372.027L141.501 372.795C146.36 377.654 148.79 383.793 148.79 391.21C148.79 394.791 148.023 398.244 146.488 401.569C144.954 404.894 143.035 407.835 140.734 410.393L141.117 410.776C145.977 405.405 152.371 402.72 160.3 402.72C167.717 402.72 173.983 405.405 179.099 410.776C184.47 415.892 187.155 422.158 187.155 429.575C187.155 436.992 184.47 443.387 179.099 448.758C173.983 453.873 167.717 456.431 160.3 456.431C152.627 456.431 146.488 454.129 141.885 449.525C141.373 449.014 141.117 448.758 141.117 448.758V448.374L140.734 448.758C140.222 448.758 139.966 448.886 139.966 449.141C135.107 454.001 129.096 456.431 121.935 456.431C114.262 456.431 108.123 454.129 103.519 449.525C103.008 449.014 102.752 448.758 102.752 448.758V448.374L102.368 448.758C101.857 448.758 101.601 448.886 101.601 449.141V449.525C96.4857 454.129 90.4751 456.431 83.5694 456.431C76.1521 456.431 69.7579 453.873 64.3868 448.758C59.2714 443.387 56.7138 436.992 56.7138 429.575C56.7138 422.158 59.2714 415.892 64.3868 410.776C69.7579 405.405 76.1521 402.72 83.5694 402.72C90.9867 402.72 97.1251 405.149 101.985 410.009C102.24 410.265 102.496 410.393 102.752 410.393V410.776C103.264 411.032 103.264 410.648 102.752 409.625C102.496 408.602 102.368 408.73 102.368 410.009L101.985 409.242C97.3809 404.638 95.079 398.627 95.079 391.21C95.079 383.793 97.3809 377.782 101.985 373.178C102.496 372.667 102.752 372.283 102.752 372.027H103.136L101.985 370.876C97.3809 366.273 95.079 360.262 95.079 352.845C95.079 345.427 97.3809 339.417 101.985 334.813C102.496 334.302 102.752 333.918 102.752 333.662H103.136L101.985 332.511C97.3809 327.907 95.079 321.897 95.079 314.48C95.079 307.062 97.3809 301.052 101.985 296.448C102.496 295.936 102.752 295.553 102.752 295.297H103.136L102.368 294.53C97.5088 289.67 95.079 283.532 95.079 276.114C95.079 268.697 97.3809 262.687 101.985 258.083C102.752 257.315 103.008 256.932 102.752 256.932C102.496 256.676 102.113 256.676 101.601 256.932C101.345 256.932 101.09 257.06 100.834 257.315C100.578 257.571 100.834 257.699 101.601 257.699C96.4857 262.303 90.4751 264.605 83.5694 264.605C76.1521 264.605 69.7579 262.047 64.3868 256.932C59.2714 251.561 56.7138 245.166 56.7138 237.749ZM101.601 449.141C101.857 449.653 102.113 449.909 102.368 449.909C102.624 450.165 102.752 449.781 102.752 448.758H102.368L101.985 449.141H101.601ZM139.966 449.141C140.222 449.653 140.478 449.909 140.734 449.909C140.989 450.165 141.117 449.781 141.117 448.758H140.734L140.35 449.141H139.966ZM101.601 218.183C102.113 218.183 102.368 218.439 102.368 218.95H102.752V218.567C102.752 217.543 102.368 217.416 101.601 218.183ZM101.601 257.699C102.113 257.443 102.368 257.315 102.368 257.315V256.932L101.601 257.699ZM102.368 410.009L102.752 410.393V410.776L103.136 410.393L102.368 410.009ZM248.69 391.21C248.69 383.793 251.247 377.526 256.363 372.411C261.734 367.04 268.128 364.354 275.545 364.354C282.963 364.354 289.229 367.04 294.344 372.411C299.715 377.526 302.401 383.793 302.401 391.21C302.401 399.139 299.588 405.661 293.961 410.776V411.16C299.076 405.533 305.726 402.72 313.911 402.72C317.491 402.72 320.944 403.487 324.269 405.021C327.594 406.556 330.408 408.474 332.71 410.776V411.16L333.093 410.776C338.464 405.405 344.859 402.72 352.276 402.72C359.693 402.72 365.832 405.149 370.691 410.009C370.947 410.265 371.203 410.393 371.458 410.393V410.776C371.97 410.776 372.226 410.52 372.226 410.009C377.085 405.149 383.224 402.72 390.641 402.72C398.058 402.72 404.325 405.405 409.44 410.776C414.811 415.892 417.497 422.158 417.497 429.575C417.497 436.992 414.811 443.387 409.44 448.758C404.325 453.873 398.058 456.431 390.641 456.431C382.968 456.431 376.83 454.129 372.226 449.525C371.714 449.014 371.458 448.758 371.458 448.758V448.374L371.075 448.758C370.563 448.758 370.307 448.886 370.307 449.141C365.448 454.001 359.437 456.431 352.276 456.431C344.603 456.431 338.464 454.129 333.86 449.525C333.349 449.014 333.093 448.758 333.093 448.758V448.374L332.71 448.758C332.198 448.758 331.942 448.886 331.942 449.141V449.525C326.827 454.129 320.816 456.431 313.911 456.431C306.238 456.431 300.099 454.129 295.495 449.525C294.984 449.014 294.728 448.758 294.728 448.758V448.374L294.344 448.758C293.833 448.758 293.577 448.886 293.577 449.141C288.717 454.001 282.707 456.431 275.545 456.431C267.872 456.431 261.734 454.129 257.13 449.525C256.619 449.014 256.363 448.758 256.363 448.758V448.374L255.979 448.758C255.468 448.758 255.212 448.886 255.212 449.141C250.352 454.001 244.342 456.431 237.18 456.431C229.763 456.431 223.369 453.873 217.998 448.758C212.882 443.387 210.324 436.992 210.324 429.575C210.324 422.158 212.882 415.892 217.998 410.776C223.369 405.405 229.763 402.72 237.18 402.72C244.853 402.72 251.12 405.149 255.979 410.009C255.468 410.009 254.956 410.137 254.444 410.393C254.189 410.648 254.828 410.648 256.363 410.393L255.979 409.625C251.12 404.766 248.69 398.627 248.69 391.21ZM248.69 199.384C248.69 191.967 251.247 185.7 256.363 180.585C261.734 175.214 268.128 172.528 275.545 172.528C282.963 172.528 289.357 175.214 294.728 180.585C299.588 175.214 305.982 172.528 313.911 172.528C317.491 172.528 320.944 173.296 324.269 174.83C327.594 176.365 330.408 178.283 332.71 180.585V180.969L333.093 180.585C338.464 175.214 344.859 172.528 352.276 172.528C359.693 172.528 365.959 175.214 371.075 180.585C376.446 185.7 379.131 191.967 379.131 199.384C379.131 206.801 376.446 213.195 371.075 218.567C365.959 223.682 359.693 226.24 352.276 226.24C344.603 226.24 338.464 223.938 333.86 219.334C333.349 219.078 333.093 218.95 333.093 218.95V218.183L332.71 218.567C332.198 218.567 331.942 218.822 331.942 219.334C329.385 221.891 326.571 223.682 323.502 224.705C320.433 225.728 317.236 226.24 313.911 226.24C306.238 226.24 300.099 223.938 295.495 219.334C294.984 219.078 294.728 218.95 294.728 218.95V218.183L294.344 218.567C293.833 218.567 293.577 218.822 293.577 219.334C288.462 223.938 282.451 226.24 275.545 226.24C268.128 226.24 261.734 223.682 256.363 218.567C251.247 213.195 248.69 206.801 248.69 199.384ZM363.785 237.749C363.785 230.332 366.343 224.066 371.458 218.95C376.83 213.579 383.224 210.893 390.641 210.893C398.058 210.893 404.325 213.579 409.44 218.95C414.811 224.066 417.497 230.332 417.497 237.749C417.497 241.33 416.729 244.783 415.195 248.108C413.66 251.433 411.742 254.374 409.44 256.932L410.207 257.699C415.067 262.559 417.497 268.697 417.497 276.114C417.497 283.532 414.811 289.926 409.44 295.297C404.325 300.412 398.058 302.97 390.641 302.97C383.224 302.97 376.83 300.412 371.458 295.297C366.343 289.926 363.785 283.532 363.785 276.114C363.785 268.697 366.087 262.687 370.691 258.083C371.203 257.571 371.458 257.187 371.458 256.932H371.842L371.075 256.164C366.215 251.305 363.785 245.166 363.785 237.749ZM210.324 237.749C210.324 230.332 212.882 224.066 217.998 218.95C223.369 213.579 229.763 210.893 237.18 210.893C244.597 210.893 250.864 213.579 255.979 218.95C261.35 224.066 264.036 230.332 264.036 237.749C264.036 245.166 261.35 251.561 255.979 256.932C250.864 262.047 244.597 264.605 237.18 264.605C229.763 264.605 223.369 262.047 217.998 256.932C212.882 251.561 210.324 245.166 210.324 237.749ZM325.42 314.48C325.42 307.062 327.978 300.796 333.093 295.681C338.464 290.309 344.859 287.624 352.276 287.624C359.693 287.624 365.959 290.309 371.075 295.681C376.446 300.796 379.131 307.062 379.131 314.48C379.131 321.897 376.446 328.291 371.075 333.662C365.959 338.778 359.693 341.335 352.276 341.335C344.859 341.335 338.464 338.778 333.093 333.662C327.978 328.291 325.42 321.897 325.42 314.48ZM287.055 352.845C287.055 345.427 289.613 339.161 294.728 334.046C300.099 328.675 306.493 325.989 313.911 325.989C321.328 325.989 327.594 328.675 332.71 334.046C338.081 339.161 340.766 345.427 340.766 352.845C340.766 360.262 338.081 366.656 332.71 372.027C327.594 377.143 321.328 379.7 313.911 379.7C306.493 379.7 300.099 377.143 294.728 372.027C289.613 366.656 287.055 360.262 287.055 352.845ZM331.942 219.334C332.198 219.845 332.454 220.229 332.71 220.485C332.965 220.485 333.093 219.973 333.093 218.95L332.71 218.567L331.942 219.334ZM293.577 219.334C293.833 219.845 294.089 220.229 294.344 220.485C294.6 220.485 294.728 219.973 294.728 218.95L294.344 218.567L293.577 219.334ZM255.212 449.141C255.468 449.653 255.723 449.909 255.979 449.909C256.235 450.165 256.363 449.781 256.363 448.758H255.979L255.212 449.141ZM372.226 410.009C371.97 409.497 371.714 409.114 371.458 408.858C371.203 408.602 371.203 409.114 371.458 410.393V410.776L372.226 410.009ZM370.307 449.141C370.563 449.653 370.819 449.909 371.075 449.909C371.331 450.165 371.458 449.781 371.458 448.758H371.075L370.691 449.141H370.307ZM331.942 449.141C332.198 449.653 332.454 449.909 332.71 449.909C332.965 450.165 333.093 449.781 333.093 448.758H332.71L332.326 449.141H331.942ZM293.577 449.141C293.833 449.653 294.089 449.909 294.344 449.909C294.6 450.165 294.728 449.781 294.728 448.758H294.344L293.961 449.141H293.577Z" fill="#FF208C"/>
<circle cx="159.128" cy="39.4438" r="26.9164" fill="#FF208C"/>
<circle cx="198.064" cy="39.4438" r="26.9164" fill="#FF208C"/>
<circle cx="237" cy="39.4438" r="26.9164" fill="#FF208C"/>
<circle cx="275.935" cy="39.4438" r="26.9164" fill="#FF208C"/>
<circle cx="314.871" cy="39.4438" r="26.9164" fill="#FF208C"/>
</g>
<defs>
<clipPath id="clip0_172_255">
<rect width="474" height="474" rx="64" fill="white"/>
</clipPath>
</defs>
</svg>
