<svg width="474" height="474" viewBox="0 0 474 474" fill="none" xmlns="http://www.w3.org/2000/svg">
<g clip-path="url(#clip0_172_1124)">
<rect width="474" height="474" rx="64.054" fill="#FF63B7"/>
<g filter="url(#filter0_d_172_1124)">
<rect x="6.40527" y="6.40625" width="461.189" height="461.189" rx="60.8513" fill="#EDEDED"/>
</g>
<g opacity="0.2">
<rect x="46.7334" y="400.475" width="13.3951" height="13.3951" fill="#B5B5B5"/>
<rect x="46.7334" y="427.266" width="13.3951" height="13.3951" fill="#B5B5B5"/>
<rect x="73.5225" y="413.869" width="13.3951" height="13.3951" transform="rotate(90 73.5225 413.869)" fill="#B5B5B5"/>
<rect x="46.7334" y="413.869" width="13.3951" height="13.3951" transform="rotate(90 46.7334 413.869)" fill="#B5B5B5"/>
<rect x="33.2229" y="393.707" width="6.75424" height="6.75424" fill="#B5B5B5"/>
<rect x="33.2229" y="407.211" width="6.75424" height="6.75424" fill="#B5B5B5"/>
<rect x="46.7344" y="400.467" width="6.75424" height="6.75424" transform="rotate(90 46.7344 400.467)" fill="#B5B5B5"/>
<rect x="33.2229" y="400.467" width="6.75424" height="6.75424" transform="rotate(90 33.2229 400.467)" fill="#B5B5B5"/>
<rect x="66.8789" y="427.262" width="6.75424" height="6.75424" fill="#B5B5B5"/>
<rect x="66.8789" y="440.766" width="6.75424" height="6.75424" fill="#B5B5B5"/>
<rect x="80.3906" y="434.021" width="6.75424" height="6.75424" transform="rotate(90 80.3906 434.021)" fill="#B5B5B5"/>
<rect x="66.8789" y="434.021" width="6.75424" height="6.75424" transform="rotate(90 66.8789 434.021)" fill="#B5B5B5"/>
</g>
<path d="M12.2981 315.186V371.066C12.2981 387.236 12.2995 399.267 13.0784 408.8C13.8557 418.314 15.3991 425.198 18.4065 431.101C23.7799 441.647 32.3547 450.22 42.9006 455.594C48.8031 458.601 55.6875 460.146 65.2014 460.923C74.734 461.702 86.7646 461.703 102.934 461.703H158.816V463.305H102.934L97.0667 463.303C68.645 463.28 53.7341 462.911 42.1731 457.021C31.3259 451.494 22.5067 442.674 16.9797 431.827C11.0893 420.266 10.7215 405.355 10.6985 376.934L10.6965 371.066V315.186H12.2981ZM463.304 371.066L463.302 376.934C463.279 405.355 462.91 420.266 457.02 431.827C451.493 442.674 442.674 451.494 431.826 457.021C420.265 462.911 405.355 463.28 376.933 463.303L371.066 463.305H315.192V461.703H371.066C387.235 461.703 399.266 461.702 408.799 460.923C418.313 460.146 425.197 458.601 431.1 455.594C441.646 450.22 450.22 441.646 455.593 431.101C458.6 425.198 460.145 418.314 460.922 408.8C461.701 399.267 461.702 387.236 461.702 371.066V315.186H463.304V371.066ZM371.066 10.6973C403.352 10.6973 419.495 10.6973 431.826 16.9805C442.674 22.5074 451.493 31.3267 457.02 42.1738C463.303 54.5056 463.304 70.6493 463.304 102.936V158.811H461.702V102.936C461.702 86.7661 461.701 74.7348 460.922 65.2021C460.145 55.6882 458.6 48.8038 455.593 42.9014C450.22 32.3554 441.646 23.7807 431.1 18.4072C425.197 15.3998 418.313 13.8564 408.799 13.0791C399.266 12.3002 387.235 12.2988 371.066 12.2988H315.192V10.6973H371.066ZM158.816 12.2988H102.935C86.7653 12.2988 74.7341 12.3003 65.2014 13.0791C55.6876 13.8564 48.803 15.3999 42.9006 18.4072C32.3547 23.7807 23.7799 32.3554 18.4065 42.9014C15.3992 48.8038 13.8557 55.6884 13.0784 65.2021C12.2995 74.7347 12.2981 86.7654 12.2981 102.935V158.811H10.6965V102.935C10.6965 70.6487 10.6964 54.5055 16.9797 42.1738C22.5067 31.3266 31.3259 22.5074 42.1731 16.9805C53.7341 11.0899 68.645 10.7222 97.0667 10.6992L102.935 10.6973H158.816V12.2988Z" fill="#DADADA"/>
<g filter="url(#filter1_i_172_1124)">
<path d="M350.511 430.329C243.738 493.019 106.361 457.283 43.6714 350.51C-19.0187 243.737 16.7174 106.361 123.49 43.6706C230.263 -19.0195 367.64 16.7166 430.33 123.489C493.02 230.262 457.284 367.639 350.511 430.329ZM140.708 72.996C50.1313 126.177 19.8159 242.715 72.9968 333.292C126.178 423.869 242.716 454.184 333.293 401.004C423.87 347.823 454.185 231.284 401.004 140.707C347.824 50.1305 231.285 19.8151 140.708 72.996Z" fill="url(#paint0_linear_172_1124)"/>
</g>
<path d="M52.2876 237L68.0487 226.995V247.005L52.2876 237Z" fill="#BDBDBD"/>
<path d="M106.389 106.389L124.609 110.459L110.46 124.608L106.389 106.389Z" fill="#BDBDBD"/>
<path d="M144.643 77.0332L161.188 85.6803L143.859 95.6851L144.643 77.0332Z" fill="#BDBDBD"/>
<path d="M189.197 58.5801L202.94 71.2147L183.612 76.3936L189.197 58.5801Z" fill="#BDBDBD"/>
<path d="M237 52.2871L247.005 68.0482H226.995L237 52.2871Z" fill="#BDBDBD"/>
<path d="M284.802 58.5801L290.387 76.3936L271.059 71.2147L284.802 58.5801Z" fill="#BDBDBD"/>
<path d="M329.356 77.0332L330.14 95.6851L312.811 85.6803L329.356 77.0332Z" fill="#BDBDBD"/>
<path d="M367.61 106.389L363.54 124.608L349.391 110.459L367.61 106.389Z" fill="#BDBDBD"/>
<path d="M421.712 237L405.951 247.005V226.995L421.712 237Z" fill="#BDBDBD"/>
<path d="M415.418 284.803L397.604 290.387L402.783 271.06L415.418 284.803Z" fill="#BDBDBD"/>
<path d="M396.965 329.355L378.313 330.139L388.317 312.811L396.965 329.355Z" fill="#BDBDBD"/>
<path d="M367.61 367.609L349.391 363.539L363.54 349.39L367.61 367.609Z" fill="#BDBDBD"/>
<path d="M329.356 396.965L312.811 388.318L330.14 378.313L329.356 396.965Z" fill="#BDBDBD"/>
<path d="M284.802 415.418L271.059 402.783L290.387 397.604L284.802 415.418Z" fill="#BDBDBD"/>
<path d="M237 421.711L226.995 405.95H247.005L237 421.711Z" fill="#BDBDBD"/>
<path d="M189.197 415.418L183.612 397.604L202.94 402.783L189.197 415.418Z" fill="#BDBDBD"/>
<path d="M144.643 396.965L143.859 378.313L161.188 388.318L144.643 396.965Z" fill="#BDBDBD"/>
<path d="M106.389 367.609L110.46 349.39L124.609 363.539L106.389 367.609Z" fill="#BDBDBD"/>
<path d="M77.0352 329.355L85.6823 312.811L95.6871 330.139L77.0352 329.355Z" fill="#BDBDBD"/>
<path d="M58.582 284.803L71.2167 271.06L76.3955 290.387L58.582 284.803Z" fill="#BDBDBD"/>
<path d="M294.649 237C294.649 268.839 268.839 294.649 237 294.649C205.162 294.649 179.352 268.839 179.352 237C179.352 205.162 205.162 179.352 237 179.352C268.839 179.352 294.649 205.162 294.649 237ZM188.096 237C188.096 264.009 209.991 285.904 237 285.904C264.009 285.904 285.904 264.009 285.904 237C285.904 209.991 264.009 188.096 237 188.096C209.991 188.096 188.096 209.991 188.096 237Z" fill="#D9D9D9"/>
<rect x="214.581" y="233.799" width="44.8378" height="6.40541" fill="#D9D9D9"/>
<rect x="233.797" y="259.42" width="44.8378" height="6.40541" transform="rotate(-90 233.797 259.42)" fill="#D9D9D9"/>
<circle cx="237" cy="237" r="3.2027" fill="#454545"/>
<rect x="220.987" y="313.865" width="6.40541" height="16.0135" fill="#8626FF"/>
<rect x="249.811" y="313.865" width="6.40541" height="16.0135" fill="#8626FF"/>
<rect x="230.595" y="313.865" width="3.2027" height="16.0135" fill="#8626FF"/>
<rect x="237" y="313.865" width="3.2027" height="16.0135" fill="#8626FF"/>
<rect x="243.406" y="313.865" width="3.2027" height="16.0135" fill="#8626FF"/>
<rect x="75.2634" y="6.46094" width="323.473" height="144.122" fill="#FF63B7"/>
<rect x="95.499" y="281.512" width="86.1477" height="33.5033" transform="rotate(-90 95.499 281.512)" fill="#8626FF"/>
<g filter="url(#filter2_d_172_1124)">
<mask id="path-48-outside-1_172_1124" maskUnits="userSpaceOnUse" x="82.4727" y="9.32031" width="307" height="128" fill="black">
<rect fill="white" x="82.4727" y="9.32031" width="307" height="128"/>
<path d="M91.1355 128.32V108.704L111.978 80.3517C115.605 75.4987 118.415 71.3352 120.407 67.8615C122.45 64.3366 123.881 61.0928 124.698 58.1298C125.516 55.1669 125.924 52.0252 125.924 48.7047V45.7162C125.924 44.0815 125.72 42.6767 125.311 41.5017C124.903 40.2757 124.264 39.3562 123.395 38.7432C122.578 38.1301 121.582 37.8236 120.407 37.8236C119.181 37.8236 118.159 38.1557 117.342 38.8198C116.525 39.4328 115.912 40.3523 115.503 41.5784C115.094 42.7533 114.89 44.1582 114.89 45.7929V56.2142H89.4497V47.8618C89.4497 41.5784 90.7012 36.0612 93.2044 31.3103C95.7076 26.5594 99.3346 22.8558 104.085 20.1994C108.836 17.4919 114.583 16.1382 121.327 16.1382C128.121 16.1382 133.817 17.4153 138.414 19.9695C143.063 22.5238 146.562 26.0741 148.912 30.6207C151.313 35.1672 152.514 40.429 152.514 46.4059V48.0151C152.514 52.817 151.824 57.3891 150.445 61.7313C149.117 66.0224 147.099 70.4157 144.391 74.9112C141.684 79.4066 138.261 84.2852 134.123 89.547L115.886 113.378L122.016 97.8227V113.378L115.886 106.175H152.82V128.32H91.1355ZM187.903 129.929C180.598 129.929 174.34 128.78 169.13 126.481C163.919 124.182 159.909 120.862 157.099 116.52C154.341 112.126 152.961 106.865 152.961 100.735V94.2212C152.961 89.4193 153.753 85.358 155.337 82.0375C156.971 78.717 159.194 76.1117 162.003 74.2215C164.864 72.3314 168.133 71.1565 171.812 70.6967V70.0837C166.907 69.2663 162.897 67.0697 159.781 63.4937C156.716 59.9178 155.184 54.9115 155.184 48.4748V43.2642C155.184 37.4916 156.512 32.5875 159.168 28.5518C161.876 24.5161 165.656 21.451 170.509 19.3565C175.413 17.2109 181.211 16.1382 187.903 16.1382C194.595 16.1382 200.368 17.2109 205.221 19.3565C210.125 21.451 213.905 24.5161 216.562 28.5518C219.218 32.5875 220.546 37.4916 220.546 43.2642V48.4748C220.546 54.9115 218.988 59.9178 215.872 63.4937C212.807 67.0697 208.874 69.2663 204.072 70.0837V70.6967C207.699 71.1565 210.917 72.3314 213.727 74.2215C216.587 76.1117 218.81 78.717 220.393 82.0375C222.028 85.358 222.845 89.4193 222.845 94.2212V100.735C222.845 106.865 221.44 112.126 218.631 116.52C215.872 120.862 211.888 124.182 206.677 126.481C201.466 128.78 195.208 129.929 187.903 129.929ZM187.903 110.16C189.129 110.16 190.177 109.93 191.045 109.47C191.965 108.959 192.654 108.244 193.114 107.324C193.574 106.354 193.804 105.256 193.804 104.03V87.7845C193.804 86.5585 193.574 85.4857 193.114 84.5662C192.654 83.5956 191.965 82.8549 191.045 82.344C190.177 81.7821 189.129 81.5011 187.903 81.5011C186.626 81.5011 185.553 81.7821 184.685 82.344C183.868 82.8549 183.204 83.5701 182.693 84.4896C182.233 85.4091 182.003 86.5074 182.003 87.7845V104.03C182.003 105.307 182.233 106.405 182.693 107.324C183.204 108.244 183.893 108.959 184.762 109.47C185.63 109.93 186.677 110.16 187.903 110.16ZM187.903 62.0378C189.027 62.0378 189.972 61.8079 190.739 61.3482C191.556 60.8373 192.169 60.1477 192.578 59.2792C192.986 58.3597 193.191 57.2869 193.191 56.0609V41.7316C193.191 40.5056 192.986 39.4584 192.578 38.5899C192.169 37.6704 191.556 36.9807 190.739 36.521C189.972 36.0612 189.027 35.8313 187.903 35.8313C186.779 35.8313 185.809 36.0612 184.991 36.521C184.225 36.9807 183.612 37.6704 183.152 38.5899C182.744 39.4584 182.539 40.5056 182.539 41.7316V56.0609C182.539 57.2869 182.744 58.3597 183.152 59.2792C183.612 60.1477 184.225 60.8373 184.991 61.3482C185.809 61.8079 186.779 62.0378 187.903 62.0378ZM238.388 113.378C234.455 113.378 231.109 111.973 228.35 109.164C225.592 106.303 224.212 102.855 224.212 98.8189C224.212 94.7832 225.592 91.3605 228.35 88.5508C231.109 85.6901 234.455 84.2597 238.388 84.2597C242.373 84.2597 245.719 85.6901 248.426 88.5508C251.185 91.3605 252.564 94.7832 252.564 98.8189C252.564 102.855 251.185 106.303 248.426 109.164C245.719 111.973 242.373 113.378 238.388 113.378ZM238.388 61.8079C234.455 61.8079 231.109 60.4031 228.35 57.5934C225.592 54.7327 224.212 51.2845 224.212 47.2488C224.212 43.162 225.592 39.7138 228.35 36.9041C231.109 34.0945 234.455 32.6896 238.388 32.6896C242.373 32.6896 245.719 34.0945 248.426 36.9041C251.185 39.7138 252.564 43.162 252.564 47.2488C252.564 51.2845 251.185 54.7327 248.426 57.5934C245.719 60.4031 242.373 61.8079 238.388 61.8079ZM287.034 129.929C280.087 129.929 274.11 128.703 269.104 126.251C264.148 123.748 260.317 120.172 257.61 115.524C254.902 110.875 253.523 105.307 253.472 98.8189V91.9224H279.908V100.658C279.908 101.986 280.163 103.161 280.674 104.183C281.185 105.204 281.9 105.996 282.82 106.558C283.739 107.069 284.838 107.324 286.115 107.324C287.494 107.324 288.643 107.069 289.563 106.558C290.483 105.996 291.172 105.23 291.632 104.259C292.143 103.238 292.398 101.986 292.398 100.505V88.3976C292.398 86.1498 291.76 84.413 290.483 83.1869C289.257 81.9609 287.417 81.3479 284.965 81.3479H276.383V61.8079H284.582C286.166 61.8079 287.469 61.5525 288.49 61.0417C289.563 60.5308 290.355 59.7901 290.866 58.8195C291.428 57.7978 291.709 56.5973 291.709 55.218V43.8006C291.709 42.4213 291.479 41.2719 291.019 40.3523C290.559 39.3817 289.895 38.6155 289.027 38.0535C288.158 37.4916 287.111 37.2106 285.885 37.2106C284.608 37.2106 283.535 37.4916 282.667 38.0535C281.798 38.6155 281.108 39.3817 280.598 40.3523C280.138 41.3229 279.908 42.4724 279.908 43.8006V53.379H255.311V44.95C255.362 39.0752 256.639 33.9923 259.142 29.7012C261.645 25.359 265.221 22.0129 269.87 19.663C274.57 17.3131 280.189 16.1382 286.728 16.1382C293.216 16.1382 298.758 17.262 303.356 19.5097C307.954 21.7064 311.453 24.8992 313.854 29.0881C316.306 33.2771 317.532 38.3089 317.532 44.1837V48.7047C317.532 52.5871 316.919 56.0354 315.693 59.0494C314.518 62.0634 312.73 64.541 310.329 66.4822C307.928 68.4234 304.914 69.7516 301.287 70.4668V71.0798C307.468 71.795 312.194 74.1194 315.463 78.0529C318.784 81.9864 320.444 87.2737 320.444 93.9147V98.9721C320.444 105.409 319.09 110.951 316.383 115.6C313.726 120.198 309.895 123.748 304.888 126.251C299.933 128.703 293.982 129.929 287.034 129.929ZM320.968 128.32V108.704L341.81 80.3517C345.437 75.4987 348.247 71.3352 350.239 67.8615C352.283 64.3366 353.713 61.0928 354.531 58.1298C355.348 55.1669 355.757 52.0252 355.757 48.7047V45.7162C355.757 44.0815 355.552 42.6767 355.144 41.5017C354.735 40.2757 354.096 39.3562 353.228 38.7432C352.411 38.1301 351.414 37.8236 350.239 37.8236C349.013 37.8236 347.992 38.1557 347.174 38.8198C346.357 39.4328 345.744 40.3523 345.335 41.5784C344.927 42.7533 344.722 44.1582 344.722 45.7929V56.2142H319.282V47.8618C319.282 41.5784 320.534 36.0612 323.037 31.3103C325.54 26.5594 329.167 22.8558 333.918 20.1994C338.669 17.4919 344.416 16.1382 351.159 16.1382C357.953 16.1382 363.649 17.4153 368.247 19.9695C372.896 22.5238 376.395 26.0741 378.745 30.6207C381.146 35.1672 382.346 40.429 382.346 46.4059V48.0151C382.346 52.817 381.657 57.3891 380.277 61.7313C378.949 66.0224 376.931 70.4157 374.224 74.9112C371.516 79.4066 368.094 84.2852 363.956 89.547L345.718 113.378L351.849 97.8227V113.378L345.718 106.175H382.653V128.32H320.968Z"/>
</mask>
<path d="M91.1355 128.32V108.704L111.978 80.3517C115.605 75.4987 118.415 71.3352 120.407 67.8615C122.45 64.3366 123.881 61.0928 124.698 58.1298C125.516 55.1669 125.924 52.0252 125.924 48.7047V45.7162C125.924 44.0815 125.72 42.6767 125.311 41.5017C124.903 40.2757 124.264 39.3562 123.395 38.7432C122.578 38.1301 121.582 37.8236 120.407 37.8236C119.181 37.8236 118.159 38.1557 117.342 38.8198C116.525 39.4328 115.912 40.3523 115.503 41.5784C115.094 42.7533 114.89 44.1582 114.89 45.7929V56.2142H89.4497V47.8618C89.4497 41.5784 90.7012 36.0612 93.2044 31.3103C95.7076 26.5594 99.3346 22.8558 104.085 20.1994C108.836 17.4919 114.583 16.1382 121.327 16.1382C128.121 16.1382 133.817 17.4153 138.414 19.9695C143.063 22.5238 146.562 26.0741 148.912 30.6207C151.313 35.1672 152.514 40.429 152.514 46.4059V48.0151C152.514 52.817 151.824 57.3891 150.445 61.7313C149.117 66.0224 147.099 70.4157 144.391 74.9112C141.684 79.4066 138.261 84.2852 134.123 89.547L115.886 113.378L122.016 97.8227V113.378L115.886 106.175H152.82V128.32H91.1355ZM187.903 129.929C180.598 129.929 174.34 128.78 169.13 126.481C163.919 124.182 159.909 120.862 157.099 116.52C154.341 112.126 152.961 106.865 152.961 100.735V94.2212C152.961 89.4193 153.753 85.358 155.337 82.0375C156.971 78.717 159.194 76.1117 162.003 74.2215C164.864 72.3314 168.133 71.1565 171.812 70.6967V70.0837C166.907 69.2663 162.897 67.0697 159.781 63.4937C156.716 59.9178 155.184 54.9115 155.184 48.4748V43.2642C155.184 37.4916 156.512 32.5875 159.168 28.5518C161.876 24.5161 165.656 21.451 170.509 19.3565C175.413 17.2109 181.211 16.1382 187.903 16.1382C194.595 16.1382 200.368 17.2109 205.221 19.3565C210.125 21.451 213.905 24.5161 216.562 28.5518C219.218 32.5875 220.546 37.4916 220.546 43.2642V48.4748C220.546 54.9115 218.988 59.9178 215.872 63.4937C212.807 67.0697 208.874 69.2663 204.072 70.0837V70.6967C207.699 71.1565 210.917 72.3314 213.727 74.2215C216.587 76.1117 218.81 78.717 220.393 82.0375C222.028 85.358 222.845 89.4193 222.845 94.2212V100.735C222.845 106.865 221.44 112.126 218.631 116.52C215.872 120.862 211.888 124.182 206.677 126.481C201.466 128.78 195.208 129.929 187.903 129.929ZM187.903 110.16C189.129 110.16 190.177 109.93 191.045 109.47C191.965 108.959 192.654 108.244 193.114 107.324C193.574 106.354 193.804 105.256 193.804 104.03V87.7845C193.804 86.5585 193.574 85.4857 193.114 84.5662C192.654 83.5956 191.965 82.8549 191.045 82.344C190.177 81.7821 189.129 81.5011 187.903 81.5011C186.626 81.5011 185.553 81.7821 184.685 82.344C183.868 82.8549 183.204 83.5701 182.693 84.4896C182.233 85.4091 182.003 86.5074 182.003 87.7845V104.03C182.003 105.307 182.233 106.405 182.693 107.324C183.204 108.244 183.893 108.959 184.762 109.47C185.63 109.93 186.677 110.16 187.903 110.16ZM187.903 62.0378C189.027 62.0378 189.972 61.8079 190.739 61.3482C191.556 60.8373 192.169 60.1477 192.578 59.2792C192.986 58.3597 193.191 57.2869 193.191 56.0609V41.7316C193.191 40.5056 192.986 39.4584 192.578 38.5899C192.169 37.6704 191.556 36.9807 190.739 36.521C189.972 36.0612 189.027 35.8313 187.903 35.8313C186.779 35.8313 185.809 36.0612 184.991 36.521C184.225 36.9807 183.612 37.6704 183.152 38.5899C182.744 39.4584 182.539 40.5056 182.539 41.7316V56.0609C182.539 57.2869 182.744 58.3597 183.152 59.2792C183.612 60.1477 184.225 60.8373 184.991 61.3482C185.809 61.8079 186.779 62.0378 187.903 62.0378ZM238.388 113.378C234.455 113.378 231.109 111.973 228.35 109.164C225.592 106.303 224.212 102.855 224.212 98.8189C224.212 94.7832 225.592 91.3605 228.35 88.5508C231.109 85.6901 234.455 84.2597 238.388 84.2597C242.373 84.2597 245.719 85.6901 248.426 88.5508C251.185 91.3605 252.564 94.7832 252.564 98.8189C252.564 102.855 251.185 106.303 248.426 109.164C245.719 111.973 242.373 113.378 238.388 113.378ZM238.388 61.8079C234.455 61.8079 231.109 60.4031 228.35 57.5934C225.592 54.7327 224.212 51.2845 224.212 47.2488C224.212 43.162 225.592 39.7138 228.35 36.9041C231.109 34.0945 234.455 32.6896 238.388 32.6896C242.373 32.6896 245.719 34.0945 248.426 36.9041C251.185 39.7138 252.564 43.162 252.564 47.2488C252.564 51.2845 251.185 54.7327 248.426 57.5934C245.719 60.4031 242.373 61.8079 238.388 61.8079ZM287.034 129.929C280.087 129.929 274.11 128.703 269.104 126.251C264.148 123.748 260.317 120.172 257.61 115.524C254.902 110.875 253.523 105.307 253.472 98.8189V91.9224H279.908V100.658C279.908 101.986 280.163 103.161 280.674 104.183C281.185 105.204 281.9 105.996 282.82 106.558C283.739 107.069 284.838 107.324 286.115 107.324C287.494 107.324 288.643 107.069 289.563 106.558C290.483 105.996 291.172 105.23 291.632 104.259C292.143 103.238 292.398 101.986 292.398 100.505V88.3976C292.398 86.1498 291.76 84.413 290.483 83.1869C289.257 81.9609 287.417 81.3479 284.965 81.3479H276.383V61.8079H284.582C286.166 61.8079 287.469 61.5525 288.49 61.0417C289.563 60.5308 290.355 59.7901 290.866 58.8195C291.428 57.7978 291.709 56.5973 291.709 55.218V43.8006C291.709 42.4213 291.479 41.2719 291.019 40.3523C290.559 39.3817 289.895 38.6155 289.027 38.0535C288.158 37.4916 287.111 37.2106 285.885 37.2106C284.608 37.2106 283.535 37.4916 282.667 38.0535C281.798 38.6155 281.108 39.3817 280.598 40.3523C280.138 41.3229 279.908 42.4724 279.908 43.8006V53.379H255.311V44.95C255.362 39.0752 256.639 33.9923 259.142 29.7012C261.645 25.359 265.221 22.0129 269.87 19.663C274.57 17.3131 280.189 16.1382 286.728 16.1382C293.216 16.1382 298.758 17.262 303.356 19.5097C307.954 21.7064 311.453 24.8992 313.854 29.0881C316.306 33.2771 317.532 38.3089 317.532 44.1837V48.7047C317.532 52.5871 316.919 56.0354 315.693 59.0494C314.518 62.0634 312.73 64.541 310.329 66.4822C307.928 68.4234 304.914 69.7516 301.287 70.4668V71.0798C307.468 71.795 312.194 74.1194 315.463 78.0529C318.784 81.9864 320.444 87.2737 320.444 93.9147V98.9721C320.444 105.409 319.09 110.951 316.383 115.6C313.726 120.198 309.895 123.748 304.888 126.251C299.933 128.703 293.982 129.929 287.034 129.929ZM320.968 128.32V108.704L341.81 80.3517C345.437 75.4987 348.247 71.3352 350.239 67.8615C352.283 64.3366 353.713 61.0928 354.531 58.1298C355.348 55.1669 355.757 52.0252 355.757 48.7047V45.7162C355.757 44.0815 355.552 42.6767 355.144 41.5017C354.735 40.2757 354.096 39.3562 353.228 38.7432C352.411 38.1301 351.414 37.8236 350.239 37.8236C349.013 37.8236 347.992 38.1557 347.174 38.8198C346.357 39.4328 345.744 40.3523 345.335 41.5784C344.927 42.7533 344.722 44.1582 344.722 45.7929V56.2142H319.282V47.8618C319.282 41.5784 320.534 36.0612 323.037 31.3103C325.54 26.5594 329.167 22.8558 333.918 20.1994C338.669 17.4919 344.416 16.1382 351.159 16.1382C357.953 16.1382 363.649 17.4153 368.247 19.9695C372.896 22.5238 376.395 26.0741 378.745 30.6207C381.146 35.1672 382.346 40.429 382.346 46.4059V48.0151C382.346 52.817 381.657 57.3891 380.277 61.7313C378.949 66.0224 376.931 70.4157 374.224 74.9112C371.516 79.4066 368.094 84.2852 363.956 89.547L345.718 113.378L351.849 97.8227V113.378L345.718 106.175H382.653V128.32H320.968Z" fill="#8626FF"/>
<path d="M91.1355 128.32H84.7301V134.726H91.1355V128.32ZM91.1355 108.704L85.9746 104.91L84.7301 106.603V108.704H91.1355ZM111.978 80.3517L106.847 76.5171L106.832 76.5374L106.817 76.5577L111.978 80.3517ZM120.407 67.8615L114.865 64.649L114.858 64.6618L114.851 64.6747L120.407 67.8615ZM125.311 41.5017L119.234 43.5273L119.248 43.5668L119.261 43.6061L125.311 41.5017ZM123.395 38.7432L119.552 43.8675L119.626 43.9229L119.702 43.9762L123.395 38.7432ZM117.342 38.8198L121.185 43.9441L121.285 43.8695L121.381 43.7911L117.342 38.8198ZM115.503 41.5784L121.553 43.6827L121.566 43.6434L121.58 43.6039L115.503 41.5784ZM114.89 56.2142V62.6196H121.295V56.2142H114.89ZM89.4497 56.2142H83.0443V62.6196H89.4497V56.2142ZM104.085 20.1994L107.211 25.7902L107.234 25.7775L107.257 25.7645L104.085 20.1994ZM138.414 19.9695L135.304 25.5688L135.317 25.5761L135.33 25.5833L138.414 19.9695ZM148.912 30.6207L143.222 33.5617L143.235 33.5868L143.248 33.6118L148.912 30.6207ZM150.445 61.7313L144.34 59.7921L144.333 59.8147L144.326 59.8373L150.445 61.7313ZM134.123 89.547L129.088 85.5874L129.062 85.6206L129.037 85.6542L134.123 89.547ZM115.886 113.378L109.927 111.03L120.973 117.271L115.886 113.378ZM122.016 97.8227H128.422L116.057 95.4742L122.016 97.8227ZM122.016 113.378L117.138 117.529L128.422 130.787V113.378H122.016ZM115.886 106.175V99.7697H102.024L111.008 110.327L115.886 106.175ZM152.82 106.175H159.226V99.7697H152.82V106.175ZM152.82 128.32V134.726H159.226V128.32H152.82ZM91.1355 128.32H97.5409V108.704H91.1355H84.7301V128.32H91.1355ZM91.1355 108.704L96.2964 112.498L117.139 84.1457L111.978 80.3517L106.817 76.5577L85.9746 104.91L91.1355 108.704ZM111.978 80.3517L117.109 84.1863C120.821 79.2196 123.795 74.8288 125.963 71.0483L120.407 67.8615L114.851 64.6747C113.034 67.8417 110.389 71.7778 106.847 76.5171L111.978 80.3517ZM120.407 67.8615L125.949 71.074C128.183 67.219 129.872 63.4634 130.873 59.8332L124.698 58.1298L118.523 56.4265C117.89 58.7221 116.717 61.4543 114.865 64.649L120.407 67.8615ZM124.698 58.1298L130.873 59.8332C131.855 56.2728 132.33 52.5548 132.33 48.7047H125.924H119.519C119.519 51.4956 119.176 54.061 118.523 56.4265L124.698 58.1298ZM125.924 48.7047H132.33V45.7162H125.924H119.519V48.7047H125.924ZM125.924 45.7162H132.33C132.33 43.5772 132.066 41.4238 131.361 39.3974L125.311 41.5017L119.261 43.6061C119.374 43.9296 119.519 44.5859 119.519 45.7162H125.924ZM125.311 41.5017L131.388 39.4762C130.642 37.24 129.297 35.0685 127.089 33.5102L123.395 38.7432L119.702 43.9762C119.493 43.8291 119.349 43.6674 119.265 43.5462C119.187 43.4346 119.194 43.4058 119.234 43.5273L125.311 41.5017ZM123.395 38.7432L127.239 33.6188C125.151 32.0531 122.751 31.4182 120.407 31.4182V37.8236V44.229C120.436 44.229 120.336 44.2324 120.152 44.1757C119.958 44.1162 119.746 44.013 119.552 43.8675L123.395 38.7432ZM120.407 37.8236V31.4182C117.963 31.4182 115.444 32.1086 113.303 33.8485L117.342 38.8198L121.381 43.7911C121.166 43.9662 120.924 44.0919 120.701 44.1644C120.489 44.2332 120.373 44.229 120.407 44.229V37.8236ZM117.342 38.8198L113.499 33.6955C111.393 35.2748 110.138 37.4188 109.426 39.5528L115.503 41.5784L121.58 43.6039C121.634 43.4422 121.656 43.4363 121.599 43.5223C121.535 43.6173 121.403 43.7807 121.185 43.9441L117.342 38.8198ZM115.503 41.5784L109.453 39.4741C108.748 41.5005 108.484 43.6538 108.484 45.7929H114.89H121.295C121.295 44.6625 121.44 44.0062 121.553 43.6827L115.503 41.5784ZM114.89 45.7929H108.484V56.2142H114.89H121.295V45.7929H114.89ZM114.89 56.2142V49.8088H89.4497V56.2142V62.6196H114.89V56.2142ZM89.4497 56.2142H95.8551V47.8618H89.4497H83.0443V56.2142H89.4497ZM89.4497 47.8618H95.8551C95.8551 42.4416 96.9296 37.9815 98.8713 34.2961L93.2044 31.3103L87.5375 28.3245C84.4729 34.1409 83.0443 40.7151 83.0443 47.8618H89.4497ZM93.2044 31.3103L98.8713 34.2961C100.789 30.6567 103.526 27.8509 107.211 25.7902L104.085 20.1994L100.959 14.6086C95.1432 17.8607 90.6262 22.4622 87.5375 28.3245L93.2044 31.3103ZM104.085 20.1994L107.257 25.7645C110.84 23.7224 115.439 22.5436 121.327 22.5436V16.1382V9.73275C113.728 9.73275 106.832 11.2614 100.914 14.6343L104.085 20.1994ZM121.327 16.1382V22.5436C127.342 22.5436 131.896 23.6756 135.304 25.5688L138.414 19.9695L141.525 14.3702C135.738 11.155 128.9 9.73275 121.327 9.73275V16.1382ZM138.414 19.9695L135.33 25.5833C138.907 27.5487 141.478 30.1879 143.222 33.5617L148.912 30.6207L154.603 27.6796C151.647 21.9604 147.219 17.4988 141.499 14.3557L138.414 19.9695ZM148.912 30.6207L143.248 33.6118C145.089 37.0971 146.108 41.3015 146.108 46.4059H152.514H158.919C158.919 39.5564 157.538 33.2373 154.576 27.6295L148.912 30.6207ZM152.514 46.4059H146.108V48.0151H152.514H158.919V46.4059H152.514ZM152.514 48.0151H146.108C146.108 52.1947 145.51 56.1102 144.34 59.7921L150.445 61.7313L156.55 63.6705C158.139 58.6681 158.919 53.4393 158.919 48.0151H152.514ZM150.445 61.7313L144.326 59.8373C143.174 63.5599 141.388 67.4818 138.904 71.6065L144.391 74.9112L149.878 78.2159C152.809 73.3496 155.06 68.485 156.564 63.6253L150.445 61.7313ZM144.391 74.9112L138.904 71.6065C136.365 75.8226 133.104 80.4806 129.088 85.5874L134.123 89.547L139.158 93.5065C143.418 88.0899 147.003 82.9907 149.878 78.2159L144.391 74.9112ZM134.123 89.547L129.037 85.6542L110.799 109.485L115.886 113.378L120.973 117.271L139.21 93.4398L134.123 89.547ZM115.886 113.378L121.845 115.727L127.976 100.171L122.016 97.8227L116.057 95.4742L109.927 111.03L115.886 113.378ZM122.016 97.8227H115.611V113.378H122.016H128.422V97.8227H122.016ZM122.016 113.378L126.894 109.227L120.764 102.024L115.886 106.175L111.008 110.327L117.138 117.529L122.016 113.378ZM115.886 106.175V112.58H152.82V106.175V99.7697H115.886V106.175ZM152.82 106.175H146.415V128.32H152.82H159.226V106.175H152.82ZM152.82 128.32V121.915H91.1355V128.32V134.726H152.82V128.32ZM157.099 116.52L151.675 119.926L151.698 119.963L151.721 119.999L157.099 116.52ZM155.337 82.0375L149.59 79.2083L149.572 79.2441L149.555 79.2802L155.337 82.0375ZM162.003 74.2215L158.472 68.8773L158.45 68.892L158.428 68.9068L162.003 74.2215ZM171.812 70.6967L172.606 77.0526L178.217 76.3513V70.6967H171.812ZM171.812 70.0837H178.217V64.6575L172.865 63.7654L171.812 70.0837ZM159.781 63.4937L154.918 67.6623L154.935 67.6822L154.952 67.7019L159.781 63.4937ZM159.168 28.5518L153.849 24.9832L153.833 25.0065L153.818 25.03L159.168 28.5518ZM170.509 19.3565L173.047 25.2376L173.062 25.2312L173.076 25.2249L170.509 19.3565ZM205.221 19.3565L202.631 25.2149L202.668 25.2313L202.705 25.2472L205.221 19.3565ZM215.872 63.4937L211.043 59.2855L211.026 59.3053L211.009 59.3252L215.872 63.4937ZM204.072 70.0837L202.997 63.7691L197.666 64.6764V70.0837H204.072ZM204.072 70.6967H197.666V76.3414L203.266 77.0512L204.072 70.6967ZM213.727 74.2215L210.151 79.5362L210.173 79.5511L210.196 79.5658L213.727 74.2215ZM220.393 82.0375L214.612 84.7949L214.629 84.8309L214.646 84.8667L220.393 82.0375ZM218.631 116.52L213.235 113.069L213.229 113.077L213.224 113.085L218.631 116.52ZM191.045 109.47L194.042 115.131L194.099 115.101L194.156 115.069L191.045 109.47ZM193.114 107.324L198.843 110.189L198.874 110.128L198.903 110.067L193.114 107.324ZM193.114 84.5662L187.325 87.3083L187.354 87.3698L187.385 87.4308L193.114 84.5662ZM191.045 82.344L187.565 87.7218L187.746 87.8388L187.934 87.9433L191.045 82.344ZM184.685 82.344L188.08 87.7758L188.122 87.7491L188.165 87.7218L184.685 82.344ZM182.693 84.4896L177.093 81.3788L177.026 81.5005L176.963 81.625L182.693 84.4896ZM182.693 107.324L176.963 110.189L177.026 110.314L177.093 110.435L182.693 107.324ZM184.762 109.47L181.514 114.991L181.638 115.064L181.765 115.131L184.762 109.47ZM190.739 61.3482L194.034 66.8408L194.084 66.8108L194.133 66.7799L190.739 61.3482ZM192.578 59.2792L198.373 62.0066L198.403 61.944L198.431 61.8807L192.578 59.2792ZM192.578 38.5899L186.724 41.1914L186.752 41.2547L186.782 41.3173L192.578 38.5899ZM190.739 36.521L187.443 42.0136L187.52 42.0598L187.598 42.1038L190.739 36.521ZM184.991 36.521L181.851 30.9382L181.773 30.9822L181.696 31.0284L184.991 36.521ZM183.152 38.5899L177.423 35.7253L177.389 35.7935L177.357 35.8625L183.152 38.5899ZM183.152 59.2792L177.299 61.8807L177.388 62.0818L177.491 62.2763L183.152 59.2792ZM184.991 61.3482L181.438 66.6778L181.64 66.8122L181.851 66.931L184.991 61.3482ZM187.903 129.929V123.524C181.247 123.524 175.916 122.474 171.715 120.621L169.13 126.481L166.544 132.342C172.765 135.086 179.95 136.335 187.903 136.335V129.929ZM169.13 126.481L171.715 120.621C167.527 118.773 164.54 116.228 162.477 113.04L157.099 116.52L151.721 119.999C155.278 125.496 160.311 129.592 166.544 132.342L169.13 126.481ZM157.099 116.52L162.524 113.114C160.515 109.914 159.367 105.882 159.367 100.735H152.961H146.556C146.556 107.848 148.167 114.339 151.675 119.926L157.099 116.52ZM152.961 100.735H159.367V94.2212H152.961H146.556V100.735H152.961ZM152.961 94.2212H159.367C159.367 90.0937 160.051 87.0331 161.118 84.7949L155.337 82.0375L149.555 79.2802C147.455 83.6829 146.556 88.7448 146.556 94.2212H152.961ZM155.337 82.0375L161.084 84.8667C162.271 82.4541 163.782 80.7446 165.579 79.5362L162.003 74.2215L158.428 68.9068C154.605 71.4787 151.672 74.9799 149.59 79.2083L155.337 82.0375ZM162.003 74.2215L165.534 79.5658C167.508 78.2621 169.825 77.4003 172.606 77.0526L171.812 70.6967L171.017 64.3407C166.442 64.9126 162.221 66.4007 158.472 68.8773L162.003 74.2215ZM171.812 70.6967H178.217V70.0837H171.812H165.406V70.6967H171.812ZM171.812 70.0837L172.865 63.7654C169.349 63.1795 166.701 61.6845 164.61 59.2855L159.781 63.4937L154.952 67.7019C159.094 72.4549 164.466 75.3531 170.759 76.4019L171.812 70.0837ZM159.781 63.4937L164.644 59.3252C162.887 57.2751 161.589 53.9438 161.589 48.4748H155.184H148.778C148.778 55.8792 150.545 62.5605 154.918 67.6623L159.781 63.4937ZM155.184 48.4748H161.589V43.2642H155.184H148.778V48.4748H155.184ZM155.184 43.2642H161.589C161.589 38.4959 162.675 34.8745 164.518 32.0735L159.168 28.5518L153.818 25.03C150.349 30.3004 148.778 36.4873 148.778 43.2642H155.184ZM159.168 28.5518L164.487 32.1204C166.449 29.1961 169.221 26.8889 173.047 25.2376L170.509 19.3565L167.971 13.4754C162.091 16.013 157.302 19.836 153.849 24.9832L159.168 28.5518ZM170.509 19.3565L173.076 25.2249C176.995 23.5103 181.881 22.5436 187.903 22.5436V16.1382V9.73275C180.542 9.73275 173.831 10.9116 167.942 13.4881L170.509 19.3565ZM187.903 16.1382V22.5436C193.929 22.5436 198.777 23.5111 202.631 25.2149L205.221 19.3565L207.811 13.4981C201.959 10.9107 195.262 9.73275 187.903 9.73275V16.1382ZM205.221 19.3565L202.705 25.2472C206.577 26.9008 209.318 29.1966 211.211 32.0735L216.562 28.5518L221.912 25.03C218.493 19.8355 213.673 16.0011 207.737 13.4658L205.221 19.3565ZM216.562 28.5518L211.211 32.0735C213.055 34.8745 214.141 38.4959 214.141 43.2642H220.546H226.952C226.952 36.4873 225.381 30.3004 221.912 25.03L216.562 28.5518ZM220.546 43.2642H214.141V48.4748H220.546H226.952V43.2642H220.546ZM220.546 48.4748H214.141C214.141 53.9202 212.829 57.236 211.043 59.2855L215.872 63.4937L220.701 67.7019C225.148 62.5996 226.952 55.9028 226.952 48.4748H220.546ZM215.872 63.4937L211.009 59.3252C208.953 61.7237 206.379 63.1934 202.997 63.7691L204.072 70.0837L205.146 76.3983C211.368 75.3392 216.661 72.4156 220.736 67.6623L215.872 63.4937ZM204.072 70.0837H197.666V70.6967H204.072H210.477V70.0837H204.072ZM204.072 70.6967L203.266 77.0512C205.982 77.3955 208.236 78.2478 210.151 79.5362L213.727 74.2215L217.302 68.9068C213.598 66.415 209.415 64.9174 204.877 64.3421L204.072 70.6967ZM213.727 74.2215L210.196 79.5658C212.014 80.7673 213.491 82.4456 214.612 84.7949L220.393 82.0375L226.175 79.2802C224.128 74.9884 221.161 71.4561 217.258 68.8773L213.727 74.2215ZM220.393 82.0375L214.646 84.8667C215.739 87.0853 216.44 90.119 216.44 94.2212H222.845H229.251C229.251 88.7195 228.317 83.6307 226.14 79.2083L220.393 82.0375ZM222.845 94.2212H216.44V100.735H222.845H229.251V94.2212H222.845ZM222.845 100.735H216.44C216.44 105.86 215.277 109.875 213.235 113.069L218.631 116.52L224.027 119.971C227.604 114.377 229.251 107.869 229.251 100.735H222.845ZM218.631 116.52L213.224 113.085C211.217 116.244 208.272 118.777 204.091 120.621L206.677 126.481L209.262 132.342C215.504 129.588 220.527 125.48 224.037 119.955L218.631 116.52ZM206.677 126.481L204.091 120.621C199.891 122.474 194.56 123.524 187.903 123.524V129.929V136.335C195.857 136.335 203.042 135.086 209.262 132.342L206.677 126.481ZM187.903 110.16V116.565C189.92 116.565 192.049 116.186 194.042 115.131L191.045 109.47L188.048 103.809C188.17 103.745 188.244 103.729 188.235 103.731C188.221 103.734 188.119 103.754 187.903 103.754V110.16ZM191.045 109.47L194.156 115.069C196.176 113.947 197.792 112.291 198.843 110.189L193.114 107.324L187.385 104.46C187.435 104.359 187.52 104.23 187.641 104.104C187.762 103.979 187.872 103.905 187.934 103.871L191.045 109.47ZM193.114 107.324L198.903 110.067C199.822 108.125 200.209 106.07 200.209 104.03H193.804H187.398C187.398 104.242 187.378 104.381 187.362 104.461C187.345 104.538 187.33 104.573 187.325 104.582L193.114 107.324ZM193.804 104.03H200.209V87.7845H193.804H187.398V104.03H193.804ZM193.804 87.7845H200.209C200.209 85.754 199.825 83.6661 198.843 81.7016L193.114 84.5662L187.385 87.4308C187.358 87.3763 187.359 87.3588 187.368 87.4026C187.378 87.4498 187.398 87.5708 187.398 87.7845H193.804ZM193.114 84.5662L198.903 81.8241C197.883 79.6721 196.27 77.9195 194.156 76.7447L191.045 82.344L187.934 87.9433C187.83 87.8855 187.695 87.7879 187.564 87.6475C187.434 87.508 187.359 87.3807 187.325 87.3083L193.114 84.5662ZM191.045 82.344L194.525 76.9662C192.44 75.6176 190.132 75.0957 187.903 75.0957V81.5011V87.9065C188.028 87.9065 188.031 87.9207 187.948 87.8985C187.858 87.8743 187.718 87.8209 187.565 87.7218L191.045 82.344ZM187.903 81.5011V75.0957C185.682 75.0957 183.33 75.5915 181.205 76.9662L184.685 82.344L188.165 87.7218C187.988 87.8364 187.838 87.8887 187.764 87.9083C187.697 87.9256 187.732 87.9065 187.903 87.9065V81.5011ZM184.685 82.344L181.29 76.9122C179.471 78.0493 178.081 79.6003 177.093 81.3788L182.693 84.4896L188.292 87.6003C188.316 87.5567 188.313 87.5737 188.268 87.6221C188.221 87.6726 188.156 87.7285 188.08 87.7758L184.685 82.344ZM182.693 84.4896L176.963 81.625C175.964 83.6233 175.598 85.7488 175.598 87.7845H182.003H188.408C188.408 87.266 188.501 87.1949 188.422 87.3542L182.693 84.4896ZM182.003 87.7845H175.598V104.03H182.003H188.408V87.7845H182.003ZM182.003 104.03H175.598C175.598 106.065 175.964 108.191 176.963 110.189L182.693 107.324L188.422 104.46C188.501 104.619 188.408 104.548 188.408 104.03H182.003ZM182.693 107.324L177.093 110.435C178.134 112.308 179.616 113.875 181.514 114.991L184.762 109.47L188.009 103.949C188.069 103.984 188.14 104.037 188.204 104.104C188.267 104.17 188.293 104.216 188.292 104.214L182.693 107.324ZM184.762 109.47L181.765 115.131C183.757 116.186 185.887 116.565 187.903 116.565V110.16V103.754C187.688 103.754 187.585 103.734 187.572 103.731C187.563 103.729 187.637 103.745 187.759 103.809L184.762 109.47ZM187.903 62.0378V68.4432C189.892 68.4432 192.046 68.0337 194.034 66.8408L190.739 61.3482L187.443 55.8556C187.66 55.7253 187.841 55.6657 187.941 55.6415C188.034 55.6189 188.032 55.6324 187.903 55.6324V62.0378ZM190.739 61.3482L194.133 66.7799C195.989 65.6199 197.438 63.9934 198.373 62.0066L192.578 59.2792L186.782 56.5518C186.828 56.4535 186.907 56.3241 187.024 56.1923C187.141 56.0606 187.258 55.9702 187.344 55.9164L190.739 61.3482ZM192.578 59.2792L198.431 61.8807C199.274 59.9838 199.596 57.9918 199.596 56.0609H193.191H186.785C186.785 56.5821 186.698 56.7357 186.724 56.6778L192.578 59.2792ZM193.191 56.0609H199.596V41.7316H193.191H186.785V56.0609H193.191ZM193.191 41.7316H199.596C199.596 39.8154 199.279 37.7865 198.373 35.8625L192.578 38.5899L186.782 41.3173C186.694 41.1302 186.785 41.1958 186.785 41.7316H193.191ZM192.578 38.5899L198.431 35.9884C197.506 33.9067 195.988 32.1244 193.879 30.9382L190.739 36.521L187.598 42.1038C187.398 41.9914 187.197 41.8331 187.024 41.6386C186.854 41.4477 186.764 41.2803 186.724 41.1914L192.578 38.5899ZM190.739 36.521L194.034 31.0284C192.046 29.8355 189.892 29.4259 187.903 29.4259V35.8313V42.2367C188.032 42.2367 188.034 42.2502 187.941 42.2277C187.841 42.2034 187.66 42.1439 187.443 42.0136L190.739 36.521ZM187.903 35.8313V29.4259C185.897 29.4259 183.801 29.8414 181.851 30.9382L184.991 36.521L188.132 42.1038C187.987 42.1854 187.869 42.2225 187.809 42.2367C187.754 42.2497 187.777 42.2367 187.903 42.2367V35.8313ZM184.991 36.521L181.696 31.0284C179.735 32.2049 178.344 33.8839 177.423 35.7253L183.152 38.5899L188.882 41.4545C188.888 41.4412 188.851 41.5183 188.744 41.6386C188.633 41.7634 188.479 41.8983 188.287 42.0136L184.991 36.521ZM183.152 38.5899L177.357 35.8625C176.451 37.7865 176.134 39.8154 176.134 41.7316H182.539H188.945C188.945 41.1958 189.036 41.1302 188.948 41.3173L183.152 38.5899ZM182.539 41.7316H176.134V56.0609H182.539H188.945V41.7316H182.539ZM182.539 56.0609H176.134C176.134 57.9918 176.456 59.9838 177.299 61.8807L183.152 59.2792L189.006 56.6778C189.031 56.7357 188.945 56.5821 188.945 56.0609H182.539ZM183.152 59.2792L177.491 62.2763C178.415 64.0204 179.727 65.5372 181.438 66.6778L184.991 61.3482L188.545 56.0186C188.618 56.0675 188.688 56.1286 188.744 56.1923C188.8 56.2545 188.819 56.2928 188.813 56.2822L183.152 59.2792ZM184.991 61.3482L181.851 66.931C183.801 68.0277 185.897 68.4432 187.903 68.4432V62.0378V55.6324C187.777 55.6324 187.754 55.6194 187.809 55.6324C187.869 55.6467 187.987 55.6838 188.132 55.7654L184.991 61.3482ZM228.35 109.164L223.739 113.61L223.759 113.631L223.78 113.651L228.35 109.164ZM228.35 88.5508L232.921 93.0384L232.941 93.0178L232.961 92.997L228.35 88.5508ZM248.426 88.5508L243.774 92.9538L243.815 92.9965L243.856 93.0384L248.426 88.5508ZM248.426 109.164L243.816 104.717L243.814 104.719L248.426 109.164ZM228.35 57.5934L223.739 62.0397L223.759 62.0604L223.78 62.081L228.35 57.5934ZM248.426 36.9041L243.814 41.3488L243.835 41.3703L243.856 41.3917L248.426 36.9041ZM248.426 57.5934L243.816 53.1472L243.814 53.1488L248.426 57.5934ZM238.388 113.378V106.973C236.176 106.973 234.476 106.26 232.921 104.676L228.35 109.164L223.78 113.651C227.741 117.686 232.734 119.783 238.388 119.783V113.378ZM228.35 109.164L232.961 104.717C231.373 103.071 230.618 101.225 230.618 98.8189H224.212H217.807C217.807 104.484 219.81 109.535 223.739 113.61L228.35 109.164ZM224.212 98.8189H230.618C230.618 96.4149 231.371 94.6174 232.921 93.0384L228.35 88.5508L223.78 84.0633C219.813 88.1036 217.807 93.1514 217.807 98.8189H224.212ZM228.35 88.5508L232.961 92.997C234.526 91.3736 236.214 90.6651 238.388 90.6651V84.2597V77.8543C232.695 77.8543 227.691 80.0065 223.739 84.1046L228.35 88.5508ZM238.388 84.2597V90.6651C240.636 90.6651 242.292 91.3881 243.774 92.9538L248.426 88.5508L253.079 84.1478C249.146 79.9921 244.11 77.8543 238.388 77.8543V84.2597ZM248.426 88.5508L243.856 93.0384C245.406 94.6174 246.159 96.4149 246.159 98.8189H252.564H258.97C258.97 93.1514 256.964 88.1036 252.997 84.0633L248.426 88.5508ZM252.564 98.8189H246.159C246.159 101.225 245.403 103.071 243.816 104.717L248.426 109.164L253.037 113.61C256.967 109.535 258.97 104.484 258.97 98.8189H252.564ZM248.426 109.164L243.814 104.719C242.343 106.246 240.675 106.973 238.388 106.973V113.378V119.783C244.071 119.783 249.095 117.7 253.039 113.608L248.426 109.164ZM238.388 61.8079V55.4025C236.176 55.4025 234.476 54.6902 232.921 53.1059L228.35 57.5934L223.78 62.081C227.741 66.116 232.734 68.2133 238.388 68.2133V61.8079ZM228.35 57.5934L232.961 53.1472C231.373 51.5008 230.618 49.6547 230.618 47.2488H224.212H217.807C217.807 52.9143 219.81 57.9646 223.739 62.0397L228.35 57.5934ZM224.212 47.2488H230.618C230.618 44.7696 231.387 42.954 232.921 41.3917L228.35 36.9041L223.78 32.4166C219.796 36.4735 217.807 41.5544 217.807 47.2488H224.212ZM228.35 36.9041L232.921 41.3917C234.476 39.8074 236.176 39.095 238.388 39.095V32.6896V26.2842C232.734 26.2842 227.741 28.3815 223.78 32.4166L228.35 36.9041ZM238.388 32.6896V39.095C240.675 39.095 242.343 39.8217 243.814 41.3488L248.426 36.9041L253.039 32.4594C249.095 28.3672 244.071 26.2842 238.388 26.2842V32.6896ZM248.426 36.9041L243.856 41.3917C245.39 42.954 246.159 44.7696 246.159 47.2488H252.564H258.97C258.97 41.5544 256.98 36.4735 252.997 32.4166L248.426 36.9041ZM252.564 47.2488H246.159C246.159 49.6547 245.403 51.5008 243.816 53.1472L248.426 57.5934L253.037 62.0397C256.967 57.9646 258.97 52.9143 258.97 47.2488H252.564ZM248.426 57.5934L243.814 53.1488C242.343 54.6759 240.675 55.4025 238.388 55.4025V61.8079V68.2133C244.071 68.2133 249.095 66.1303 253.039 62.0381L248.426 57.5934ZM269.104 126.251L266.215 131.969L266.251 131.986L266.286 132.004L269.104 126.251ZM253.472 98.8189H247.066V98.8441L247.066 98.8693L253.472 98.8189ZM253.472 91.9224V85.517H247.066V91.9224H253.472ZM279.908 91.9224H286.313V85.517H279.908V91.9224ZM282.82 106.558L279.48 112.024L279.593 112.093L279.709 112.158L282.82 106.558ZM289.563 106.558L292.674 112.158L292.79 112.093L292.903 112.024L289.563 106.558ZM291.632 104.259L285.903 101.395L285.872 101.456L285.843 101.517L291.632 104.259ZM290.483 83.1869L285.953 87.7162L285.999 87.7624L286.047 87.8077L290.483 83.1869ZM276.383 81.3479H269.978V87.7533H276.383V81.3479ZM276.383 61.8079V55.4025H269.978V61.8079H276.383ZM288.49 61.0417L285.736 55.2585L285.681 55.285L285.626 55.3125L288.49 61.0417ZM290.866 58.8195L285.253 55.7326L285.225 55.7841L285.197 55.8362L290.866 58.8195ZM291.019 40.3523L285.23 43.0944L285.259 43.156L285.29 43.2169L291.019 40.3523ZM280.598 40.3523L274.929 37.369L274.867 37.4884L274.809 37.6103L280.598 40.3523ZM279.908 53.379V59.7844H286.313V53.379H279.908ZM255.311 53.379H248.905V59.7844H255.311V53.379ZM255.311 44.95L248.906 44.8943L248.905 44.9221V44.95H255.311ZM259.142 29.7012L264.675 32.9287L264.683 32.9145L264.691 32.9002L259.142 29.7012ZM269.87 19.663L267.005 13.9338L266.993 13.9401L266.98 13.9465L269.87 19.663ZM303.356 19.5097L300.543 25.2643L300.569 25.2769L300.595 25.2894L303.356 19.5097ZM313.854 29.0881L308.297 32.2734L308.311 32.2988L308.326 32.324L313.854 29.0881ZM315.693 59.0494L309.76 56.6358L309.742 56.6792L309.725 56.7229L315.693 59.0494ZM301.287 70.4668L300.048 64.1824L294.882 65.2011V70.4668H301.287ZM301.287 71.0798H294.882V76.7868L300.551 77.4428L301.287 71.0798ZM315.463 78.0529L310.537 82.1472L310.553 82.166L310.568 82.1847L315.463 78.0529ZM316.383 115.6L310.847 112.376L310.842 112.386L310.836 112.396L316.383 115.6ZM304.888 126.251L307.729 131.992L307.741 131.986L307.753 131.981L304.888 126.251ZM287.034 129.929V123.524C280.829 123.524 275.861 122.429 271.921 120.499L269.104 126.251L266.286 132.004C272.358 134.978 279.345 136.335 287.034 136.335V129.929ZM269.104 126.251L271.992 120.534C268.104 118.57 265.208 115.844 263.145 112.3L257.61 115.524L252.074 118.747C255.426 124.501 260.193 128.926 266.215 131.969L269.104 126.251ZM257.61 115.524L263.145 112.3C261.104 108.796 259.921 104.37 259.877 98.7684L253.472 98.8189L247.066 98.8693C247.124 106.243 248.7 112.954 252.074 118.747L257.61 115.524ZM253.472 98.8189H259.877V91.9224H253.472H247.066V98.8189H253.472ZM253.472 91.9224V98.3278H279.908V91.9224V85.517H253.472V91.9224ZM279.908 91.9224H273.503V100.658H279.908H286.313V91.9224H279.908ZM279.908 100.658H273.503C273.503 102.819 273.922 105.002 274.945 107.047L280.674 104.183L286.403 101.318C286.399 101.309 286.379 101.268 286.359 101.175C286.338 101.078 286.313 100.912 286.313 100.658H279.908ZM280.674 104.183L274.945 107.047C275.959 109.075 277.473 110.798 279.48 112.024L282.82 106.558L286.16 101.093C286.22 101.129 286.288 101.184 286.347 101.249C286.404 101.313 286.418 101.347 286.403 101.318L280.674 104.183ZM282.82 106.558L279.709 112.158C281.764 113.299 283.981 113.73 286.115 113.73V107.324V100.919C285.901 100.919 285.8 100.898 285.784 100.894C285.774 100.892 285.833 100.905 285.931 100.959L282.82 106.558ZM286.115 107.324V113.73C288.254 113.73 290.552 113.336 292.674 112.158L289.563 106.558L286.452 100.959C286.592 100.881 286.665 100.87 286.622 100.88C286.573 100.891 286.414 100.919 286.115 100.919V107.324ZM289.563 106.558L292.903 112.024C294.883 110.814 296.425 109.103 297.421 107.001L291.632 104.259L285.843 101.517C285.868 101.465 285.921 101.375 286.009 101.277C286.097 101.18 286.179 101.12 286.223 101.093L289.563 106.558ZM291.632 104.259L297.361 107.124C298.429 104.989 298.804 102.696 298.804 100.505H292.398H285.993C285.993 101.277 285.857 101.486 285.903 101.395L291.632 104.259ZM292.398 100.505H298.804V88.3976H292.398H285.993V100.505H292.398ZM292.398 88.3976H298.804C298.804 84.903 297.772 81.3059 294.918 78.5661L290.483 83.1869L286.047 87.8077C286.01 87.7722 285.972 87.7274 285.942 87.68C285.912 87.6336 285.903 87.6081 285.907 87.6194C285.917 87.6463 285.993 87.871 285.993 88.3976H292.398ZM290.483 83.1869L295.012 78.6576C292.161 75.8067 288.405 74.9425 284.965 74.9425V81.3479V87.7533C285.677 87.7533 286.038 87.8444 286.158 87.8843C286.247 87.9139 286.123 87.8857 285.953 87.7162L290.483 83.1869ZM284.965 81.3479V74.9425H276.383V81.3479V87.7533H284.965V81.3479ZM276.383 81.3479H282.789V61.8079H276.383H269.978V81.3479H276.383ZM276.383 61.8079V68.2133H284.582V61.8079V55.4025H276.383V61.8079ZM284.582 61.8079V68.2133C286.798 68.2133 289.168 67.8642 291.355 66.7708L288.49 61.0417L285.626 55.3125C285.707 55.2719 285.689 55.2965 285.514 55.3307C285.338 55.3653 285.037 55.4025 284.582 55.4025V61.8079ZM288.49 61.0417L291.244 66.8249C293.455 65.7721 295.325 64.1005 296.534 61.8028L290.866 58.8195L285.197 55.8362C285.271 55.696 285.38 55.5493 285.513 55.4253C285.575 55.3675 285.63 55.3254 285.672 55.297C285.714 55.269 285.738 55.2578 285.736 55.2585L288.49 61.0417ZM290.866 58.8195L296.478 61.9064C297.648 59.7797 298.114 57.479 298.114 55.218H291.709H285.303C285.303 55.4734 285.277 55.624 285.261 55.6931C285.246 55.7577 285.237 55.7617 285.253 55.7326L290.866 58.8195ZM291.709 55.218H298.114V43.8006H291.709H285.303V55.218H291.709ZM291.709 43.8006H298.114C298.114 41.7509 297.778 39.5472 296.748 37.4878L291.019 40.3523L285.29 43.2169C285.232 43.1021 285.237 43.0673 285.255 43.1602C285.274 43.2564 285.303 43.4609 285.303 43.8006H291.709ZM291.019 40.3523L296.808 37.6103C295.859 35.6068 294.414 33.9101 292.506 32.6757L289.027 38.0535L285.547 43.4313C285.484 43.3908 285.407 43.3272 285.336 43.2448C285.265 43.1636 285.234 43.1032 285.23 43.0944L291.019 40.3523ZM289.027 38.0535L292.506 32.6757C290.422 31.3271 288.113 30.8052 285.885 30.8052V37.2106V43.616C286.009 43.616 286.013 43.6302 285.93 43.608C285.84 43.5838 285.7 43.5304 285.547 43.4313L289.027 38.0535ZM285.885 37.2106V30.8052C283.664 30.8052 281.311 31.301 279.187 32.6757L282.667 38.0535L286.146 43.4313C285.969 43.5459 285.82 43.5982 285.745 43.6178C285.679 43.6351 285.713 43.616 285.885 43.616V37.2106ZM282.667 38.0535L279.187 32.6757C277.34 33.8711 275.92 35.4865 274.929 37.369L280.598 40.3523L286.266 43.3356C286.29 43.2902 286.291 43.2988 286.259 43.3347C286.244 43.3513 286.226 43.3696 286.204 43.3879C286.183 43.4061 286.163 43.4207 286.146 43.4313L282.667 38.0535ZM280.598 40.3523L274.809 37.6103C273.859 39.6162 273.503 41.7432 273.503 43.8006H279.908H286.313C286.313 43.2015 286.417 43.0297 286.386 43.0944L280.598 40.3523ZM279.908 43.8006H273.503V53.379H279.908H286.313V43.8006H279.908ZM279.908 53.379V46.9735H255.311V53.379V59.7844H279.908V53.379ZM255.311 53.379H261.716V44.95H255.311H248.905V53.379H255.311ZM255.311 44.95L261.716 45.0057C261.759 40.0415 262.828 36.0939 264.675 32.9287L259.142 29.7012L253.609 26.4737C250.449 31.8906 248.965 38.1089 248.906 44.8943L255.311 44.95ZM259.142 29.7012L264.691 32.9002C266.547 29.6821 269.177 27.1903 272.76 25.3796L269.87 19.663L266.98 13.9465C261.265 16.8355 256.744 21.0359 253.593 26.5021L259.142 29.7012ZM269.87 19.663L272.734 25.3922C276.354 23.5824 280.946 22.5436 286.728 22.5436V16.1382V9.73275C279.432 9.73275 272.785 11.0439 267.005 13.9338L269.87 19.663ZM286.728 16.1382V22.5436C292.494 22.5436 297.023 23.5437 300.543 25.2643L303.356 19.5097L306.169 13.7552C300.493 10.9803 293.937 9.73275 286.728 9.73275V16.1382ZM303.356 19.5097L300.595 25.2894C304.087 26.958 306.579 29.2774 308.297 32.2734L313.854 29.0881L319.411 25.9029C316.326 20.521 311.82 16.4548 306.117 13.7301L303.356 19.5097ZM313.854 29.0881L308.326 32.324C310.094 35.3438 311.127 39.2072 311.127 44.1837H317.532H323.937C323.937 37.4107 322.518 31.2104 319.382 25.8523L313.854 29.0881ZM317.532 44.1837H311.127V48.7047H317.532H323.937V44.1837H317.532ZM317.532 48.7047H311.127C311.127 51.9162 310.62 54.521 309.76 56.6358L315.693 59.0494L321.626 61.4629C323.218 57.5497 323.937 53.2581 323.937 48.7047H317.532ZM315.693 59.0494L309.725 56.7229C308.935 58.7498 307.794 60.2948 306.302 61.5012L310.329 66.4822L314.356 71.4632C317.666 68.7871 320.101 65.377 321.661 61.3759L315.693 59.0494ZM310.329 66.4822L306.302 61.5012C304.856 62.6704 302.854 63.6291 300.048 64.1824L301.287 70.4668L302.526 76.7512C306.974 75.8741 311 74.1764 314.356 71.4632L310.329 66.4822ZM301.287 70.4668H294.882V71.0798H301.287H307.692V70.4668H301.287ZM301.287 71.0798L300.551 77.4428C305.471 78.012 308.539 79.7438 310.537 82.1472L315.463 78.0529L320.389 73.9586C315.848 68.495 309.466 65.578 302.023 64.7169L301.287 71.0798ZM315.463 78.0529L310.568 82.1847C312.659 84.6614 314.038 88.3388 314.038 93.9147H320.444H326.849C326.849 86.2086 324.908 79.3115 320.358 73.9211L315.463 78.0529ZM320.444 93.9147H314.038V98.9721H320.444H326.849V93.9147H320.444ZM320.444 98.9721H314.038C314.038 104.499 312.882 108.883 310.847 112.376L316.383 115.6L321.918 118.824C325.298 113.02 326.849 106.318 326.849 98.9721H320.444ZM316.383 115.6L310.836 112.396C308.842 115.847 305.972 118.548 302.024 120.522L304.888 126.251L307.753 131.981C313.817 128.948 318.61 124.549 321.929 118.805L316.383 115.6ZM304.888 126.251L302.048 120.51C298.173 122.428 293.243 123.524 287.034 123.524V129.929V136.335C294.721 136.335 301.694 134.979 307.729 131.992L304.888 126.251ZM320.968 128.32H314.562V134.726H320.968V128.32ZM320.968 108.704L315.807 104.91L314.562 106.603V108.704H320.968ZM341.81 80.3517L336.68 76.5171L336.665 76.5374L336.65 76.5577L341.81 80.3517ZM350.239 67.8615L344.698 64.649L344.69 64.6618L344.683 64.6747L350.239 67.8615ZM355.144 41.5017L349.067 43.5273L349.08 43.5668L349.094 43.6061L355.144 41.5017ZM353.228 38.7432L349.385 43.8675L349.459 43.9229L349.534 43.9762L353.228 38.7432ZM347.174 38.8198L351.018 43.9441L351.117 43.8695L351.214 43.7911L347.174 38.8198ZM345.335 41.5784L351.385 43.6827L351.399 43.6434L351.412 43.6039L345.335 41.5784ZM344.722 56.2142V62.6196H351.128V56.2142H344.722ZM319.282 56.2142H312.877V62.6196H319.282V56.2142ZM333.918 20.1994L337.044 25.7902L337.067 25.7775L337.089 25.7645L333.918 20.1994ZM368.247 19.9695L365.136 25.5688L365.149 25.5761L365.162 25.5833L368.247 19.9695ZM378.745 30.6207L373.054 33.5617L373.067 33.5868L373.081 33.6118L378.745 30.6207ZM380.277 61.7313L374.172 59.7921L374.165 59.8147L374.158 59.8373L380.277 61.7313ZM363.956 89.547L358.921 85.5874L358.895 85.6206L358.869 85.6542L363.956 89.547ZM345.718 113.378L339.759 111.03L350.805 117.271L345.718 113.378ZM351.849 97.8227H358.254L345.889 95.4742L351.849 97.8227ZM351.849 113.378L346.971 117.529L358.254 130.787V113.378H351.849ZM345.718 106.175V99.7697H331.856L340.84 110.327L345.718 106.175ZM382.653 106.175H389.058V99.7697H382.653V106.175ZM382.653 128.32V134.726H389.058V128.32H382.653ZM320.968 128.32H327.373V108.704H320.968H314.562V128.32H320.968ZM320.968 108.704L326.129 112.498L346.971 84.1457L341.81 80.3517L336.65 76.5577L315.807 104.91L320.968 108.704ZM341.81 80.3517L346.941 84.1863C350.653 79.2196 353.628 74.8288 355.796 71.0483L350.239 67.8615L344.683 64.6747C342.867 67.8417 340.222 71.7778 336.68 76.5171L341.81 80.3517ZM350.239 67.8615L355.781 71.074C358.016 67.219 359.704 63.4634 360.705 59.8332L354.531 58.1298L348.356 56.4265C347.723 58.7221 346.55 61.4543 344.698 64.649L350.239 67.8615ZM354.531 58.1298L360.705 59.8332C361.688 56.2728 362.162 52.5548 362.162 48.7047H355.757H349.351C349.351 51.4956 349.008 54.061 348.356 56.4265L354.531 58.1298ZM355.757 48.7047H362.162V45.7162H355.757H349.351V48.7047H355.757ZM355.757 45.7162H362.162C362.162 43.5772 361.898 41.4238 361.193 39.3974L355.144 41.5017L349.094 43.6061C349.206 43.9296 349.351 44.5859 349.351 45.7162H355.757ZM355.144 41.5017L361.22 39.4762C360.475 37.24 359.129 35.0685 356.922 33.5102L353.228 38.7432L349.534 43.9762C349.326 43.8291 349.181 43.6674 349.097 43.5462C349.019 43.4346 349.026 43.4058 349.067 43.5273L355.144 41.5017ZM353.228 38.7432L357.071 33.6188C354.983 32.0531 352.584 31.4182 350.239 31.4182V37.8236V44.229C350.268 44.229 350.168 44.2324 349.984 44.1757C349.791 44.1162 349.579 44.013 349.385 43.8675L353.228 38.7432ZM350.239 37.8236V31.4182C347.796 31.4182 345.276 32.1086 343.135 33.8485L347.174 38.8198L351.214 43.7911C350.998 43.9662 350.757 44.0919 350.533 44.1644C350.322 44.2332 350.205 44.229 350.239 44.229V37.8236ZM347.174 38.8198L343.331 33.6955C341.225 35.2748 339.97 37.4188 339.259 39.5528L345.335 41.5784L351.412 43.6039C351.466 43.4422 351.489 43.4363 351.431 43.5223C351.368 43.6173 351.236 43.7807 351.018 43.9441L347.174 38.8198ZM345.335 41.5784L339.285 39.4741C338.581 41.5005 338.317 43.6538 338.317 45.7929H344.722H351.128C351.128 44.6625 351.273 44.0062 351.385 43.6827L345.335 41.5784ZM344.722 45.7929H338.317V56.2142H344.722H351.128V45.7929H344.722ZM344.722 56.2142V49.8088H319.282V56.2142V62.6196H344.722V56.2142ZM319.282 56.2142H325.688V47.8618H319.282H312.877V56.2142H319.282ZM319.282 47.8618H325.688C325.688 42.4416 326.762 37.9815 328.704 34.2961L323.037 31.3103L317.37 28.3245C314.305 34.1409 312.877 40.7151 312.877 47.8618H319.282ZM323.037 31.3103L328.704 34.2961C330.621 30.6567 333.358 27.8509 337.044 25.7902L333.918 20.1994L330.792 14.6086C324.976 17.8607 320.459 22.4622 317.37 28.3245L323.037 31.3103ZM333.918 20.1994L337.089 25.7645C340.673 23.7224 345.271 22.5436 351.159 22.5436V16.1382V9.73275C343.561 9.73275 336.665 11.2614 330.746 14.6343L333.918 20.1994ZM351.159 16.1382V22.5436C357.174 22.5436 361.728 23.6756 365.136 25.5688L368.247 19.9695L371.358 14.3702C365.57 11.155 358.732 9.73275 351.159 9.73275V16.1382ZM368.247 19.9695L365.162 25.5833C368.739 27.5487 371.311 30.1879 373.054 33.5617L378.745 30.6207L384.435 27.6796C381.479 21.9604 377.052 17.4988 371.331 14.3557L368.247 19.9695ZM378.745 30.6207L373.081 33.6118C374.921 37.0971 375.941 41.3015 375.941 46.4059H382.346H388.752C388.752 39.5564 387.37 33.2373 384.409 27.6295L378.745 30.6207ZM382.346 46.4059H375.941V48.0151H382.346H388.752V46.4059H382.346ZM382.346 48.0151H375.941C375.941 52.1947 375.342 56.1102 374.172 59.7921L380.277 61.7313L386.382 63.6705C387.971 58.6681 388.752 53.4393 388.752 48.0151H382.346ZM380.277 61.7313L374.158 59.8373C373.006 63.5599 371.221 67.4818 368.737 71.6065L374.224 74.9112L379.711 78.2159C382.642 73.3496 384.892 68.485 386.396 63.6253L380.277 61.7313ZM374.224 74.9112L368.737 71.6065C366.197 75.8226 362.937 80.4806 358.921 85.5874L363.956 89.547L368.991 93.5065C373.25 88.0899 376.835 82.9907 379.711 78.2159L374.224 74.9112ZM363.956 89.547L358.869 85.6542L340.632 109.485L345.718 113.378L350.805 117.271L369.043 93.4398L363.956 89.547ZM345.718 113.378L351.678 115.727L357.808 100.171L351.849 97.8227L345.889 95.4742L339.759 111.03L345.718 113.378ZM351.849 97.8227H345.443V113.378H351.849H358.254V97.8227H351.849ZM351.849 113.378L356.727 109.227L350.596 102.024L345.718 106.175L340.84 110.327L346.971 117.529L351.849 113.378ZM345.718 106.175V112.58H382.653V106.175V99.7697H345.718V106.175ZM382.653 106.175H376.247V128.32H382.653H389.058V106.175H382.653ZM382.653 128.32V121.915H320.968V128.32V134.726H382.653V128.32Z" fill="#BCBCBC" mask="url(#path-48-outside-1_172_1124)"/>
</g>
<path opacity="0.8" d="M109.531 208.787L101.048 208.787L101.048 205.859L109.531 205.859L109.531 197.321L112.496 197.321L112.496 205.859L120.996 205.859L120.996 208.787L112.496 208.787L112.496 217.325L109.531 217.325L109.531 208.787ZM99.0029 239.579L99.0029 220.7L101.912 220.7L101.912 228.694L122.329 228.694L122.329 228.394L117.318 220.644L120.846 220.644L126.082 228.713L126.082 231.96L101.912 231.96L101.912 239.579L99.0029 239.579ZM118.463 242.747C123.23 242.747 126.645 246.275 126.645 251.21C126.645 256.183 123.567 259.599 119.045 259.599C116.23 259.599 113.978 258.323 109.268 254.006L102.324 247.626L102.005 247.626L102.005 260.03L99.0029 260.03L99.0029 242.897L101.292 242.897L111.482 252.055C115.329 255.489 116.774 256.315 118.913 256.315C121.822 256.315 123.736 254.269 123.736 251.117C123.736 248.001 121.653 245.937 118.463 245.937L118.351 245.937L118.351 242.747L118.463 242.747ZM114.729 273.426C114.729 270.011 117.281 267.459 120.696 267.459C124.112 267.459 126.664 270.011 126.664 273.426C126.664 276.842 124.112 279.394 120.696 279.394C117.281 279.394 114.729 276.842 114.729 273.426ZM117.018 273.426C117.018 275.528 118.576 277.067 120.696 277.067C122.817 277.067 124.374 275.528 124.374 273.426C124.374 271.324 122.817 269.786 120.696 269.786C118.576 269.786 117.018 271.324 117.018 273.426Z" fill="#E4E4E4"/>
<rect x="169.743" y="347.619" width="134.514" height="33.5033" fill="#8626FF"/>
<rect x="343.521" y="296.25" width="111.982" height="33.5033" transform="rotate(-90 343.521 296.25)" fill="#8626FF"/>
<path opacity="0.8" d="M174.861 368.697V379.094H171.915V352.015H175.612L181.56 368.829H181.804L187.716 352.015H191.431V379.094H188.485V368.697L188.654 357.738H188.41L182.968 372.732H180.378L174.936 357.738H174.692L174.861 368.697ZM213.628 367.74C213.628 375.228 209.856 379.657 203.701 379.657C197.546 379.657 193.774 375.228 193.774 367.74V363.368C193.774 355.88 197.546 351.452 203.701 351.452C209.856 351.452 213.628 355.88 213.628 363.368V367.74ZM203.701 376.523C207.811 376.523 210.288 373.37 210.288 367.722V363.387C210.288 357.738 207.811 354.586 203.701 354.586C199.591 354.586 197.114 357.738 197.114 363.387V367.722C197.114 373.37 199.591 376.523 203.701 376.523ZM219.705 379.094H216.722V352.015H219.893L231.49 373.089H231.753V352.015H234.737V379.094H231.603L219.968 357.963H219.705V379.094ZM238.881 352.015H246.462C254.138 352.015 258.003 356.537 258.003 365.507C258.003 374.552 254.138 379.094 246.462 379.094H238.881V352.015ZM242.203 355.055V376.054H246.162C251.904 376.054 254.626 372.695 254.626 365.526C254.626 358.433 251.886 355.055 246.162 355.055H242.203ZM276.785 379.094L274.439 371.325H265.019L262.654 379.094H259.295L268.021 352.015H271.549L280.275 379.094H276.785ZM269.691 355.993L265.882 368.491H273.576L269.785 355.993H269.691ZM293.465 379.094H290.162V367.928L281.136 352.015H284.832L291.682 364.4H291.945L298.794 352.015H302.491L293.465 367.928V379.094Z" fill="#E4E4E4"/>
<path opacity="0.8" d="M355.537 292.938C350.77 292.938 347.355 289.41 347.355 284.475C347.355 279.502 350.433 276.087 354.955 276.087C357.77 276.087 360.022 277.363 364.732 281.679L371.676 288.059L371.995 288.059L371.995 275.655L374.997 275.655L374.997 292.788L372.708 292.788L362.518 283.631C358.671 280.196 357.226 279.371 355.087 279.371C352.178 279.371 350.264 281.416 350.264 284.569C350.264 287.684 352.347 289.748 355.537 289.748L355.649 289.748L355.649 292.938L355.537 292.938ZM375.598 262.184C375.598 267.814 372.37 271.736 367.753 271.736C364.394 271.736 361.655 269.559 360.848 266.219L360.547 266.219C359.797 268.94 357.47 270.648 354.524 270.648C350.301 270.648 347.317 267.12 347.317 262.184C347.317 257.249 350.301 253.74 354.524 253.74C357.47 253.74 359.778 255.41 360.547 258.168L360.848 258.168C361.542 254.884 364.338 252.651 367.753 252.651C372.37 252.651 375.598 256.555 375.598 262.184ZM359.421 262.184C359.421 259.05 357.582 256.986 354.805 256.986C352.046 256.986 350.207 259.05 350.207 262.184C350.207 265.318 352.046 267.401 354.805 267.401C357.582 267.401 359.421 265.318 359.421 262.184ZM372.726 262.184C372.726 258.506 370.587 255.973 367.491 255.973C364.394 255.973 362.255 258.506 362.255 262.184C362.255 265.862 364.394 268.396 367.491 268.396C370.587 268.396 372.726 265.862 372.726 262.184ZM367.791 249.52L367.791 246.293C370.756 245.955 372.558 243.572 372.558 239.969C372.558 236.365 370.681 234.001 367.772 234.001C365.426 234.001 364.019 235.577 363.118 239.237L362.537 241.564C361.26 246.593 358.877 248.864 354.955 248.864C350.339 248.864 347.355 245.392 347.355 239.987C347.355 234.883 350.301 231.374 354.805 231.149L354.805 234.376C352.009 234.714 350.358 236.778 350.358 239.969C350.358 243.44 352.009 245.523 354.767 245.523C357.113 245.523 358.464 244.022 359.346 240.494L359.947 238.129C361.242 232.875 363.531 230.661 367.603 230.661C372.464 230.661 375.56 234.32 375.56 239.987C375.56 245.579 372.595 249.239 367.791 249.52ZM371.957 209.796L374.997 209.796L374.997 225.785L347.918 225.785L347.918 209.796L350.958 209.796L350.958 222.463L359.74 222.463L359.74 210.49L362.649 210.49L362.649 222.463L371.957 222.463L371.957 209.796ZM347.918 204.357L347.918 195.349C347.918 190.095 351.352 186.661 356.607 186.661C361.842 186.661 365.276 190.132 365.276 195.424L365.276 201.035L374.997 201.035L374.997 204.357L347.918 204.357ZM350.864 201.035L362.33 201.035L362.33 196.175C362.33 192.234 360.285 190.02 356.607 190.02C352.91 190.02 350.864 192.234 350.864 196.175L350.864 201.035Z" fill="#E4E4E4"/>
<g filter="url(#filter3_i_172_1124)">
<circle cx="44.9504" cy="59.5566" r="10.6152" fill="#FF63B7"/>
</g>
<circle cx="44.9504" cy="59.5566" r="11.576" stroke="#F951AC" stroke-width="1.92162"/>
<g filter="url(#filter4_i_172_1124)">
<circle cx="429.274" cy="59.5566" r="10.6152" fill="#FF63B7"/>
</g>
<circle cx="429.274" cy="59.5566" r="11.576" stroke="#F951AC" stroke-width="1.92162"/>
<rect x="88.1992" y="156.488" width="12.9389" height="5.90498" fill="#FF63B7"/>
<rect x="114.077" y="156.488" width="12.9389" height="5.90498" fill="#FF63B7"/>
<rect x="139.955" y="156.488" width="12.9389" height="5.90498" fill="#FF63B7"/>
<rect x="165.833" y="156.488" width="12.9389" height="5.90498" fill="#FF63B7"/>
<rect x="191.711" y="156.488" width="12.9389" height="5.90498" fill="#FF63B7"/>
<rect x="217.583" y="156.488" width="12.9389" height="5.90498" fill="#FF63B7"/>
<rect x="243.468" y="156.488" width="12.9389" height="5.90498" fill="#FF63B7"/>
<rect x="269.339" y="156.488" width="12.9389" height="5.90498" fill="#FF63B7"/>
<rect x="295.224" y="156.488" width="12.9389" height="5.90498" fill="#FF63B7"/>
<rect x="321.102" y="156.488" width="12.9389" height="5.90498" fill="#FF63B7"/>
<rect x="346.974" y="156.488" width="12.9389" height="5.90498" fill="#FF63B7"/>
<rect x="372.857" y="156.488" width="12.9389" height="5.90498" fill="#FF63B7"/>
<rect x="75.2568" y="156.488" width="12.9389" height="5.90498" fill="#EDEDED"/>
<rect x="101.141" y="156.488" width="12.9389" height="5.90498" fill="#EDEDED"/>
<rect x="127.013" y="156.488" width="12.9389" height="5.90498" fill="#EDEDED"/>
<rect x="152.891" y="156.488" width="12.9389" height="5.90498" fill="#EDEDED"/>
<rect x="178.775" y="156.488" width="12.9389" height="5.90498" fill="#EDEDED"/>
<rect x="204.647" y="156.488" width="12.9389" height="5.90498" fill="#EDEDED"/>
<rect x="230.531" y="156.488" width="12.9389" height="5.90498" fill="#EDEDED"/>
<rect x="256.403" y="156.488" width="12.9389" height="5.90498" fill="#EDEDED"/>
<rect x="282.281" y="156.488" width="12.9389" height="5.90498" fill="#EDEDED"/>
<rect x="308.159" y="156.488" width="12.9389" height="5.90498" fill="#EDEDED"/>
<rect x="334.038" y="156.488" width="12.9389" height="5.90498" fill="#EDEDED"/>
<rect x="359.916" y="156.488" width="12.9389" height="5.90498" fill="#EDEDED"/>
<rect x="385.8" y="156.488" width="12.9389" height="5.90498" fill="#EDEDED"/>
<rect x="75.2634" y="150.584" width="12.9389" height="5.90498" fill="#FF63B7"/>
<rect x="101.141" y="150.584" width="12.9389" height="5.90498" fill="#FF63B7"/>
<rect x="127.02" y="150.584" width="12.9389" height="5.90498" fill="#FF63B7"/>
<rect x="152.897" y="150.584" width="12.9389" height="5.90498" fill="#FF63B7"/>
<rect x="178.775" y="150.584" width="12.9389" height="5.90498" fill="#FF63B7"/>
<rect x="204.654" y="150.584" width="12.9389" height="5.90498" fill="#FF63B7"/>
<rect x="230.525" y="150.584" width="12.9389" height="5.90498" fill="#FF63B7"/>
<rect x="256.41" y="150.584" width="12.9389" height="5.90498" fill="#FF63B7"/>
<rect x="282.282" y="150.584" width="12.9389" height="5.90498" fill="#FF63B7"/>
<rect x="308.166" y="150.584" width="12.9389" height="5.90498" fill="#FF63B7"/>
<rect x="334.044" y="150.584" width="12.9389" height="5.90498" fill="#FF63B7"/>
<rect x="359.916" y="150.584" width="12.9389" height="5.90498" fill="#FF63B7"/>
<rect x="385.801" y="150.584" width="12.9389" height="5.90498" fill="#FF63B7"/>
<rect x="88.1992" y="150.584" width="12.9389" height="5.90498" fill="#EDEDED"/>
<rect x="114.083" y="150.584" width="12.9389" height="5.90498" fill="#EDEDED"/>
<rect x="139.956" y="150.584" width="12.9389" height="5.90498" fill="#EDEDED"/>
<rect x="165.834" y="150.584" width="12.9389" height="5.90498" fill="#EDEDED"/>
<rect x="191.718" y="150.584" width="12.9389" height="5.90498" fill="#EDEDED"/>
<rect x="217.59" y="150.584" width="12.9389" height="5.90498" fill="#EDEDED"/>
<rect x="243.474" y="150.584" width="12.9389" height="5.90498" fill="#EDEDED"/>
<rect x="269.345" y="150.584" width="12.9389" height="5.90498" fill="#EDEDED"/>
<rect x="295.223" y="150.584" width="12.9389" height="5.90498" fill="#EDEDED"/>
<rect x="321.102" y="150.584" width="12.9389" height="5.90498" fill="#EDEDED"/>
<rect x="346.98" y="150.584" width="12.9389" height="5.90498" fill="#EDEDED"/>
<rect x="372.858" y="150.584" width="12.9389" height="5.90498" fill="#EDEDED"/>
<g opacity="0.2">
<rect x="46.7354" y="400.475" width="13.3951" height="13.3951" fill="#B5B5B5"/>
<rect x="46.7354" y="427.266" width="13.3951" height="13.3951" fill="#B5B5B5"/>
<rect x="73.5244" y="413.869" width="13.3951" height="13.3951" transform="rotate(90 73.5244 413.869)" fill="#B5B5B5"/>
<rect x="46.7354" y="413.869" width="13.3951" height="13.3951" transform="rotate(90 46.7354 413.869)" fill="#B5B5B5"/>
</g>
<path d="M423.191 433.613L427.534 425.576L427.555 428.516L436.694 428.494C438.327 428.316 439.758 427.631 440.795 426.343C437.486 433.326 436.533 438.267 429.667 438.27H427.555L427.534 441.536L423.191 433.613ZM412.731 438.341C407.845 436.808 405.565 430.598 403.33 426.222C404.355 427.183 406.272 428.558 407.385 428.558C409.52 428.564 411.656 428.568 413.791 428.572H420.26L420.239 438.313L420.219 438.341L412.731 438.341ZM402.978 423.678L406.1 417.107L403.055 415.381H412.18L416.592 423.645L413.6 421.797C412.641 423.888 411.681 425.978 410.722 428.068C409.617 428.048 408.513 428.028 407.409 428.009C405.255 427.491 403.757 425.742 402.978 423.678ZM433.473 427.969L429.44 420.301L437.588 415.211L441.532 423.361C441.651 425.312 438.598 428.026 436.704 428.005L433.473 427.969ZM409.62 410.028L413.783 403.592C417.821 402.041 420.16 405.39 421.636 407.501L417.714 415.268L409.62 410.028ZM425.394 413.493C424.556 411.457 423.438 409.127 422.039 407.102C420.786 405.289 419.273 403.707 418.126 403L428.656 402.979C430.547 403.154 431.465 404.291 432.468 405.847L433.982 408.594L436.322 407.054L431.918 415.147L422.421 415.168L425.394 413.493Z" fill="#D9D9D9"/>
</g>
<defs>
<filter id="filter0_d_172_1124" x="-3.20283" y="6.40625" width="480.405" height="480.406" filterUnits="userSpaceOnUse" color-interpolation-filters="sRGB">
<feFlood flood-opacity="0" result="BackgroundImageFix"/>
<feColorMatrix in="SourceAlpha" type="matrix" values="0 0 0 0 0 0 0 0 0 0 0 0 0 0 0 0 0 0 127 0" result="hardAlpha"/>
<feOffset dy="9.60811"/>
<feGaussianBlur stdDeviation="4.80405"/>
<feComposite in2="hardAlpha" operator="out"/>
<feColorMatrix type="matrix" values="0 0 0 0 1 0 0 0 0 1 0 0 0 0 1 0 0 0 0.39 0"/>
<feBlend mode="normal" in2="BackgroundImageFix" result="effect1_dropShadow_172_1124"/>
<feBlend mode="normal" in="SourceGraphic" in2="effect1_dropShadow_172_1124" result="shape"/>
</filter>
<filter id="filter1_i_172_1124" x="12.7754" y="12.7754" width="451.653" height="451.652" filterUnits="userSpaceOnUse" color-interpolation-filters="sRGB">
<feFlood flood-opacity="0" result="BackgroundImageFix"/>
<feBlend mode="normal" in="SourceGraphic" in2="BackgroundImageFix" result="shape"/>
<feColorMatrix in="SourceAlpha" type="matrix" values="0 0 0 0 0 0 0 0 0 0 0 0 0 0 0 0 0 0 127 0" result="hardAlpha"/>
<feOffset dx="3.2027" dy="3.2027"/>
<feGaussianBlur stdDeviation="4.80405"/>
<feComposite in2="hardAlpha" operator="arithmetic" k2="-1" k3="1"/>
<feColorMatrix type="matrix" values="0 0 0 0 0 0 0 0 0 0 0 0 0 0 0 0 0 0 0.1 0"/>
<feBlend mode="normal" in2="shape" result="effect1_innerShadow_172_1124"/>
</filter>
<filter id="filter2_d_172_1124" x="83.0442" y="9.73242" width="306.014" height="133.007" filterUnits="userSpaceOnUse" color-interpolation-filters="sRGB">
<feFlood flood-opacity="0" result="BackgroundImageFix"/>
<feColorMatrix in="SourceAlpha" type="matrix" values="0 0 0 0 0 0 0 0 0 0 0 0 0 0 0 0 0 0 127 0" result="hardAlpha"/>
<feOffset dy="6.40541"/>
<feComposite in2="hardAlpha" operator="out"/>
<feColorMatrix type="matrix" values="0 0 0 0 0.450879 0 0 0 0 0.450879 0 0 0 0 0.450879 0 0 0 1 0"/>
<feBlend mode="normal" in2="BackgroundImageFix" result="effect1_dropShadow_172_1124"/>
<feBlend mode="normal" in="SourceGraphic" in2="effect1_dropShadow_172_1124" result="shape"/>
</filter>
<filter id="filter3_i_172_1124" x="32.4136" y="47.0195" width="28.2764" height="28.2769" filterUnits="userSpaceOnUse" color-interpolation-filters="sRGB">
<feFlood flood-opacity="0" result="BackgroundImageFix"/>
<feBlend mode="normal" in="SourceGraphic" in2="BackgroundImageFix" result="shape"/>
<feColorMatrix in="SourceAlpha" type="matrix" values="0 0 0 0 0 0 0 0 0 0 0 0 0 0 0 0 0 0 127 0" result="hardAlpha"/>
<feOffset dx="3.2027" dy="3.2027"/>
<feGaussianBlur stdDeviation="3.2027"/>
<feComposite in2="hardAlpha" operator="arithmetic" k2="-1" k3="1"/>
<feColorMatrix type="matrix" values="0 0 0 0 1 0 0 0 0 1 0 0 0 0 1 0 0 0 0.66 0"/>
<feBlend mode="normal" in2="shape" result="effect1_innerShadow_172_1124"/>
</filter>
<filter id="filter4_i_172_1124" x="416.738" y="47.0195" width="28.2764" height="28.2769" filterUnits="userSpaceOnUse" color-interpolation-filters="sRGB">
<feFlood flood-opacity="0" result="BackgroundImageFix"/>
<feBlend mode="normal" in="SourceGraphic" in2="BackgroundImageFix" result="shape"/>
<feColorMatrix in="SourceAlpha" type="matrix" values="0 0 0 0 0 0 0 0 0 0 0 0 0 0 0 0 0 0 127 0" result="hardAlpha"/>
<feOffset dx="3.2027" dy="3.2027"/>
<feGaussianBlur stdDeviation="3.2027"/>
<feComposite in2="hardAlpha" operator="arithmetic" k2="-1" k3="1"/>
<feColorMatrix type="matrix" values="0 0 0 0 1 0 0 0 0 1 0 0 0 0 1 0 0 0 0.66 0"/>
<feBlend mode="normal" in2="shape" result="effect1_innerShadow_172_1124"/>
</filter>
<linearGradient id="paint0_linear_172_1124" x1="386.084" y1="48.1299" x2="134.058" y2="527.003" gradientUnits="userSpaceOnUse">
<stop stop-color="#454545"/>
<stop offset="0.240429" stop-color="#7B7B7B"/>
<stop offset="0.609141" stop-color="#F1F1F1"/>
<stop offset="0.738932" stop-color="#C6C6C6"/>
<stop offset="0.870642" stop-color="#9E9E9E"/>
</linearGradient>
<clipPath id="clip0_172_1124">
<rect width="474" height="474" rx="64.054" fill="white"/>
</clipPath>
</defs>
</svg>
