<svg width="474" height="474" viewBox="0 0 474 474" fill="none" xmlns="http://www.w3.org/2000/svg">
<rect width="474" height="474" rx="64" fill="#18A5F6"/>
<circle cx="237" cy="237" r="134.109" stroke="#FBA8BC" stroke-width="185"/>
<path d="M240.023 45.8331C240.023 38.18 233.861 31.892 226.22 32.3243C120.461 38.3078 32.0129 129.916 32.0129 237L32.0168 238.325C32.727 350.485 123.515 441.272 235.674 441.982L237 441.987C349.769 441.987 441.27 350.926 441.983 238.325L441.988 237C441.988 202.463 433.447 169.921 418.362 141.372C415.516 135.987 408.709 134.315 403.496 137.464L301.531 199.07C296.379 202.182 294.789 208.836 296.908 214.469C299.545 221.477 300.988 229.07 300.988 237C300.987 272.339 272.339 300.987 237 300.987C201.661 300.987 173.013 272.339 173.013 237C173.013 205.945 196.055 179.724 225.423 174.12C233.269 172.623 240.023 166.404 240.023 158.416V45.8331Z" fill="#FF6127"/>
</svg>
